<?xml version="1.0" encoding="utf-8"?>
<!-- Generator: Adobe Illustrator 21.0.0, SVG Export Plug-In . SVG Version: 6.00 Build 0)  -->
<svg version="1.1" id="Layer_1" xmlns="http://www.w3.org/2000/svg" xmlns:xlink="http://www.w3.org/1999/xlink" x="0px" y="0px"
	 viewBox="0 0 215 26" style="enable-background:new 0 0 215 26;" xml:space="preserve">
<style type="text/css">
	.st0{fill:#211842;}
</style>
<g>
	<path class="st0" d="M0.5,15v-0.3c0-2.4,1-4,3.1-4.7C2,9.4,1.1,8.1,1.1,6.1c0-1.5,0.5-2.6,1.5-3.3c1-0.7,2.3-1.1,4-1.1
		c1.7,0,3,0.4,4,1.1c1,0.7,1.5,1.8,1.5,3.3c0,2-0.8,3.3-2.5,3.9c2,0.7,3.1,2.3,3.1,4.7V15c0,1.8-0.6,3-1.7,3.9s-2.6,1.2-4.4,1.2
		c-1.9,0-3.3-0.4-4.5-1.2S0.5,16.7,0.5,15z M4.4,14.5c0,1.7,0.8,2.6,2.2,2.6c1.5,0,2.2-0.9,2.2-2.6V14c0-1.6-0.7-2.4-2.2-2.4
		c-1.5,0-2.2,0.8-2.2,2.4V14.5z M4.9,6.6c0,1.3,0.6,1.9,1.8,1.9c1.2,0,1.8-0.6,1.8-1.9c0-1.3-0.6-2-1.8-2C5.5,4.7,4.9,5.3,4.9,6.6z"
		/>
	<path class="st0" d="M14.4,14.2V7.6c0-2,0.6-3.5,1.7-4.5c1.1-1,2.6-1.4,4.4-1.4c1.9,0,3.3,0.5,4.4,1.4c1.1,0.9,1.7,2.4,1.7,4.5v6.6
		c0,2-0.6,3.5-1.7,4.5c-1.1,1-2.6,1.4-4.4,1.4c-1.8,0-3.3-0.5-4.4-1.4C15,17.7,14.4,16.2,14.4,14.2z M18.3,14.2
		c0,1.7,0.7,2.5,2.2,2.5c1.5,0,2.2-0.8,2.2-2.5V7.6c0-1.7-0.7-2.5-2.2-2.5c-1.4,0-2.2,0.8-2.2,2.5V14.2z M19.6,11.8
		c-0.2-0.2-0.3-0.5-0.3-0.9s0.1-0.7,0.3-0.9c0.2-0.2,0.5-0.3,0.9-0.3c0.4,0,0.7,0.1,0.9,0.3c0.2,0.2,0.3,0.5,0.3,0.9
		s-0.1,0.7-0.3,0.9s-0.5,0.3-0.9,0.3C20.1,12.2,19.8,12,19.6,11.8z"/>
	<path class="st0" d="M27.8,19.8c0-0.2,0-0.3,0.1-0.5l8.8-18c0.2-0.4,0.5-0.6,1-0.6c0.4,0,0.7,0.1,1,0.4c0.3,0.2,0.5,0.6,0.5,1
		c0,0.2,0,0.3-0.1,0.5l-8.8,18c-0.2,0.4-0.6,0.6-1.1,0.6c-0.4,0-0.7-0.1-1-0.4C27.9,20.4,27.8,20.1,27.8,19.8z"/>
	<path class="st0" d="M40.2,18.7v-2.4c0-0.7,0.3-1.4,0.8-2.2s1.2-1.4,1.9-1.9l2.3-1.7c0.8-0.6,1.5-1.2,2-1.8
		c0.5-0.6,0.8-1.2,0.8-1.8c0-0.5-0.2-0.9-0.5-1.3c-0.3-0.4-0.8-0.5-1.4-0.5c-0.6,0-1,0.2-1.4,0.5c-0.4,0.3-0.5,0.8-0.5,1.5
		c0,0.4-0.2,0.7-0.6,1s-0.9,0.4-1.5,0.4c-1.2,0-1.7-0.7-1.7-2c0-1.5,0.6-2.6,1.7-3.5s2.4-1.3,3.9-1.3c1.6,0,2.9,0.5,4.1,1.4
		S52,5.2,52,6.7c0,1-0.3,2-0.8,2.9c-0.5,0.9-1.2,1.6-1.9,2.2c-0.8,0.6-1.5,1.2-2.3,1.7c-0.8,0.5-1.4,1-2,1.5
		c-0.5,0.5-0.8,0.9-0.8,1.3v0.2h6.6c0.3,0,0.6,0.2,0.8,0.5c0.2,0.3,0.4,0.7,0.4,1.2c0,0.4-0.1,0.8-0.4,1.2c-0.2,0.4-0.5,0.5-0.8,0.5
		h-8.9c-0.4,0-0.8-0.1-1.1-0.4C40.4,19.4,40.2,19.1,40.2,18.7z"/>
	<path class="st0" d="M53.5,14.2V7.6c0-2,0.6-3.5,1.7-4.5c1.1-1,2.6-1.4,4.4-1.4c1.9,0,3.3,0.5,4.4,1.4c1.1,0.9,1.7,2.4,1.7,4.5v6.6
		c0,2-0.6,3.5-1.7,4.5c-1.1,1-2.6,1.4-4.4,1.4c-1.8,0-3.3-0.5-4.4-1.4C54.1,17.7,53.5,16.2,53.5,14.2z M57.4,14.2
		c0,1.7,0.7,2.5,2.2,2.5c1.5,0,2.2-0.8,2.2-2.5V7.6c0-1.7-0.7-2.5-2.2-2.5c-1.4,0-2.2,0.8-2.2,2.5V14.2z M58.7,11.8
		c-0.2-0.2-0.3-0.5-0.3-0.9s0.1-0.7,0.3-0.9c0.2-0.2,0.5-0.3,0.9-0.3c0.4,0,0.7,0.1,0.9,0.3c0.2,0.2,0.3,0.5,0.3,0.9
		s-0.1,0.7-0.3,0.9s-0.5,0.3-0.9,0.3C59.2,12.2,58.9,12,58.7,11.8z"/>
	<path class="st0" d="M73.1,18.8V2.8c0-0.3,0.2-0.6,0.5-0.8c0.3-0.2,0.7-0.4,1.2-0.4h4.4c1.9,0,3.4,0.5,4.5,1.4
		c1.1,0.9,1.7,2.4,1.7,4.5V14c0,2-0.6,3.5-1.7,4.5c-1.1,1-2.6,1.4-4.5,1.4h-4.4c-0.5,0-0.9-0.1-1.2-0.3
		C73.3,19.4,73.1,19.1,73.1,18.8z M77,16.5h2.2c1.5,0,2.2-0.8,2.2-2.5V7.6c0-1.7-0.8-2.5-2.2-2.5H77V16.5z"/>
	<path class="st0" d="M87.2,14.9v-1.8c0-1.4,0.6-2.6,1.7-3.7c1.1-1,2.5-1.5,4.1-1.5c1.5,0,2.8,0.4,3.8,1.3c1.1,0.9,1.6,2,1.6,3.4
		c0,0.5-0.1,1-0.2,1.3c-0.1,0.3-0.3,0.6-0.6,0.7s-0.5,0.2-0.7,0.3c-0.2,0-0.5,0.1-0.9,0.1h-4.8v0.2c0,0.6,0.2,1.1,0.7,1.5
		c0.5,0.4,1.1,0.6,1.8,0.6c0.6,0,1.2-0.2,1.8-0.5s1.1-0.5,1.3-0.5c0.4,0,0.8,0.2,1,0.6s0.4,0.8,0.4,1.1c0,0.5-0.4,1-1.3,1.5
		s-2,0.7-3.3,0.7c-1.9,0-3.4-0.5-4.6-1.5C87.8,17.8,87.2,16.5,87.2,14.9z M91.1,12.8h3.1c0.3,0,0.5-0.2,0.5-0.5c0-0.4-0.2-0.8-0.5-1
		c-0.4-0.2-0.8-0.4-1.3-0.4c-0.5,0-0.9,0.1-1.3,0.4c-0.4,0.2-0.5,0.6-0.5,1V12.8z"/>
	<path class="st0" d="M99.5,17.9c0-0.4,0.1-0.7,0.4-1.1s0.5-0.6,0.9-0.6c0.2,0,0.4,0.1,0.7,0.2c0.3,0.2,0.7,0.3,1.1,0.5
		c0.4,0.2,1,0.3,1.5,0.3c1,0,1.5-0.3,1.5-0.8c0-0.3-0.2-0.5-0.6-0.7s-0.9-0.3-1.5-0.5c-0.6-0.1-1.1-0.3-1.7-0.5s-1.1-0.6-1.5-1
		c-0.4-0.5-0.6-1.1-0.6-1.9c0-1.1,0.4-2,1.1-2.8c0.8-0.8,1.9-1.2,3.6-1.2c1.1,0,2.1,0.2,3,0.5s1.3,0.8,1.3,1.3
		c0,0.3-0.1,0.7-0.4,1.2c-0.3,0.4-0.6,0.7-1,0.7c-0.2,0-0.5-0.1-1.1-0.3c-0.6-0.2-1.2-0.3-1.7-0.3c-0.5,0-0.8,0.1-1.1,0.2
		c-0.2,0.2-0.4,0.3-0.4,0.5c0,0.2,0.2,0.4,0.6,0.6s0.9,0.3,1.5,0.4c0.6,0.1,1.2,0.3,1.7,0.5c0.6,0.2,1.1,0.6,1.5,1.1
		c0.4,0.5,0.6,1.2,0.6,2c0,1.2-0.4,2.2-1.3,2.9c-0.8,0.7-2,1-3.6,1c-1.3,0-2.4-0.2-3.4-0.7S99.5,18.5,99.5,17.9z"/>
	<path class="st0" d="M111.3,5.2c-0.4-0.3-0.6-0.7-0.6-1.2c0-0.5,0.2-0.9,0.6-1.2c0.4-0.3,0.9-0.5,1.5-0.5c0.5,0,1,0.2,1.4,0.5
		c0.4,0.3,0.6,0.7,0.6,1.2c0,0.5-0.2,0.9-0.6,1.2c-0.4,0.3-0.9,0.5-1.4,0.5C112.1,5.7,111.7,5.6,111.3,5.2z M110.8,18.7V9.2
		c0-0.4,0.2-0.6,0.5-0.9c0.4-0.2,0.8-0.3,1.4-0.3c0.5,0,1,0.1,1.4,0.3c0.4,0.2,0.6,0.5,0.6,0.9v9.5c0,0.3-0.2,0.6-0.6,0.8
		s-0.8,0.4-1.4,0.4c-0.5,0-1-0.1-1.4-0.4S110.8,19.1,110.8,18.7z"/>
	<path class="st0" d="M116.1,21.7c0-1.1,0.6-2,1.7-2.6c-0.6-0.4-0.9-0.9-0.9-1.5c0-0.7,0.4-1.4,1.3-2c-1.1-0.8-1.6-1.9-1.6-3.2V12
		c0-1.2,0.5-2.2,1.4-3c0.9-0.8,2.2-1.1,3.7-1.1c1.1,0,2,0.2,2.8,0.6c0.3-0.7,0.5-1.1,0.8-1.4c0.2-0.2,0.4-0.4,0.7-0.4
		c0.4,0,0.8,0.1,1.1,0.4c0.3,0.3,0.4,0.5,0.4,0.8c0,0.3-0.1,0.5-0.4,0.8L126.4,9c-0.2,0.2-0.4,0.4-0.6,0.5c0.6,0.7,1,1.5,1,2.5v0.4
		c0,1.2-0.5,2.2-1.5,3c-1,0.8-2.2,1.2-3.7,1.2c-0.5,0-1,0-1.5-0.2c-0.1,0.1-0.1,0.2-0.1,0.3c0,0.2,0.3,0.4,0.8,0.5
		c0.5,0.1,1.1,0.2,1.8,0.3c0.7,0.1,1.5,0.2,2.2,0.4c0.7,0.2,1.3,0.6,1.9,1.1c0.5,0.5,0.8,1.3,0.8,2.1c0,1.4-0.6,2.4-1.7,3.1
		c-1.1,0.7-2.4,1-4,1s-2.9-0.3-4-1C116.6,23.7,116.1,22.9,116.1,21.7z M119.7,21.3c0,0.5,0.2,0.9,0.6,1.1s0.9,0.4,1.4,0.4
		s1-0.1,1.4-0.4s0.6-0.6,0.6-1.1c0-0.3-0.1-0.5-0.2-0.7c-0.1-0.2-0.4-0.3-0.7-0.4s-0.6-0.2-0.9-0.2c-0.3-0.1-0.7-0.1-1.1-0.2
		C120,20.2,119.7,20.7,119.7,21.3z M120.2,12.4c0,0.6,0.1,1,0.4,1.4s0.6,0.5,1.1,0.5c0.4,0,0.8-0.2,1-0.5s0.4-0.8,0.4-1.4V12
		c0-0.5-0.1-1-0.4-1.3s-0.6-0.5-1-0.5c-0.4,0-0.8,0.2-1,0.5s-0.4,0.8-0.4,1.3V12.4z"/>
	<path class="st0" d="M128.8,18.7V9.2c0-0.4,0.2-0.6,0.5-0.9c0.4-0.2,0.8-0.3,1.4-0.3c0.5,0,0.9,0.1,1.2,0.3
		c0.3,0.2,0.5,0.5,0.5,0.9v0.6c0.3-0.5,0.7-1,1.3-1.4c0.6-0.4,1.3-0.6,2.1-0.6c1.2,0,2.1,0.5,3,1.5c0.8,1,1.3,2.3,1.3,3.7v5.6
		c0,0.4-0.2,0.7-0.6,0.9c-0.4,0.2-0.8,0.3-1.4,0.3c-0.5,0-0.9-0.1-1.3-0.3c-0.4-0.2-0.6-0.5-0.6-0.9v-5.6c0-0.5-0.2-0.9-0.5-1.3
		c-0.4-0.4-0.8-0.6-1.3-0.6c-0.4,0-0.8,0.2-1.2,0.5c-0.3,0.3-0.5,0.8-0.5,1.4v5.6c0,0.3-0.2,0.6-0.6,0.8s-0.8,0.4-1.4,0.4
		c-0.5,0-1-0.1-1.4-0.4S128.8,19.1,128.8,18.7z"/>
	<path class="st0" d="M146.5,16.9c0-0.5,0.2-0.9,0.5-1.4c0.3-0.5,0.7-0.7,1.2-0.7c0.2,0,0.5,0.1,0.8,0.3c0.3,0.2,0.6,0.4,0.8,0.7
		s0.6,0.5,1.1,0.7c0.5,0.2,1,0.3,1.5,0.3c0.7,0,1.2-0.1,1.7-0.4s0.7-0.7,0.7-1.2s-0.3-1-0.8-1.5c-0.5-0.4-1.2-0.8-2-1.1
		c-0.8-0.3-1.6-0.7-2.3-1.1c-0.8-0.4-1.4-1-2-1.8S147,7.9,147,6.8c0-1.8,0.6-3.1,1.9-4s2.8-1.3,4.5-1.3c0.4,0,0.9,0,1.4,0.1
		s1,0.2,1.6,0.3c0.6,0.1,1.1,0.4,1.5,0.7s0.6,0.7,0.6,1.2c0,0.4-0.1,0.9-0.4,1.4c-0.3,0.5-0.7,0.7-1.1,0.7c-0.2,0-0.6-0.2-1.3-0.5
		c-0.6-0.3-1.4-0.5-2.1-0.5c-0.8,0-1.5,0.1-1.9,0.4c-0.4,0.3-0.6,0.6-0.6,1.1c0,0.4,0.2,0.7,0.6,1.1s0.9,0.6,1.5,0.8
		c0.6,0.2,1.2,0.5,1.9,0.9s1.3,0.8,1.9,1.2c0.6,0.4,1.1,1,1.5,1.8s0.6,1.6,0.6,2.6c0,1.7-0.6,3.1-1.7,4c-1.2,1-2.7,1.4-4.5,1.4
		c-1.6,0-3-0.3-4.2-1C147.1,18.5,146.5,17.8,146.5,16.9z"/>
	<path class="st0" d="M160.1,14.9v-1.7c0-1.6,0.5-2.9,1.4-3.8c0.9-1,2.3-1.5,4.2-1.5c1.2,0,2.2,0.2,3,0.6c0.8,0.4,1.2,0.9,1.2,1.5
		c0,0.4-0.1,0.8-0.4,1.3c-0.3,0.4-0.6,0.6-1.1,0.6c-0.1,0-0.4-0.1-0.9-0.3c-0.5-0.2-1-0.3-1.5-0.3c-1.4,0-2.1,0.6-2.1,1.9v1.7
		c0,1.3,0.7,1.9,2.1,1.9c0.5,0,1-0.1,1.4-0.3s0.8-0.3,0.9-0.3c0.5,0,0.9,0.2,1.2,0.6c0.3,0.4,0.5,0.8,0.5,1.2c0,0.6-0.4,1.1-1.3,1.5
		c-0.8,0.4-1.9,0.7-3,0.7c-1.9,0-3.3-0.5-4.3-1.5C160.6,17.8,160.1,16.5,160.1,14.9z"/>
	<path class="st0" d="M171.6,18.7V2.4c0-0.3,0.2-0.6,0.5-0.8c0.4-0.2,0.8-0.3,1.4-0.3c0.5,0,1,0.1,1.4,0.3c0.4,0.2,0.6,0.5,0.6,0.8
		v7.4c0.2-0.5,0.6-1,1.2-1.4c0.5-0.4,1.2-0.6,1.9-0.6c1.2,0,2.1,0.5,3,1.5s1.3,2.3,1.3,3.7v5.6c0,0.4-0.2,0.7-0.6,0.9
		c-0.4,0.2-0.8,0.3-1.4,0.3c-0.5,0-0.9-0.1-1.3-0.3c-0.4-0.2-0.6-0.5-0.6-0.9v-5.6c0-0.5-0.2-0.9-0.5-1.3c-0.4-0.4-0.8-0.6-1.3-0.6
		c-0.4,0-0.8,0.2-1.2,0.5c-0.3,0.3-0.5,0.8-0.5,1.4v5.6c0,0.3-0.2,0.6-0.6,0.8s-0.8,0.4-1.4,0.4c-0.5,0-1-0.1-1.4-0.4
		C171.8,19.3,171.6,19.1,171.6,18.7z"/>
	<path class="st0" d="M184.5,14.9v-1.8c0-1.4,0.6-2.6,1.7-3.7c1.1-1,2.5-1.6,4-1.6c1.5,0,2.9,0.5,4,1.5c1.1,1,1.7,2.3,1.7,3.7v1.8
		c0,1.4-0.6,2.6-1.7,3.7c-1.1,1.1-2.5,1.6-4,1.6s-2.8-0.5-4-1.6C185.1,17.5,184.5,16.3,184.5,14.9z M188.4,14.9
		c0,0.5,0.2,0.9,0.5,1.3c0.3,0.4,0.8,0.6,1.3,0.6s0.9-0.2,1.3-0.6c0.4-0.4,0.5-0.8,0.5-1.3v-1.7c0-0.5-0.2-0.9-0.5-1.3
		c-0.4-0.4-0.8-0.6-1.3-0.6s-0.9,0.2-1.3,0.6c-0.4,0.4-0.5,0.8-0.5,1.3V14.9z"/>
	<path class="st0" d="M197.2,14.9v-1.8c0-1.4,0.6-2.6,1.7-3.7c1.1-1,2.5-1.6,4-1.6c1.5,0,2.9,0.5,4,1.5c1.1,1,1.7,2.3,1.7,3.7v1.8
		c0,1.4-0.6,2.6-1.7,3.7c-1.1,1.1-2.5,1.6-4,1.6s-2.8-0.5-4-1.6C197.8,17.5,197.2,16.3,197.2,14.9z M201.1,14.9
		c0,0.5,0.2,0.9,0.5,1.3c0.3,0.4,0.8,0.6,1.3,0.6s0.9-0.2,1.3-0.6c0.4-0.4,0.5-0.8,0.5-1.3v-1.7c0-0.5-0.2-0.9-0.5-1.3
		c-0.4-0.4-0.8-0.6-1.3-0.6s-0.9,0.2-1.3,0.6c-0.4,0.4-0.5,0.8-0.5,1.3V14.9z"/>
	<path class="st0" d="M210.6,18.7V2.4c0-0.3,0.2-0.6,0.5-0.8s0.8-0.3,1.4-0.3c0.5,0,1,0.1,1.4,0.3s0.6,0.5,0.6,0.8v16.3
		c0,0.3-0.2,0.6-0.6,0.8c-0.4,0.2-0.8,0.4-1.4,0.4c-0.6,0-1-0.1-1.4-0.4C210.8,19.3,210.6,19.1,210.6,18.7z"/>
</g>
</svg>
