<?xml version="1.0" encoding="utf-8"?>
<!-- Generator: Adobe Illustrator 21.0.0, SVG Export Plug-In . SVG Version: 6.00 Build 0)  -->
<svg version="1.1" id="Layer_1" xmlns="http://www.w3.org/2000/svg" xmlns:xlink="http://www.w3.org/1999/xlink" x="0px" y="0px"
	 viewBox="0 0 512 512" style="enable-background:new 0 0 512 512;" xml:space="preserve">
<style type="text/css">
	.st0{fill:#845AF7;}
</style>
<title>logo-icon copy 2</title>
<desc>Created with Sketch.</desc>
<g>
	<path class="st0" d="M498.1,403.8c-0.2-1.2-0.6-2.4-1-3.6c-0.1-0.2-0.1-0.3-0.2-0.5c-0.5-1.1-1-2.2-1.7-3.3
		c-0.1-0.2-0.2-0.4-0.4-0.6c-0.7-1-1.4-2-2.3-2.9c-0.2-0.2-0.3-0.3-0.4-0.5c-0.9-0.9-2-1.8-3-2.6c-0.1-0.1-0.1-0.1-0.2-0.2
		l-326.2-225l61.4-42.3c6-4.1,9.6-11,9.6-18.3V24.2C233.7,12,223.8,2,211.5,2H35.7C23.4,2,13.5,12,13.5,24.2v79.6v0v0.2
		c0,1.2,0.1,2.4,0.3,3.6c0,0.3,0.1,0.5,0.1,0.8c0.3,1.2,0.6,2.4,1,3.6c0,0.1,0.1,0.2,0.2,0.4c0.4,1.1,1,2.1,1.6,3.1
		c0.1,0.2,0.3,0.5,0.4,0.7c0.7,1,1.4,2,2.3,2.9c0.2,0.2,0.4,0.4,0.6,0.6c0.9,0.9,1.9,1.8,3.1,2.6l326.2,225l-61.4,42.3
		c-6,4.2-9.6,11-9.6,18.3v79.8c0,12.3,9.9,22.2,22.2,22.2h175.8c12.3,0,22.2-9.9,22.2-22.2v-79.5v-0.2V408c0-1.3-0.1-2.5-0.3-3.7
		C498.2,404.1,498.2,403.9,498.1,403.8z M57.9,92.4V46.5h131.3v45.9l-65.7,45.3L57.9,92.4z M454.1,465.5H322.7v-45.9l65.7-45.3
		l65.7,45.3V465.5z"/>
	<path class="st0" d="M211.5,288.2c-12.3,0-22.2,9.9-22.2,22.2v155.1H57.9V237l17.7-12.2c10.1-7,12.6-20.8,5.7-30.9
		c-7-10.1-20.8-12.6-30.9-5.7L23.1,207c-6,4.2-9.6,11-9.6,18.3v262.5c0,12.3,9.9,22.2,22.2,22.2h175.8c12.3,0,22.2-9.9,22.2-22.2
		V310.4C233.7,298.1,223.8,288.2,211.5,288.2z"/>
	<path class="st0" d="M476.3,2H300.5c-12.3,0-22.2,10-22.2,22.2v177.4c0,12.3,9.9,22.2,22.2,22.2c12.3,0,22.2-9.9,22.2-22.2V46.5
		h131.3V275l-17.7,12.2c-10.1,7-12.6,20.8-5.7,30.9c4.3,6.3,11.3,9.6,18.3,9.6c4.4,0,8.7-1.3,12.6-3.9l27.3-18.8
		c6-4.2,9.6-11,9.6-18.3V24.2C498.5,12,488.6,2,476.3,2z"/>
</g>
</svg>
