<?xml version="1.0" encoding="utf-8"?>
<!-- Generator: Adobe Illustrator 21.0.0, SVG Export Plug-In . SVG Version: 6.00 Build 0)  -->
<svg version="1.1" id="Layer_1" xmlns="http://www.w3.org/2000/svg" xmlns:xlink="http://www.w3.org/1999/xlink" x="0px" y="0px"
	 viewBox="0 0 512 512" style="enable-background:new 0 0 512 512;" xml:space="preserve">
<style type="text/css">
	.st0{fill:#F35025;}
</style>
<g>
	<path class="st0" d="M500.5,404.9c-0.2-1.3-0.6-2.5-1-3.6c-0.1-0.2-0.1-0.4-0.2-0.5c-0.5-1.1-1-2.2-1.7-3.3
		c-0.1-0.2-0.2-0.4-0.4-0.6c-0.7-1-1.5-2-2.3-2.9c-0.2-0.2-0.3-0.3-0.5-0.5c-0.9-1-2-1.8-3.1-2.6c-0.1-0.1-0.1-0.1-0.2-0.2
		L162.4,164l61.9-42.7c6.1-4.2,9.7-11.1,9.7-18.4V22.4C234,10,224,0,211.6,0H34.4C22,0,12,10,12,22.4v80.2v0v0.2
		c0,1.2,0.1,2.4,0.3,3.6c0,0.3,0.1,0.5,0.2,0.8c0.3,1.2,0.6,2.5,1,3.6c0,0.1,0.1,0.2,0.2,0.4c0.4,1.1,1,2.1,1.6,3.1
		c0.1,0.2,0.3,0.5,0.4,0.7c0.7,1,1.5,2,2.3,2.9c0.2,0.2,0.4,0.4,0.6,0.6c0.9,0.9,2,1.8,3.1,2.6L350.4,348l-61.9,42.7
		c-6.1,4.2-9.7,11.1-9.7,18.4v80.4c0,12.4,10,22.4,22.4,22.4h177.2c12.4,0,22.4-10,22.4-22.4v-80.1v-0.2v-0.1c0-1.3-0.1-2.5-0.3-3.7
		C500.5,405.3,500.5,405.1,500.5,404.9z M56.8,91.1V44.8h132.4v46.3L123,136.7L56.8,91.1z M456.1,467.2H323.7v-46.3l66.2-45.7
		l66.2,45.6V467.2z"/>
	<path class="st0" d="M211.6,288.4c-12.4,0-22.4,10-22.4,22.4v156.4H56.8V236.8l17.8-12.3c10.2-7,12.7-21,5.7-31.2
		c-7-10.2-21-12.7-31.2-5.7l-27.5,19c-6.1,4.2-9.7,11.1-9.7,18.4v264.5C12,502,22,512,34.4,512h177.2c12.4,0,22.4-10,22.4-22.4
		V310.8C234,298.4,224,288.4,211.6,288.4z"/>
	<path class="st0" d="M478.5,0H301.3c-12.4,0-22.4,10-22.4,22.4v178.8c0,12.4,10,22.4,22.4,22.4c12.4,0,22.4-10,22.4-22.4V44.8
		h132.4v230.4l-17.8,12.3c-10.2,7-12.7,21-5.7,31.2c4.3,6.3,11.3,9.7,18.5,9.7c4.4,0,8.8-1.3,12.7-4l27.5-19
		c6.1-4.2,9.7-11.1,9.7-18.4V22.4C500.9,10,490.8,0,478.5,0z"/>
</g>
</svg>
