<svg xmlns="http://www.w3.org/2000/svg" viewBox="0 0 212.27 212.68"><defs><style>.cls-1{fill:#fff;}.cls-2{fill:#414042;}</style></defs><title>Asset 102</title><g id="Layer_2" data-name="Layer 2"><g id="Layer_1-2" data-name="Layer 1"><rect class="cls-1" width="212.27" height="212.68"/><path class="cls-2" d="M86.81,71.71c0-11.59.31-16.85,13.3-16.85,13.91,0,27.52,7.88,27.52,23.19,0,17.78-17.16,25.66-32.78,24.58h-8Zm11,36,31.69,55.19h25.66v-5.1c-12.52.46-13.91-4.64-19.63-14.53l-20.72-37c14.84-1.86,29.06-12.52,29.06-28.29,0-22.11-23.19-28.29-41.28-28.29H57.12v5.1c15.15,0,14.38,9,14.38,21.49v60.29c0,17.16-2.16,21.18-14.38,21.18v5.1h44.06v-5.1c-12.21,0-14.38-4-14.38-21.18V107.73Z"/></g></g></svg>