<svg xmlns="http://www.w3.org/2000/svg" viewBox="0 0 212.27 212.68"><defs><style>.cls-1{fill:#fff;}.cls-2{fill:#414042;}</style></defs><title>Asset 104</title><g id="Layer_2" data-name="Layer 2"><g id="Layer_1-2" data-name="Layer 1"><rect class="cls-1" width="212.27" height="212.68"/><path class="cls-2" d="M118.66,68.56a14.14,14.14,0,0,1,6.49,5.25,14.29,14.29,0,0,1,2.34,8.11q0,5.89-2.91,9.25a15.93,15.93,0,0,1-8.42,4.76,56.24,56.24,0,0,1-13.59,1.4H82.51V66.9h20.68q11.55,0,15.48,1.66M100.25,115a21.34,21.34,0,0,1,7.74,5.89,82.32,82.32,0,0,1,8.64,12.53l9,14.95q3.17,5.28,5,8a17,17,0,0,0,4.42,4.49,10.89,10.89,0,0,0,6.34,1.77,12,12,0,0,0,5.59-1.24,9.79,9.79,0,0,0,3.81-3.4,7.9,7.9,0,0,0,1.4-4.34q0-2.11-2.38-7.74a97.82,97.82,0,0,0-6.64-12.61,95,95,0,0,0-9.7-13.17,41,41,0,0,0-11.4-9.36q14.19-3.09,21.17-10.49t7-19.78A31.61,31.61,0,0,0,148.14,69a27.48,27.48,0,0,0-6.08-9.47,28,28,0,0,0-9.21-6.27,32.46,32.46,0,0,0-9.66-2.6,111,111,0,0,0-12.91-.64H73.82q-7.25,0-10.49,3.25T60.09,63.8V149q0,6.72,2.94,10.19a10.29,10.29,0,0,0,8.3,3.47,10.53,10.53,0,0,0,8.08-3.32Q82.5,156,82.51,149V113.4h7.85a26.6,26.6,0,0,1,9.89,1.59"/></g></g></svg>