<svg xmlns="http://www.w3.org/2000/svg" viewBox="0 0 212.27 212.68"><defs><style>.cls-1{fill:#fff;}.cls-2{fill:#414042;}</style></defs><title>Asset 105</title><g id="Layer_2" data-name="Layer 2"><g id="Layer_1-2" data-name="Layer 1"><rect class="cls-1" width="212.27" height="212.68"/><path class="cls-2" d="M117.1,64.38q5.32,0,20.16,4.82Q123.31,76,113.42,97q-14.33,30.55-16.48,33.47-11.66,16.23-32.71,16.23a27.85,27.85,0,0,1-21.23-9,30.73,30.73,0,0,1-8.43-21.8A41.58,41.58,0,0,1,46.36,86.44Q58.15,73.89,74.88,73.89a22.13,22.13,0,0,1,9.38,1.77,37.07,37.07,0,0,0-4.06,16.23q0,5.7,4.06,12.17,4.56,7,10,6.85l8.49-.25q-2.79,11.79-10.4,18.64-8.11,7.23-19.9,7.23-18.38,0-29.41-21.93-.13,1.27-.51,3.93,0,9.64,10.52,16.23a35.83,35.83,0,0,0,19.4,5.83q12.8,0,23.33-9.13,11-9.63,11-22.18a38.86,38.86,0,0,0,3.55-3.68q2-2.66,1.9-4.69l-.25-3.3-3.8,3.93q0-15.46-16.86-27.13,11.41-10,25.73-10m-29,13.31A32.12,32.12,0,0,1,99.86,87.83a25.54,25.54,0,0,1,4.69,14.71q0,4.44-5.32,4.44-15.09,0-15.09-16,0-6.21,3.93-13.31M128.38,93q4.56-13.94,14.71-19.9,4.82,8,4.82,13.94a18.85,18.85,0,0,1-7.1,15.09,23.58,23.58,0,0,1-16,5.7h-.89q2.79-9,4.44-14.83m36.89-27.89a35.46,35.46,0,0,1,14.58,3.17V65.77a48.28,48.28,0,0,0-14.07-2.16,60.77,60.77,0,0,0-22.44,4.56q-9.38-6-23.33-6-20.16,0-33.34,11.41a36.49,36.49,0,0,0-12.3-2Q56,71.6,44,84.79,32.42,97.47,32.41,116.1q0,16.23,10.52,25.48,10,8.88,26.37,8.87,19.65,0,32.58-10.14,10.77-8.49,20.54-27.64,4.06,2.92,4.06,8.75,0,2-.13,6.15t-.13,6.15q0,9.89,4.56,13.44,4.06,3,14.58,3a15.28,15.28,0,0,0,9.89-3.49,11,11,0,0,0,4.31-8.94q0-8.75-8.11-13.18,5.83,9,5.83,12.42a9.43,9.43,0,0,1-3.42,7.42,11.78,11.78,0,0,1-8,3q-6,0-7.86-7.35l-1.77-15.21q-1.14-9.38-5.07-12.42,15.59-5.45,18.89-7.73,8-5.58,8-17.87,0-4.56-3.55-9.76a27,27,0,0,0-7.35-7.48,35.8,35.8,0,0,1,18.13-4.44"/></g></g></svg>