<svg xmlns="http://www.w3.org/2000/svg" viewBox="0 0 212.27 212.68"><defs><style>.cls-1{fill:#fff;}.cls-2{fill:#414042;}</style></defs><title>Asset 106</title><g id="Layer_2" data-name="Layer 2"><g id="Layer_1-2" data-name="Layer 1"><rect class="cls-1" width="212.27" height="212.68"/><path class="cls-2" d="M67.56,94.59q1.23-1.24,2.63-2.71t2.63-3a21.56,21.56,0,0,0,2-2.94q.77,1.08,2.09,2.63t2.78,3Q81.16,93,82.56,94.2a18.84,18.84,0,0,0,2.17,1.62,13.49,13.49,0,0,0-2.17,1.93q-1.24,1.32-2.55,2.78t-2.63,3.09q-1.32,1.62-2.4,3-.78-1.08-2-2.55t-2.55-2.86q-1.32-1.39-2.63-2.63t-2.4-2.16a15,15,0,0,0,2.17-1.86m0,22.26q1.23-1.23,2.63-2.7t2.63-3a21.64,21.64,0,0,0,2-2.94q.77,1.08,2.09,2.63t2.78,3q1.47,1.47,2.86,2.63a19.14,19.14,0,0,0,2.17,1.62A13.43,13.43,0,0,0,82.56,120q-1.24,1.32-2.55,2.78t-2.63,3.09q-1.32,1.62-2.4,3-.78-1.08-2-2.55t-2.55-2.86q-1.32-1.39-2.63-2.63t-2.4-2.17a14.8,14.8,0,0,0,2.17-1.86m36.33,8.66a7.88,7.88,0,0,1-1.62,4.25,50,50,0,0,1-3.56,4.64q-1.93,2.24-5.18,5.33,3.25,2,5.72,3.32a40.13,40.13,0,0,0,5.26,2.32,15.1,15.1,0,0,0,5.1,1,4.08,4.08,0,0,0,3.25-1.24,4.32,4.32,0,0,0,1.08-2.94,4.5,4.5,0,0,0-.62-2.4,6.27,6.27,0,0,0-1.39-1.62,8.42,8.42,0,0,0-1.39-.93c-.41-.21-.62-.36-.62-.46s.31-.28.93-.23a5.55,5.55,0,0,1,2.09.7,6.15,6.15,0,0,1,2.09,1.93,5.92,5.92,0,0,1,.93,3.48,9.5,9.5,0,0,1-1.16,4.17,20,20,0,0,1-2.94,4.33,18.88,18.88,0,0,1-3.94,3.4,7.55,7.55,0,0,1-4,1.39,30.59,30.59,0,0,1-11.6-2.32,95.14,95.14,0,0,1-10.82-5.18l-9.28-5.18Q68,141,65.24,141a8.25,8.25,0,0,0-2.86.54,9.46,9.46,0,0,0-2.7,1.55,8.85,8.85,0,0,0-2.09,2.47,6.51,6.51,0,0,0-.85,3.32,7.1,7.1,0,0,0,.46,2.78,6.48,6.48,0,0,0,1.08,1.78,5.93,5.93,0,0,0,1.08,1c.31.21.46.41.46.62a6.82,6.82,0,0,1-1.31-.62A8.3,8.3,0,0,1,56,152.1a7.13,7.13,0,0,1-1.31-4.48,11,11,0,0,1,1.55-4.79,30.55,30.55,0,0,1,3.94-5.72,25.61,25.61,0,0,1,5.49-4.79,11.28,11.28,0,0,1,6.18-2,15.39,15.39,0,0,1,5.18,1.31q3.32,1.32,6.65,2.94t8.12,4.25v-49q0-1.08,2.71-3.71t6-5.26q3.25-2.63,6-4.56t2.71-1.47a3,3,0,0,1-.85,1.47l-1.78,2.09-1.78,2.09a2.94,2.94,0,0,0-.85,1.47v26.28a34.16,34.16,0,0,0,3.4-.85q3.09-.85,8.12-2.78a65.29,65.29,0,0,0,9.74-4.71,32.33,32.33,0,0,0,8.12-6.73,13.07,13.07,0,0,0,3.4-8.74q0-7.42-6.57-11.67t-20.33-4.25a92.08,92.08,0,0,0-17.24,1.39,61.89,61.89,0,0,0-12,3.4,30.57,30.57,0,0,0-12.29,8.81,20.05,20.05,0,0,0-2.32,3.4q-.69,1.39-1,1.39c-.31,0-.28-.75.08-2.24s.85-3.32,1.47-5.49,1.36-4.56,2.24-7.19,1.7-5,2.47-7.19,1.44-4,2-5.49a8.33,8.33,0,0,1,1-2.24,1.56,1.56,0,0,1,1.39.7,13.67,13.67,0,0,1,.85,1.47,13.27,13.27,0,0,0,.85,1.47,1.42,1.42,0,0,0,1.24.7,15.9,15.9,0,0,0,3.25-.7Q84.25,60,88.28,59a96.63,96.63,0,0,1,9.59-1.62,103.11,103.11,0,0,1,12.68-.7,67.83,67.83,0,0,1,15.23,1.47,44.6,44.6,0,0,1,10.51,3.71,23.33,23.33,0,0,1,6.65,4.95,26.1,26.1,0,0,1,3.71,5.26,15.25,15.25,0,0,1,1.62,4.64,23.5,23.5,0,0,1,.31,3,14.78,14.78,0,0,1-3.09,9,34.64,34.64,0,0,1-7.42,7.34,67.2,67.2,0,0,1-8.81,5.49,60.8,60.8,0,0,1-7.34,3.32q-2.86,1-3.17,1.16a7.39,7.39,0,0,1,5,2.47,46.09,46.09,0,0,1,5.26,6.26q2.7,3.79,5.49,8.12t5.64,8.12a40.29,40.29,0,0,0,5.72,6.26,9,9,0,0,0,6,2.47,4.79,4.79,0,0,0,2.16-.54,14.72,14.72,0,0,0,1.86-1.08,10.5,10.5,0,0,1,1.24-.77c.31-.15.46,0,.46.39s-.67,1.7-2,3.56a71.62,71.62,0,0,1-4.72,5.8,68.8,68.8,0,0,1-5.49,5.49Q142.54,155,141,155q-1.86,0-3.94-2.47a42.55,42.55,0,0,1-4-5.72q-1.94-3.25-3.71-6.65t-3-5.26q-4.49-6.64-8.19-11.13a74.64,74.64,0,0,0-6.65-7.19,32.62,32.62,0,0,0-4.87-3.87,6.73,6.73,0,0,0-2.71-1.16Z"/></g></g></svg>