<svg xmlns="http://www.w3.org/2000/svg" viewBox="0 0 212.27 212.68"><defs><style>.cls-1{fill:#fff;}.cls-2{fill:#414042;}</style></defs><title>Asset 107</title><g id="Layer_2" data-name="Layer 2"><g id="Layer_1-2" data-name="Layer 1"><rect class="cls-1" width="212.27" height="212.68"/><path class="cls-2" d="M127.31,137.41a3.11,3.11,0,0,0-2.94,3.25,3,3,0,0,0,2.94,3.09,3,3,0,0,0,3.09-3.09,3.13,3.13,0,0,0-3.09-3.25m-5.26-14.84a4.64,4.64,0,1,0,0,9.28,4.64,4.64,0,0,0,0-9.28M80,137.41a3.24,3.24,0,0,0-3.09,3.25,3.09,3.09,0,1,0,6.18,0A3.24,3.24,0,0,0,80,137.41m0-14.84a4.64,4.64,0,1,0,4.64,4.64A4.55,4.55,0,0,0,80,122.57m32.47-17.32a4.65,4.65,0,0,0-4.64,4.64,4.64,4.64,0,1,0,9.28,0,4.65,4.65,0,0,0-4.64-4.64m-6.18-24.89c2.63,0,4.79.46,4.79,2.47,0,4.17-3.71,9.59-6.8,9.59-1.55,0-2.63-.31-2.63-1.55,0-7.27,1.24-10.51,4.64-10.51M90.83,88.25v7a1.59,1.59,0,0,0,1.7,1.55h4.33c10.82,0,16.85-6.49,16.85-15.77,0-7.42-5.41-11.44-13.3-11.44-9.59,0-9.59,6.18-9.59,18.71m17.47,54.42L104.12,138c-1.85-6-2.47-13.91-2.47-20.87,5.26,3.56,7,13.3,7.88,19.63a21,21,0,0,0-1.24,5.87M80,104.17a6.11,6.11,0,1,0,6.18,6,6.17,6.17,0,0,0-6.18-6m46.07-18.09-.15-.62h-3.4l-.62.62Zm.15,5.26v-.77h-7.42l-.46.77Zm-.62,2.47.16-.77h-9l-.46.77ZM69.18,116.08V92.89c0-12.83-2.94-25.35-9.89-36.64A11.51,11.51,0,0,1,64.7,55a18.23,18.23,0,0,1,4.33.62,15.08,15.08,0,0,0,3.71.31,8.72,8.72,0,0,0,4.48-1.85c1.08-1.08,1.86-2.32,2.94-2.32.93,0,1.86,1.24,2.94,2.16a6.67,6.67,0,0,0,4.33,2A44.42,44.42,0,0,0,93,55.48,93.37,93.37,0,0,1,103,55c18.24,0,32.16,9.74,32.16,25.82,0,13-6,19.79-15.46,22.73,7.58,3.71,12.21,12.52,13.45,21,1.7,11.9,7.27,15.46,12.21,15.46,1.08,10.67-4,12.68-9.43,12.68a12.37,12.37,0,0,1-8.66-3.4,11,11,0,0,1-8.35,3.4c-7.58,0-9.59-7.88-6.65-15.15-2.32-16.08-5.26-25.82-21.49-25.82v4.33c0,6,.93,21.8,10.67,23.19,0,11-8,13.45-11.6,13.45a17,17,0,0,1-9.89-3.4,16.81,16.81,0,0,1-9.59,3.4c-3.56,0-11.29-2.47-11.29-13.45,9.28-1.39,10-17.16,10-23.19M66.56,91.19v27.05c0,7.42-.77,17.62-10,18.55.15,19.63,11.9,26.75,23,26.75,4.48,0,7.11-1.85,9.43-3.56a15.68,15.68,0,0,0,9.9,3.56,15.06,15.06,0,0,0,7.27-2.16,18.91,18.91,0,0,0,6.49-7c3.87,6.18,9.58,9.12,15.31,9.12a12.57,12.57,0,0,0,8.5-3.56c2.63,2,5.26,3.56,8.5,3.56,6.34,0,11.44-4.64,11.44-15.77l-7.57-8.5a32.73,32.73,0,0,1-7.27-12.06c-2-6.49-5.41-12.06-9.28-15,9.12-5.1,13.76-12.68,13.76-22.73,0-23.65-23.35-37.1-43.13-37.1a65.31,65.31,0,0,0-11,.62c-1.7.16-3.25.31-4.64.31-1.55,0-3.09-1.39-4.33-2.63-.93-.77-1.86-1.55-2.78-1.55A4.46,4.46,0,0,0,77.07,51c-1.08,1.08-2.78,2.32-4.33,2.32A29.83,29.83,0,0,1,69,53a18.3,18.3,0,0,0-4.33-.62A17.13,17.13,0,0,0,55.89,55C65,70.16,66.56,82.68,66.56,91.19m59.67-2.47v-.77h-5.57l-.46.77Zm-2.78,10.2.46-.62H111.7l-.77.62Zm1.39-2.47.15-.77H114.64l-.62.77ZM85,98.92l-.46-.62H72.89l-.31.62Zm-1.24-2.47-.46-.77H74.13l-.31.77Zm-1.08-2.63L82.17,93H75.06l-.15.77Zm-2.32-7.73L80,85.47H78.15l-.31.62Zm.62,2.63-.31-.77h-3.4l-.46.77Zm.62,2.63-.15-.77H76.14l-.31.77ZM88,79.13c0-9.28,6.34-12.21,12.37-12.21,7.73,0,15.92,4,15.92,14.07,0,9.12-5.26,18.55-20.25,18.55H91.91c-2.32,0-3.87-2-3.87-4.95ZM71.66,98.76a122,122,0,0,0,7.73-19.32c2.47,12.68,6.49,22.73,10.82,22.73h5.57c8,0,13.61-2,18.24-7.27A107.63,107.63,0,0,0,125.3,79.44c2,7,2.63,13.6-.77,19.32,4.95-2.94,8-10,8-17.93,0-16.7-15.92-23.19-28.29-23.19a86.71,86.71,0,0,0-12.37.62,24.48,24.48,0,0,1-4.48.46,6.22,6.22,0,0,1-4.64-2c-1.08-1.08-1.86-2.16-2.63-2.16s-1.7,1.24-2.63,2.16a5.68,5.68,0,0,1-4.17,2,39.73,39.73,0,0,1-4.48-.46,15.18,15.18,0,0,0-6-.31c5.1,6.65,9,20.25,8.81,35.4Z"/></g></g></svg>