<svg xmlns="http://www.w3.org/2000/svg" xmlns:xlink="http://www.w3.org/1999/xlink" viewBox="0 0 101.03 101.11"><defs><style>.cls-1{fill:none;}.cls-2{opacity:0.3;}.cls-3{clip-path:url(#clip-path);}.cls-4{fill:#6c2479;}.cls-5{fill:#e04624;}.cls-6{fill:#fac515;}.cls-7{fill:#eb8519;}.cls-8{fill:#9c183d;}.cls-9{fill:#3491cd;}.cls-10{fill:#d1d828;}.cls-11{fill:#63ae35;}.cls-12{fill:#47277b;}.cls-13{fill:#f4e72a;}.cls-14{fill:#d80f23;}.cls-15{fill:#434b96;}</style><clipPath id="clip-path" transform="translate(-1.26)"><rect class="cls-1" y="0.46" width="103.55" height="101.9"/></clipPath></defs><title>Asset 12</title><g id="Layer_2" data-name="Layer 2"><g id="Layer_1-2" data-name="Layer 1"><g class="cls-2"><g class="cls-3"><path class="cls-4" d="M59.35,78.7a27.73,27.73,0,0,1-7.41,1,29.23,29.23,0,0,1-7.74-1L38.55,99.44a50.79,50.79,0,0,0,13.39,1.67,49,49,0,0,0,13-1.47Z" transform="translate(-1.26)"/><path class="cls-5" d="M80,43.37a25.59,25.59,0,0,1,.89,7.12,29.11,29.11,0,0,1-1,7.73L100.5,63.9a51,51,0,0,0,1.79-13.41A44.5,44.5,0,0,0,101,38.06Z" transform="translate(-1.26)"/><path class="cls-6" d="M59.56,22.48a29.37,29.37,0,0,1,13.19,7.88L88.2,15.46a51.32,51.32,0,0,0-23-13.68Z" transform="translate(-1.26)"/><path class="cls-7" d="M72.75,30.36a29.22,29.22,0,0,1,4.53,6.2A25.65,25.65,0,0,1,80,43.37l21-5.31A45.36,45.36,0,0,0,96.1,26.29a51.1,51.1,0,0,0-7.9-10.82Z" transform="translate(-1.26)"/><path class="cls-8" d="M72.17,71.19a27,27,0,0,1-5.81,4.53,27.79,27.79,0,0,1-7,3L65,99.63a49.93,49.93,0,0,0,12.23-5.42,46.83,46.83,0,0,0,10.32-7.58Z" transform="translate(-1.26)"/><path class="cls-9" d="M23.59,43.28a25.59,25.59,0,0,0-.89,7.12,29.11,29.11,0,0,0,1,7.73L3.05,63.82A51,51,0,0,1,1.26,50.4,44.5,44.5,0,0,1,2.58,38Z" transform="translate(-1.26)"/><path class="cls-10" d="M44.1,22.42a29.89,29.89,0,0,0-7.16,3,29.29,29.29,0,0,0-6.13,4.85L15.36,15.38A51.08,51.08,0,0,1,26,7,51.82,51.82,0,0,1,38.42,1.73Z" transform="translate(-1.26)"/><path class="cls-11" d="M30.81,30.28a29.22,29.22,0,0,0-4.53,6.2,25.66,25.66,0,0,0-2.68,6.8L2.58,38A45.36,45.36,0,0,1,7.46,26.21a51.1,51.1,0,0,1,7.9-10.82Z" transform="translate(-1.26)"/><path class="cls-12" d="M31.38,71.11a27,27,0,0,0,5.81,4.53,27.77,27.77,0,0,0,7,3L38.55,99.44a49.36,49.36,0,0,1-12.2-5.3A46.83,46.83,0,0,1,16,86.55Z" transform="translate(-1.26)"/></g></g><path class="cls-13" d="M44.1,22.42a30,30,0,0,1,7.71-1,29.26,29.26,0,0,1,7.75,1L65.24,1.79A51.17,51.17,0,0,0,51.81,0,51.85,51.85,0,0,0,38.42,1.73Z" transform="translate(-1.26)"/><path class="cls-14" d="M79.81,58.21a29.16,29.16,0,0,1-3,7,27.09,27.09,0,0,1-4.61,5.94L87.52,86.63a46.92,46.92,0,0,0,7.69-10.43A51,51,0,0,0,100.5,63.9Z" transform="translate(-1.26)"/><path class="cls-15" d="M23.75,58.13a29.16,29.16,0,0,0,3,7,27.09,27.09,0,0,0,4.61,5.94L16,86.55A46.92,46.92,0,0,1,8.34,76.12,51,51,0,0,1,3.05,63.82Z" transform="translate(-1.26)"/></g></g></svg>