<svg xmlns="http://www.w3.org/2000/svg" viewBox="0 0 175.68 248.46"><defs><style>.cls-1{fill:#fff;}.cls-2{fill:#c4c4c4;}.cls-3{fill:#3a3a39;}.cls-4{fill:#ebebeb;}.cls-5{fill:#898988;}</style></defs><title>Asset 122</title><g id="Layer_2" data-name="Layer 2"><g id="Layer_1-2" data-name="Layer 1"><rect class="cls-1" width="175.68" height="248.46"/><path class="cls-2" d="M87.84,68.57a2.38,2.38,0,0,0-2.38,2.38V84.83a2.38,2.38,0,1,0,4.75,0V70.95a2.38,2.38,0,0,0-2.38-2.38"/><path class="cls-2" d="M87.84,165.79a2.38,2.38,0,0,0-2.38,2.38V182a2.38,2.38,0,1,0,4.75,0V168.16a2.38,2.38,0,0,0-2.38-2.38"/><path class="cls-2" d="M46.18,124.12H32.29a2.38,2.38,0,0,0,0,4.75H46.18a2.38,2.38,0,0,0,0-4.75"/><path class="cls-2" d="M143.39,124.12H129.5a2.38,2.38,0,0,0,0,4.75h13.88a2.38,2.38,0,0,0,0-4.75"/><path class="cls-2" d="M48.56,84.85a2.37,2.37,0,0,0-1.68,4.06l9.82,9.82a2.38,2.38,0,0,0,3.36-3.36l-9.82-9.82a2.37,2.37,0,0,0-1.68-.69"/><path class="cls-2" d="M117.3,153.58a2.37,2.37,0,0,0-1.68.69h0a2.38,2.38,0,0,0,0,3.36l9.82,9.82a2.38,2.38,0,0,0,3.36-3.36L119,154.28a2.37,2.37,0,0,0-1.68-.69"/><path class="cls-2" d="M58.38,153.58a2.37,2.37,0,0,0-1.68.69l-9.82,9.82a2.38,2.38,0,0,0,3.36,3.36l9.82-9.82a2.38,2.38,0,0,0,0-3.36h0a2.37,2.37,0,0,0-1.68-.69"/><path class="cls-2" d="M127.12,84.85a2.37,2.37,0,0,0-1.68.69l-9.82,9.82A2.38,2.38,0,0,0,119,98.72l9.82-9.82a2.37,2.37,0,0,0-1.68-4.06"/><path class="cls-2" d="M66.51,72.83a2.37,2.37,0,0,0-2.19,3.29l5.33,12.82a2.39,2.39,0,0,0,2.2,1.46,2.35,2.35,0,0,0,.91-.18A2.38,2.38,0,0,0,74,87.11L68.71,74.3a2.38,2.38,0,0,0-2.2-1.46"/><path class="cls-2" d="M103.83,162.59a2.37,2.37,0,0,0-2.19,3.29L107,178.7a2.39,2.39,0,0,0,2.2,1.46,2.35,2.35,0,0,0,.91-.18,2.38,2.38,0,0,0,1.28-3.11L106,164.06a2.39,2.39,0,0,0-2.2-1.46"/><path class="cls-2" d="M49.36,140.12a2.36,2.36,0,0,0-.91.18l-12.82,5.33A2.38,2.38,0,0,0,37.46,150l12.82-5.33a2.38,2.38,0,0,0-.92-4.57"/><path class="cls-2" d="M139.12,102.79a2.36,2.36,0,0,0-.91.18l-12.82,5.33a2.38,2.38,0,0,0,.92,4.57,2.34,2.34,0,0,0,.91-.18L140,107.37a2.38,2.38,0,0,0-.92-4.57"/><path class="cls-2" d="M109.17,72.83A2.39,2.39,0,0,0,107,74.3l-5.33,12.82a2.38,2.38,0,0,0,1.28,3.11,2.35,2.35,0,0,0,.91.18,2.39,2.39,0,0,0,2.2-1.46l5.33-12.82a2.37,2.37,0,0,0-2.19-3.29"/><path class="cls-2" d="M71.85,162.59a2.38,2.38,0,0,0-2.2,1.46l-5.33,12.82A2.38,2.38,0,0,0,65.6,180a2.35,2.35,0,0,0,.91.18,2.39,2.39,0,0,0,2.2-1.46L74,165.88a2.37,2.37,0,0,0-2.19-3.29"/><path class="cls-2" d="M126.32,140.12a2.38,2.38,0,0,0-.92,4.57L138.22,150a2.38,2.38,0,0,0,1.83-4.39l-12.82-5.33a2.36,2.36,0,0,0-.91-.18"/><path class="cls-2" d="M36.56,102.79a2.38,2.38,0,0,0-.92,4.57l12.82,5.33a2.34,2.34,0,0,0,.91.18,2.38,2.38,0,0,0,.92-4.57L37.46,103a2.36,2.36,0,0,0-.91-.18"/><path class="cls-3" d="M114.93,126.5A27.09,27.09,0,1,1,87.84,99.41a27.09,27.09,0,0,1,27.09,27.09"/><path class="cls-4" d="M31.66,50.55A14.46,14.46,0,1,0,17.2,36.09,14.46,14.46,0,0,0,31.66,50.55"/><path class="cls-5" d="M30.32,229.33a14.46,14.46,0,1,0-14.46-14.46,14.46,14.46,0,0,0,14.46,14.46"/><path class="cls-5" d="M146.69,50.55a14.46,14.46,0,1,0-14.46-14.46,14.46,14.46,0,0,0,14.46,14.46"/><path class="cls-4" d="M145.36,229.33a14.46,14.46,0,1,0-14.46-14.46,14.46,14.46,0,0,0,14.46,14.46"/></g></g></svg>