<svg xmlns="http://www.w3.org/2000/svg" xmlns:xlink="http://www.w3.org/1999/xlink" viewBox="0 0 175.68 248.46"><defs><style>.cls-1{fill:none;}.cls-2{fill:#fff;}.cls-3{opacity:0.9;}.cls-4{clip-path:url(#clip-path);}.cls-5{fill:#3a3a39;}.cls-6{clip-path:url(#clip-path-2);}.cls-7{clip-path:url(#clip-path-3);}.cls-8{clip-path:url(#clip-path-4);}.cls-9{clip-path:url(#clip-path-5);}.cls-10{clip-path:url(#clip-path-6);}.cls-11{clip-path:url(#clip-path-7);}.cls-12{clip-path:url(#clip-path-8);}.cls-13{clip-path:url(#clip-path-9);}.cls-14{clip-path:url(#clip-path-10);}.cls-15{clip-path:url(#clip-path-11);}.cls-16{clip-path:url(#clip-path-12);}.cls-17{clip-path:url(#clip-path-13);}.cls-18{clip-path:url(#clip-path-14);}.cls-19{clip-path:url(#clip-path-15);}.cls-20{clip-path:url(#clip-path-16);}.cls-21{clip-path:url(#clip-path-17);}.cls-22{clip-path:url(#clip-path-18);}.cls-23{clip-path:url(#clip-path-19);}.cls-24{clip-path:url(#clip-path-20);}.cls-25{clip-path:url(#clip-path-21);}.cls-26{clip-path:url(#clip-path-22);}.cls-27{clip-path:url(#clip-path-23);}.cls-28{clip-path:url(#clip-path-24);}.cls-29{clip-path:url(#clip-path-25);}</style><clipPath id="clip-path"><rect class="cls-1" x="19.2" y="55.17" width="26.18" height="26.18"/></clipPath><clipPath id="clip-path-2"><rect class="cls-1" x="19.2" y="82.95" width="26.18" height="26.18"/></clipPath><clipPath id="clip-path-3"><rect class="cls-1" x="19.2" y="110.72" width="26.18" height="26.18"/></clipPath><clipPath id="clip-path-4"><rect class="cls-1" x="19.2" y="138.49" width="26.18" height="26.18"/></clipPath><clipPath id="clip-path-5"><rect class="cls-1" x="19.2" y="166.26" width="26.18" height="26.18"/></clipPath><clipPath id="clip-path-6"><rect class="cls-1" x="46.98" y="55.17" width="26.18" height="26.18"/></clipPath><clipPath id="clip-path-7"><rect class="cls-1" x="46.98" y="82.95" width="26.18" height="26.18"/></clipPath><clipPath id="clip-path-8"><rect class="cls-1" x="46.98" y="110.72" width="26.18" height="26.18"/></clipPath><clipPath id="clip-path-9"><rect class="cls-1" x="46.98" y="138.49" width="26.18" height="26.18"/></clipPath><clipPath id="clip-path-10"><rect class="cls-1" x="46.98" y="166.26" width="26.18" height="26.18"/></clipPath><clipPath id="clip-path-11"><rect class="cls-1" x="74.75" y="55.17" width="26.18" height="26.18"/></clipPath><clipPath id="clip-path-12"><rect class="cls-1" x="74.75" y="82.95" width="26.18" height="26.18"/></clipPath><clipPath id="clip-path-13"><rect class="cls-1" x="74.75" y="110.72" width="26.18" height="26.18"/></clipPath><clipPath id="clip-path-14"><rect class="cls-1" x="74.75" y="138.49" width="26.18" height="26.18"/></clipPath><clipPath id="clip-path-15"><rect class="cls-1" x="74.75" y="166.26" width="26.18" height="26.18"/></clipPath><clipPath id="clip-path-16"><rect class="cls-1" x="102.52" y="55.17" width="26.18" height="26.18"/></clipPath><clipPath id="clip-path-17"><rect class="cls-1" x="102.52" y="82.95" width="26.18" height="26.18"/></clipPath><clipPath id="clip-path-18"><rect class="cls-1" x="109.15" y="117.37" width="12.92" height="12.88"/></clipPath><clipPath id="clip-path-19"><rect class="cls-1" x="102.52" y="138.49" width="26.18" height="26.18"/></clipPath><clipPath id="clip-path-20"><rect class="cls-1" x="102.52" y="166.26" width="26.18" height="26.18"/></clipPath><clipPath id="clip-path-21"><rect class="cls-1" x="130.3" y="55.17" width="26.18" height="26.18"/></clipPath><clipPath id="clip-path-22"><rect class="cls-1" x="130.3" y="82.95" width="26.18" height="26.18"/></clipPath><clipPath id="clip-path-23"><rect class="cls-1" x="130.3" y="110.72" width="26.18" height="26.18"/></clipPath><clipPath id="clip-path-24"><rect class="cls-1" x="130.3" y="138.49" width="26.18" height="26.18"/></clipPath><clipPath id="clip-path-25"><rect class="cls-1" x="130.3" y="166.26" width="26.18" height="26.18"/></clipPath></defs><title>Asset 124</title><g id="Layer_2" data-name="Layer 2"><g id="Layer_1-2" data-name="Layer 1"><rect class="cls-2" width="175.68" height="248.46"/><g class="cls-3"><g class="cls-4"><path class="cls-5" d="M32.29,80.09A11.83,11.83,0,1,0,20.47,68.26,11.82,11.82,0,0,0,32.29,80.09"/></g></g><g class="cls-3"><g class="cls-6"><path class="cls-5" d="M32.29,107.86A11.83,11.83,0,1,0,20.47,96a11.82,11.82,0,0,0,11.83,11.83"/></g></g><g class="cls-3"><g class="cls-7"><path class="cls-5" d="M32.29,135.63a11.83,11.83,0,1,0-11.83-11.83,11.82,11.82,0,0,0,11.83,11.83"/></g></g><g class="cls-3"><g class="cls-8"><path class="cls-5" d="M32.29,163.41a11.83,11.83,0,1,0-11.83-11.83,11.82,11.82,0,0,0,11.83,11.83"/></g></g><g class="cls-3"><g class="cls-9"><path class="cls-5" d="M32.29,191.18a11.83,11.83,0,1,0-11.83-11.83,11.82,11.82,0,0,0,11.83,11.83"/></g></g><g class="cls-3"><g class="cls-10"><path class="cls-5" d="M60.07,80.09A11.83,11.83,0,1,0,48.24,68.26,11.82,11.82,0,0,0,60.07,80.09"/></g></g><g class="cls-3"><g class="cls-11"><path class="cls-5" d="M60.07,107.86A11.83,11.83,0,1,0,48.24,96a11.82,11.82,0,0,0,11.83,11.83"/></g></g><g class="cls-3"><g class="cls-12"><path class="cls-5" d="M60.07,135.63a11.83,11.83,0,1,0-11.83-11.83,11.82,11.82,0,0,0,11.83,11.83"/></g></g><g class="cls-3"><g class="cls-13"><path class="cls-5" d="M60.07,163.41a11.83,11.83,0,1,0-11.83-11.83,11.82,11.82,0,0,0,11.83,11.83"/></g></g><g class="cls-3"><g class="cls-14"><path class="cls-5" d="M60.07,191.18a11.83,11.83,0,1,0-11.83-11.83,11.82,11.82,0,0,0,11.83,11.83"/></g></g><g class="cls-3"><g class="cls-15"><path class="cls-5" d="M87.84,80.09A11.83,11.83,0,1,0,76,68.26,11.82,11.82,0,0,0,87.84,80.09"/></g></g><g class="cls-3"><g class="cls-16"><path class="cls-5" d="M87.84,107.86A11.83,11.83,0,1,0,76,96a11.82,11.82,0,0,0,11.83,11.83"/></g></g><g class="cls-3"><g class="cls-17"><path class="cls-5" d="M87.84,135.63A11.83,11.83,0,1,0,76,123.81a11.82,11.82,0,0,0,11.83,11.83"/></g></g><g class="cls-3"><g class="cls-18"><path class="cls-5" d="M87.84,163.41A11.83,11.83,0,1,0,76,151.58a11.82,11.82,0,0,0,11.83,11.83"/></g></g><g class="cls-3"><g class="cls-19"><path class="cls-5" d="M87.84,191.18A11.83,11.83,0,1,0,76,179.35a11.82,11.82,0,0,0,11.83,11.83"/></g></g><g class="cls-3"><g class="cls-20"><path class="cls-5" d="M115.61,80.09a11.83,11.83,0,1,0-11.83-11.83,11.82,11.82,0,0,0,11.83,11.83"/></g></g><g class="cls-3"><g class="cls-21"><path class="cls-5" d="M115.61,107.86A11.83,11.83,0,1,0,103.79,96a11.82,11.82,0,0,0,11.83,11.83"/></g></g><g class="cls-3"><g class="cls-22"><path class="cls-5" d="M115.61,129a5.17,5.17,0,1,0-5.2-5.17,5.18,5.18,0,0,0,5.2,5.17"/></g></g><g class="cls-3"><g class="cls-23"><path class="cls-5" d="M115.61,163.41a11.83,11.83,0,1,0-11.83-11.83,11.82,11.82,0,0,0,11.83,11.83"/></g></g><g class="cls-3"><g class="cls-24"><path class="cls-5" d="M115.61,191.18a11.83,11.83,0,1,0-11.83-11.83,11.82,11.82,0,0,0,11.83,11.83"/></g></g><g class="cls-3"><g class="cls-25"><path class="cls-5" d="M143.39,80.09a11.83,11.83,0,1,0-11.83-11.83,11.82,11.82,0,0,0,11.83,11.83"/></g></g><g class="cls-3"><g class="cls-26"><path class="cls-5" d="M143.39,107.86A11.83,11.83,0,1,0,131.56,96a11.82,11.82,0,0,0,11.83,11.83"/></g></g><g class="cls-3"><g class="cls-27"><path class="cls-5" d="M143.39,135.63a11.83,11.83,0,1,0-11.83-11.83,11.82,11.82,0,0,0,11.83,11.83"/></g></g><g class="cls-3"><g class="cls-28"><path class="cls-5" d="M143.39,163.41a11.83,11.83,0,1,0-11.83-11.83,11.82,11.82,0,0,0,11.83,11.83"/></g></g><g class="cls-3"><g class="cls-29"><path class="cls-5" d="M143.39,191.18a11.83,11.83,0,1,0-11.83-11.83,11.82,11.82,0,0,0,11.83,11.83"/></g></g></g></g></svg>