<svg xmlns="http://www.w3.org/2000/svg" xmlns:xlink="http://www.w3.org/1999/xlink" viewBox="0 0 175.68 248.46"><defs><style>.cls-1{fill:none;}.cls-2{fill:#fff;}.cls-3{opacity:0.9;}.cls-4{clip-path:url(#clip-path);}.cls-5{fill:#898988;}.cls-6{clip-path:url(#clip-path-2);}.cls-7{fill:#3a3a39;}.cls-8{clip-path:url(#clip-path-3);}.cls-9{clip-path:url(#clip-path-4);}.cls-10{clip-path:url(#clip-path-5);}.cls-11{clip-path:url(#clip-path-6);}.cls-12{clip-path:url(#clip-path-7);}.cls-13{fill:#918f8d;}</style><clipPath id="clip-path"><rect class="cls-1" x="123.94" y="79.51" width="23.23" height="23.24"/></clipPath><clipPath id="clip-path-2"><rect class="cls-1" x="113.17" y="90.29" width="23.24" height="23.25"/></clipPath><clipPath id="clip-path-3"><rect class="cls-1" x="115.87" y="140.28" width="28.6" height="32.02"/></clipPath><clipPath id="clip-path-4"><rect class="cls-1" x="136.4" y="142.04" width="7.95" height="7.85"/></clipPath><clipPath id="clip-path-5"><rect class="cls-1" x="133.79" y="150.99" width="6.5" height="7.57"/></clipPath><clipPath id="clip-path-6"><rect class="cls-1" x="126.49" y="150.1" width="6.68" height="7.32"/></clipPath><clipPath id="clip-path-7"><rect class="cls-1" x="129.72" y="156.45" width="6.12" height="4.49"/></clipPath></defs><title>Asset 130</title><g id="Layer_2" data-name="Layer 2"><g id="Layer_1-2" data-name="Layer 1"><rect class="cls-2" width="175.68" height="248.46"/><g class="cls-3"><g class="cls-4"><path class="cls-5" d="M135.79,93.52a2.62,2.62,0,1,0-2.63-2.62,2.61,2.61,0,0,0,2.63,2.62m10.12-2.59a1,1,0,0,1-.31.77l-3.38,3.38-3.63,3.63-2.67,2.67c-.12.12-.12.12-.24,0l-2-2L130.27,96,127,92.67,125.28,91c-.1-.1-.1-.12,0-.22l4.15-4.15,3.73-3.73c.61-.61,1.21-1.22,1.82-1.82a1.06,1.06,0,0,1,1-.28,1.15,1.15,0,0,1,.59.33L142,86.51l3.64,3.64a1,1,0,0,1,.31.79"/></g></g><g class="cls-3"><g class="cls-6"><path class="cls-7" d="M120.78,99.46a2.6,2.6,0,1,0,2.57,2.58,2.6,2.6,0,0,0-2.57-2.58M131,102.19a2.61,2.61,0,1,0-2.62,2.59,2.61,2.61,0,0,0,2.62-2.59m-16.6-.12a1,1,0,0,1,.34-.79l3-3,3.75-3.75,2.38-2.37c.17-.17.34-.33.5-.51s.13-.07.2,0l1.12,1.12,5.52,5.52,3.78,3.78c.12.12.12.12,0,.23l-3.48,3.48-4.36,4.36c-.61.61-1.22,1.22-1.83,1.83a1.09,1.09,0,0,1-1.21.25,1.48,1.48,0,0,1-.47-.35l-2.1-2.1L118.85,107l-3-2.95-1.16-1.16a1,1,0,0,1-.3-.8"/></g></g><g class="cls-3"><g class="cls-8"><path class="cls-7" d="M131.32,160.28a.79.79,0,0,0,0,.1.89.89,0,0,0,0,.1,1,1,0,0,0,.45.62,2.06,2.06,0,0,0,1.82.28,1.08,1.08,0,0,0,.69-.57,1,1,0,0,0,0-.14,14.3,14.3,0,0,1-3-.4m-8.48-14.59c0,.14-.09.17-.16.22-.34.27-.69.53-1,.82a8.17,8.17,0,0,0-2.21,3.25,8.08,8.08,0,0,0-.48,2.2,9,9,0,0,0,.57,3.91,8.57,8.57,0,0,0,2.58,3.7c.16.13.32.24.49.36l.07,0c.07,0,.15.1.23,0s0-.14,0-.22c-.11-.43-.24-.86-.34-1.29a5.06,5.06,0,0,1-.05-1.88,14.17,14.17,0,0,0,.14-2.14c0-.52,0-1,0-1.57a8.42,8.42,0,0,1,2.14-5.16,11.25,11.25,0,0,1,2-1.73l.16-.12-.12-.16a3,3,0,0,1-.51-1,2.11,2.11,0,0,1,.19-1.68,3.32,3.32,0,0,1,2.16-1.67,2,2,0,0,1,2,.46,2.14,2.14,0,0,1,.31.35,4.23,4.23,0,0,1,.75,1.82.91.91,0,0,1-.48,1,3.24,3.24,0,0,1-.41.2,5.54,5.54,0,0,0-1.52.94c-.16.14-.32.27-.5.4a.82.82,0,0,1-.9.07l-.41-.21-.09.1a9.82,9.82,0,0,0-1.86,3.84,7.29,7.29,0,0,0,.18,4.17,5.19,5.19,0,0,0,2.23,2.79,4.79,4.79,0,0,0,1.18.51l.21.06a1.3,1.3,0,0,1,.9.78,3.16,3.16,0,0,0,.43.73,1,1,0,0,0,1,.38l.52-.11a1.71,1.71,0,0,1,1.29.21,2,2,0,0,0,.94.28.93.93,0,0,0,.76-.29c.1-.1.19-.22.29-.33l.14-.17a.93.93,0,0,1,.71-.33,8.21,8.21,0,0,0,.92-.07,5.61,5.61,0,0,0,4.24-2.89,7.07,7.07,0,0,0,.9-2.87c0-.34,0-.68.05-1a.66.66,0,0,1,0-.13.53.53,0,0,1,.06-.11.43.43,0,0,1,.12.08.6.6,0,0,1,.07.17,10.1,10.1,0,0,1,.32,1.49,16.76,16.76,0,0,1,.13,3.16,24.43,24.43,0,0,1-.3,2.86,28.15,28.15,0,0,1-1.07,4.37,15.66,15.66,0,0,1-1.26,2.93,10.11,10.11,0,0,1-.58.88,2.7,2.7,0,0,1-.81.72,6.35,6.35,0,0,1-1.84.78,3.14,3.14,0,0,1-.9.09,1.44,1.44,0,0,1-1.44-1.34,4.67,4.67,0,0,1,.12-1.64,10.37,10.37,0,0,0,.28-2.72,3.51,3.51,0,0,0-.2-1.06,1.46,1.46,0,0,0-.28-.49.64.64,0,0,0-.89-.11,1.53,1.53,0,0,0-.45.51,3.56,3.56,0,0,0-.41,1.18,7.4,7.4,0,0,0-.05,2.13,11.72,11.72,0,0,0,.46,2.21,7.27,7.27,0,0,0,.28.68c.1.23.21.46.29.69a.72.72,0,0,1-.36.91,2.57,2.57,0,0,1-.52.22,4.36,4.36,0,0,1-1.32.18,6.57,6.57,0,0,1-2.09-.3,5.41,5.41,0,0,1-2.19-1.38,9.26,9.26,0,0,1-1.43-1.93,33.15,33.15,0,0,1-1.51-3.12l-.47-1.06a.6.6,0,0,0-.09-.16.09.09,0,0,0-.16,0,.57.57,0,0,0,0,.13,5,5,0,0,0,.23,1.52c.13.46.27.91.38,1.37a1.67,1.67,0,0,1,0,.5.66.66,0,0,1-.38.56,1.88,1.88,0,0,1-.62.19,5.15,5.15,0,0,1-1.93-.08,3.13,3.13,0,0,1-1.69-1,5.92,5.92,0,0,1-.68-.93,11,11,0,0,1-.77-1.59,16.19,16.19,0,0,1-.78-2.33,6.15,6.15,0,0,1-.16-1.61c0-.32,0-.64,0-1a6.58,6.58,0,0,0-.21-1.45,12.44,12.44,0,0,1-.25-3.69,10.18,10.18,0,0,1,1-3.72,9.16,9.16,0,0,1,2.87-3.37,11.44,11.44,0,0,1,1.41-.87l.2-.09.19,0"/></g></g><g class="cls-3"><g class="cls-9"><path class="cls-7" d="M143.08,146.12a2.08,2.08,0,0,1-.27,1,3.85,3.85,0,0,1-.91,1.1,2,2,0,0,1-.63.36,1,1,0,0,1-1.1-.27l-.15-.18a5.16,5.16,0,0,0-1.8-1.46.85.85,0,0,1-.52-1A3.08,3.08,0,0,1,139,143.7a2.21,2.21,0,0,1,2.08-.24,3.06,3.06,0,0,1,2,2.14,3.63,3.63,0,0,1,.08.53"/></g></g><g class="cls-3"><g class="cls-10"><path class="cls-7" d="M139,155.12a3,3,0,0,1-.22,1.14,1.68,1.68,0,0,1-1.53,1,1,1,0,0,1-.84-.37,3,3,0,0,1-.51-.84c-.15-.35-.29-.7-.46-1a4.3,4.3,0,0,0-.34-.57.33.33,0,0,1,0-.33,5,5,0,0,1,.55-1.12,2.72,2.72,0,0,1,.34-.41,1.19,1.19,0,0,1,1.31-.27,2.5,2.5,0,0,1,1.42,1.34,3.41,3.41,0,0,1,.32,1.43"/></g></g><g class="cls-3"><g class="cls-11"><path class="cls-7" d="M127.76,154.23a2.88,2.88,0,0,1,.83-2,3.16,3.16,0,0,1,1.08-.77,1.63,1.63,0,0,1,.67-.13,1.27,1.27,0,0,1,1,.5,2.53,2.53,0,0,1,.51,1.19c0,.22,0,.44.07.66a.28.28,0,0,1-.09.24,9.54,9.54,0,0,0-1,1.24,3.48,3.48,0,0,1-.61.64,1.39,1.39,0,0,1-2-.26,2.25,2.25,0,0,1-.42-1.36"/></g></g><g class="cls-3"><g class="cls-12"><path class="cls-7" d="M132.11,157.72a7.4,7.4,0,0,1,1.8.24,1.51,1.51,0,0,1,.29.12.71.71,0,0,1,.3.3.42.42,0,0,1-.21.62,1.6,1.6,0,0,1-.37.09,1.84,1.84,0,0,0-.67.2,4.38,4.38,0,0,0-.42.3c-.15.11-.2.11-.29,0a1.61,1.61,0,0,0-1-.74l-.29-.1a.45.45,0,0,1-.08-.84,1,1,0,0,1,.47-.15h.4"/></g></g><path class="cls-7" d="M120.36,24.45a1.36,1.36,0,0,1,.22,0H140l-9.81,9.81L140,44.1l0,.06h-19.3a3.34,3.34,0,0,1-.35,0h0a1.84,1.84,0,0,0,.2-.15L130,34.49l.19-.21-.19-.2-9.48-9.48a2,2,0,0,0-.2-.15Z"/><path class="cls-7" d="M120.36,44.12a1.51,1.51,0,0,1-.2-.15l-9.56-9.55-.12-.13.19-.2,9.43-9.43a2.75,2.75,0,0,1,.26-.2h0c0,.09,0,.19,0,.28q0,9.55,0,19.09c0,.1,0,.21,0,.31Z"/><path class="cls-7" d="M140.14,44V24.56l9.72,9.73L140.14,44"/><path class="cls-7" d="M131,222.55a11,11,0,0,0,4.62-1,14.23,14.23,0,0,0,6.7-6.27.43.43,0,0,0,0-.35,13.75,13.75,0,0,0-3.9-4.49A11.78,11.78,0,0,0,127,208.63a13.82,13.82,0,0,0-7.37,6.27.47.47,0,0,0,0,.56,15.43,15.43,0,0,0,2.94,3.67,12.29,12.29,0,0,0,8.39,3.42m-12.48-6.23V214.2a.87.87,0,0,0,.05-.17,12.42,12.42,0,0,1,14.87-10.94c5.09,1.09,8.27,4.3,9.63,9.32.16.58.22,1.19.32,1.79v2.12a.86.86,0,0,0-.05.17,12.42,12.42,0,0,1-14.87,10.94c-5.09-1.09-8.27-4.3-9.63-9.32-.16-.58-.22-1.19-.32-1.79"/><path class="cls-7" d="M137.52,215.27a6.6,6.6,0,1,1-6.58-6.61,6.59,6.59,0,0,1,6.58,6.61"/><path class="cls-13" d="M68.57,49,52.72,21.15,36.74,49Zm-34.64,3.8a.89.89,0,0,0-.2-.18c-1.85-.9-2.06-2.75-1.11-4.41Q36.82,41,41,33.69q4.35-7.57,8.7-15.13a7.46,7.46,0,0,1,1-1.58,2.81,2.81,0,0,1,4.55.76q8.21,14.4,16.42,28.8c.48.84,1,1.69,1.35,2.57a2.74,2.74,0,0,1-1.58,3.55,1.64,1.64,0,0,0-.29.16Z"/><path class="cls-7" d="M50.67,32.3a11.67,11.67,0,0,1,.68,3.14,15.49,15.49,0,0,0,1.24,4.69.89.89,0,0,0,.23.37,2.51,2.51,0,0,1,.74,2.13c0,.36.39.78.68,1.1a12.41,12.41,0,0,1,2.46,3.33c0,.11.1.23.14.35s0,.08,0,.17H39.36l10-17.4L50.52,32l.15.3"/><path class="cls-7" d="M63.27,44.8a1.62,1.62,0,0,1-1.81,1.76,5.59,5.59,0,0,1-1.74-.19c-1.77-.91-2.38-2.36-.95-4.15a2.41,2.41,0,0,1,2.47-.61,2.19,2.19,0,0,1,1.92,2.25c0,.37.08.74.11.94"/><path class="cls-7" d="M55.29,39.26c-1.25,0-1.72-.48-2.1-1.57a2.52,2.52,0,0,1,1-3,.76.76,0,0,1,.6-.12,9,9,0,0,1,1.47.54,1.16,1.16,0,0,1,.6.54,12.56,12.56,0,0,1,.39,1.78.51.51,0,0,1-.13.39q-.72.68-1.47,1.31a1.13,1.13,0,0,1-.37.15"/><path class="cls-7" d="M60.88,40q0,1.24-1,1.26c-1.2,0-1.85-.47-1.86-1.41a1.4,1.4,0,0,1,1.46-1.43c.83,0,1.38.59,1.41,1.59"/><path class="cls-7" d="M55.93,40.48c0,.59-.82,1.48-1.33,1.28a1.6,1.6,0,0,1-.81-1.09,1.16,1.16,0,0,1,1.15-1.3,1,1,0,0,1,1,1.12"/><path class="cls-7" d="M56.42,42.57a1.5,1.5,0,0,1,1.12,1.16,1,1,0,0,1-1.12.74,1,1,0,0,1-.78-1,.81.81,0,0,1,.79-.86"/><path class="cls-7" d="M51.51,34.07c0-1.07.2-1.45.64-1.43s1.18.56,1,.79a5.56,5.56,0,0,1-1.09,1.16,5.28,5.28,0,0,1-.58-.52"/><path class="cls-7" d="M50.67,32.3l-.15-.3c-.1-.73.56-.5.89-.63.1,0,.45.27.51.47s0,.78-.39.83-.58-.24-.87-.37"/><path class="cls-7" d="M52.65,35.48l-.67.73c-.17-.24-.43-.48-.46-.74s.27-.41.42-.62l.71.63"/><path class="cls-13" d="M36.43,113H68.9l0,0L52.68,84.84,36.43,113m34.17,3.65H34.76l-.14,0a2.71,2.71,0,0,1-2.45-2.25,1.29,1.29,0,0,0-.07-.2v-.53a1,1,0,0,0,.07-.18,2.82,2.82,0,0,1,.36-1l3.36-5.82,12-20.83,2.38-4.12a2.69,2.69,0,0,1,1.86-1.35l.25-.06h.53l.08,0a2.75,2.75,0,0,1,2.07,1.44c.85,1.48,1.7,2.95,2.56,4.42L69.09,106l3.76,6.5a2.79,2.79,0,0,1,.31.77c0,.09,0,.18.06.27v.74c0,.09,0,.18-.06.27a2.67,2.67,0,0,1-2.13,2l-.43.07"/><path class="cls-7" d="M53.59,93h2.74v.21q0,2.9,0,5.8a2.47,2.47,0,0,0,.26,1.14,2.69,2.69,0,0,0,.24.39l.83,1.08a5.51,5.51,0,0,1,1,2.5,3.74,3.74,0,0,1,0,.54q0,3.44,0,6.88v.2H56c0-.07,0-.15,0-.22q0-3.27,0-6.54a2.64,2.64,0,0,0-.22-1.19,3.69,3.69,0,0,0-.33-.54c-.31-.42-.64-.83-.94-1.26a5.28,5.28,0,0,1-.9-2.37,4.68,4.68,0,0,1,0-.58q0-2.93,0-5.85Z"/><path class="cls-7" d="M49.07,93h2.69c0,.14.06,18.31,0,18.74-.12,0-2.39.05-2.69,0,0-.13-.05-18.37,0-18.76"/><path class="cls-13" d="M65.39,156.81a12.73,12.73,0,1,0-12.26,12.93,12.73,12.73,0,0,0,12.26-12.93M52.17,173.63A16.66,16.66,0,1,1,69.33,157.7a16.64,16.64,0,0,1-17.16,15.93"/><path class="cls-7" d="M51.54,159l2.63,2.59v-13h2.15v13.15l2.62-2.73.09,0v1c0,.63,0,1.26,0,1.89a.61.61,0,0,1-.1.39c-1.22,1.21-2.46,2.42-3.66,3.6-.57-.54-1.18-1.12-1.78-1.72s-1.15-1.21-1.72-1.82a.63.63,0,0,1-.21-.34c0-1,0-2,0-3.06"/><path class="cls-13" d="M49.29,159.61H47.87v-8.13l-.1,0L46.32,153l-.11-.06c0-.61,0-1.22,0-1.83a.28.28,0,0,1,.07-.17l2.28-2.4,2.3,2.33A.33.33,0,0,1,51,151c0,.61,0,1.23,0,1.92l-1.53-1.62-.14.07Z"/><path class="cls-13" d="M44.9,202.39,63.41,220.9A13.26,13.26,0,0,0,44.9,202.39m-2.85,2.8a13.26,13.26,0,0,0,18.55,18.56L42.05,205.19m11,25h-.79l-.15,0a17,17,0,0,1-7.29-1.89A17.09,17.09,0,0,1,36,216.91a16.7,16.7,0,0,1-.39-2.82c0-.18,0-.35,0-.53v-.85a1.17,1.17,0,0,0,0-.13,16.59,16.59,0,0,1,.28-2.56,17.07,17.07,0,0,1,22.75-12.86,17.11,17.11,0,0,1,9.77,9.41,16.82,16.82,0,0,1,1.31,6.06s0,.07,0,.11v.82a1.24,1.24,0,0,0,0,.14,15.9,15.9,0,0,1-.18,2,16.6,16.6,0,0,1-.59,2.55A17,17,0,0,1,53.6,230.17l-.54,0"/><path class="cls-7" d="M53.33,216.66H41.44v-3.05h8.75a.21.21,0,0,1,.14,0l3,3,0,0"/><path class="cls-7" d="M62.13,213.05h-1v-.1c0-.49,0-1,0-1.46a1.24,1.24,0,0,0-.4-.92,1.48,1.48,0,0,0-.8-.35,3.84,3.84,0,0,0-.55,0H56.71a2.47,2.47,0,0,1-.93-.16,2.27,2.27,0,0,1-1.28-1.27,2.75,2.75,0,0,1-.17-1.63.3.3,0,0,0,0,0,.07.07,0,0,0,0,0c-.19,0-.38-.07-.56-.13a3,3,0,0,1-2.23-2.47,3.05,3.05,0,0,1,.94-2.81,2.72,2.72,0,0,1,1.61-.74l.33,0h0v1c-.18,0-.36,0-.54.1a1.82,1.82,0,0,0-1.29,1.27,2,2,0,0,0,.35,2,2.1,2.1,0,0,0,1.22.71,2.81,2.81,0,0,0,.8.06.51.51,0,0,1,.51.76,1.62,1.62,0,0,0-.21,1,1.44,1.44,0,0,0,.76,1.26,1.25,1.25,0,0,0,.58.13c1,0,2,0,2.95,0a2.71,2.71,0,0,1,1.66.55,2.16,2.16,0,0,1,.83,1.45,6.34,6.34,0,0,1,0,.79c0,.33,0,.67,0,1Z"/><path class="cls-7" d="M58.7,206.72h.82a4.1,4.1,0,0,1,2.49.85,4.35,4.35,0,0,1,1.47,2.08,4.71,4.71,0,0,1,.25,1.51c0,.61,0,1.21,0,1.82,0,0,0,0,0,.06h-1v-.1c0-.59,0-1.18,0-1.77a3.56,3.56,0,0,0-.93-2.45,2.93,2.93,0,0,0-1.85-1,7.5,7.5,0,0,0-.79,0H57.85a.52.52,0,0,1-.43-.83,3,3,0,0,0,.55-1.35,2.2,2.2,0,0,0-.68-2,2.46,2.46,0,0,0-1.44-.65l-.34,0v-1a3.47,3.47,0,0,1,3,1.52,3.35,3.35,0,0,1,.23,3.3"/><path class="cls-7" d="M60.54,213.61v3H59.44a.2.2,0,0,1-.12,0l-2.94-2.94-.05-.06Z"/><rect class="cls-7" x="62.71" y="213.57" width="1.01" height="3.08"/></g></g></svg>