<svg xmlns="http://www.w3.org/2000/svg" xmlns:xlink="http://www.w3.org/1999/xlink" viewBox="0 0 101.03 101.11"><defs><style>.cls-1{fill:none;}.cls-2{opacity:0.3;}.cls-3{clip-path:url(#clip-path);}.cls-4{fill:#f4e72a;}.cls-5{fill:#6c2479;}.cls-6{fill:#eb8519;}.cls-7{fill:#d80f23;}.cls-8{fill:#63ae35;}.cls-9{fill:#434b96;}.cls-10{fill:#e04624;}.cls-11{fill:#fac515;}.cls-12{fill:#9c183d;}.cls-13{fill:#3491cd;}.cls-14{fill:#d1d828;}.cls-15{fill:#47277b;}</style><clipPath id="clip-path" transform="translate(0 -1.26)"><rect class="cls-1" x="0.06" width="100.92" height="103.63"/></clipPath></defs><title>Asset 14</title><g id="Layer_2" data-name="Layer 2"><g id="Layer_1-2" data-name="Layer 1"><g class="cls-2"><g class="cls-3"><path class="cls-4" d="M42.83,23.68a30,30,0,0,1,7.71-1,29.26,29.26,0,0,1,7.75,1L64,3A51.17,51.17,0,0,0,50.55,1.26,51.85,51.85,0,0,0,37.16,3Z" transform="translate(0 -1.26)"/><path class="cls-5" d="M58.09,80a27.73,27.73,0,0,1-7.41,1,29.23,29.23,0,0,1-7.74-1L37.29,100.7a50.79,50.79,0,0,0,13.39,1.67,49,49,0,0,0,13-1.47Z" transform="translate(0 -1.26)"/><path class="cls-6" d="M71.49,31.62A29.22,29.22,0,0,1,76,37.83a25.66,25.66,0,0,1,2.68,6.8l21-5.31a45.36,45.36,0,0,0-4.88-11.77,51.1,51.1,0,0,0-7.9-10.82Z" transform="translate(0 -1.26)"/><path class="cls-7" d="M78.55,59.48a29.16,29.16,0,0,1-3,7,27.09,27.09,0,0,1-4.61,5.94L86.26,87.9A46.92,46.92,0,0,0,94,77.47a51,51,0,0,0,5.29-12.31Z" transform="translate(0 -1.26)"/><path class="cls-8" d="M29.55,31.54A29.22,29.22,0,0,0,25,37.74a25.66,25.66,0,0,0-2.68,6.8l-21-5.31A45.36,45.36,0,0,1,6.19,27.47a51.1,51.1,0,0,1,7.9-10.82Z" transform="translate(0 -1.26)"/><path class="cls-9" d="M22.49,59.39a29.16,29.16,0,0,0,3,7,27.09,27.09,0,0,0,4.61,5.94L14.77,87.81A46.92,46.92,0,0,1,7.08,77.39,51,51,0,0,1,1.79,65.08Z" transform="translate(0 -1.26)"/></g></g><path class="cls-10" d="M78.7,44.63a25.59,25.59,0,0,1,.89,7.12,29.11,29.11,0,0,1-1,7.73l20.69,5.69A51,51,0,0,0,101,51.75a44.5,44.5,0,0,0-1.32-12.42Z" transform="translate(0 -1.26)"/><path class="cls-11" d="M58.3,23.74a29.37,29.37,0,0,1,13.19,7.88l15.45-14.9A51.32,51.32,0,0,0,64,3Z" transform="translate(0 -1.26)"/><path class="cls-12" d="M70.91,72.45A27,27,0,0,1,65.1,77a27.79,27.79,0,0,1-7,3l5.62,20.94a49.93,49.93,0,0,0,12.23-5.42A46.83,46.83,0,0,0,86.26,87.9Z" transform="translate(0 -1.26)"/><path class="cls-13" d="M22.33,44.55a25.59,25.59,0,0,0-.89,7.12,29.11,29.11,0,0,0,1,7.73L1.79,65.08A51,51,0,0,1,0,51.66,44.5,44.5,0,0,1,1.32,39.24Z" transform="translate(0 -1.26)"/><path class="cls-14" d="M42.83,23.68a29.89,29.89,0,0,0-7.16,3,29.29,29.29,0,0,0-6.13,4.85L14.1,16.64A51.08,51.08,0,0,1,24.72,8.25,51.82,51.82,0,0,1,37.16,3Z" transform="translate(0 -1.26)"/><path class="cls-15" d="M30.12,72.37a27,27,0,0,0,5.81,4.53,27.77,27.77,0,0,0,7,3L37.29,100.7a49.36,49.36,0,0,1-12.2-5.3,46.83,46.83,0,0,1-10.32-7.58Z" transform="translate(0 -1.26)"/></g></g></svg>