<svg xmlns="http://www.w3.org/2000/svg" viewBox="0 0 171.7 242.84"><defs><style>.cls-1{fill:#fff;}.cls-2{fill:#3a3a39;}.cls-3{fill:#616161;}.cls-4{fill:#898988;}.cls-5{fill:#b0b0b0;}.cls-6{fill:#d7d7d7;}</style></defs><title>Asset 137</title><g id="Layer_2" data-name="Layer 2"><g id="Layer_1-2" data-name="Layer 1"><rect class="cls-1" width="171.7" height="242.84"/><path class="cls-2" d="M30.89,103.84h0A12.8,12.8,0,0,0,18.13,116.6v74.52a12.76,12.76,0,1,0,25.52,0V116.6a12.8,12.8,0,0,0-12.76-12.76"/><path class="cls-3" d="M61.26,84.44h0a9.93,9.93,0,0,0-9.91,9.91V152.2a9.91,9.91,0,1,0,19.81,0V94.34a9.94,9.94,0,0,0-9.91-9.91"/><path class="cls-4" d="M91,62.35h0a8.06,8.06,0,0,0-8,8v46.91a8,8,0,1,0,16.06,0V70.38a8.06,8.06,0,0,0-8-8"/><path class="cls-5" d="M120,47.7h0a6.73,6.73,0,0,0-6.71,6.71V93.57a6.71,6.71,0,1,0,13.41,0V54.41A6.73,6.73,0,0,0,120,47.7"/><path class="cls-6" d="M148.68,36.11h0a5.09,5.09,0,0,0-5.08,5.08V70.85a5.08,5.08,0,1,0,10.16,0V41.19a5.09,5.09,0,0,0-5.08-5.08"/></g></g></svg>