<svg xmlns="http://www.w3.org/2000/svg" viewBox="0 0 171.7 242.84"><defs><style>.cls-1{fill:#fff;}.cls-2{fill:#3a3a39;}.cls-3{fill:#616161;}.cls-4{fill:#898988;}.cls-5{fill:#b0b0b0;}.cls-6{fill:#d7d7d7;}</style></defs><title>Asset 142</title><g id="Layer_2" data-name="Layer 2"><g id="Layer_1-2" data-name="Layer 1"><rect class="cls-1" width="171.7" height="242.84"/><path class="cls-2" d="M46.4,38.64h0A22.39,22.39,0,0,0,24.08,61V191.34a22.32,22.32,0,0,0,44.65,0V61A22.39,22.39,0,0,0,46.4,38.64"/><path class="cls-3" d="M107.51,92.09h0a8.71,8.71,0,0,0-8.69,8.69v50.74a8.69,8.69,0,0,0,17.38,0V100.78a8.71,8.71,0,0,0-8.69-8.69"/><path class="cls-4" d="M129.11,107.43h0a4.79,4.79,0,0,0-4.78,4.78v27.9a4.78,4.78,0,1,0,9.55,0V112.2a4.79,4.79,0,0,0-4.78-4.78"/><path class="cls-5" d="M139.08,136.55h0a2.66,2.66,0,0,1-2.65-2.65V118.41a2.65,2.65,0,1,1,5.31,0V133.9a2.66,2.66,0,0,1-2.65,2.65"/><path class="cls-6" d="M146.09,120.13h0a1.54,1.54,0,0,0-1.54,1.54v9a1.54,1.54,0,0,0,3.07,0v-9a1.54,1.54,0,0,0-1.54-1.54"/></g></g></svg>