<svg xmlns="http://www.w3.org/2000/svg" viewBox="0 0 178.29 252.16"><defs><style>.cls-1{fill:#fff;}.cls-2{font-size:7.97px;}.cls-15,.cls-2,.cls-6,.cls-8,.cls-9{fill:#414042;}.cls-15,.cls-19,.cls-2,.cls-20,.cls-6,.cls-8,.cls-9{font-family:ProximaNova-Regular, Proxima Nova;}.cls-3{letter-spacing:0em;}.cls-4{letter-spacing:0em;}.cls-5{letter-spacing:-0.01em;}.cls-6{font-size:6.15px;}.cls-7{letter-spacing:-0.01em;}.cls-8{font-size:5.66px;}.cls-19,.cls-20,.cls-9{font-size:2.89px;}.cls-10{letter-spacing:0em;}.cls-11{letter-spacing:0em;}.cls-12{letter-spacing:-0.01em;}.cls-13,.cls-19{letter-spacing:0em;}.cls-14{letter-spacing:-0.03em;}.cls-15{font-size:6.31px;}.cls-16{letter-spacing:-0.01em;}.cls-17{letter-spacing:0em;}.cls-18{letter-spacing:0em;}.cls-19,.cls-20{fill:#a7a9ac;}</style></defs><title>Asset 147</title><g id="Layer_2" data-name="Layer 2"><g id="Layer_1-2" data-name="Layer 1"><rect class="cls-1" width="178.29" height="252.16"/><text class="cls-2" transform="translate(26.85 34.81)">Lorem ipsum</text><text class="cls-2" transform="translate(26.85 136.51)"><tspan class="cls-3">L</tspan><tspan class="cls-4" x="3.91" y="0">o</tspan><tspan class="cls-5" x="8.47" y="0">r</tspan><tspan x="11.01" y="0">em ipsum</tspan></text><text class="cls-6" transform="translate(39.84 48.9)">P<tspan class="cls-7" x="3.61" y="0">r</tspan><tspan x="5.61" y="0">oin purus metus</tspan></text><text class="cls-8" transform="translate(39.84 150.6)">Proin purus metus</text><text class="cls-9" transform="translate(39.84 59.72)">Lo<tspan class="cls-10" x="3.08" y="0">r</tspan><tspan class="cls-11" x="4.03" y="0">em ipsum dolor sit amet, consectetur adipiscing elit. </tspan><tspan class="cls-12" x="70.3" y="0">F</tspan><tspan x="71.88" y="0">usce </tspan></text><text class="cls-9" transform="translate(39.84 64.35)">id luctus quam. In diam metus, pha<tspan class="cls-10" x="43.75" y="0">r</tspan><tspan class="cls-11" x="44.7" y="0">etra sit amet pulvinar in, </tspan></text><text class="cls-9" transform="translate(39.84 68.98)">interdum et magna. <tspan class="cls-13" x="25.33" y="0">E</tspan><tspan x="26.97" y="0">tiam velit metus, vestibulum bibendum sapien </tspan></text><text class="cls-9" transform="translate(39.84 73.61)">blandit, tincidunt faucibus justo. <tspan class="cls-14" x="40.57" y="0">V</tspan><tspan class="cls-11" x="42.39" y="0">estibulum sodales turpis nec </tspan></text><text class="cls-9" transform="translate(39.84 78.24)">venen<tspan class="cls-10" x="7.87" y="0">a</tspan><tspan x="9.39" y="0">tis elementum. </tspan></text><text class="cls-15" transform="matrix(0.97, 0, -0.22, 0.97, 39.87, 94.39)"><tspan class="cls-16">“</tspan><tspan class="cls-17" x="2.42" y="0">E</tspan><tspan x="6" y="0">tiam velit metus, vestibulum </tspan></text><text class="cls-15" transform="matrix(0.97, 0, -0.22, 0.97, 39.87, 102.09)">bibendum sapien blandit, </text><text class="cls-15" transform="matrix(0.97, 0, -0.22, 0.97, 39.87, 109.8)">tincidunt faucibus justo.” </text><text class="cls-9" transform="translate(54.91 164.69)">Lo<tspan class="cls-10" x="3.08" y="0">r</tspan><tspan class="cls-11" x="4.03" y="0">em ipsum dolor sit amet, </tspan></text><text class="cls-9" transform="translate(54.91 169.32)">consectetur adipiscing elit. </text><text class="cls-9" transform="translate(54.91 173.95)"><tspan class="cls-12">F</tspan><tspan x="1.58" y="0">usce id luctus quam. In </tspan></text><text class="cls-9" transform="translate(54.91 178.58)">diam metus, pha<tspan class="cls-13" x="20.89" y="0">r</tspan><tspan x="21.83" y="0">etra sit </tspan></text><text class="cls-9" transform="translate(54.91 183.21)">amet pulvinar in, interdum </text><text class="cls-9" transform="translate(54.91 187.84)">et magna. <tspan class="cls-18" x="13.3" y="0">E</tspan><tspan x="14.94" y="0">tiam velit metus, </tspan></text><text class="cls-9" transform="translate(54.91 192.47)">vestibulum bibendum sapien </text><text class="cls-19" transform="translate(59.75 206.26)">E<tspan class="cls-11" x="1.64" y="0">tiam velit metus, vestibulum bibendum sapien blandit, tincidunt </tspan></text><text class="cls-20" transform="translate(55.98 210.89)">faucibus justo. <tspan class="cls-14" x="18.9" y="0">V</tspan><tspan x="20.72" y="0">estibulum sodales turpis nec venen</tspan><tspan class="cls-13" x="65.45" y="0">a</tspan><tspan x="66.97" y="0">tis elementum. </tspan></text><text class="cls-20" transform="translate(62.74 215.52)">Integer vel mi vitae sapien condimentum cursus. Aliquam vitae </text><text class="cls-20" transform="translate(60.28 220.15)">urna odio. Aenean scelerisque quis er<tspan class="cls-10" x="47.96" y="0">a</tspan><tspan x="49.48" y="0">t non rutrum. Mauris vitae </tspan></text><text class="cls-20" transform="translate(55.61 224.78)">lo<tspan class="cls-10" x="2.31" y="0">r</tspan><tspan x="3.26" y="0">em </tspan><tspan class="cls-10" x="7.97" y="0">a</tspan><tspan class="cls-11" x="9.5" y="0">t metus imperdiet condimentum. Suspendisse potenti. Nunc </tspan></text><text class="cls-20" transform="translate(86.55 229.41)">commodo risus sit amet vestibulum dapibus.</text><text class="cls-9" transform="translate(102.76 164.69)">blandit, tincidunt faucibus </text><text class="cls-9" transform="translate(102.76 169.32)">justo. <tspan class="cls-14" x="7.52" y="0">V</tspan><tspan class="cls-11" x="9.34" y="0">estibulum sodales turpis </tspan></text><text class="cls-9" transform="translate(102.76 173.95)">nec venen<tspan class="cls-13" x="13.28" y="0">a</tspan><tspan class="cls-11" x="14.8" y="0">tis elementum. </tspan></text><text class="cls-9" transform="translate(102.76 178.58)">Integer vel mi vitae sapien </text><text class="cls-9" transform="translate(102.76 183.21)">condimentum cursus. Aliquam </text><text class="cls-9" transform="translate(102.76 187.84)">vitae urna odio. </text></g></g></svg>