<svg xmlns="http://www.w3.org/2000/svg" xmlns:xlink="http://www.w3.org/1999/xlink" viewBox="0 0 99.9 99.98"><defs><style>.cls-1,.cls-15{fill:none;}.cls-2{clip-path:url(#clip-path);}.cls-3{fill:#f4e525;}.cls-4{fill:#6c2979;}.cls-5{fill:#de4826;}.cls-6{fill:#f9c519;}.cls-7{fill:#ea8524;}.cls-8{fill:#d61f26;}.cls-9{fill:#9c1b3e;}.cls-10{fill:#3791cc;}.cls-11{fill:#d2d927;}.cls-12{fill:#64af45;}.cls-13{fill:#424c96;}.cls-14{fill:#482d7b;}.cls-15{stroke:#fff;stroke-miterlimit:10;stroke-width:1.16px;}</style><clipPath id="clip-path" transform="translate(0 0)"><rect class="cls-1" width="99.83" height="99.84"/></clipPath></defs><title>Asset 16</title><g id="Layer_2" data-name="Layer 2"><g id="Layer_1-2" data-name="Layer 1"><g class="cls-2"><path class="cls-3" d="M42.36,22.17a29.65,29.65,0,0,1,7.63-1,28.93,28.93,0,0,1,7.66,1L63.27,1.77A50.59,50.59,0,0,0,50,0,51.26,51.26,0,0,0,36.74,1.71Z" transform="translate(0 0)"/><path class="cls-4" d="M57.44,77.82a27.38,27.38,0,0,1-7.33,1,28.9,28.9,0,0,1-7.66-1L36.87,98.33A50.2,50.2,0,0,0,50.12,100,48.47,48.47,0,0,0,63,98.52Z" transform="translate(0 0)"/><path class="cls-5" d="M77.82,42.88a25.27,25.27,0,0,1,.88,7,28.8,28.8,0,0,1-1,7.64l20.46,5.62A50.44,50.44,0,0,0,99.9,49.92a44,44,0,0,0-1.3-12.28Z" transform="translate(0 0)"/></g><path class="cls-6" d="M57.65,22.23a29,29,0,0,1,13,7.79L86,15.29A50.76,50.76,0,0,0,63.27,1.77Z" transform="translate(0 0)"/><path class="cls-7" d="M70.69,30a29,29,0,0,1,4.48,6.13,25.36,25.36,0,0,1,2.65,6.73L98.6,37.64A44.82,44.82,0,0,0,93.78,26,50.5,50.5,0,0,0,86,15.29Z" transform="translate(0 0)"/><path class="cls-8" d="M77.67,57.57a28.81,28.81,0,0,1-3,7,26.75,26.75,0,0,1-4.56,5.87L85.3,85.67a46.45,46.45,0,0,0,7.6-10.31,50.5,50.5,0,0,0,5.23-12.17Z" transform="translate(0 0)"/><g class="cls-2"><path class="cls-9" d="M70.12,70.4a26.65,26.65,0,0,1-5.75,4.48,27.54,27.54,0,0,1-6.93,2.95L63,98.52A49.4,49.4,0,0,0,75.1,93.16a46.26,46.26,0,0,0,10.2-7.5Z" transform="translate(0 0)"/><path class="cls-10" d="M22.08,42.8a25.27,25.27,0,0,0-.88,7,28.78,28.78,0,0,0,1,7.64L1.77,63.11A50.44,50.44,0,0,1,0,49.84,44,44,0,0,1,1.3,37.56Z" transform="translate(0 0)"/></g><path class="cls-11" d="M42.36,22.17a29.45,29.45,0,0,0-7.08,3,28.9,28.9,0,0,0-6.06,4.8L13.94,15.21a50.51,50.51,0,0,1,10.51-8.3,51.17,51.17,0,0,1,12.3-5.2Z" transform="translate(0 0)"/><path class="cls-12" d="M29.21,29.94a29,29,0,0,0-4.48,6.13,25.36,25.36,0,0,0-2.65,6.73L1.3,37.56A44.82,44.82,0,0,1,6.13,25.91a50.5,50.5,0,0,1,7.81-10.7Z" transform="translate(0 0)"/><path class="cls-13" d="M22.23,57.48a28.8,28.8,0,0,0,3,7,26.75,26.75,0,0,0,4.56,5.87L14.6,85.58A46.45,46.45,0,0,1,7,75.27,50.5,50.5,0,0,1,1.77,63.1Z" transform="translate(0 0)"/><path class="cls-14" d="M29.78,70.31a26.65,26.65,0,0,0,5.75,4.48,27.5,27.5,0,0,0,6.93,3L36.87,98.33a48.74,48.74,0,0,1-12.06-5.25,46.3,46.3,0,0,1-10.21-7.5Z" transform="translate(0 0)"/><path class="cls-15" d="M86.66,69.38a3.87,3.87,0,1,1-3.87-3.87A3.88,3.88,0,0,1,86.66,69.38Zm-65.82,0A3.87,3.87,0,1,1,17,65.5,3.87,3.87,0,0,1,20.84,69.38Zm33-58A3.87,3.87,0,1,1,50,7.5,3.87,3.87,0,0,1,53.83,11.37Z" transform="translate(0 0)"/></g></g></svg>