<svg xmlns="http://www.w3.org/2000/svg" xmlns:xlink="http://www.w3.org/1999/xlink" viewBox="0 0 179.56 179.56"><defs><style>.cls-1,.cls-2,.cls-5,.cls-7,.cls-8,.cls-9{fill:none;}.cls-2,.cls-5{stroke:#3a3a39;}.cls-2,.cls-5,.cls-7,.cls-8,.cls-9{stroke-miterlimit:10;}.cls-2{stroke-width:2.46px;}.cls-3{opacity:0.1;}.cls-4{clip-path:url(#clip-path);}.cls-5{stroke-width:3px;}.cls-6{fill:#3a3a39;}.cls-7,.cls-8,.cls-9{stroke:#80cff1;}.cls-7{stroke-width:2.81px;}.cls-8{stroke-width:4.12px;}.cls-9{stroke-width:1.85px;}</style><clipPath id="clip-path" transform="translate(-1.43 -1.43)"><rect class="cls-1" width="182.41" height="182.41"/></clipPath></defs><title>Asset 172</title><g id="Layer_2" data-name="Layer 2"><g id="Layer_1-2" data-name="Layer 1"><circle class="cls-2" cx="89.69" cy="89.78" r="11.6"/><g class="cls-3"><g class="cls-4"><line class="cls-5" x1="89.78" y1="89.69" x2="89.78" y2="172.14"/><polygon class="cls-6" points="89.78 179.56 100.32 168.22 79.24 168.22 89.78 179.56"/><line class="cls-5" x1="89.78" y1="89.86" x2="89.78" y2="7.42"/><polygon class="cls-6" points="89.78 0 79.24 11.34 100.32 11.34 89.78 0"/><line class="cls-5" x1="89.86" y1="89.78" x2="7.42" y2="89.78"/><polygon class="cls-6" points="0 89.78 11.34 100.32 11.34 79.24 0 89.78"/><line class="cls-5" x1="89.69" y1="89.78" x2="172.14" y2="89.78"/><polygon class="cls-6" points="179.56 89.78 168.22 79.24 168.22 100.32 179.56 89.78"/><line class="cls-5" x1="89.72" y1="89.72" x2="148.02" y2="148.02"/><polygon class="cls-6" points="153.26 153.26 152.7 137.79 137.79 152.7 153.26 153.26"/><line class="cls-5" x1="89.84" y1="89.84" x2="31.54" y2="31.54"/><polygon class="cls-6" points="26.3 26.3 26.86 41.77 41.77 26.86 26.3 26.3"/><line class="cls-5" x1="89.84" y1="89.72" x2="31.54" y2="148.02"/><polygon class="cls-6" points="26.3 153.26 41.77 152.7 26.86 137.79 26.3 153.26"/><line class="cls-5" x1="89.72" y1="89.84" x2="148.02" y2="31.54"/><polygon class="cls-6" points="153.26 26.3 137.79 26.86 152.7 41.77 153.26 26.3"/></g></g><circle class="cls-7" cx="89.69" cy="89.78" r="42.93"/><circle class="cls-8" cx="89.69" cy="89.78" r="62.85"/><circle class="cls-9" cx="89.69" cy="89.78" r="28.15"/></g></g></svg>