<svg xmlns="http://www.w3.org/2000/svg" viewBox="0 0 139.14 196.78"><defs><style>.cls-1{fill:#fff;}.cls-2{fill:#3a3a39;}.cls-3{fill:#808285;}</style></defs><title>Asset 73</title><g id="Layer_2" data-name="Layer 2"><g id="Layer_1-2" data-name="Layer 1"><rect class="cls-1" width="139.14" height="196.78"/><path class="cls-2" d="M44.35,160.59h0a6.62,6.62,0,0,0,6.6,6.6H89.49a6.6,6.6,0,0,0,0-13.2H50.95a6.62,6.62,0,0,0-6.6,6.6"/><path class="cls-3" d="M116.74,22.3h0a6.62,6.62,0,0,0-6.6,6.6V67.45a6.6,6.6,0,0,0,13.2,0V28.9a6.62,6.62,0,0,0-6.6-6.6"/><path class="cls-2" d="M96.09,63.14h0a6.62,6.62,0,0,0-6.6-6.6H50.95a6.6,6.6,0,0,0,0,13.2H89.49a6.62,6.62,0,0,0,6.6-6.6"/><path class="cls-2" d="M96.09,132.6h0a6.62,6.62,0,0,0-6.6-6.6H50.95a6.6,6.6,0,0,0,0,13.2H89.49a6.62,6.62,0,0,0,6.6-6.6"/><path class="cls-3" d="M21.45,172.63h0A6.62,6.62,0,0,0,28,166V127.49a6.6,6.6,0,0,0-13.2,0V166a6.62,6.62,0,0,0,6.6,6.6"/><path class="cls-3" d="M21.13,111.14h0a6.62,6.62,0,0,0,6.6-6.6V66a6.6,6.6,0,0,0-13.2,0v38.55a6.62,6.62,0,0,0,6.6,6.6"/><path class="cls-3" d="M116.74,135h0a6.62,6.62,0,0,0,6.6-6.6V89.9a6.6,6.6,0,0,0-13.2,0v38.55a6.62,6.62,0,0,0,6.6,6.6"/><path class="cls-2" d="M96.09,99.57h0a6.62,6.62,0,0,0-6.6-6.6H50.95a6.6,6.6,0,0,0,0,13.2H89.49a6.62,6.62,0,0,0,6.6-6.6"/></g></g></svg>