<svg xmlns="http://www.w3.org/2000/svg" viewBox="0 0 139.14 196.78"><defs><style>.cls-1{fill:#fff;}.cls-2{fill:#3a3a39;}.cls-3{fill:#808285;}</style></defs><title>Asset 74</title><g id="Layer_2" data-name="Layer 2"><g id="Layer_1-2" data-name="Layer 1"><rect class="cls-1" width="139.14" height="196.78"/><path class="cls-2" d="M70.29,45.65h0a4.59,4.59,0,0,0-4.57,4.57V76.93a4.57,4.57,0,1,0,9.15,0V50.22a4.59,4.59,0,0,0-4.57-4.57"/><path class="cls-2" d="M70.29,114.48h0a4.59,4.59,0,0,0-4.57,4.57v26.71a4.57,4.57,0,1,0,9.15,0V119.05a4.59,4.59,0,0,0-4.57-4.57"/><path class="cls-2" d="M122.64,98h0a4.59,4.59,0,0,0-4.57-4.57H91.35a4.57,4.57,0,1,0,0,9.15h26.71A4.59,4.59,0,0,0,122.64,98"/><path class="cls-2" d="M53.81,98h0a4.59,4.59,0,0,0-4.57-4.57H22.52a4.57,4.57,0,1,0,0,9.15H49.23A4.59,4.59,0,0,0,53.81,98"/><path class="cls-3" d="M107.31,61h0a4.59,4.59,0,0,0-6.47,0L82,79.87a4.57,4.57,0,0,0,6.47,6.47l18.89-18.89a4.59,4.59,0,0,0,0-6.47"/><path class="cls-3" d="M58.64,109.65h0a4.59,4.59,0,0,0-6.47,0L33.28,128.54A4.57,4.57,0,0,0,39.75,135l18.89-18.89a4.59,4.59,0,0,0,0-6.47"/><path class="cls-3" d="M107.31,135h0a4.59,4.59,0,0,0,0-6.47L88.42,109.65A4.57,4.57,0,0,0,82,116.12L100.84,135a4.59,4.59,0,0,0,6.47,0"/><path class="cls-3" d="M58.64,86.33h0a4.59,4.59,0,0,0,0-6.47L39.75,61a4.57,4.57,0,0,0-6.47,6.47L52.17,86.33a4.59,4.59,0,0,0,6.47,0"/></g></g></svg>