<svg xmlns="http://www.w3.org/2000/svg" viewBox="0 0 139.14 196.78"><defs><style>.cls-1{fill:#fff;}.cls-2{fill:#3a3a39;}.cls-3{fill:#808285;}</style></defs><title>Asset 75</title><g id="Layer_2" data-name="Layer 2"><g id="Layer_1-2" data-name="Layer 1"><rect class="cls-1" width="139.14" height="196.78"/><path class="cls-2" d="M39.26,162h0a6.93,6.93,0,0,0,6.91,6.91H86.51a6.91,6.91,0,0,0,0-13.82H46.17A6.93,6.93,0,0,0,39.26,162"/><path class="cls-3" d="M82.62,17.23h0a6.93,6.93,0,0,0-6.91,6.91V64.48a6.91,6.91,0,0,0,13.82,0V24.13a6.93,6.93,0,0,0-6.91-6.91"/><path class="cls-2" d="M93.42,60h0a6.93,6.93,0,0,0-6.91-6.91H46.17a6.91,6.91,0,0,0,0,13.82H86.51A6.93,6.93,0,0,0,93.42,60"/><path class="cls-2" d="M93.42,132.67h0a6.93,6.93,0,0,0-6.91-6.91H46.17a6.91,6.91,0,0,0,0,13.82H86.51a6.93,6.93,0,0,0,6.91-6.91"/><path class="cls-3" d="M52.43,174.57h0a6.93,6.93,0,0,0,6.91-6.91V127.32a6.91,6.91,0,0,0-13.82,0v40.34a6.93,6.93,0,0,0,6.91,6.91"/><path class="cls-3" d="M54.59,110.21h0a6.93,6.93,0,0,0,6.91-6.91V63a6.91,6.91,0,0,0-13.82,0v40.34a6.93,6.93,0,0,0,6.91,6.91"/><path class="cls-3" d="M82.62,135.23h0a6.93,6.93,0,0,0,6.91-6.91V88a6.91,6.91,0,0,0-13.82,0v40.34a6.93,6.93,0,0,0,6.91,6.91"/><path class="cls-2" d="M93.42,98.1h0a6.93,6.93,0,0,0-6.91-6.91H46.17a6.91,6.91,0,0,0,0,13.82H86.51a6.93,6.93,0,0,0,6.91-6.91"/></g></g></svg>