<svg xmlns="http://www.w3.org/2000/svg" viewBox="0 0 139.14 196.78"><defs><style>.cls-1{fill:#fff;}.cls-2{fill:#3a3a39;}.cls-3{fill:#616161;}.cls-4{fill:#898988;}.cls-5{fill:#b0b0b0;}.cls-6{fill:#d7d7d7;}</style></defs><title>Asset 82</title><g id="Layer_2" data-name="Layer 2"><g id="Layer_1-2" data-name="Layer 1"><rect class="cls-1" width="139.14" height="196.78"/><path class="cls-2" d="M41.5,29h0A16.76,16.76,0,0,0,24.79,45.75v97.61a16.71,16.71,0,1,0,33.43,0V45.75A16.76,16.76,0,0,0,41.5,29"/><path class="cls-3" d="M87.25,69.05h0a6.52,6.52,0,0,0-6.51,6.51v38a6.51,6.51,0,0,0,13,0v-38a6.52,6.52,0,0,0-6.5-6.51"/><path class="cls-4" d="M103.43,80.53h0a3.59,3.59,0,0,0-3.58,3.58V105a3.58,3.58,0,1,0,7.15,0V84.11a3.59,3.59,0,0,0-3.58-3.58"/><path class="cls-5" d="M110.89,102.34h0a2,2,0,0,1-2-2V88.75a2,2,0,0,1,4,0v11.6a2,2,0,0,1-2,2"/><path class="cls-6" d="M116.14,90h0A1.15,1.15,0,0,0,115,91.2v6.71a1.15,1.15,0,1,0,2.3,0V91.2A1.15,1.15,0,0,0,116.14,90"/></g></g></svg>