<svg xmlns="http://www.w3.org/2000/svg" viewBox="0 0 204.16 204.31"><defs><style>.cls-1{fill:#efe700;}.cls-2{fill:#671f7c;}.cls-3{fill:#d3441c;}.cls-4{fill:#f2c400;}.cls-5{fill:#e08300;}.cls-6{fill:#ca0021;}.cls-7{fill:#92123e;}.cls-8{fill:#498ecf;}.cls-9{fill:#cfd800;}.cls-10{fill:#6eae18;}.cls-11{fill:#464998;}.cls-12{fill:#45237f;}</style></defs><title>Asset 10</title><g id="Layer_2" data-name="Layer 2"><g id="Layer_1-2" data-name="Layer 1"><path class="cls-1" d="M86.56,45.31a60.63,60.63,0,0,1,15.58-2,59.16,59.16,0,0,1,15.66,2.1L129.29,3.61A103.38,103.38,0,0,0,102.14,0,104.75,104.75,0,0,0,75.08,3.49Z"/><path class="cls-2" d="M117.39,159a56,56,0,0,1-15,1.95,59.06,59.06,0,0,1-15.65-2.11L75.35,200.93a102.59,102.59,0,0,0,27.06,3.38c9.19,0,17.69-.65,26.34-3Z"/><path class="cls-3" d="M159,87.64A51.67,51.67,0,0,1,160.83,102a58.85,58.85,0,0,1-2.11,15.62l41.82,11.49A103.07,103.07,0,0,0,204.16,102c0-9.19-.33-16.46-2.66-25.1Z"/><path class="cls-4" d="M117.8,45.43a59.31,59.31,0,0,1,26.65,15.92l31.22-30.1A103.72,103.72,0,0,0,129.29,3.61Z"/><path class="cls-5" d="M144.46,61.35a59.15,59.15,0,0,1,9.15,12.53A51.84,51.84,0,0,1,159,87.64L201.5,76.91c-2.1-8.8-5.41-15.64-9.86-23.79a103.18,103.18,0,0,0-16-21.87Z"/><path class="cls-6" d="M158.72,117.64a58.84,58.84,0,0,1-6.12,14.22,54.7,54.7,0,0,1-9.31,12l31,31.2c6.5-6.29,10.79-13.08,15.54-21.07a103.15,103.15,0,0,0,10.69-24.87Z"/><path class="cls-7" d="M143.29,143.86A54.46,54.46,0,0,1,131.55,153a56.16,56.16,0,0,1-14.16,6l11.36,42.3c8.73-2.37,16.7-6.25,24.71-10.95s14.57-8.94,20.85-15.32Z"/><path class="cls-8" d="M45.13,87.47a51.67,51.67,0,0,0-1.8,14.38,58.84,58.84,0,0,0,2.11,15.62L3.62,129A103.07,103.07,0,0,1,0,101.85c0-9.19.33-16.46,2.66-25.1Z"/><path class="cls-9" d="M86.56,45.31a60.27,60.27,0,0,0-14.46,6.06,59.11,59.11,0,0,0-12.39,9.81L28.48,31.08A103.17,103.17,0,0,1,50,14.13,104.67,104.67,0,0,1,75.08,3.49Z"/><path class="cls-10" d="M59.7,61.18a59.15,59.15,0,0,0-9.15,12.53,51.84,51.84,0,0,0-5.42,13.75L2.66,76.75c2.1-8.8,5.4-15.64,9.86-23.79a103.18,103.18,0,0,1,16-21.87Z"/><path class="cls-11" d="M45.44,117.47a58.84,58.84,0,0,0,6.12,14.22,54.7,54.7,0,0,0,9.31,12l-31,31.2c-6.5-6.29-10.79-13.08-15.54-21.07A103.19,103.19,0,0,1,3.62,129Z"/><path class="cls-12" d="M60.87,143.69a54.46,54.46,0,0,0,11.75,9.15,56.13,56.13,0,0,0,14.15,6L75.35,200.93A99.72,99.72,0,0,1,50.7,190.21c-7.93-4.65-14.57-8.94-20.85-15.32Z"/></g></g></svg>