<svg xmlns="http://www.w3.org/2000/svg" xmlns:xlink="http://www.w3.org/1999/xlink" viewBox="0 0 555.82 249.04"><defs><style>.cls-1,.cls-17,.cls-5,.cls-7{fill:none;}.cls-2{fill:#414042;}.cls-3{opacity:0.9;}.cls-4{clip-path:url(#clip-path);}.cls-17,.cls-5,.cls-7{stroke:#009fe3;stroke-miterlimit:10;}.cls-5,.cls-7{stroke-width:0.5px;}.cls-6{clip-path:url(#clip-path-2);}.cls-7{stroke-dasharray:2 2;}.cls-8{clip-path:url(#clip-path-3);}.cls-9{font-size:11.25px;}.cls-10,.cls-12,.cls-9{fill:#1d9dd8;font-family:ProximaNova-Regular, Proxima Nova;}.cls-10,.cls-12{font-size:9.85px;}.cls-11{letter-spacing:0em;}.cls-12{letter-spacing:-0.09em;}.cls-13{letter-spacing:0em;}.cls-14{fill:#9e9e9d;}.cls-15{fill:#636362;}.cls-16{clip-path:url(#clip-path-4);}.cls-17{stroke-width:0.25px;}.cls-18{clip-path:url(#clip-path-5);}.cls-19{fill:#009fe3;}.cls-20{clip-path:url(#clip-path-6);}.cls-21{clip-path:url(#clip-path-7);}.cls-22{clip-path:url(#clip-path-8);}.cls-23{clip-path:url(#clip-path-9);}.cls-24{clip-path:url(#clip-path-10);}.cls-25{clip-path:url(#clip-path-11);}.cls-26{clip-path:url(#clip-path-12);}.cls-27{clip-path:url(#clip-path-13);}.cls-28{clip-path:url(#clip-path-14);}.cls-29{clip-path:url(#clip-path-15);}.cls-30{clip-path:url(#clip-path-16);}</style><clipPath id="clip-path" transform="translate(-1.41)"><rect class="cls-1" y="54.08" width="472.62" height="3.52"/></clipPath><clipPath id="clip-path-2" transform="translate(-1.41)"><rect class="cls-1" y="216.54" width="472.62" height="3.52"/></clipPath><clipPath id="clip-path-3" transform="translate(-1.41)"><rect class="cls-1" y="90.96" width="472.62" height="3.52"/></clipPath><clipPath id="clip-path-4" transform="translate(-1.41)"><rect class="cls-1" x="51.85" y="3.4" width="38.67" height="60.5"/></clipPath><clipPath id="clip-path-5" transform="translate(-1.41)"><rect class="cls-1" x="87.89" y="58.65" width="7.32" height="7.32"/></clipPath><clipPath id="clip-path-6" transform="translate(-1.41)"><rect class="cls-1" x="106.74" y="135.54" width="7.32" height="7.32"/></clipPath><clipPath id="clip-path-7" transform="translate(-1.41)"><rect class="cls-1" x="251.44" y="151.85" width="7.33" height="7.32"/></clipPath><clipPath id="clip-path-8" transform="translate(-1.41)"><rect class="cls-1" x="52.77" y="137.45" width="56.61" height="107.58"/></clipPath><clipPath id="clip-path-9" transform="translate(-1.41)"><rect class="cls-1" x="327.15" y="208.14" width="7.32" height="7.32"/></clipPath><clipPath id="clip-path-10" transform="translate(-1.41)"><rect class="cls-1" x="352.06" y="198.17" width="7.32" height="7.32"/></clipPath><clipPath id="clip-path-11" transform="translate(-1.41)"><rect class="cls-1" x="329.23" y="210.72" width="3.16" height="34.31"/></clipPath><clipPath id="clip-path-12" transform="translate(-1.41)"><rect class="cls-1" x="354.32" y="200.25" width="55.32" height="46.72"/></clipPath><clipPath id="clip-path-13" transform="translate(-1.41)"><rect class="cls-1" y="182.66" width="472.62" height="3.52"/></clipPath><clipPath id="clip-path-14" transform="translate(-1.41)"><rect class="cls-1" x="237.84" y="153.93" width="18.67" height="91.1"/></clipPath><clipPath id="clip-path-15" transform="translate(-1.41)"><rect class="cls-1" x="228.64" y="140.06" width="7.33" height="7.32"/></clipPath><clipPath id="clip-path-16" transform="translate(-1.41)"><rect class="cls-1" x="208.73" y="4.4" width="24.98" height="140.9"/></clipPath></defs><title>Asset 100</title><g id="Layer_2" data-name="Layer 2"><g id="Layer_1-2" data-name="Layer 1"><path class="cls-2" d="M355.38,184.25l-4.62,10c-3.27,7.31-3.85,8.08-6.35,9.81a16.45,16.45,0,0,1-8.66,2.12,64,64,0,0,1-9.23-.77v12.31a70.63,70.63,0,0,0,11.74,1c7.12,0,13.08-1.54,16.93-4.42,3.66-2.89,7.12-8.47,12.7-21.55l37.33-86.39h9V94.39H372.31v11.93h17.12L365.57,164a9.69,9.69,0,0,0-1,2.89A7.47,7.47,0,0,0,364,169a38,38,0,0,0-1.54-5l-25.2-57.72h17.32V94.39H310.74v11.93h9.81Zm-73.31-42.52c-1.15,12.31-2.69,17.32-6.35,22.13-5,6.54-13.28,10-23.28,10-11.54,0-18.86-6-18.86-15.39A14.61,14.61,0,0,1,240.32,146c5-3.27,12.12-4.62,25.78-4.62,6.73,0,10.39,0,16,.39m-45.41-21.55c1-10.2,8.66-15.58,22.9-15.58,7.5,0,13.28,1.54,16.93,4.81,4,3.46,5.39,7.31,5.19,16.93v3.85c-10.39-.39-14.43-.39-16.74-.39-15.59,0-25.59,1.35-32.13,4.23-10.58,4.81-16.16,13.28-16.16,25,0,17.32,12.12,27.32,32.9,27.32,17.89,0,28.28-6.35,33.48-21v18.66h30.59V172.12H297.27V126.72c0-13.66-1.73-19.82-7.31-25.4q-9.24-9.24-30.59-9.23c-24.82,0-37.13,8.85-39.44,28.09Zm-117.75-4.81V68.42h26.55c17.89,0,26.75,7.7,26.75,23.28,0,16.16-10.2,23.67-32.32,23.67Zm0,12.89h21.36c13.85,0,19.43,3.66,23.67,15.78l12.51,40H205.3v-12.7H190.49l-9.81-30.21c-3.46-12.12-9-17.13-20.4-18.28,19-1.92,29.44-13.66,29.44-33.29,0-10.58-3.27-18.66-9.81-24.63-7.5-6.54-17.7-9.24-35-9.24H81.78v12.7h20V171.35h-20v12.7h55.8v-12.7H118.91Z" transform="translate(-1.41)"/><g class="cls-3"><g class="cls-4"><line class="cls-5" y1="55.84" x2="469.81" y2="55.84"/></g></g><g class="cls-3"><g class="cls-6"><line class="cls-7" y1="218.3" x2="469.81" y2="218.3"/></g></g><g class="cls-3"><g class="cls-8"><line class="cls-7" y1="92.72" x2="469.81" y2="92.72"/></g></g><text class="cls-9" transform="translate(486.8 57.1)">Cap height</text><text class="cls-10" transform="translate(62.56 8.21)">Slab serif</text><text class="cls-10" transform="translate(219.54 8.21)">Bowl</text><text class="cls-10" transform="translate(244 246.97)">Counter</text><text class="cls-10" transform="translate(66.18 245.02)"><tspan class="cls-11">S</tspan><tspan x="5.75" y="0">tem</tspan></text><text class="cls-12" transform="translate(344.46 246.97)">T<tspan class="cls-13" x="4.77" y="0">erminal</tspan></text><text class="cls-10" transform="translate(416.63 246.97)">Descender</text><text class="cls-9" transform="translate(486.8 186.67)">Base line</text><text class="cls-9" transform="translate(486.8 220.56)">Desender line</text><text class="cls-9" transform="translate(486.8 94.83)">X height</text><rect class="cls-14" x="80.37" y="56.19" width="20.01" height="12.25"/><rect class="cls-15" x="100.39" y="55.84" width="17.22" height="128.38"/><g class="cls-3"><g class="cls-16"><polyline class="cls-17" points="87.71 62.31 52.03 62.31 52.03 4.81"/></g></g><g class="cls-3"><g class="cls-18"><path class="cls-19" d="M91.55,64.57a2.26,2.26,0,1,0-2.26-2.26,2.26,2.26,0,0,0,2.26,2.26" transform="translate(-1.41)"/></g></g><g class="cls-3"><g class="cls-20"><path class="cls-19" d="M110.41,141.46a2.26,2.26,0,1,0-2.26-2.26,2.26,2.26,0,0,0,2.26,2.26" transform="translate(-1.41)"/></g></g><g class="cls-3"><g class="cls-21"><path class="cls-19" d="M255.1,157.77a2.26,2.26,0,1,0-2.26-2.26,2.26,2.26,0,0,0,2.26,2.26" transform="translate(-1.41)"/></g></g><g class="cls-3"><g class="cls-22"><polyline class="cls-17" points="106.57 139.03 52.95 139.03 52.95 243.62"/></g></g><path class="cls-15" d="M335.65,206.15a64,64,0,0,1-9.23-.77v12.31a70.63,70.63,0,0,0,11.74,1c7.12,0,13.08-1.54,16.93-4.42,3.66-2.89,7.12-8.47,12.7-21.55l3.72-8.61h-16.3l.07.15-4.62,10c-3.27,7.31-3.85,8.08-6.35,9.81a16.46,16.46,0,0,1-8.66,2.12" transform="translate(-1.41)"/><path class="cls-14" d="M336.38,206.15c-.25,0-.47,0-.73,0a63.77,63.77,0,0,1-9.24-.77v12.32a69.51,69.51,0,0,0,10,.92Z" transform="translate(-1.41)"/><g class="cls-3"><g class="cls-23"><path class="cls-19" d="M330.81,214.06a2.26,2.26,0,1,0-2.26-2.26,2.26,2.26,0,0,0,2.26,2.26" transform="translate(-1.41)"/></g></g><g class="cls-3"><g class="cls-24"><path class="cls-19" d="M355.73,204.09a2.26,2.26,0,1,0-2.26-2.26,2.26,2.26,0,0,0,2.26,2.26" transform="translate(-1.41)"/></g></g><g class="cls-3"><g class="cls-25"><line class="cls-17" x1="329.4" y1="212.12" x2="329.4" y2="243.62"/></g></g><g class="cls-3"><g class="cls-26"><polyline class="cls-17" points="354.32 201.84 406.66 201.84 406.66 245.57"/></g></g><path class="cls-15" d="M233.67,158.34a14.61,14.61,0,0,1,6.74-12.51c5-3.27,12.12-4.62,25.78-4.62,6.73,0,10.39,0,16,.39-1.15,12.31-2.69,17.32-6.35,22.13-5,6.54-13.28,10-23.28,10-11.54,0-18.86-6-18.86-15.39m49.48-28.15h-1.4v-.14c-10.37-.38-14.41-.38-16.72-.38-15.59,0-25.59,1.35-32.13,4.23-10.58,4.81-16.16,13.28-16.16,25,0,17.32,12.12,27.32,32.9,27.32,17.89,0,28.28-6.35,33.48-21" transform="translate(-1.41)"/><g class="cls-3"><g class="cls-27"><line class="cls-5" y1="184.41" x2="469.81" y2="184.41"/></g></g><g class="cls-3"><g class="cls-28"><polyline class="cls-17" points="253.7 155.51 238.01 155.51 238.01 243.62"/></g></g><g class="cls-3"><g class="cls-29"><path class="cls-19" d="M232.31,146a2.26,2.26,0,1,0-2.26-2.26,2.26,2.26,0,0,0,2.26,2.26" transform="translate(-1.41)"/></g></g><g class="cls-3"><g class="cls-30"><polyline class="cls-17" points="230.9 143.72 208.91 143.72 208.91 5.8"/></g></g></g></g></svg>