<svg xmlns="http://www.w3.org/2000/svg" viewBox="0 0 212.27 212.68"><defs><style>.cls-1{fill:#fff;}.cls-2{fill:#414042;}</style></defs><title>Asset 101</title><g id="Layer_2" data-name="Layer 2"><g id="Layer_1-2" data-name="Layer 1"><rect class="cls-1" width="212.27" height="212.68"/><path class="cls-2" d="M81.94,104.17V65.06H99.56c8.5,0,12.06.93,15,2.47,5.57,3.09,8.66,8.81,8.66,16.85,0,12.21-7.42,19.79-19.33,19.79ZM66.63,160.91H81.94V117.47h23.35l23,43.44h17.31l-23.19-42.36a31.68,31.68,0,0,0-3.25-4.95v-.31c11.91-3.87,19.63-15.61,19.63-29.53,0-14.38-7.27-25.35-18.4-29.53-4.17-1.55-9-2.47-20.41-2.47H66.63Z"/></g></g></svg>