<svg xmlns="http://www.w3.org/2000/svg" viewBox="0 0 417.49 417.06"><defs><style>.cls-1,.cls-10,.cls-2,.cls-3,.cls-4,.cls-5,.cls-6,.cls-7,.cls-8,.cls-9{fill:none;stroke:#231f20;}.cls-1,.cls-2,.cls-3,.cls-4,.cls-5,.cls-6,.cls-7{stroke-miterlimit:10;}.cls-1,.cls-6{stroke-width:1.36px;}.cls-2{stroke-width:5.44px;}.cls-3{stroke-width:13.6px;}.cls-4{stroke-width:1.36px;}.cls-5{stroke-width:1.78px;}.cls-6{stroke-dasharray:5.03 5.03;}.cls-7{stroke-width:2.72px;stroke-dasharray:14.66 14.66;}.cls-8,.cls-9{stroke-linecap:round;stroke-linejoin:round;stroke-width:6.8px;}.cls-8{stroke-dasharray:0 19.83;}.cls-10{stroke-miterlimit:300;stroke-width:0.9px;}</style></defs><title>Asset 1</title><g id="Layer_2" data-name="Layer 2"><g id="Layer_1-2" data-name="Layer 1"><line class="cls-1" x1="4.46" y1="0.68" x2="412.87" y2="0.68"/><line class="cls-2" x1="4.46" y1="47.1" x2="412.87" y2="47.1"/><line class="cls-3" x1="4.46" y1="93.51" x2="412.87" y2="93.51"/><line class="cls-4" x1="4.46" y1="139.31" x2="412.87" y2="139.31"/><line class="cls-4" x1="4.46" y1="147.54" x2="412.87" y2="147.54"/><path class="cls-5" d="M411.79,180.57v11.54M406,180.57v11.54m-5.8-11.54v11.54m-5.8-11.54v11.54m-5.8-11.54v11.54m-5.8-11.54v11.54M377,180.57v11.54m-5.8-11.54v11.54m-5.8-11.54v11.54m-5.8-11.54v11.54m-5.8-11.54v11.54M348,180.57v11.54m-5.8-11.54v11.54m-5.8-11.54v11.54m-5.8-11.54v11.54m-5.8-11.54v11.54m-5.8-11.54v11.54m-5.8-11.54v11.54m-5.8-11.54v11.54m-5.8-11.54v11.54m-5.8-11.54v11.54m-5.8-11.54v11.54m-5.8-11.54v11.54m-5.8-11.54v11.54m-5.8-11.54v11.54m-5.8-11.54v11.54m-5.8-11.54v11.54m-5.8-11.54v11.54m-5.8-11.54v11.54m-5.8-11.54v11.54m-5.8-11.54v11.54m-5.8-11.54v11.54m-5.8-11.54v11.54m-5.8-11.54v11.54m-5.8-11.54v11.54m-5.8-11.54v11.54m-5.8-11.54v11.54m-5.8-11.54v11.54m-5.8-11.54v11.54m-5.8-11.54v11.54m-5.8-11.54v11.54m-5.8-11.54v11.54M168,180.57v11.54m-5.8-11.54v11.54m-5.8-11.54v11.54m-5.8-11.54v11.54m-5.8-11.54v11.54M139,180.57v11.54m-5.8-11.54v11.54m-5.8-11.54v11.54m-5.8-11.54v11.54m-5.8-11.54v11.54M110,180.57v11.54m-5.8-11.54v11.54m-5.8-11.54v11.54m-5.8-11.54v11.54m-5.8-11.54v11.54M81,180.57v11.54m-5.8-11.54v11.54m-5.8-11.54v11.54m-5.8-11.54v11.54m-5.8-11.54v11.54M52,180.57v11.54m-5.8-11.54v11.54m-5.8-11.54v11.54m-5.8-11.54v11.54m-5.8-11.54v11.54M23,180.57v11.54m-5.8-11.54v11.54m-5.8-11.54v11.54m-5.8-11.54v11.54"/><path class="cls-5" d="M402.1,227.75l10,10m-15.84-10,10,10m-15.84-10,10,10m-15.85-10,10,10m-15.84-10,10,10m-15.84-10,10,10m-15.84-10,10,10m-15.85-10,10,10m-15.84-10,10,10m-15.84-10,10,10m-15.85-10,10,10m-15.85-10,10,10m-15.84-10,10,10m-15.84-10,10,10m-15.84-10,10,10m-15.85-10,10,10m-15.84-10,10,10m-15.84-10,10,10m-15.84-10,10,10m-15.85-10,10,10m-15.84-10,10,10m-15.84-10,10,10m-15.85-10,10,10m-15.85-10,10,10m-15.84-10,10,10m-15.84-10,10,10m-15.85-10,10,10m-15.85-10,10,10m-15.84-10,10,10m-15.84-10,10,10m-15.84-10,10,10m-15.85-10,10,10m-15.84-10,10,10m-15.84-10,10,10m-15.85-10,10,10m-15.85-10,10,10m-15.84-10,10,10m-15.84-10,10,10m-15.85-10,10,10m-15.85-10,10,10m-15.84-10,10,10m-15.84-10,10,10m-15.84-10,10,10m-15.85-10,10,10m-15.84-10,10,10m-15.84-10,10,10m-15.85-10,10,10m-15.85-10,10,10m-15.84-10,10,10m-15.84-10,10,10m-15.85-10,10,10m-15.85-10,10,10m-15.84-10,10,10m-15.84-10,10,10m-15.85-10,10,10m-15.85-10,10,10m-15.84-10,10,10m-15.84-10,10,10m-15.85-10,10,10m-15.85-10,10,10m-15.84-10,10,10m-15.84-10,10,10m-15.84-10,10,10m-15.85-10,10,10m-15.84-10,10,10m-15.84-10,10,10m-15.85-10,10,10m-15.85-10,10,10m-15.84-10,10,10"/><line class="cls-6" x1="4.46" y1="279.17" x2="412.87" y2="279.17"/><line class="cls-7" x1="4.46" y1="325.58" x2="412.87" y2="325.58"/><line class="cls-8" x1="28.49" y1="372" x2="400.86" y2="372"/><path class="cls-9" d="M412.87,372h0M4.46,372h0"/><polygon class="cls-10" points="5.26 411.13 10.95 405.82 16.63 411.13 10.95 416.45 5.26 411.13"/><polygon class="cls-10" points="17.62 411.13 23.3 405.82 28.99 411.13 23.3 416.45 17.62 411.13"/><polygon class="cls-10" points="29.98 411.13 35.66 405.82 41.34 411.13 35.66 416.45 29.98 411.13"/><polygon class="cls-10" points="42.33 411.13 48.02 405.82 53.7 411.13 48.02 416.45 42.33 411.13"/><polygon class="cls-10" points="54.69 411.13 60.38 405.82 66.06 411.13 60.38 416.45 54.69 411.13"/><polygon class="cls-10" points="67.05 411.13 72.73 405.82 78.42 411.13 72.73 416.45 67.05 411.13"/><polygon class="cls-10" points="79.41 411.13 85.09 405.82 90.77 411.13 85.09 416.45 79.41 411.13"/><polygon class="cls-10" points="91.77 411.13 97.45 405.82 103.13 411.13 97.45 416.45 91.77 411.13"/><polygon class="cls-10" points="104.12 411.13 109.81 405.82 115.49 411.13 109.81 416.45 104.12 411.13"/><polygon class="cls-10" points="116.48 411.13 122.16 405.82 127.85 411.13 122.16 416.45 116.48 411.13"/><polygon class="cls-10" points="128.84 411.13 134.52 405.82 140.2 411.13 134.52 416.45 128.84 411.13"/><polygon class="cls-10" points="141.19 411.13 146.88 405.82 152.56 411.13 146.88 416.45 141.19 411.13"/><polygon class="cls-10" points="153.55 411.13 159.24 405.82 164.92 411.13 159.24 416.45 153.55 411.13"/><polygon class="cls-10" points="165.91 411.13 171.59 405.82 177.28 411.13 171.59 416.45 165.91 411.13"/><polygon class="cls-10" points="178.27 411.13 183.95 405.82 189.63 411.13 183.95 416.45 178.27 411.13"/><polygon class="cls-10" points="190.63 411.13 196.31 405.82 201.99 411.13 196.31 416.45 190.63 411.13"/><polygon class="cls-10" points="202.98 411.13 208.67 405.82 214.35 411.13 208.67 416.45 202.98 411.13"/><polygon class="cls-10" points="215.34 411.13 221.02 405.82 226.71 411.13 221.02 416.45 215.34 411.13"/><polygon class="cls-10" points="227.7 411.13 233.38 405.82 239.06 411.13 233.38 416.45 227.7 411.13"/><polygon class="cls-10" points="240.06 411.13 245.74 405.82 251.42 411.13 245.74 416.45 240.06 411.13"/><polygon class="cls-10" points="252.41 411.13 258.1 405.82 263.78 411.13 258.1 416.45 252.41 411.13"/><polygon class="cls-10" points="264.77 411.13 270.45 405.82 276.14 411.13 270.45 416.45 264.77 411.13"/><polygon class="cls-10" points="277.13 411.13 282.81 405.82 288.5 411.13 282.81 416.45 277.13 411.13"/><polygon class="cls-10" points="289.49 411.13 295.17 405.82 300.85 411.13 295.17 416.45 289.49 411.13"/><polygon class="cls-10" points="301.84 411.13 307.53 405.82 313.21 411.13 307.53 416.45 301.84 411.13"/><polygon class="cls-10" points="314.2 411.13 319.88 405.82 325.57 411.13 319.88 416.45 314.2 411.13"/><polygon class="cls-10" points="326.56 411.13 332.24 405.82 337.93 411.13 332.24 416.45 326.56 411.13"/><polygon class="cls-10" points="338.92 411.13 344.6 405.82 350.28 411.13 344.6 416.45 338.92 411.13"/><polygon class="cls-10" points="351.27 411.13 356.96 405.82 362.64 411.13 356.96 416.45 351.27 411.13"/><polygon class="cls-10" points="363.63 411.13 369.31 405.82 375 411.13 369.31 416.45 363.63 411.13"/><polygon class="cls-10" points="375.99 411.13 381.67 405.82 387.36 411.13 381.67 416.45 375.99 411.13"/><polygon class="cls-10" points="388.35 411.13 394.03 405.82 399.71 411.13 394.03 416.45 388.35 411.13"/><polygon class="cls-10" points="400.7 411.13 406.39 405.82 412.07 411.13 406.39 416.45 400.7 411.13"/><path class="cls-10" d="M416.9,406.13l-7.47,7.55m-.55-5.49,8.31,7.93"/><path class="cls-10" d="M.31,406.3l7.92,7.52m.14-5.6-7.9,7.57"/></g></g></svg>