<svg xmlns="http://www.w3.org/2000/svg" viewBox="0 0 212.27 212.68"><defs><style>.cls-1{fill:#fff;}.cls-2{fill:#3a3a39;}</style></defs><title>Asset 103</title><g id="Layer_2" data-name="Layer 2"><g id="Layer_1-2" data-name="Layer 1"><rect class="cls-1" width="212.27" height="212.68"/><path class="cls-2" d="M58.69,46.95h49.44A49.18,49.18,0,0,1,122.74,49a33.69,33.69,0,0,1,11.6,6.11A27.7,27.7,0,0,1,142,65.2a33.2,33.2,0,0,1,2.74,13.87,25.28,25.28,0,0,1-1.61,8.81A30.54,30.54,0,0,1,138.65,96a34,34,0,0,1-6.78,6.62,31,31,0,0,1-8.54,4.47,18,18,0,0,1,4,2.47,22.5,22.5,0,0,1,3.76,3.92,32,32,0,0,1,3.21,5.25,32.42,32.42,0,0,1,2.31,6.31l6.58,25.86h10.26l.16,14.89H130.46l-8.85-36.12q-2.43-9.71-7.4-14.3t-13.59-4.58H85.33v41.53H97.24v13.48H58.69V152.25H70V60.5H58.69ZM85.33,60.5V97.88h22.8a27.1,27.1,0,0,0,8.19-1.17,17.84,17.84,0,0,0,6.42-3.53A16.24,16.24,0,0,0,127,87.34a20,20,0,0,0,1.53-8.11q0-8.85-5.33-13.79T106.25,60.5Z"/></g></g></svg>