<svg xmlns="http://www.w3.org/2000/svg" viewBox="0 0 175.68 248.46"><defs><style>.cls-1{fill:#fff;}.cls-2{fill:#3a3a39;}</style></defs><title>Asset 121</title><g id="Layer_2" data-name="Layer 2"><g id="Layer_1-2" data-name="Layer 1"><rect class="cls-1" width="175.68" height="248.46"/><polygon class="cls-2" points="121.83 184.77 113.91 187.14 115.85 195.18 107.59 194.84 106.82 203.07 99.11 200.08 95.71 207.61 89.4 202.28 83.73 208.3 79.49 201.2 72.18 205.06 70.47 196.97 62.31 198.24 63.32 190.04 55.18 188.59 58.8 181.16 51.58 177.14 57.41 171.29 51.88 165.15 59.3 161.51 56.07 153.9 64.27 152.87 63.67 144.63 71.77 146.31 73.88 138.32 80.99 142.54 85.59 135.67 90.94 141.97 97.52 136.97 100.53 144.66 108.38 142.07 108.73 150.32 116.99 150.42 114.65 158.34 122.43 161.11 117.64 167.84 124.11 172.99 117.39 177.81 121.83 184.77"/><path class="cls-2" d="M87.84,105.87A32.13,32.13,0,1,0,55.71,73.75a32.13,32.13,0,0,0,32.13,32.13"/></g></g></svg>