<svg xmlns="http://www.w3.org/2000/svg" xmlns:xlink="http://www.w3.org/1999/xlink" viewBox="0 0 101.03 101.11"><defs><style>.cls-1{fill:none;}.cls-2{opacity:0.3;}.cls-3{clip-path:url(#clip-path);}.cls-4{fill:#f4e72a;}.cls-5{fill:#e04624;}.cls-6{fill:#fac515;}.cls-7{fill:#d80f23;}.cls-8{fill:#9c183d;}.cls-9{fill:#3491cd;}.cls-10{fill:#d1d828;}.cls-11{fill:#434b96;}.cls-12{fill:#47277b;}.cls-13{fill:#6c2479;}.cls-14{fill:#eb8519;}.cls-15{fill:#63ae35;}</style><clipPath id="clip-path" transform="translate(-1.26 -1.26)"><rect class="cls-1" width="103.55" height="102.16"/></clipPath></defs><title>Asset 13</title><g id="Layer_2" data-name="Layer 2"><g id="Layer_1-2" data-name="Layer 1"><g class="cls-2"><g class="cls-3"><path class="cls-4" d="M44.1,23.68a30,30,0,0,1,7.71-1,29.26,29.26,0,0,1,7.75,1L65.24,3A51.17,51.17,0,0,0,51.81,1.26,51.85,51.85,0,0,0,38.42,3Z" transform="translate(-1.26 -1.26)"/><path class="cls-5" d="M80,44.63a25.59,25.59,0,0,1,.89,7.12,29.11,29.11,0,0,1-1,7.73l20.69,5.69a51,51,0,0,0,1.79-13.41A44.5,44.5,0,0,0,101,39.32Z" transform="translate(-1.26 -1.26)"/><path class="cls-6" d="M59.56,23.74a29.37,29.37,0,0,1,13.19,7.88L88.2,16.73A51.32,51.32,0,0,0,65.24,3Z" transform="translate(-1.26 -1.26)"/><path class="cls-7" d="M79.81,59.48a29.16,29.16,0,0,1-3,7,27.09,27.09,0,0,1-4.61,5.94L87.52,87.9a46.92,46.92,0,0,0,7.69-10.43,51,51,0,0,0,5.29-12.31Z" transform="translate(-1.26 -1.26)"/><path class="cls-8" d="M72.17,72.45A27,27,0,0,1,66.36,77a27.79,27.79,0,0,1-7,3L65,100.9a49.93,49.93,0,0,0,12.23-5.42A46.83,46.83,0,0,0,87.53,87.9Z" transform="translate(-1.26 -1.26)"/><path class="cls-9" d="M23.59,44.55a25.59,25.59,0,0,0-.89,7.12,29.11,29.11,0,0,0,1,7.73L3.05,65.08A51,51,0,0,1,1.26,51.66,44.5,44.5,0,0,1,2.58,39.24Z" transform="translate(-1.26 -1.26)"/><path class="cls-10" d="M44.1,23.68a29.89,29.89,0,0,0-7.16,3,29.29,29.29,0,0,0-6.13,4.85L15.36,16.64A51.08,51.08,0,0,1,26,8.25,51.82,51.82,0,0,1,38.42,3Z" transform="translate(-1.26 -1.26)"/><path class="cls-11" d="M23.75,59.39a29.16,29.16,0,0,0,3,7,27.09,27.09,0,0,0,4.61,5.94L16,87.81A46.92,46.92,0,0,1,8.34,77.39,51,51,0,0,1,3.05,65.08Z" transform="translate(-1.26 -1.26)"/><path class="cls-12" d="M31.38,72.37A27,27,0,0,0,37.2,76.9a27.77,27.77,0,0,0,7,3L38.55,100.7a49.36,49.36,0,0,1-12.2-5.3A46.83,46.83,0,0,1,16,87.81Z" transform="translate(-1.26 -1.26)"/></g></g><path class="cls-13" d="M59.35,80a27.73,27.73,0,0,1-7.41,1,29.23,29.23,0,0,1-7.74-1L38.55,100.7a50.79,50.79,0,0,0,13.39,1.67,49,49,0,0,0,13-1.47Z" transform="translate(-1.26 -1.26)"/><path class="cls-14" d="M72.75,31.62a29.22,29.22,0,0,1,4.53,6.2A25.65,25.65,0,0,1,80,44.63l21-5.31A45.36,45.36,0,0,0,96.1,27.55a51.1,51.1,0,0,0-7.9-10.82Z" transform="translate(-1.26 -1.26)"/><path class="cls-15" d="M30.81,31.54a29.22,29.22,0,0,0-4.53,6.2,25.66,25.66,0,0,0-2.68,6.8l-21-5.31A45.36,45.36,0,0,1,7.46,27.47a51.1,51.1,0,0,1,7.9-10.82Z" transform="translate(-1.26 -1.26)"/></g></g></svg>