<svg xmlns="http://www.w3.org/2000/svg" xmlns:xlink="http://www.w3.org/1999/xlink" viewBox="0 0 175.68 248.46"><defs><style>.cls-1{fill:none;}.cls-2{fill:#fff;}.cls-3{opacity:0.9;}.cls-4{clip-path:url(#clip-path);}.cls-5{fill:#3a3a39;}.cls-6{clip-path:url(#clip-path-2);}.cls-7{clip-path:url(#clip-path-3);}.cls-8{clip-path:url(#clip-path-4);}.cls-9{clip-path:url(#clip-path-5);}.cls-10{clip-path:url(#clip-path-6);}.cls-11{clip-path:url(#clip-path-7);}.cls-12{clip-path:url(#clip-path-8);}.cls-13{clip-path:url(#clip-path-9);}.cls-14{clip-path:url(#clip-path-10);}.cls-15{clip-path:url(#clip-path-11);}.cls-16{clip-path:url(#clip-path-12);}.cls-17{clip-path:url(#clip-path-13);}.cls-18{clip-path:url(#clip-path-14);}.cls-19{clip-path:url(#clip-path-15);}.cls-20{clip-path:url(#clip-path-16);}.cls-21{clip-path:url(#clip-path-17);}.cls-22{clip-path:url(#clip-path-18);}.cls-23{clip-path:url(#clip-path-19);}.cls-24{clip-path:url(#clip-path-20);}.cls-25{clip-path:url(#clip-path-21);}.cls-26{clip-path:url(#clip-path-22);}.cls-27{clip-path:url(#clip-path-23);}.cls-28{clip-path:url(#clip-path-24);}</style><clipPath id="clip-path"><rect class="cls-1" x="32.23" y="27.76" width="21.16" height="21.16"/></clipPath><clipPath id="clip-path-2"><rect class="cls-1" x="20.29" y="128.18" width="21.16" height="21.16"/></clipPath><clipPath id="clip-path-3"><rect class="cls-1" x="32.23" y="55.53" width="21.16" height="21.16"/></clipPath><clipPath id="clip-path-4"><rect class="cls-1" x="27.23" y="162.14" width="21.16" height="21.16"/></clipPath><clipPath id="clip-path-5"><rect class="cls-1" x="32.23" y="83.3" width="21.16" height="21.16"/></clipPath><clipPath id="clip-path-6"><rect class="cls-1" x="30.44" y="189.92" width="21.16" height="21.16"/></clipPath><clipPath id="clip-path-7"><rect class="cls-1" x="60" y="27.76" width="21.16" height="21.16"/></clipPath><clipPath id="clip-path-8"><rect class="cls-1" x="58.21" y="134.37" width="21.16" height="21.16"/></clipPath><clipPath id="clip-path-9"><rect class="cls-1" x="60" y="55.53" width="21.16" height="21.16"/></clipPath><clipPath id="clip-path-10"><rect class="cls-1" x="63.54" y="156.77" width="21.16" height="21.16"/></clipPath><clipPath id="clip-path-11"><rect class="cls-1" x="60" y="83.3" width="21.16" height="21.16"/></clipPath><clipPath id="clip-path-12"><rect class="cls-1" x="58.21" y="203" width="21.16" height="21.16"/></clipPath><clipPath id="clip-path-13"><rect class="cls-1" x="87.77" y="27.76" width="21.16" height="21.16"/></clipPath><clipPath id="clip-path-14"><rect class="cls-1" x="85.98" y="128.18" width="21.16" height="21.16"/></clipPath><clipPath id="clip-path-15"><rect class="cls-1" x="87.77" y="55.53" width="21.16" height="21.16"/></clipPath><clipPath id="clip-path-16"><rect class="cls-1" x="99.86" y="162.14" width="21.16" height="21.16"/></clipPath><clipPath id="clip-path-17"><rect class="cls-1" x="87.77" y="83.3" width="21.16" height="21.16"/></clipPath><clipPath id="clip-path-18"><rect class="cls-1" x="85.98" y="189.92" width="21.16" height="21.16"/></clipPath><clipPath id="clip-path-19"><rect class="cls-1" x="115.55" y="27.76" width="21.16" height="21.16"/></clipPath><clipPath id="clip-path-20"><rect class="cls-1" x="113.76" y="134.37" width="21.16" height="21.16"/></clipPath><clipPath id="clip-path-21"><rect class="cls-1" x="115.55" y="55.53" width="21.16" height="21.16"/></clipPath><clipPath id="clip-path-22"><rect class="cls-1" x="141.51" y="162.78" width="21.16" height="21.16"/></clipPath><clipPath id="clip-path-23"><rect class="cls-1" x="115.55" y="83.3" width="21.16" height="21.16"/></clipPath><clipPath id="clip-path-24"><rect class="cls-1" x="107.13" y="204.03" width="21.16" height="21.16"/></clipPath></defs><title>Asset 125</title><g id="Layer_2" data-name="Layer 2"><g id="Layer_1-2" data-name="Layer 1"><rect class="cls-2" width="175.68" height="248.46"/><g class="cls-3"><g class="cls-4"><rect class="cls-5" x="33.49" y="29.02" width="18.63" height="18.63"/></g></g><g class="cls-3"><g class="cls-6"><rect class="cls-5" x="21.56" y="129.44" width="18.63" height="18.63"/></g></g><g class="cls-3"><g class="cls-7"><rect class="cls-5" x="33.49" y="56.79" width="18.63" height="18.63"/></g></g><g class="cls-3"><g class="cls-8"><rect class="cls-5" x="28.49" y="163.41" width="18.63" height="18.63"/></g></g><g class="cls-3"><g class="cls-9"><rect class="cls-5" x="33.49" y="84.57" width="18.63" height="18.63"/></g></g><g class="cls-3"><g class="cls-10"><rect class="cls-5" x="31.7" y="191.18" width="18.63" height="18.63"/></g></g><g class="cls-3"><g class="cls-11"><rect class="cls-5" x="61.26" y="29.02" width="18.63" height="18.63"/></g></g><g class="cls-3"><g class="cls-12"><rect class="cls-5" x="59.47" y="135.63" width="18.63" height="18.63"/></g></g><g class="cls-3"><g class="cls-13"><rect class="cls-5" x="61.26" y="56.79" width="18.63" height="18.63"/></g></g><g class="cls-3"><g class="cls-14"><rect class="cls-5" x="64.81" y="158.03" width="18.63" height="18.63"/></g></g><g class="cls-3"><g class="cls-15"><rect class="cls-5" x="61.26" y="84.57" width="18.63" height="18.63"/></g></g><g class="cls-3"><g class="cls-16"><rect class="cls-5" x="59.47" y="204.26" width="18.63" height="18.63"/></g></g><g class="cls-3"><g class="cls-17"><rect class="cls-5" x="89.04" y="29.02" width="18.63" height="18.63"/></g></g><g class="cls-3"><g class="cls-18"><rect class="cls-5" x="87.25" y="129.44" width="18.63" height="18.63"/></g></g><g class="cls-3"><g class="cls-19"><rect class="cls-5" x="89.04" y="56.79" width="18.63" height="18.63"/></g></g><g class="cls-3"><g class="cls-20"><rect class="cls-5" x="101.12" y="163.41" width="18.63" height="18.63"/></g></g><g class="cls-3"><g class="cls-21"><rect class="cls-5" x="89.04" y="84.57" width="18.63" height="18.63"/></g></g><g class="cls-3"><g class="cls-22"><rect class="cls-5" x="87.25" y="191.18" width="18.63" height="18.63"/></g></g><g class="cls-3"><g class="cls-23"><rect class="cls-5" x="116.81" y="29.02" width="18.63" height="18.63"/></g></g><g class="cls-3"><g class="cls-24"><rect class="cls-5" x="115.02" y="135.63" width="18.63" height="18.63"/></g></g><g class="cls-3"><g class="cls-25"><rect class="cls-5" x="116.81" y="56.79" width="18.63" height="18.63"/></g></g><g class="cls-3"><g class="cls-26"><rect class="cls-5" x="142.77" y="164.04" width="18.63" height="18.63"/></g></g><g class="cls-3"><g class="cls-27"><rect class="cls-5" x="116.81" y="84.57" width="18.63" height="18.63"/></g></g><g class="cls-3"><g class="cls-28"><rect class="cls-5" x="108.39" y="205.3" width="18.63" height="18.63"/></g></g></g></g></svg>