<svg xmlns="http://www.w3.org/2000/svg" viewBox="0 0 175.68 248.46"><defs><style>.cls-1{fill:#fff;}.cls-2,.cls-3{font-size:7.85px;}.cls-15,.cls-18,.cls-2,.cls-3,.cls-6,.cls-8,.cls-9{fill:#414042;}.cls-2,.cls-8{font-family:MuseoSans-700, MuseoSans;}.cls-3{font-family:MuseoSans-100, MuseoSans;}.cls-4{letter-spacing:0em;}.cls-5{letter-spacing:-0.01em;}.cls-6{font-size:6.06px;font-family:MuseoSans-300, MuseoSans;}.cls-7{letter-spacing:0em;}.cls-8{font-size:5.57px;}.cls-18,.cls-20,.cls-9{font-size:2.85px;}.cls-15,.cls-18,.cls-20,.cls-9{font-family:MuseoSans-500, MuseoSans;}.cls-10{letter-spacing:0em;}.cls-11{letter-spacing:0em;}.cls-12{letter-spacing:0em;}.cls-13{letter-spacing:0em;}.cls-14{letter-spacing:-0.03em;}.cls-15{font-size:6.22px;}.cls-16{letter-spacing:-0.01em;}.cls-17{letter-spacing:0em;}.cls-18,.cls-19{letter-spacing:0em;}.cls-20{fill:#a7a9ac;}.cls-21{letter-spacing:0em;}.cls-22{letter-spacing:0em;}</style></defs><title>Asset 126</title><g id="Layer_2" data-name="Layer 2"><g id="Layer_1-2" data-name="Layer 1"><rect class="cls-1" width="175.68" height="248.46"/><text class="cls-2" transform="translate(27.97 25.36)">Lorem ipsum</text><text class="cls-3" transform="translate(27.97 134.52)"><tspan class="cls-4">L</tspan><tspan x="3.98" y="0">o</tspan><tspan class="cls-5" x="8.84" y="0">r</tspan><tspan x="11.41" y="0">em ipsum</tspan></text><text class="cls-6" transform="translate(40.77 39.23)">P<tspan class="cls-7" x="3.62" y="0">r</tspan><tspan x="5.75" y="0">oin purus metus</tspan></text><text class="cls-8" transform="translate(40.77 148.41)">Proin purus metus</text><text class="cls-9" transform="translate(40.77 49.9)">Lo<tspan class="cls-10" x="3.29" y="0">r</tspan><tspan class="cls-11" x="4.35" y="0">em ipsum dolor sit amet, consectetur adipiscing elit. </tspan><tspan class="cls-12" x="73.9" y="0">F</tspan><tspan class="cls-13" x="75.38" y="0">usce </tspan></text><text class="cls-9" transform="translate(40.77 54.46)">id luctus quam. In diam metus, pha<tspan class="cls-12" x="46.02" y="0">r</tspan><tspan x="47.08" y="0">etra sit amet pulvinar in, </tspan></text><text class="cls-9" transform="translate(40.77 59.02)">interdum et magna. <tspan class="cls-10" x="26.67" y="0">E</tspan><tspan x="28.29" y="0">tiam velit metus, vestibulum bibendum sapien </tspan></text><text class="cls-9" transform="translate(40.77 63.59)">blandit, tincidunt faucibus justo. <tspan class="cls-14" x="43" y="0">V</tspan><tspan x="44.71" y="0">estibulum sodales turpis nec </tspan></text><text class="cls-9" transform="translate(40.77 68.15)">venen<tspan class="cls-12" x="8.03" y="0">a</tspan><tspan x="9.53" y="0">tis elementum. </tspan></text><text class="cls-15" transform="matrix(0.97, 0, -0.22, 0.97, 40.81, 84.06)"><tspan class="cls-16">“</tspan><tspan class="cls-17" x="2.26" y="0">E</tspan><tspan x="5.79" y="0">tiam velit metus, vestibulum </tspan></text><text class="cls-15" transform="matrix(0.97, 0, -0.22, 0.97, 40.81, 91.65)">bibendum sapien blandit, </text><text class="cls-15" transform="matrix(0.97, 0, -0.22, 0.97, 40.81, 99.24)">tincidunt faucibus justo.” </text><text class="cls-9" transform="translate(55.63 162.29)">Lo<tspan class="cls-10" x="3.29" y="0">r</tspan><tspan class="cls-11" x="4.35" y="0">em ipsum dolor sit amet, </tspan></text><text class="cls-9" transform="translate(55.63 166.85)">consectetur adipiscing elit. </text><text class="cls-18" transform="translate(55.63 171.41)">F<tspan class="cls-13" x="1.47" y="0">usce id luctus quam. In </tspan></text><text class="cls-9" transform="translate(55.63 175.97)">diam metus, pha<tspan class="cls-12" x="21.85" y="0">r</tspan><tspan x="22.91" y="0">etra sit </tspan></text><text class="cls-9" transform="translate(55.63 180.54)">amet pulvinar in, interdum </text><text class="cls-9" transform="translate(55.63 185.1)">et magna. <tspan class="cls-19" x="13.82" y="0">E</tspan><tspan class="cls-13" x="15.44" y="0">tiam velit metus, </tspan></text><text class="cls-9" transform="translate(55.63 189.66)">vestibulum bibendum sapien </text><text class="cls-20" transform="translate(60.39 203.25)"><tspan class="cls-21">E</tspan><tspan x="1.62" y="0">tiam velit metus, vestibulum bibendum sapien blandit, tincidunt </tspan></text><text class="cls-20" transform="translate(56.68 207.81)">faucibus justo. <tspan class="cls-14" x="19.8" y="0">V</tspan><tspan x="21.52" y="0">estibulum sodales turpis nec venen</tspan><tspan class="cls-10" x="67.78" y="0">a</tspan><tspan x="69.28" y="0">tis elementum. </tspan></text><text class="cls-20" transform="translate(63.34 212.38)">Integer vel mi vitae sapien condimentum cursus. Aliquam vitae </text><text class="cls-20" transform="translate(60.92 216.94)">urna odio. Aenean scelerisque quis er<tspan class="cls-22" x="49.12" y="0">a</tspan><tspan class="cls-13" x="50.62" y="0">t non rutrum. Mauris vitae </tspan></text><text class="cls-20" transform="translate(56.32 221.5)">lo<tspan class="cls-10" x="2.53" y="0">r</tspan><tspan class="cls-11" x="3.59" y="0">em </tspan><tspan class="cls-12" x="8.51" y="0">a</tspan><tspan class="cls-13" x="10.01" y="0">t metus imperdiet condimentum. Suspendisse potenti. Nunc </tspan></text><text class="cls-20" transform="translate(86.81 226.07)">commodo risus sit amet vestibulum dapibus.</text><text class="cls-9" transform="translate(102.77 162.29)">blandit, tincidunt faucibus </text><text class="cls-9" transform="translate(102.77 166.85)">justo. <tspan class="cls-14" x="7.94" y="0">V</tspan><tspan x="9.66" y="0">estibulum sodales turpis </tspan></text><text class="cls-9" transform="translate(102.77 171.41)">nec venen<tspan class="cls-12" x="13.62" y="0">a</tspan><tspan class="cls-13" x="15.12" y="0">tis elementum. </tspan></text><text class="cls-9" transform="translate(102.77 175.97)">Integer vel mi vitae sapien </text><text class="cls-9" transform="translate(102.77 180.54)">condimentum cursus. Aliquam </text><text class="cls-9" transform="translate(102.77 185.1)">vitae urna odio. </text></g></g></svg>