<svg xmlns="http://www.w3.org/2000/svg" xmlns:xlink="http://www.w3.org/1999/xlink" viewBox="0 0 228.41 228.41"><defs><style>.cls-1{fill:none;}.cls-2{opacity:0.9;}.cls-3{clip-path:url(#clip-path);}.cls-4{fill:#d6d4d3;}.cls-5{clip-path:url(#clip-path-2);}.cls-6{clip-path:url(#clip-path-3);}.cls-7{clip-path:url(#clip-path-4);}.cls-8{clip-path:url(#clip-path-5);}.cls-9{clip-path:url(#clip-path-6);}.cls-10{clip-path:url(#clip-path-7);}.cls-11{clip-path:url(#clip-path-8);}.cls-12{clip-path:url(#clip-path-9);}.cls-13{clip-path:url(#clip-path-10);}.cls-14{clip-path:url(#clip-path-11);}.cls-15{clip-path:url(#clip-path-12);}.cls-16{clip-path:url(#clip-path-13);}.cls-17{clip-path:url(#clip-path-14);}.cls-18{clip-path:url(#clip-path-15);}.cls-19{clip-path:url(#clip-path-16);}.cls-20{clip-path:url(#clip-path-17);}.cls-21{clip-path:url(#clip-path-18);}.cls-22{fill:#3a3a39;}.cls-23{clip-path:url(#clip-path-19);}.cls-24{clip-path:url(#clip-path-20);}.cls-25{clip-path:url(#clip-path-21);}.cls-26{clip-path:url(#clip-path-22);}.cls-27{clip-path:url(#clip-path-23);}.cls-28{clip-path:url(#clip-path-24);}.cls-29{clip-path:url(#clip-path-25);}</style><clipPath id="clip-path" transform="translate(-1.55 -1.55)"><rect class="cls-1" width="43.2" height="43.2"/></clipPath><clipPath id="clip-path-2" transform="translate(-1.55 -1.55)"><rect class="cls-1" y="47.08" width="43.2" height="43.2"/></clipPath><clipPath id="clip-path-3" transform="translate(-1.55 -1.55)"><rect class="cls-1" y="94.16" width="43.2" height="43.2"/></clipPath><clipPath id="clip-path-4" transform="translate(-1.55 -1.55)"><rect class="cls-1" y="141.24" width="43.2" height="43.2"/></clipPath><clipPath id="clip-path-5" transform="translate(-1.55 -1.55)"><rect class="cls-1" y="188.32" width="43.2" height="43.2"/></clipPath><clipPath id="clip-path-6" transform="translate(-1.55 -1.55)"><rect class="cls-1" x="47.08" width="43.2" height="43.2"/></clipPath><clipPath id="clip-path-7" transform="translate(-1.55 -1.55)"><rect class="cls-1" x="47.08" y="47.08" width="43.2" height="43.2"/></clipPath><clipPath id="clip-path-8" transform="translate(-1.55 -1.55)"><rect class="cls-1" x="47.08" y="94.16" width="43.2" height="43.2"/></clipPath><clipPath id="clip-path-9" transform="translate(-1.55 -1.55)"><rect class="cls-1" x="47.08" y="141.24" width="43.2" height="43.2"/></clipPath><clipPath id="clip-path-10" transform="translate(-1.55 -1.55)"><rect class="cls-1" x="47.08" y="188.32" width="43.2" height="43.2"/></clipPath><clipPath id="clip-path-11" transform="translate(-1.55 -1.55)"><rect class="cls-1" x="94.16" width="43.2" height="43.2"/></clipPath><clipPath id="clip-path-12" transform="translate(-1.55 -1.55)"><rect class="cls-1" x="94.16" y="47.08" width="43.2" height="43.2"/></clipPath><clipPath id="clip-path-13" transform="translate(-1.55 -1.55)"><rect class="cls-1" x="94.16" y="94.16" width="43.2" height="43.2"/></clipPath><clipPath id="clip-path-14" transform="translate(-1.55 -1.55)"><rect class="cls-1" x="94.16" y="141.24" width="43.2" height="43.2"/></clipPath><clipPath id="clip-path-15" transform="translate(-1.55 -1.55)"><rect class="cls-1" x="94.16" y="188.32" width="43.2" height="43.2"/></clipPath><clipPath id="clip-path-16" transform="translate(-1.55 -1.55)"><rect class="cls-1" x="141.24" width="43.2" height="43.2"/></clipPath><clipPath id="clip-path-17" transform="translate(-1.55 -1.55)"><rect class="cls-1" x="141.24" y="47.08" width="43.2" height="43.2"/></clipPath><clipPath id="clip-path-18" transform="translate(-1.55 -1.55)"><rect class="cls-1" x="152.48" y="105.43" width="20.72" height="20.65"/></clipPath><clipPath id="clip-path-19" transform="translate(-1.55 -1.55)"><rect class="cls-1" x="141.24" y="141.24" width="43.2" height="43.2"/></clipPath><clipPath id="clip-path-20" transform="translate(-1.55 -1.55)"><rect class="cls-1" x="141.24" y="188.32" width="43.2" height="43.2"/></clipPath><clipPath id="clip-path-21" transform="translate(-1.55 -1.55)"><rect class="cls-1" x="188.32" width="43.2" height="43.2"/></clipPath><clipPath id="clip-path-22" transform="translate(-1.55 -1.55)"><rect class="cls-1" x="188.32" y="47.08" width="43.2" height="43.2"/></clipPath><clipPath id="clip-path-23" transform="translate(-1.55 -1.55)"><rect class="cls-1" x="188.32" y="94.16" width="43.2" height="43.2"/></clipPath><clipPath id="clip-path-24" transform="translate(-1.55 -1.55)"><rect class="cls-1" x="188.32" y="141.24" width="43.2" height="43.2"/></clipPath><clipPath id="clip-path-25" transform="translate(-1.55 -1.55)"><rect class="cls-1" x="188.32" y="188.32" width="43.2" height="43.2"/></clipPath></defs><title>Asset 131</title><g id="Layer_2" data-name="Layer 2"><g id="Layer_1-2" data-name="Layer 1"><g class="cls-2"><g class="cls-3"><path class="cls-4" d="M21.6,41.65a20,20,0,1,0-20-20,20,20,0,0,0,20,20" transform="translate(-1.55 -1.55)"/></g></g><g class="cls-2"><g class="cls-5"><path class="cls-4" d="M21.6,88.73a20,20,0,1,0-20-20,20,20,0,0,0,20,20" transform="translate(-1.55 -1.55)"/></g></g><g class="cls-2"><g class="cls-6"><path class="cls-4" d="M21.6,135.8a20,20,0,1,0-20-20,20,20,0,0,0,20,20" transform="translate(-1.55 -1.55)"/></g></g><g class="cls-2"><g class="cls-7"><path class="cls-4" d="M21.6,182.88a20,20,0,1,0-20-20,20,20,0,0,0,20,20" transform="translate(-1.55 -1.55)"/></g></g><g class="cls-2"><g class="cls-8"><path class="cls-4" d="M21.6,230a20,20,0,1,0-20-20,20,20,0,0,0,20,20" transform="translate(-1.55 -1.55)"/></g></g><g class="cls-2"><g class="cls-9"><path class="cls-4" d="M68.68,41.65a20,20,0,1,0-20-20,20,20,0,0,0,20,20" transform="translate(-1.55 -1.55)"/></g></g><g class="cls-2"><g class="cls-10"><path class="cls-4" d="M68.68,88.73a20,20,0,1,0-20-20,20,20,0,0,0,20,20" transform="translate(-1.55 -1.55)"/></g></g><g class="cls-2"><g class="cls-11"><path class="cls-4" d="M68.68,135.8a20,20,0,1,0-20-20,20,20,0,0,0,20,20" transform="translate(-1.55 -1.55)"/></g></g><g class="cls-2"><g class="cls-12"><path class="cls-4" d="M68.68,182.88a20,20,0,1,0-20-20,20,20,0,0,0,20,20" transform="translate(-1.55 -1.55)"/></g></g><g class="cls-2"><g class="cls-13"><path class="cls-4" d="M68.68,230a20,20,0,1,0-20-20,20,20,0,0,0,20,20" transform="translate(-1.55 -1.55)"/></g></g><g class="cls-2"><g class="cls-14"><path class="cls-4" d="M115.76,41.65a20,20,0,1,0-20-20,20,20,0,0,0,20,20" transform="translate(-1.55 -1.55)"/></g></g><g class="cls-2"><g class="cls-15"><path class="cls-4" d="M115.76,88.73a20,20,0,1,0-20-20,20,20,0,0,0,20,20" transform="translate(-1.55 -1.55)"/></g></g><g class="cls-2"><g class="cls-16"><path class="cls-4" d="M115.76,135.8a20,20,0,1,0-20-20,20,20,0,0,0,20,20" transform="translate(-1.55 -1.55)"/></g></g><g class="cls-2"><g class="cls-17"><path class="cls-4" d="M115.76,182.88a20,20,0,1,0-20-20,20,20,0,0,0,20,20" transform="translate(-1.55 -1.55)"/></g></g><g class="cls-2"><g class="cls-18"><path class="cls-4" d="M115.76,230a20,20,0,1,0-20-20,20,20,0,0,0,20,20" transform="translate(-1.55 -1.55)"/></g></g><g class="cls-2"><g class="cls-19"><path class="cls-4" d="M162.84,41.65a20,20,0,1,0-20-20,20,20,0,0,0,20,20" transform="translate(-1.55 -1.55)"/></g></g><g class="cls-2"><g class="cls-20"><path class="cls-4" d="M162.84,88.73a20,20,0,1,0-20-20,20,20,0,0,0,20,20" transform="translate(-1.55 -1.55)"/></g></g><g class="cls-2"><g class="cls-21"><path class="cls-22" d="M162.84,124.53a8.77,8.77,0,1,0-8.81-8.77,8.79,8.79,0,0,0,8.81,8.77" transform="translate(-1.55 -1.55)"/></g></g><g class="cls-2"><g class="cls-23"><path class="cls-4" d="M162.84,182.88a20,20,0,1,0-20-20,20,20,0,0,0,20,20" transform="translate(-1.55 -1.55)"/></g></g><g class="cls-2"><g class="cls-24"><path class="cls-4" d="M162.84,230a20,20,0,1,0-20-20,20,20,0,0,0,20,20" transform="translate(-1.55 -1.55)"/></g></g><g class="cls-2"><g class="cls-25"><path class="cls-4" d="M209.92,41.65a20,20,0,1,0-20-20,20,20,0,0,0,20,20" transform="translate(-1.55 -1.55)"/></g></g><g class="cls-2"><g class="cls-26"><path class="cls-4" d="M209.92,88.73a20,20,0,1,0-20-20,20,20,0,0,0,20,20" transform="translate(-1.55 -1.55)"/></g></g><g class="cls-2"><g class="cls-27"><path class="cls-4" d="M209.92,135.8a20,20,0,1,0-20-20,20,20,0,0,0,20,20" transform="translate(-1.55 -1.55)"/></g></g><g class="cls-2"><g class="cls-28"><path class="cls-4" d="M209.92,182.88a20,20,0,1,0-20-20,20,20,0,0,0,20,20" transform="translate(-1.55 -1.55)"/></g></g><g class="cls-2"><g class="cls-29"><path class="cls-4" d="M209.92,230a20,20,0,1,0-20-20,20,20,0,0,0,20,20" transform="translate(-1.55 -1.55)"/></g></g></g></g></svg>