<svg xmlns="http://www.w3.org/2000/svg" viewBox="0 0 195.64 277.15"><defs><style>.cls-1{fill:#3a3a39;}.cls-2{fill:#616161;}.cls-3{fill:#898988;}.cls-4{fill:#b0b0b0;}.cls-5{fill:#d7d7d7;}</style></defs><title>Asset 132</title><g id="Layer_2" data-name="Layer 2"><g id="Layer_1-2" data-name="Layer 1"><path class="cls-1" d="M35.35,0h0A35.46,35.46,0,0,0,0,35.35V241.8a35.35,35.35,0,1,0,70.7,0V35.35A35.45,35.45,0,0,0,35.35,0"/><path class="cls-2" d="M132.11,84.64h0A13.8,13.8,0,0,0,118.35,98.4v80.35a13.76,13.76,0,0,0,27.52,0V98.4a13.8,13.8,0,0,0-13.76-13.76"/><path class="cls-3" d="M166.32,108.92h0a7.59,7.59,0,0,0-7.57,7.57v44.18a7.57,7.57,0,1,0,15.13,0V116.48a7.59,7.59,0,0,0-7.57-7.57"/><path class="cls-4" d="M182.11,155h0a4.21,4.21,0,0,1-4.2-4.2V126.31a4.2,4.2,0,1,1,8.4,0v24.53a4.21,4.21,0,0,1-4.2,4.2"/><path class="cls-5" d="M193.21,129h0a2.44,2.44,0,0,0-2.43,2.43v14.2a2.43,2.43,0,0,0,4.86,0v-14.2a2.44,2.44,0,0,0-2.43-2.43"/></g></g></svg>