<svg xmlns="http://www.w3.org/2000/svg" xmlns:xlink="http://www.w3.org/1999/xlink" viewBox="0 0 171.7 242.84"><defs><style>.cls-1{fill:none;}.cls-2{fill:#fff;}.cls-3{opacity:0.9;}.cls-4{clip-path:url(#clip-path);}.cls-5{fill:#3a3a39;}.cls-6{clip-path:url(#clip-path-2);}.cls-7{clip-path:url(#clip-path-3);}.cls-8{clip-path:url(#clip-path-4);}.cls-9{clip-path:url(#clip-path-5);}.cls-10{clip-path:url(#clip-path-6);}.cls-11{clip-path:url(#clip-path-7);}.cls-12{clip-path:url(#clip-path-8);}.cls-13{clip-path:url(#clip-path-9);}.cls-14{clip-path:url(#clip-path-10);}.cls-15{clip-path:url(#clip-path-11);}.cls-16{clip-path:url(#clip-path-12);}.cls-17{clip-path:url(#clip-path-13);}.cls-18{clip-path:url(#clip-path-14);}.cls-19{clip-path:url(#clip-path-15);}.cls-20{clip-path:url(#clip-path-16);}.cls-21{clip-path:url(#clip-path-17);}.cls-22{clip-path:url(#clip-path-18);}.cls-23{clip-path:url(#clip-path-19);}.cls-24{clip-path:url(#clip-path-20);}.cls-25{clip-path:url(#clip-path-21);}.cls-26{clip-path:url(#clip-path-22);}.cls-27{clip-path:url(#clip-path-23);}.cls-28{clip-path:url(#clip-path-24);}.cls-29{clip-path:url(#clip-path-25);}</style><clipPath id="clip-path"><rect class="cls-1" x="18.77" y="60.48" width="25.59" height="25.59"/></clipPath><clipPath id="clip-path-2"><rect class="cls-1" x="18.77" y="87.63" width="25.59" height="25.59"/></clipPath><clipPath id="clip-path-3"><rect class="cls-1" x="18.77" y="114.77" width="25.59" height="25.59"/></clipPath><clipPath id="clip-path-4"><rect class="cls-1" x="18.77" y="141.92" width="25.59" height="25.59"/></clipPath><clipPath id="clip-path-5"><rect class="cls-1" x="18.77" y="169.06" width="25.59" height="25.59"/></clipPath><clipPath id="clip-path-6"><rect class="cls-1" x="45.91" y="60.48" width="25.59" height="25.59"/></clipPath><clipPath id="clip-path-7"><rect class="cls-1" x="45.91" y="87.63" width="25.59" height="25.59"/></clipPath><clipPath id="clip-path-8"><rect class="cls-1" x="45.91" y="114.77" width="25.59" height="25.59"/></clipPath><clipPath id="clip-path-9"><rect class="cls-1" x="45.91" y="141.92" width="25.59" height="25.59"/></clipPath><clipPath id="clip-path-10"><rect class="cls-1" x="45.91" y="169.06" width="25.59" height="25.59"/></clipPath><clipPath id="clip-path-11"><rect class="cls-1" x="73.06" y="60.48" width="25.59" height="25.59"/></clipPath><clipPath id="clip-path-12"><rect class="cls-1" x="73.06" y="87.63" width="25.59" height="25.59"/></clipPath><clipPath id="clip-path-13"><rect class="cls-1" x="73.06" y="114.77" width="25.59" height="25.59"/></clipPath><clipPath id="clip-path-14"><rect class="cls-1" x="73.06" y="141.92" width="25.59" height="25.59"/></clipPath><clipPath id="clip-path-15"><rect class="cls-1" x="73.06" y="169.06" width="25.59" height="25.59"/></clipPath><clipPath id="clip-path-16"><rect class="cls-1" x="100.2" y="60.48" width="25.59" height="25.59"/></clipPath><clipPath id="clip-path-17"><rect class="cls-1" x="100.2" y="87.63" width="25.59" height="25.59"/></clipPath><clipPath id="clip-path-18"><rect class="cls-1" x="106.68" y="121.27" width="12.63" height="12.58"/></clipPath><clipPath id="clip-path-19"><rect class="cls-1" x="100.2" y="141.92" width="25.59" height="25.59"/></clipPath><clipPath id="clip-path-20"><rect class="cls-1" x="100.2" y="169.06" width="25.59" height="25.59"/></clipPath><clipPath id="clip-path-21"><rect class="cls-1" x="127.35" y="60.48" width="25.59" height="25.59"/></clipPath><clipPath id="clip-path-22"><rect class="cls-1" x="127.35" y="87.63" width="25.59" height="25.59"/></clipPath><clipPath id="clip-path-23"><rect class="cls-1" x="127.35" y="114.77" width="25.59" height="25.59"/></clipPath><clipPath id="clip-path-24"><rect class="cls-1" x="127.35" y="141.92" width="25.59" height="25.59"/></clipPath><clipPath id="clip-path-25"><rect class="cls-1" x="127.35" y="169.06" width="25.59" height="25.59"/></clipPath></defs><title>Asset 134</title><g id="Layer_2" data-name="Layer 2"><g id="Layer_1-2" data-name="Layer 1"><rect class="cls-2" width="171.7" height="242.84"/><g class="cls-3"><g class="cls-4"><path class="cls-5" d="M31.56,84.84A11.56,11.56,0,1,0,20,73.28,11.56,11.56,0,0,0,31.56,84.84"/></g></g><g class="cls-3"><g class="cls-6"><path class="cls-5" d="M31.56,112A11.56,11.56,0,1,0,20,100.42,11.56,11.56,0,0,0,31.56,112"/></g></g><g class="cls-3"><g class="cls-7"><path class="cls-5" d="M31.56,139.12A11.56,11.56,0,1,0,20,127.56a11.56,11.56,0,0,0,11.56,11.56"/></g></g><g class="cls-3"><g class="cls-8"><path class="cls-5" d="M31.56,166.27A11.56,11.56,0,1,0,20,154.71a11.56,11.56,0,0,0,11.56,11.56"/></g></g><g class="cls-3"><g class="cls-9"><path class="cls-5" d="M31.56,193.41A11.56,11.56,0,1,0,20,181.85a11.56,11.56,0,0,0,11.56,11.56"/></g></g><g class="cls-3"><g class="cls-10"><path class="cls-5" d="M58.71,84.84A11.56,11.56,0,1,0,47.15,73.28,11.56,11.56,0,0,0,58.71,84.84"/></g></g><g class="cls-3"><g class="cls-11"><path class="cls-5" d="M58.71,112a11.56,11.56,0,1,0-11.56-11.56A11.56,11.56,0,0,0,58.71,112"/></g></g><g class="cls-3"><g class="cls-12"><path class="cls-5" d="M58.71,139.12a11.56,11.56,0,1,0-11.56-11.56,11.56,11.56,0,0,0,11.56,11.56"/></g></g><g class="cls-3"><g class="cls-13"><path class="cls-5" d="M58.71,166.27a11.56,11.56,0,1,0-11.56-11.56,11.56,11.56,0,0,0,11.56,11.56"/></g></g><g class="cls-3"><g class="cls-14"><path class="cls-5" d="M58.71,193.41a11.56,11.56,0,1,0-11.56-11.56,11.56,11.56,0,0,0,11.56,11.56"/></g></g><g class="cls-3"><g class="cls-15"><path class="cls-5" d="M85.85,84.84A11.56,11.56,0,1,0,74.29,73.28,11.56,11.56,0,0,0,85.85,84.84"/></g></g><g class="cls-3"><g class="cls-16"><path class="cls-5" d="M85.85,112a11.56,11.56,0,1,0-11.56-11.56A11.56,11.56,0,0,0,85.85,112"/></g></g><g class="cls-3"><g class="cls-17"><path class="cls-5" d="M85.85,139.12a11.56,11.56,0,1,0-11.56-11.56,11.56,11.56,0,0,0,11.56,11.56"/></g></g><g class="cls-3"><g class="cls-18"><path class="cls-5" d="M85.85,166.27a11.56,11.56,0,1,0-11.56-11.56,11.56,11.56,0,0,0,11.56,11.56"/></g></g><g class="cls-3"><g class="cls-19"><path class="cls-5" d="M85.85,193.41a11.56,11.56,0,1,0-11.56-11.56,11.56,11.56,0,0,0,11.56,11.56"/></g></g><g class="cls-3"><g class="cls-20"><path class="cls-5" d="M113,84.84a11.56,11.56,0,1,0-11.56-11.56A11.56,11.56,0,0,0,113,84.84"/></g></g><g class="cls-3"><g class="cls-21"><path class="cls-5" d="M113,112a11.56,11.56,0,1,0-11.56-11.56A11.56,11.56,0,0,0,113,112"/></g></g><g class="cls-3"><g class="cls-22"><path class="cls-5" d="M113,132.62a5.06,5.06,0,1,0-5.08-5.06,5.07,5.07,0,0,0,5.08,5.06"/></g></g><g class="cls-3"><g class="cls-23"><path class="cls-5" d="M113,166.27a11.56,11.56,0,1,0-11.56-11.56A11.56,11.56,0,0,0,113,166.27"/></g></g><g class="cls-3"><g class="cls-24"><path class="cls-5" d="M113,193.41a11.56,11.56,0,1,0-11.56-11.56A11.56,11.56,0,0,0,113,193.41"/></g></g><g class="cls-3"><g class="cls-25"><path class="cls-5" d="M140.14,84.84a11.56,11.56,0,1,0-11.56-11.56,11.56,11.56,0,0,0,11.56,11.56"/></g></g><g class="cls-3"><g class="cls-26"><path class="cls-5" d="M140.14,112a11.56,11.56,0,1,0-11.56-11.56A11.56,11.56,0,0,0,140.14,112"/></g></g><g class="cls-3"><g class="cls-27"><path class="cls-5" d="M140.14,139.12a11.56,11.56,0,1,0-11.56-11.56,11.56,11.56,0,0,0,11.56,11.56"/></g></g><g class="cls-3"><g class="cls-28"><path class="cls-5" d="M140.14,166.27a11.56,11.56,0,1,0-11.56-11.56,11.56,11.56,0,0,0,11.56,11.56"/></g></g><g class="cls-3"><g class="cls-29"><path class="cls-5" d="M140.14,193.41a11.56,11.56,0,1,0-11.56-11.56,11.56,11.56,0,0,0,11.56,11.56"/></g></g></g></g></svg>