<svg xmlns="http://www.w3.org/2000/svg" viewBox="0 0 171.7 242.84"><defs><style>.cls-1{fill:#fff;}.cls-2{fill:#3a3a39;}.cls-3{fill:#808285;}</style></defs><title>Asset 140</title><g id="Layer_2" data-name="Layer 2"><g id="Layer_1-2" data-name="Layer 1"><rect class="cls-1" width="171.7" height="242.84"/><path class="cls-2" d="M49.41,207.71h0a9.32,9.32,0,0,0,9.3,9.3H113a9.3,9.3,0,0,0,0-18.59H58.71a9.32,9.32,0,0,0-9.3,9.3"/><path class="cls-3" d="M107.77,12.92h0a9.32,9.32,0,0,0-9.3,9.3V76.51a9.3,9.3,0,0,0,18.59,0V22.21a9.32,9.32,0,0,0-9.3-9.3"/><path class="cls-2" d="M122.3,70.44h0a9.32,9.32,0,0,0-9.3-9.3H58.71a9.3,9.3,0,0,0,0,18.59H113a9.32,9.32,0,0,0,9.3-9.3"/><path class="cls-2" d="M122.3,168.28h0A9.32,9.32,0,0,0,113,159H58.71a9.3,9.3,0,0,0,0,18.59H113a9.32,9.32,0,0,0,9.3-9.3"/><path class="cls-3" d="M67.14,224.67h0a9.32,9.32,0,0,0,9.3-9.3V161.08a9.3,9.3,0,0,0-18.59,0v54.29a9.32,9.32,0,0,0,9.3,9.3"/><path class="cls-3" d="M70,138.06h0a9.32,9.32,0,0,0,9.3-9.3V74.47a9.3,9.3,0,1,0-18.59,0v54.29a9.32,9.32,0,0,0,9.3,9.3"/><path class="cls-3" d="M107.77,171.73h0a9.32,9.32,0,0,0,9.3-9.3V108.14a9.3,9.3,0,1,0-18.59,0v54.29a9.32,9.32,0,0,0,9.3,9.3"/><path class="cls-2" d="M122.3,121.75h0a9.32,9.32,0,0,0-9.3-9.3H58.71a9.3,9.3,0,0,0,0,18.59H113a9.32,9.32,0,0,0,9.3-9.3"/></g></g></svg>