<svg xmlns="http://www.w3.org/2000/svg" viewBox="0 0 106.33 101.54"><defs><style>.cls-1{fill:#3491cd;}.cls-2{fill:#d1d828;}.cls-3{fill:#47277b;}.cls-4{fill:#f4e72a;}.cls-5{fill:#63ae35;}.cls-6{fill:#434b96;}.cls-7{fill:#e04624;}.cls-8{fill:#fac515;}.cls-9{fill:#9c183d;}.cls-10{fill:#6c2479;}.cls-11{fill:#eb8519;}.cls-12{fill:#d80f23;}</style></defs><title>Asset 15</title><g id="Layer_2" data-name="Layer 2"><g id="Layer_1-2" data-name="Layer 1"><path class="cls-1" d="M21.69,50.86a25.6,25.6,0,0,0,1,7.11,29.1,29.1,0,0,0,3,7.19L7.16,76A51,51,0,0,1,2,63.52,44.52,44.52,0,0,1,0,51.18Z"/><path class="cls-2" d="M36.09,25.41A29.83,29.83,0,0,0,30,30.16a29.32,29.32,0,0,0-4.67,6.28L6.51,26A51.08,51.08,0,0,1,14.6,15.19a51.82,51.82,0,0,1,10.65-8.3Z"/><path class="cls-3" d="M36.41,75.72a27,27,0,0,0,6.79,2.87,27.78,27.78,0,0,0,7.54,1.07l-.07,21.57a49.39,49.39,0,0,1-13.16-2,46.83,46.83,0,0,1-11.93-4.65Z"/><path class="cls-4" d="M36.09,25.41a30,30,0,0,1,7.2-2.94,29.28,29.28,0,0,1,7.75-1L51.18,0A51.08,51.08,0,0,0,37.74,1.75,51.81,51.81,0,0,0,25.25,6.88Z"/><path class="cls-5" d="M25.29,36.43a29.25,29.25,0,0,0-2.77,7.16,25.68,25.68,0,0,0-.83,7.27L0,51.18A45.38,45.38,0,0,1,1.68,38.54,51,51,0,0,1,6.51,26Z"/><path class="cls-6" d="M25.68,65.16a29.12,29.12,0,0,0,4.75,6,27.11,27.11,0,0,0,6,4.54L25.58,94.61a47,47,0,0,1-10.13-8.08A51,51,0,0,1,7.16,76Z"/><path class="cls-7" d="M81.17,36.66a25.59,25.59,0,0,1,2.7,6.65,29.12,29.12,0,0,1,1,7.74l21.46.13a51,51,0,0,0-1.74-13.42A44.54,44.54,0,0,0,100.1,26.1Z"/><path class="cls-8" d="M56.06,21.77A29.34,29.34,0,0,1,70.84,26L81.91,7.58A51.35,51.35,0,0,0,56.19.31Z"/><path class="cls-9" d="M80.85,65.55a26.92,26.92,0,0,1-4.44,5.88,27.82,27.82,0,0,1-6,4.69L81.26,94.89a50,50,0,0,0,10.41-8.4,46.85,46.85,0,0,0,8-10Z"/><path class="cls-10" d="M70.41,76.12A27.71,27.71,0,0,1,63.5,79a29.19,29.19,0,0,1-7.75,1l-.07,21.57a50.75,50.75,0,0,0,13.37-1.85,49,49,0,0,0,12.21-4.79Z"/><path class="cls-11" d="M70.84,26a29.24,29.24,0,0,1,6,4.82,25.61,25.61,0,0,1,4.35,5.88L100.1,26.1A45.37,45.37,0,0,0,92.34,16,51.05,51.05,0,0,0,81.91,7.58Z"/><path class="cls-12" d="M84.87,51a29.12,29.12,0,0,1-1.1,7.58,27.12,27.12,0,0,1-2.91,6.93L99.68,76.5a47,47,0,0,0,4.73-12.06,51.12,51.12,0,0,0,1.92-13.26Z"/></g></g></svg>