<svg xmlns="http://www.w3.org/2000/svg" viewBox="0 0 178.29 252.16"><defs><style>.cls-1{fill:#fff;}.cls-10,.cls-2,.cls-24,.cls-27{font-size:2.49px;}.cls-2,.cls-24,.cls-27,.cls-30,.cls-40,.cls-41,.cls-8{fill:#414042;}.cls-10,.cls-2,.cls-24,.cls-27,.cls-30,.cls-40,.cls-41,.cls-8{font-family:ProximaNova-Regular, Proxima Nova;}.cls-3{letter-spacing:0.01em;}.cls-4{letter-spacing:-0.02em;}.cls-5{letter-spacing:0em;}.cls-6{letter-spacing:-0.01em;}.cls-7{letter-spacing:0em;}.cls-8{font-size:3.66px;}.cls-9{letter-spacing:4.59em;}.cls-10{fill:#a7a9ac;}.cls-11,.cls-24{letter-spacing:-0.01em;}.cls-12{letter-spacing:0em;}.cls-13{letter-spacing:0em;}.cls-14{letter-spacing:0.02em;}.cls-15{letter-spacing:-0.09em;}.cls-16{letter-spacing:0.01em;}.cls-17{letter-spacing:-0.06em;}.cls-18{letter-spacing:0em;}.cls-19{letter-spacing:-0.01em;}.cls-20{letter-spacing:0.01em;}.cls-21{letter-spacing:0.01em;}.cls-22{letter-spacing:-0.04em;}.cls-23{letter-spacing:-0.01em;}.cls-25{letter-spacing:-0.02em;}.cls-26{letter-spacing:3.23em;}.cls-27{letter-spacing:-0.08em;}.cls-28{letter-spacing:1.31em;}.cls-29{letter-spacing:-0.02em;}.cls-30{font-size:4.88px;}.cls-31{letter-spacing:0em;}.cls-32{letter-spacing:0em;}.cls-33{letter-spacing:0.01em;}.cls-34{letter-spacing:-0.03em;}.cls-35{letter-spacing:-0.01em;}.cls-36{letter-spacing:0.01em;}.cls-37{letter-spacing:-0.01em;}.cls-38{letter-spacing:0.01em;}.cls-39{letter-spacing:0em;}.cls-40{font-size:2.62px;}.cls-41{font-size:8.34px;}.cls-42{letter-spacing:-0.02em;}.cls-43{letter-spacing:-0.02em;}.cls-44{letter-spacing:-0.02em;}.cls-45{letter-spacing:-0.02em;}.cls-46{letter-spacing:-0.03em;}.cls-47{letter-spacing:-0.02em;}.cls-48{letter-spacing:-0.01em;}.cls-49{letter-spacing:-0.05em;}.cls-50{letter-spacing:-0.02em;}.cls-51{letter-spacing:-0.01em;}.cls-52{letter-spacing:-0.02em;}.cls-53{letter-spacing:0.01em;}.cls-54{letter-spacing:-0.03em;}</style></defs><title>Asset 143</title><g id="Layer_2" data-name="Layer 2"><g id="Layer_1-2" data-name="Layer 1"><rect class="cls-1" width="178.29" height="252.16"/><text class="cls-2" transform="translate(35.19 53.04)">In this section I will be discussing Graphic Design and </text><text class="cls-2" transform="translate(35.19 56.37)">design theo<tspan class="cls-3" x="12.93" y="0">r</tspan><tspan class="cls-4" x="13.76" y="0">y</tspan><tspan x="14.93" y="0">. This is essential learning for anyone who </tspan></text><text class="cls-2" transform="translate(35.19 59.71)">wishes to know more about Graphic Design.</text><text class="cls-2" transform="translate(35.19 183.96)">If you’re considering a career in Graphic Design and wonder </text><text class="cls-2" transform="translate(35.19 187.29)">if it’s right for you, I will be answering a bunch <tspan class="cls-5" x="50.11" y="0">o</tspan><tspan x="51.53" y="0">f </tspan><tspan class="cls-6" x="52.88" y="0">k</tspan><tspan class="cls-7" x="54.14" y="0">ey </tspan></text><text class="cls-2" transform="translate(35.19 190.63)">questions in this section.</text><text class="cls-8" transform="translate(43.17 70.32)">Visual elements</text><text class="cls-2" transform="translate(70.93 70.32)"> </text><text class="cls-2" transform="translate(43.17 78.28)"> </text><text class="cls-2" transform="translate(48.04 78.28)">Wh<tspan class="cls-5" x="3.57" y="0">a</tspan><tspan x="4.88" y="0" xml:space="preserve">t is Graphic Design?  </tspan></text><text class="cls-2" transform="translate(77.29 78.28)"><tspan class="cls-9"> </tspan><tspan x="12.07" y="0"> </tspan></text><text class="cls-10" transform="translate(135.55 78.28)">ep 1</text><text class="cls-2" transform="translate(43.17 82.26)"> </text><text class="cls-2" transform="translate(48.04 82.26)"><tspan class="cls-11">‘</tspan><tspan x="0.56" y="0">Line’ Visual element </tspan><tspan class="cls-5" x="23.1" y="0">o</tspan><tspan class="cls-12" x="24.52" y="0">f Graphic Design / Design theo</tspan><tspan class="cls-3" x="57.94" y="0">r</tspan><tspan x="58.77" y="0">y</tspan></text><text class="cls-2" transform="translate(111.21 82.26)"> </text><text class="cls-10" transform="translate(135.55 82.26)">ep 2</text><text class="cls-2" transform="translate(43.17 86.24)"> </text><text class="cls-2" transform="translate(48.04 86.24)"><tspan class="cls-13">‘</tspan><tspan x="0.56" y="0">Colour’ Visual element </tspan><tspan class="cls-13" x="25.82" y="0">o</tspan><tspan x="27.24" y="0">f Graphic Design / Design theo</tspan><tspan class="cls-3" x="60.66" y="0">r</tspan><tspan x="61.5" y="0">y</tspan></text><text class="cls-2" transform="translate(114.38 86.24)"> </text><text class="cls-10" transform="translate(135.55 86.24)">ep 3</text><text class="cls-2" transform="translate(43.17 90.22)"> </text><text class="cls-2" transform="translate(48.04 90.22)">‘Shape’ Visual element of Graphic Design / Design theo<tspan class="cls-3" x="60.37" y="0">r</tspan><tspan x="61.21" y="0">y</tspan></text><text class="cls-2" transform="translate(113.46 90.22)"> </text><text class="cls-10" transform="translate(135.55 90.22)">ep 4</text><text class="cls-2" transform="translate(43.17 94.2)"> </text><text class="cls-2" transform="translate(48.04 94.2)"><tspan class="cls-14">‘</tspan><tspan class="cls-15" x="0.61" y="0">T</tspan><tspan x="1.82" y="0">exture’ Visual element </tspan><tspan class="cls-5" x="26.73" y="0">o</tspan><tspan x="28.15" y="0">f Graphic Design / Design theo</tspan><tspan class="cls-3" x="61.57" y="0">r</tspan><tspan x="62.41" y="0">y</tspan></text><text class="cls-2" transform="translate(115.04 94.2)"> </text><text class="cls-10" transform="translate(135.55 94.2)">ep 5</text><text class="cls-2" transform="translate(43.17 98.19)"> </text><text class="cls-2" transform="translate(48.04 98.19)">‘Space’ Visual element <tspan class="cls-5" x="25.38" y="0">o</tspan><tspan class="cls-12" x="26.8" y="0">f Graphic Design / Design theo</tspan><tspan class="cls-3" x="60.22" y="0">r</tspan><tspan x="61.06" y="0">y</tspan></text><text class="cls-2" transform="translate(113.32 98.19)"> </text><text class="cls-10" transform="translate(135.55 98.19)">ep 6</text><text class="cls-2" transform="translate(43.17 102.17)"> </text><text class="cls-2" transform="translate(48.04 102.17)"><tspan class="cls-11">‘</tspan><tspan x="0.56" y="0">Form’ Visual element </tspan><tspan class="cls-5" x="24.16" y="0">o</tspan><tspan x="25.58" y="0">f Graphic Design / Design theo</tspan><tspan class="cls-16" x="59" y="0">r</tspan><tspan class="cls-7" x="59.84" y="0">y</tspan></text><text class="cls-2" transform="translate(112.45 102.17)"> </text><text class="cls-10" transform="translate(135.55 102.17)">ep 7</text><text class="cls-2" transform="translate(43.17 106.15)"> </text><text class="cls-2" transform="translate(48.04 106.15)"><tspan class="cls-14">‘</tspan><tspan class="cls-17" x="0.61" y="0">T</tspan><tspan x="1.88" y="0">ypograph</tspan><tspan class="cls-3" x="12.31" y="0">y</tspan><tspan x="13.54" y="0">’ Visual element </tspan><tspan class="cls-5" x="31.52" y="0">o</tspan><tspan class="cls-12" x="32.94" y="0">f Graphic Design / Design theo</tspan><tspan class="cls-3" x="66.36" y="0">r</tspan><tspan x="67.2" y="0">y</tspan></text><text class="cls-2" transform="translate(120.09 106.15)"> </text><text class="cls-10" transform="translate(135.55 106.15)">ep 8</text><text class="cls-8" transform="translate(43.17 117.66)"><tspan class="cls-18">D</tspan><tspan x="2.57" y="0">esign princi</tspan><tspan class="cls-19" x="21" y="0">p</tspan><tspan x="23.07" y="0">les</tspan></text><text class="cls-2" transform="translate(73.54 117.66)"> </text><text class="cls-2" transform="translate(43.17 125.62)"> </text><text class="cls-2" transform="translate(48.04 125.62)"><tspan class="cls-13">‘</tspan><tspan x="0.56" y="0">Contrast’ Design principle of Graphic Design / Design theo</tspan><tspan class="cls-20" x="64.16" y="0">r</tspan><tspan class="cls-7" x="65" y="0">y</tspan></text><text class="cls-2" transform="translate(118.15 125.62)"> </text><text class="cls-10" transform="translate(135.55 125.62)">ep 9</text><text class="cls-2" transform="translate(43.17 129.6)"> </text><text class="cls-2" transform="translate(48.04 129.6)"><tspan class="cls-11">‘</tspan><tspan x="0.56" y="0">Hierarch</tspan><tspan class="cls-21" x="9.85" y="0">y</tspan><tspan x="11.09" y="0">’ Design principle of Graphic Design / Design theo</tspan><tspan class="cls-3" x="65.46" y="0">r</tspan><tspan x="66.3" y="0">y</tspan></text><text class="cls-2" transform="translate(119.35 129.6)"> </text><text class="cls-10" transform="translate(135.55 129.6)">ep 10</text><text class="cls-2" transform="translate(43.17 133.58)"> </text><text class="cls-2" transform="translate(48.04 133.58)"><tspan class="cls-22">‘</tspan><tspan class="cls-7" x="0.48" y="0">Alignment’ Design principle </tspan><tspan class="cls-5" x="31.08" y="0">o</tspan><tspan class="cls-12" x="32.5" y="0">f Graphic Design / Design theo</tspan><tspan class="cls-20" x="65.92" y="0">r</tspan><tspan x="66.75" y="0">y</tspan></text><text class="cls-2" transform="translate(119.94 133.58)"> </text><text class="cls-10" transform="translate(135.55 133.58)">ep 11</text><text class="cls-2" transform="translate(43.17 137.57)"> </text><text class="cls-2" transform="translate(48.04 137.57)"><tspan class="cls-11">‘</tspan><tspan class="cls-12" x="0.56" y="0">Balance’ Design principle of Graphic Design / Design theo</tspan><tspan class="cls-3" x="63.69" y="0">r</tspan><tspan x="64.52" y="0">y</tspan></text><text class="cls-2" transform="translate(117.26 137.57)"> </text><text class="cls-10" transform="translate(135.55 137.57)">ep 12</text><text class="cls-2" transform="translate(43.17 141.55)"> </text><text class="cls-2" transform="translate(48.04 141.55)"><tspan class="cls-11">‘</tspan><tspan class="cls-12" x="0.56" y="0">Pr</tspan><tspan class="cls-23" x="2.84" y="0">o</tspan><tspan class="cls-12" x="4.25" y="0">ximit</tspan><tspan class="cls-20" x="9.32" y="0">y</tspan><tspan x="10.55" y="0">’ Design principle </tspan><tspan class="cls-5" x="30.08" y="0">o</tspan><tspan class="cls-12" x="31.49" y="0">f Graphic Design / Design theo</tspan><tspan class="cls-3" x="64.91" y="0">r</tspan><tspan x="65.75" y="0">y</tspan></text><text class="cls-2" transform="translate(119.08 141.55)"> </text><text class="cls-10" transform="translate(135.55 141.55)">ep 13</text><text class="cls-2" transform="translate(43.17 145.53)"> </text><text class="cls-24" transform="translate(48.04 145.53)">‘<tspan class="cls-12" x="0.56" y="0">Repetition’ Design principle of Graphic Design / Design theo</tspan><tspan class="cls-20" x="66.04" y="0">r</tspan><tspan class="cls-7" x="66.88" y="0">y</tspan></text><text class="cls-2" transform="translate(120.07 145.53)"> </text><text class="cls-10" transform="translate(135.55 145.53)">ep <tspan class="cls-25" x="3.47" y="0">1</tspan><tspan x="4.27" y="0">4</tspan></text><text class="cls-2" transform="translate(43.17 149.51)"> </text><text class="cls-2" transform="translate(48.04 149.51)">‘Simplicit<tspan class="cls-3" x="9.67" y="0">y</tspan><tspan x="10.91" y="0">’ Design principle </tspan><tspan class="cls-5" x="30.43" y="0">o</tspan><tspan class="cls-12" x="31.85" y="0">f Graphic Design / Design theo</tspan><tspan class="cls-16" x="65.27" y="0">r</tspan><tspan class="cls-7" x="66.1" y="0">y</tspan></text><text class="cls-2" transform="translate(119.35 149.51)"> </text><text class="cls-10" transform="translate(135.55 149.51)">ep 15</text><text class="cls-2" transform="translate(43.17 153.49)"> </text><text class="cls-2" transform="translate(48.04 153.49)"><tspan class="cls-11">‘F</tspan><tspan x="1.91" y="0">unction’ Design principle </tspan><tspan class="cls-5" x="29.5" y="0">o</tspan><tspan class="cls-12" x="30.92" y="0">f Graphic Design / Design theo</tspan><tspan class="cls-3" x="64.34" y="0">r</tspan><tspan x="65.18" y="0">y</tspan></text><text class="cls-2" transform="translate(118.35 153.49)"> </text><text class="cls-10" transform="translate(135.55 153.49)">ep 16</text><text class="cls-2" transform="translate(41.58 200.68)"> </text><text class="cls-2" transform="translate(46.46 200.68)">Why do Graphic Design? / Pro’s &amp; Con’s</text><text class="cls-2" transform="translate(92.24 200.68)"> </text><text class="cls-10" transform="translate(133.96 200.68)">ep 17</text><text class="cls-2" transform="translate(41.58 204.66)"> </text><text class="cls-2" transform="translate(46.46 204.66)">Should I do Graphic Design?</text><text class="cls-2" transform="translate(79.1 204.66)"><tspan class="cls-26"> </tspan><tspan x="8.67" y="0"> </tspan></text><text class="cls-10" transform="translate(133.96 204.66)">ep 18</text><text class="cls-2" transform="translate(41.58 208.64)"> </text><text class="cls-2" transform="translate(46.46 208.64)">Practical skills to be a Graphic Designer?</text><text class="cls-2" transform="translate(92.94 208.64)"> </text><text class="cls-10" transform="translate(133.96 208.64)">ep 19</text><text class="cls-2" transform="translate(41.58 212.62)"> </text><text class="cls-2" transform="translate(46.46 212.62)">Psychological skills to be a Graphic Designer?</text><text class="cls-2" transform="translate(98.93 212.62)"> </text><text class="cls-10" transform="translate(133.96 212.62)">ep 20</text><text class="cls-2" transform="translate(41.58 216.6)"> </text><text class="cls-27" transform="translate(46.46 216.6)">T<tspan class="cls-7" x="1.22" y="0">alent to be a Graphic Designer?</tspan></text><text class="cls-2" transform="translate(83.88 216.6)"><tspan class="cls-28"> </tspan><tspan x="3.9" y="0"> </tspan></text><text class="cls-10" transform="translate(133.96 216.6)">ep 21</text><text class="cls-2" transform="translate(41.58 220.58)"> </text><text class="cls-2" transform="translate(46.46 220.58)"><tspan class="cls-11">‘</tspan><tspan x="0.56" y="0">Learn &amp; Research’ How do I begin as a Graphic Designer</tspan></text><text class="cls-2" transform="translate(111.46 220.58)"> </text><text class="cls-10" transform="translate(133.96 220.58)">ep 22</text><text class="cls-2" transform="translate(41.58 224.57)"> </text><text class="cls-2" transform="translate(46.46 224.57)"><tspan class="cls-13">‘</tspan><tspan x="0.56" y="0">Collect’ How do I begin as a Graphic Designer’ </tspan></text><text class="cls-2" transform="translate(100.96 224.57)"> </text><text class="cls-10" transform="translate(133.96 224.57)">ep 23</text><text class="cls-2" transform="translate(41.58 228.55)"> </text><text class="cls-24" transform="translate(46.46 228.55)">‘<tspan class="cls-12" x="0.56" y="0">Be inspired’ How do I begin as a Graphic Designer’ </tspan></text><text class="cls-2" transform="translate(105.4 228.55)"> </text><text class="cls-10" transform="translate(133.96 228.55)">ep <tspan class="cls-29" x="3.47" y="0">2</tspan><tspan x="4.89" y="0">4</tspan></text><text class="cls-2" transform="translate(41.58 232.53)"> </text><text class="cls-24" transform="translate(46.46 232.53)">‘<tspan class="cls-12" x="0.56" y="0">Practice’ How do I begin as a Graphic Designer’ </tspan></text><text class="cls-2" transform="translate(102.02 232.53)"> </text><text class="cls-10" transform="translate(133.96 232.53)">ep 25</text><text class="cls-2" transform="translate(41.58 236.51)"> </text><text class="cls-2" transform="translate(46.46 236.51)">‘Seek Education’ How do I begin as a Graphic Designer</text><text class="cls-2" transform="translate(109.19 236.51)"> </text><text class="cls-10" transform="translate(133.96 236.51)">ep 26</text><text class="cls-30" transform="translate(25.17 43.82)"><tspan class="cls-31">S</tspan><tspan class="cls-32" x="2.88" y="0">ection 1 - </tspan><tspan class="cls-33" x="22.95" y="0">G</tspan><tspan class="cls-34" x="26.47" y="0">r</tspan><tspan x="27.94" y="0">a</tspan><tspan class="cls-35" x="30.51" y="0">p</tspan><tspan x="33.27" y="0">hic </tspan><tspan class="cls-36" x="40.74" y="0">D</tspan><tspan x="44.18" y="0">esign </tspan><tspan class="cls-37" x="57.04" y="0">t</tspan><tspan x="58.45" y="0">heo</tspan><tspan class="cls-38" x="66.68" y="0">r</tspan><tspan class="cls-39" x="68.34" y="0">y</tspan></text><text class="cls-2" transform="translate(103.75 43.82)"> </text><text class="cls-40" transform="translate(25.17 51.99)"> </text><text class="cls-41" transform="translate(14.42 25.9)"><tspan class="cls-42">Beg</tspan><tspan class="cls-43" x="14.26" y="0">i</tspan><tspan class="cls-42" x="15.97" y="0">nners </tspan><tspan class="cls-43" x="37.71" y="0">g</tspan><tspan class="cls-44" x="42.34" y="0">u</tspan><tspan class="cls-43" x="46.78" y="0">i</tspan><tspan class="cls-44" x="48.49" y="0">de</tspan><tspan class="cls-45" x="57.66" y="0"> </tspan><tspan class="cls-46" x="59.65" y="0">t</tspan><tspan class="cls-44" x="61.88" y="0">o</tspan><tspan class="cls-47" x="66.49" y="0"> </tspan><tspan class="cls-48" x="68.48" y="0">G</tspan><tspan class="cls-49" x="74.34" y="0">r</tspan><tspan class="cls-45" x="76.68" y="0">a</tspan><tspan class="cls-46" x="80.92" y="0">p</tspan><tspan class="cls-45" x="85.46" y="0">h</tspan><tspan class="cls-50" x="89.9" y="0">i</tspan><tspan class="cls-47" x="91.62" y="0">c</tspan><tspan class="cls-44" x="95.59" y="0"> </tspan><tspan class="cls-51" x="97.59" y="0">D</tspan><tspan class="cls-42" x="103.3" y="0">es</tspan><tspan class="cls-45" x="111.56" y="0">ig</tspan><tspan x="117.9" y="0">n</tspan></text><text class="cls-30" transform="translate(25.17 173.83)"><tspan class="cls-31">S</tspan><tspan class="cls-32" x="2.88" y="0">ection 2 - Considering a ca</tspan><tspan class="cls-52" x="60.15" y="0">r</tspan><tspan x="61.67" y="0">eer in </tspan><tspan class="cls-53" x="75.08" y="0">G</tspan><tspan class="cls-54" x="78.6" y="0">r</tspan><tspan x="80.07" y="0">a</tspan><tspan class="cls-35" x="82.64" y="0">p</tspan><tspan x="85.4" y="0">hic </tspan><tspan class="cls-31" x="92.87" y="0">D</tspan><tspan class="cls-32" x="96.3" y="0">esign</tspan></text></g></g></svg>