<svg xmlns="http://www.w3.org/2000/svg" viewBox="0 0 178.29 252.16"><defs><style>.cls-1{fill:#fff;}.cls-10,.cls-11,.cls-12,.cls-13,.cls-14,.cls-15,.cls-16,.cls-2,.cls-3,.cls-4,.cls-5,.cls-6,.cls-7,.cls-8,.cls-9{fill:none;}.cls-15,.cls-16,.cls-2{stroke:#231f20;}.cls-15,.cls-2{stroke-miterlimit:10;}.cls-2{stroke-width:0.21px;}.cls-13,.cls-3{stroke:#565351;}.cls-10,.cls-11,.cls-12,.cls-13,.cls-14,.cls-16,.cls-3,.cls-4,.cls-5,.cls-6,.cls-7,.cls-8,.cls-9{stroke-linecap:round;stroke-linejoin:round;}.cls-16,.cls-3,.cls-4,.cls-5,.cls-6,.cls-7,.cls-8{stroke-width:4.41px;}.cls-11,.cls-4{stroke:#918f8d;}.cls-5,.cls-9{stroke:#d6d4d3;}.cls-14,.cls-6{stroke:#383431;}.cls-12,.cls-7{stroke:#6f6b6a;}.cls-10,.cls-8{stroke:#b8b4b4;}.cls-10,.cls-11,.cls-12,.cls-13,.cls-14,.cls-15,.cls-9{stroke-width:3.47px;}.cls-17{fill:#5e5d5e;}.cls-18,.cls-19{font-size:1.6px;fill:#231f20;font-family:ProximaNova-Regular, Proxima Nova;}.cls-18{letter-spacing:0em;}.cls-20{letter-spacing:-0.01em;}.cls-21{letter-spacing:0em;}</style></defs><title>Asset 148</title><g id="Layer_2" data-name="Layer 2"><g id="Layer_1-2" data-name="Layer 1"><rect class="cls-1" width="178.29" height="252.16"/><line class="cls-2" x1="58.04" y1="211.73" x2="122.85" y2="211.73"/><line class="cls-3" x1="80.21" y1="145.97" x2="51.7" y2="145.97"/><line class="cls-4" x1="73.85" y1="100.14" x2="51.68" y2="100.14"/><line class="cls-5" x1="73.85" y1="54.53" x2="51.68" y2="54.53"/><line class="cls-6" x1="107.92" y1="169.43" x2="129.97" y2="169.43"/><line class="cls-7" x1="103.58" y1="123.31" x2="129.3" y2="123.31"/><line class="cls-8" x1="104.11" y1="78" x2="130.51" y2="78"/><circle class="cls-9" cx="42.56" cy="54.53" r="8.33"/><circle class="cls-10" cx="67.24" cy="27.42" r="8.33"/><circle class="cls-11" cx="113.36" cy="50.48" r="8.33"/><circle class="cls-10" cx="139.66" cy="78" r="8.33"/><circle class="cls-12" cx="66.43" cy="76.78" r="8.33"/><circle class="cls-13" cx="113.36" cy="97.01" r="8.33"/><circle class="cls-12" cx="138.85" cy="123.31" r="8.33"/><circle class="cls-14" cx="67.24" cy="118.86" r="8.33"/><circle class="cls-13" cx="42.15" cy="145.97" r="8.33"/><circle class="cls-14" cx="139.25" cy="169.43" r="8.33"/><path class="cls-1" d="M121.69,142.33a8.33,8.33,0,1,1-8.33-8.33,8.33,8.33,0,0,1,8.33,8.33"/><circle class="cls-15" cx="113.36" cy="142.33" r="8.33"/><polyline class="cls-8" points="67.23 36.56 67.23 54.53 90.05 54.53 90.05 79.91"/><polyline class="cls-4" points="113.36 60.03 113.36 78 90.05 78 90.05 102.56"/><polyline class="cls-7" points="66.43 86.33 66.43 100.14 90.05 100.14 90.05 127.56"/><polyline class="cls-3" points="113.36 106.16 113.36 123.31 90.05 123.31 90.05 148.95"/><polyline class="cls-6" points="67.23 128 67.23 145.97 90.05 145.97 90.05 171.34"/><polyline class="cls-16" points="90.05 194.4 90.05 169.43 113.36 169.43 113.36 151.87"/><circle class="cls-11" cx="42.56" cy="99.84" r="8.33"/><path class="cls-17" d="M116,144.28a1.34,1.34,0,0,1-.56-2.56l.37,1.34a.18.18,0,0,0,.17.13h0a.18.18,0,0,0,.12-.22l-.37-1.35.22,0a1.34,1.34,0,0,1,0,2.69m-2.68-1.77a.57.57,0,0,0-.27-.07l-.56-1.63,2.39,0Zm-.08.48a.2.2,0,0,1-.2.2l-.09,0a.2.2,0,0,1,.09-.38h0a.19.19,0,0,1,.14.08.2.2,0,0,1,0,.12h0m-.74-.14h-.19a1.7,1.7,0,0,0-.59-1.2l.44-.69.54,1.58a.56.56,0,0,0-.21.31m-1.54,0,.57-.88a1.34,1.34,0,0,1,.43.9Zm-.34,1.45a1.34,1.34,0,1,1,.62-2.53l-.75,1.16a.18.18,0,0,0,.15.27l1.3,0a1.35,1.35,0,0,1-1.32,1.08m5.38-3a1.64,1.64,0,0,0-.32,0l-.37-1.34c.64-.06.85,0,.92,0a.2.2,0,0,1,.07.14.36.36,0,0,1,0,.23.53.53,0,0,1-.36.08.18.18,0,1,0,0,.35.84.84,0,0,0,.64-.2.67.67,0,0,0,.13-.51.54.54,0,0,0-.23-.4,2.31,2.31,0,0,0-1.36-.08.18.18,0,0,0-.15.22l.17.62-2.71,0-.1-.29h.52a.18.18,0,0,0,0-.35h-1.28a.18.18,0,0,0,0,.35h.38l.13.37h0l-.59.91a1.7,1.7,0,1,0,.86,1.76h.24a.56.56,0,0,0,1.06-.22.54.54,0,0,0,0-.21l1.67-1.84.12.43a1.7,1.7,0,1,0,.66-.13"/><path class="cls-17" d="M45.66,147.54l-.07,0a8.23,8.23,0,0,1-1.92.2l-1.19,0-1.86.07h-.06a5.08,5.08,0,0,1-2.31-.65.29.29,0,0,1-.16-.24.66.66,0,0,1,0-.1.92.92,0,0,1,0-.16,3.87,3.87,0,0,0,2.27.65,7.27,7.27,0,0,0,2.46-.48l.69-.28.58-.23c.7-.26,1.21-.34,1.62,0l.09.08s0,.05,0,.08a2.16,2.16,0,0,0,0,.31l0,.15c0,.11,0,.21.06.3s0,.09-.27.21m-7.18-1.14a3.55,3.55,0,0,1,.57-.1l.27,0,.27,0c.24,0,.51,0,.64-.27a1,1,0,0,1,.14-.14l.34.42a.22.22,0,0,0,.31,0,.22.22,0,0,0,0-.31l-.34-.42h0l.2-.15.31.41a.22.22,0,0,0,.17.09.22.22,0,0,0,.17-.35l-.31-.41.2-.15.32.44a.22.22,0,1,0,.35-.26l-.33-.45.19-.16,0,0,.31.43a.22.22,0,0,0,.18.09.22.22,0,0,0,.13,0,.22.22,0,0,0,0-.31l-.32-.44a3.34,3.34,0,0,1,.33-.23l.07,0c.13,0,.31.2.4.31l.09.1a.24.24,0,0,0,.1.31l.32.16a1,1,0,0,0,.41.1.85.85,0,0,0,.62-.31l.06-.06a1.55,1.55,0,0,1,.47-.3h0a.54.54,0,0,1,.37.29,5,5,0,0,1,.15.72l.06.32a.92.92,0,0,1,0,.11s0,.1,0,.16v0c-.72-.45-1.61-.07-2.47.29l-.41.17-.26.1a4.79,4.79,0,0,1-4.28-.08l0,0Zm7.88.83c0-.09,0-.19-.06-.29l0-.14a1.61,1.61,0,0,1,0-.24c0-.06,0-.13,0-.21s0-.29,0-.44,0-.14,0-.2a1.43,1.43,0,0,0,0-.16l-.06-.31a5,5,0,0,0-.18-.81,1,1,0,0,0-.77-.57l-.16,0a2.07,2.07,0,0,0-.61.39l-.08.07c-.11.11-.19.18-.31.18a.53.53,0,0,1-.22-.06l-.16-.07a.42.42,0,0,0-.14-.31l-.08-.08a1.06,1.06,0,0,0-.73-.45.56.56,0,0,0-.28.08,4.45,4.45,0,0,0-.53.38h0l0,0-.17.14-.34.29-.51.38,0,0,0,0-.33.25-.13.1-.14.11a1.33,1.33,0,0,0-.34.33,1,1,0,0,1-.3.05l-.32,0-.23,0a1.87,1.87,0,0,0-1.13.39h0a.64.64,0,0,0-.1.14l0,.09a1.54,1.54,0,0,0-.08.38.88.88,0,0,0,0,.18.73.73,0,0,0,.36.56,5.48,5.48,0,0,0,2.53.71h.07l1.87-.07,1.19,0a8.76,8.76,0,0,0,2.08-.24l.07,0c.28-.12.63-.26.53-.71"/><path class="cls-17" d="M142.09,124.49l-.07,0a8.23,8.23,0,0,1-1.92.2l-1.19,0-1.86.07H137a5.08,5.08,0,0,1-2.31-.65.29.29,0,0,1-.16-.24.66.66,0,0,1,0-.1.94.94,0,0,1,0-.16,3.87,3.87,0,0,0,2.27.65,7.27,7.27,0,0,0,2.46-.48l.69-.28.58-.23c.7-.26,1.21-.34,1.62,0l.09.08s0,.05,0,.08a2,2,0,0,0,0,.31l0,.15c0,.11,0,.21.06.3s0,.09-.27.21m-7.18-1.14a3.55,3.55,0,0,1,.57-.1l.27,0,.27,0c.24,0,.51,0,.64-.27a1,1,0,0,1,.14-.14l.34.42a.22.22,0,0,0,.31,0,.22.22,0,0,0,0-.31l-.34-.42h0l.2-.15.31.41a.22.22,0,0,0,.17.09.22.22,0,0,0,.17-.35l-.31-.41.2-.15.32.44a.22.22,0,1,0,.35-.26l-.33-.45.19-.16,0,0,.31.43a.22.22,0,0,0,.18.09.22.22,0,0,0,.13,0,.22.22,0,0,0,0-.31l-.32-.44a3.34,3.34,0,0,1,.33-.23l.07,0c.13,0,.31.2.4.31l.09.1a.24.24,0,0,0,.1.31l.32.16a1,1,0,0,0,.41.1.85.85,0,0,0,.62-.31l.06-.06a1.58,1.58,0,0,1,.47-.3h0a.54.54,0,0,1,.37.29,5.14,5.14,0,0,1,.15.72l.06.32a.92.92,0,0,1,0,.11s0,.1,0,.16v0c-.72-.45-1.61-.07-2.47.29l-.41.17-.26.1a4.79,4.79,0,0,1-4.28-.08l0,0Zm7.88.83c0-.09,0-.19-.06-.29l0-.14a1.61,1.61,0,0,1,0-.24c0-.06,0-.13,0-.21s0-.29,0-.44,0-.14,0-.2a1.43,1.43,0,0,0,0-.16l-.06-.31a5,5,0,0,0-.18-.81,1,1,0,0,0-.77-.57l-.16,0a2.1,2.1,0,0,0-.61.39l-.08.07c-.11.11-.19.18-.31.18a.53.53,0,0,1-.22-.06l-.16-.07a.42.42,0,0,0-.14-.31l-.08-.08a1.06,1.06,0,0,0-.73-.45.57.57,0,0,0-.28.08,4.45,4.45,0,0,0-.53.38h0l0,0-.17.14-.34.29-.51.38,0,0,0,0-.33.25-.13.1-.14.11a1.33,1.33,0,0,0-.34.33,1,1,0,0,1-.3.05l-.32,0-.23,0a1.87,1.87,0,0,0-1.13.39h0a.64.64,0,0,0-.1.14l0,.09a1.58,1.58,0,0,0-.08.38,1,1,0,0,0,0,.18.73.73,0,0,0,.36.56,5.5,5.5,0,0,0,2.53.71H137l1.87-.07,1.19,0a8.76,8.76,0,0,0,2.08-.24l.07,0c.28-.12.63-.26.53-.71"/><path class="cls-17" d="M70.71,118.88a2.65,2.65,0,0,1-.2.57h-.93l-1.13-1.93a.21.21,0,0,0-.37,0l-1.19,2.86-1.27-2.25a.21.21,0,0,0-.18-.11h0a.21.21,0,0,0-.18.11l-.67,1.29h-.76a2.78,2.78,0,0,1-.21-.58,2.61,2.61,0,0,1,.43-2.13,1.42,1.42,0,0,1,1.13-.57,2.88,2.88,0,0,1,1.85.94.21.21,0,0,0,.29,0,2.89,2.89,0,0,1,1.85-.94,1.42,1.42,0,0,1,1.13.57,2.6,2.6,0,0,1,.43,2.13m-.45,1a7,7,0,0,1-2.93,2.32l-.17.07-.17-.07a7,7,0,0,1-2.93-2.31v0h.64a.21.21,0,0,0,.19-.11l.55-1.06L66.73,121a.21.21,0,0,0,.18.11h0a.21.21,0,0,0,.18-.13l1.19-2.87,1,1.67a.21.21,0,0,0,.18.1h.8m.35-3.4a1.84,1.84,0,0,0-1.45-.73,3.1,3.1,0,0,0-2,.92,3.1,3.1,0,0,0-2-.92,1.84,1.84,0,0,0-1.45.73A3,3,0,0,0,63.2,119a3.14,3.14,0,0,0,.26.71l0,0,0,.07c.06.11.13.22.2.33a7.5,7.5,0,0,0,3.11,2.47l.25.1.08,0,.08,0,.25-.1a7.47,7.47,0,0,0,3.12-2.48l.17-.27a.21.21,0,0,0,.13-.2.25.25,0,0,0,0,0,3.08,3.08,0,0,0,.22-.64,3,3,0,0,0-.51-2.49"/><path class="cls-17" d="M117.13,96.87h-.47v-.59h.47Zm-.91.79a.25.25,0,1,1-.5,0V95.54a.25.25,0,0,1,.5,0Zm-1,.75a.25.25,0,0,1-.5,0V94.78a.25.25,0,1,1,.5,0Zm-1-1.54h-2.37v-.59h2.37Zm-2.81-1v2.57a.25.25,0,0,1-.49,0V94.78a.25.25,0,1,1,.49,0Zm-1,1.82a.25.25,0,1,1-.49,0V95.54a.25.25,0,0,1,.49,0Zm-.94-.79h-.4v-.59h.4Zm7.86-1h-.69v-.3a.69.69,0,0,0-.69-.69.67.67,0,0,0-.3.07v-.13a.69.69,0,1,0-1.38,0v1h-2.43v-1a.69.69,0,1,0-1.38,0v.13a.68.68,0,0,0-.3-.07.69.69,0,0,0-.69.69v.3h-.62a.22.22,0,0,0-.22.22v1a.22.22,0,0,0,.22.22h.62v.34a.69.69,0,0,0,1,.62v.13a.69.69,0,0,0,1.38,0v-1.1h2.43v1.1a.69.69,0,0,0,1.38,0v-.13a.68.68,0,0,0,.3.07.69.69,0,0,0,.69-.69v-.34h.69a.22.22,0,0,0,.22-.22v-1a.22.22,0,0,0-.22-.22"/><path class="cls-17" d="M142,170.12c-.16,1.15-.89,2.35-1.84,2.35a1.5,1.5,0,0,1-.85-.3.19.19,0,0,0-.11,0,.19.19,0,0,0-.11,0,1.38,1.38,0,0,1-.77.26h0c-.92,0-1.62-1.19-1.81-2.3a1.46,1.46,0,0,1,.27-1.23,1.48,1.48,0,0,1,1.15-.48,2.34,2.34,0,0,1,1.22.37.19.19,0,0,0,.2,0,2.3,2.3,0,0,1,1.23-.39,1.42,1.42,0,0,1,1.1.46,1.55,1.55,0,0,1,.31,1.27m0-1.52a1.8,1.8,0,0,0-1.38-.59,2.63,2.63,0,0,0-1.34.39,2.69,2.69,0,0,0-1.32-.37,1.86,1.86,0,0,0-1.44.62,1.83,1.83,0,0,0-.36,1.54c.22,1.3,1,2.62,2.18,2.62h0a1.7,1.7,0,0,0,.88-.26,1.81,1.81,0,0,0,1,.3c1.2,0,2-1.38,2.22-2.68a1.92,1.92,0,0,0-.4-1.57"/><path class="cls-17" d="M137.79,166.26a1.93,1.93,0,0,1,.29.18,1.79,1.79,0,0,1,.23.2l-.21-.05-.09,0-.26-.06Zm-.27.6a1.25,1.25,0,0,1,.38.06l.12,0a1.72,1.72,0,0,1,.71.3,2.51,2.51,0,0,1,.16.48.19.19,0,0,0,.19.15h0a.19.19,0,0,0,.14-.23,2.77,2.77,0,0,0-.49-1.07,2.22,2.22,0,0,0-1.06-.76.19.19,0,0,0-.25.14l-.13.67a.19.19,0,0,0,0,.16.18.18,0,0,0,.15.07"/><path class="cls-17" d="M139.94,166.6l0-.05a1.43,1.43,0,0,1,.32-.41.8.8,0,0,1,.28-.16,1,1,0,0,1,.28,0l.28,0,.24.05a2.92,2.92,0,0,0-.31.33c-.14.18-.28.39-.4.58l-.07.11a1.45,1.45,0,0,1-.23.27c-.11.1-.16.12-.19.12h-.09a.76.76,0,0,1-.32-.08s0-.06,0-.09a1.49,1.49,0,0,1,.18-.67m-.44,1.05a1.26,1.26,0,0,0,.58.16h.13a.77.77,0,0,0,.41-.21,1.85,1.85,0,0,0,.29-.35l.07-.11c.13-.2.25-.39.38-.56a2.58,2.58,0,0,1,.5-.48h0a.19.19,0,0,0,.08-.18.19.19,0,0,0-.13-.15h0l-.3-.1-.33-.07a1.93,1.93,0,0,0-.35,0,1.4,1.4,0,0,0-.39.07,1.17,1.17,0,0,0-.42.23,1.84,1.84,0,0,0-.41.54l0,0a1.85,1.85,0,0,0-.22.83,1.4,1.4,0,0,0,0,.26.19.19,0,0,0,.1.13"/><path class="cls-17" d="M137.71,169.62c-.14.28-.38.41-.49.35a.23.23,0,0,1-.1-.19.77.77,0,0,1,.09-.41.59.59,0,0,1,.43-.36h.06c.12.06.15.33,0,.6m.16-.95a.52.52,0,0,0-.23-.06.94.94,0,0,0-.77.57,1.13,1.13,0,0,0-.13.63.6.6,0,0,0,.31.49.52.52,0,0,0,.23.05.94.94,0,0,0,.77-.57.81.81,0,0,0-.18-1.12"/><path class="cls-17" d="M45.59,99.82v0l-.58.6-.58-.46-.32-1.22.37-.57.79.26a3,3,0,0,1,.32,1.35M45,98l-.44-.14-.46-.66a3,3,0,0,1,.9.8m-1.45-1,.64.91a.18.18,0,0,0,0,.09l-.33.51-1.3-.45-.14-.78ZM43,96.82l-.68.17-.35-.14a3,3,0,0,1,.62-.07l.41,0M41.4,97l.65.26.16.89-.95.92h-1L40.16,98A3.05,3.05,0,0,1,41.4,97m-1.46,2.22-.36,1.14a3,3,0,0,1,.28-1.94Zm-.22,1.66.77.74.27.62a3,3,0,0,1-1-1.37m.93.42-.77-.75.36-1.13h1l.3,1.28Zm.2.29.87-.62,1.35.4.23.9-.84.57a3,3,0,0,1-1.19-.29Zm2.32,1.19.41-.28.85-.31a3,3,0,0,1-1.26.59m0-1.75-1.33-.39-.31-1.33.92-.89,1.34.46.31,1.16Zm1.32.77-.86.32-.21-.84.89-1,.53.42Zm.37,0,.33-1,.35-.36a3,3,0,0,1-.68,1.38m1.09-2a3.37,3.37,0,0,0-.38-1.56l0,0a3.38,3.38,0,0,0-4.19-1.57h0a3.39,3.39,0,0,0-1.49,1.13l0,0a3.38,3.38,0,0,0,2.66,5.37h.07A3.39,3.39,0,0,0,45.93,100a.16.16,0,0,0,0-.06s0-.06,0-.08"/><path class="cls-17" d="M115.16,53.06a1.91,1.91,0,0,0-1.55-3,1.49,1.49,0,0,1-.08-3l.08,0a3.21,3.21,0,0,1,1.54,6m-1.55.38-.08,0a3.21,3.21,0,0,1-1.46-6,1.91,1.91,0,0,0,1.55,3,1.49,1.49,0,0,1,0,3m0-6.82a3.63,3.63,0,1,0,3.63,3.63,3.63,3.63,0,0,0-3.63-3.63"/><path class="cls-17" d="M113.61,48.88a.32.32,0,1,1,.32-.32.32.32,0,0,1-.32.32m0-1.06a.74.74,0,1,0,.74.74.74.74,0,0,0-.74-.74"/><path class="cls-17" d="M113.61,52.27a.32.32,0,1,1,.32-.32.32.32,0,0,1-.32.32m0-1.06a.74.74,0,1,0,.74.74.74.74,0,0,0-.74-.74"/><path class="cls-17" d="M68,79.59a1.61,1.61,0,0,1-1.5.65h-.14c-.81,0-1.34-.25-1.54-.65a1.58,1.58,0,0,1,.27-1.49,1.54,1.54,0,0,0,.25-1.49.55.55,0,0,1,0-.54,1.3,1.3,0,0,1,1.07-.42h0a1,1,0,0,1,.82.35.8.8,0,0,1,.1.71,1.12,1.12,0,0,0,.28,1.05c.07.1.15.21.22.33a1.54,1.54,0,0,1,.1,1.49m.21-1.67c-.08-.14-.17-.26-.24-.36-.2-.28-.31-.43-.22-.75a1.15,1.15,0,0,0-.16-1,1.38,1.38,0,0,0-1.1-.49,1.66,1.66,0,0,0-1.42.58.89.89,0,0,0-.06.88,1.19,1.19,0,0,1-.22,1.15,1.87,1.87,0,0,0-.29,1.85c.27.52.89.81,1.85.84h.15a1.9,1.9,0,0,0,1.81-.82,1.87,1.87,0,0,0-.1-1.85"/><path class="cls-17" d="M64.76,73.57H65l.22,0a.63.63,0,0,1,.22.12,1.13,1.13,0,0,1,.25.32l0,0a1.2,1.2,0,0,1,.14.52v.05a.45.45,0,0,1-.22.06h-.09s0,0-.14-.09a1.08,1.08,0,0,1-.18-.21l-.06-.09a5.7,5.7,0,0,0-.33-.47,2.55,2.55,0,0,0-.21-.24l.15,0m-.22.49c.11.13.2.28.31.44l.06.09a1.5,1.5,0,0,0,.24.28.63.63,0,0,0,.34.18h.13a.87.87,0,0,0,.49-.17.18.18,0,0,0,.08-.15V74.6a1.52,1.52,0,0,0-.18-.67l0,0a1.46,1.46,0,0,0-.34-.44,1,1,0,0,0-.35-.19A1.17,1.17,0,0,0,65,73.2l-.29,0-.27.06-.24.08h0a.18.18,0,0,0-.12.14.18.18,0,0,0,.07.17h0a2.06,2.06,0,0,1,.39.38"/><path class="cls-17" d="M66.07,76.36a.32.32,0,0,1-.2.1h0s0-.12.11-.23a.32.32,0,0,1,.2-.1h0s0,.12-.11.23m.08-.59a.67.67,0,0,0-.45.2.72.72,0,0,0-.21.35.41.41,0,0,0,.09.38.38.38,0,0,0,.28.11.67.67,0,0,0,.45-.2.53.53,0,0,0,.11-.73.39.39,0,0,0-.28-.11"/><path class="cls-17" d="M65.88,78.47a.47.47,0,0,1-.33.25h0c-.07,0-.08-.24,0-.44a.47.47,0,0,1,.33-.25h0c.07,0,.08.24,0,.44m.23-.75a.44.44,0,0,0-.23-.06.81.81,0,0,0-.64.42.67.67,0,0,0,.07.94.44.44,0,0,0,.23.06.81.81,0,0,0,.64-.42.67.67,0,0,0-.07-.94"/><path class="cls-17" d="M67.44,73.62a1.63,1.63,0,0,1,.27-.16l0,.22-.25.05-.09,0-.19.05a1.7,1.7,0,0,1,.21-.18m-1,1.35h0a.18.18,0,0,0,.17-.14,2.42,2.42,0,0,1,.15-.45,1.63,1.63,0,0,1,.67-.28l.11,0A1.28,1.28,0,0,1,68,74a.18.18,0,0,0,.14-.06.18.18,0,0,0,0-.15L68,73.17a.18.18,0,0,0-.09-.12.18.18,0,0,0-.15,0,2.12,2.12,0,0,0-.56.29,2.18,2.18,0,0,0-.43.42,2.59,2.59,0,0,0-.46,1,.18.18,0,0,0,.13.21"/><path class="cls-17" d="M139.57,81.42a2.62,2.62,0,1,1,2.62-2.62,2.63,2.63,0,0,1-2.62,2.62m.28-6.36v.76h-.55v-.76Zm-1.11.24a1,1,0,0,1,.83-1.47,1,1,0,0,1,.83,1.47h-.19v-.42a.18.18,0,0,0-.18-.18h-.92a.18.18,0,0,0-.18.18v.42Zm1.47.58v-.21h.29a.18.18,0,0,0,.15-.07,1.34,1.34,0,1,0-2.15,0,.18.18,0,0,0,.15.07h.29v.21a3,3,0,1,0,1.28,0"/><path class="cls-17" d="M139.57,79.13h-.05l.38-.37a.21.21,0,0,1,0,0,.34.34,0,0,1-.33.33m-.33-.33a.33.33,0,0,1,.33-.33l.09,0-.42.4a.29.29,0,0,1,0-.08m1.34-1.2-.63.61a.69.69,0,0,0-.37-.11.7.7,0,0,0-.7.7.68.68,0,0,0,.1.35l-.2.19a.18.18,0,0,0,.13.31.18.18,0,0,0,.13-.05l.21-.2a.69.69,0,0,0,.34.09.7.7,0,0,0,.62-1l.64-.61a.18.18,0,0,0-.25-.26"/><path class="cls-17" d="M141.19,78.81a.18.18,0,0,0,.18.18h.34a.18.18,0,0,0,0-.36h-.34a.18.18,0,0,0-.18.18"/><path class="cls-17" d="M138,78.81a.18.18,0,0,0-.18-.18h-.41a.18.18,0,0,0,0,.36h.41a.18.18,0,0,0,.18-.18"/><path class="cls-17" d="M141.51,79.71l-.26-.15a.18.18,0,1,0-.18.32l.26.15.09,0a.18.18,0,0,0,.09-.34"/><path class="cls-17" d="M138.17,77.79l-.35-.2a.18.18,0,1,0-.18.32l.35.2.09,0a.18.18,0,0,0,.09-.34"/><path class="cls-17" d="M140.65,80.31a.18.18,0,0,0-.32.18l.15.25a.18.18,0,0,0,.16.09l.09,0a.18.18,0,0,0,.07-.25Z"/><path class="cls-17" d="M138.55,77.39a.18.18,0,0,0,.16.09l.09,0a.18.18,0,0,0,.07-.25l-.2-.34a.18.18,0,0,0-.32.18Z"/><path class="cls-17" d="M139.57,80.46a.18.18,0,0,0-.18.18v.3a.18.18,0,0,0,.36,0v-.3a.18.18,0,0,0-.18-.18"/><path class="cls-17" d="M139.57,77.25a.18.18,0,0,0,.18-.18v-.39a.18.18,0,0,0-.36,0v.39a.18.18,0,0,0,.18.18"/><path class="cls-17" d="M138.76,80.22a.18.18,0,0,0-.25.07l-.16.28a.18.18,0,0,0,.07.25l.09,0a.18.18,0,0,0,.16-.09l.16-.28a.18.18,0,0,0-.07-.25"/><path class="cls-17" d="M140.37,77.42l.09,0a.18.18,0,0,0,.16-.09l.18-.31a.18.18,0,1,0-.32-.18l-.18.31a.18.18,0,0,0,.07.25"/><path class="cls-17" d="M137.92,79.55l-.29.17a.18.18,0,0,0,.09.34l.09,0,.29-.16a.18.18,0,0,0-.18-.32"/><path class="cls-17" d="M141,77.78a.18.18,0,0,0,.09.34l.09,0,.33-.19a.18.18,0,1,0-.18-.32Z"/><path class="cls-17" d="M142.86,76.26l-.77-.75a.18.18,0,0,0-.27,0l-.34.41a.18.18,0,0,0,0,.26.18.18,0,0,0,.26,0l.22-.26.51.5-.24.28a.18.18,0,0,0,.14.3.18.18,0,0,0,.14-.07l.34-.41a.18.18,0,0,0,0-.25"/><path class="cls-17" d="M136.78,77a.18.18,0,0,0,.12,0,.18.18,0,0,0,0-.26l-.25-.29.52-.49.24.28a.18.18,0,1,0,.27-.24l-.36-.42a.19.19,0,0,0-.13-.06.18.18,0,0,0-.13.05l-.79.74a.18.18,0,0,0,0,.25l.36.42a.18.18,0,0,0,.14.06"/><path class="cls-17" d="M46.32,56.1l-.08.24-.87,0h-.09l.07-.23.25.07h0a.18.18,0,0,0,0-.35l-.25-.07.08-.27.21.06.3.08h.11a.18.18,0,0,0,0-.34l-.12,0-.38-.11.08-.27.18.05L46,55h0a.18.18,0,0,0,0-.35l-.24-.07.05-.18h1ZM45,55.93l-.89-2.34.39-1.3.87,2.36ZM43.94,53l-.17.56-.69,2.3-.13.43H42l.09-.3.35.1h0a.18.18,0,0,0,0-.35l-.34-.1.08-.27.3.08h.09a.18.18,0,0,0,0-.35l-.29-.08h0l0-.06.06-.21.27.07.06,0h0a.18.18,0,0,0,0-.35l-.31-.09h0v0l.08-.25.58.16h0a.18.18,0,0,0,0-.35l-.57-.16.08-.27.31.09h0a.18.18,0,0,0,0-.35l-.3-.08L43,53l.3.08h0a.18.18,0,0,0,.17-.13h0a.18.18,0,0,0-.07-.18l-.06,0-.29-.08.08-.27.14,0,.15,0h0a.18.18,0,0,0,.16-.1v0a.18.18,0,0,0-.1-.21h0L43.29,52l0-.13h0l0-.07h1v0Zm-2.18,2.83L41,53.56l.4-1.34.82,2.25Zm-1-2.9-.17.58-.83,2.77h-1l.09-.3.35.1h0a.18.18,0,0,0,0-.35L39,55.7l.08-.27.34.09h0a.18.18,0,0,0,0-.35l-.33-.09.08-.27.33.09h0a.18.18,0,0,0,0-.35l-.32-.09.08-.27.58.16h0a.18.18,0,0,0,0-.35l-.57-.16.08-.27.31.09h0a.18.18,0,0,0,0-.35l-.3-.08.08-.27.3.08h0a.18.18,0,0,0,0-.35l-.29-.08.08-.27.22.06.07,0h0a.18.18,0,0,0,.17-.13.18.18,0,0,0-.12-.22L40.09,52l0-.13h0l0-.07h1Zm6.5,1.11a.18.18,0,0,0-.14-.07H45.73a.18.18,0,0,0-.15.08l-.87-2.37v0a.17.17,0,0,0,0-.16.18.18,0,0,0-.14-.07H43.21a.18.18,0,0,0-.17.13l0,.09h0l0,.09h0l-.62,2.08v0l-.83-2.28a.17.17,0,0,0-.15-.14H40a.18.18,0,0,0-.17.13l0,.09h0l0,.09h0l-.62,2.08h0l0,.07-.75,2.51a.17.17,0,0,0,0,.16.18.18,0,0,0,.14.07H39.9a.18.18,0,0,0,.17-.13l.73-2.42.79,2.32h0a.17.17,0,0,0,0,.16.18.18,0,0,0,.14.07h1.42a.18.18,0,0,0,.11-.21l.7-2.32.9,2.35a.18.18,0,0,0,0,.14.18.18,0,0,0,.14.07h.31l1,0a.18.18,0,0,0,.17-.12l.75-2.31a.18.18,0,0,0,0-.16"/><path class="cls-17" d="M68.59,30.34a.59.59,0,0,1-.59.59H66.24a.59.59,0,0,1-.59-.59V27.12a.59.59,0,0,1,.51-.58.18.18,0,0,0,.16-.18v-.49a.18.18,0,0,0-.18-.18H66V25.4h2.23v.29H68.1a.18.18,0,0,0-.18.18v.49a.18.18,0,0,0,.16.18.59.59,0,0,1,.51.58ZM66,24.65h.7a.18.18,0,0,0,.18-.22l-.06-.26a.24.24,0,0,1,0-.21.39.39,0,0,1,.28-.14.3.3,0,0,1,.21.12.26.26,0,0,1,.06.23l-.06.26a.18.18,0,0,0,0,.15.18.18,0,0,0,.14.07h.69V25H66Zm2.27,1.56V26h.14a.18.18,0,0,0,.18-.18V25.2a.25.25,0,0,0,0,0v-.68a.18.18,0,0,0-.18-.18h-.65v0a.61.61,0,0,0-.13-.53.65.65,0,0,0-.49-.25h0a.75.75,0,0,0-.55.27.6.6,0,0,0-.11.51v0h-.65a.18.18,0,0,0-.18.18v.68a.17.17,0,0,0,0,0v.66a.18.18,0,0,0,.18.18H66v.17a1,1,0,0,0-.67.9v3.22a1,1,0,0,0,.95.95H68a1,1,0,0,0,.95-.95V27.12a1,1,0,0,0-.67-.9"/><path class="cls-17" d="M68,29.79a.23.23,0,0,1-.23.23h-1.3a.23.23,0,0,1-.23-.23v-2.2a.23.23,0,0,1,.23-.23h1.3a.23.23,0,0,1,.23.23ZM67.77,27h-1.3a.59.59,0,0,0-.59.59v2.2a.59.59,0,0,0,.59.59h1.3a.59.59,0,0,0,.59-.59v-2.2a.59.59,0,0,0-.59-.59"/><path class="cls-17" d="M67.5,28.45h-.36l.35-.5a.2.2,0,0,0,0-.28.2.2,0,0,0-.28,0l-.59.82a.19.19,0,0,0,0,.21.2.2,0,0,0,.18.11h.32l-.47.58a.2.2,0,0,0,.31.25l.75-.91a.2.2,0,0,0-.16-.33"/><text class="cls-18" transform="translate(59.92 220.09)">Statisitc 1 </text><text class="cls-19" transform="translate(67.33 220.09)">- Lo<tspan class="cls-20" x="2.59" y="0">r</tspan><tspan class="cls-21" x="3.1" y="0">em ipsum dolor sit</tspan></text><text class="cls-18" transform="translate(59.92 223.07)">Statisitc 2 </text><text class="cls-19" transform="translate(67.46 223.07)">- Lo<tspan class="cls-20" x="2.59" y="0">r</tspan><tspan class="cls-21" x="3.1" y="0">em ipsum dolor </tspan></text><text class="cls-18" transform="translate(59.92 226.05)">Statisitc 3 </text><text class="cls-19" transform="translate(67.45 226.05)">- Lo<tspan class="cls-20" x="2.59" y="0">r</tspan><tspan class="cls-21" x="3.1" y="0">em ipsum dolor sit amet</tspan></text><text class="cls-18" transform="translate(59.92 229.03)">Statisitc 4 </text><text class="cls-19" transform="translate(67.52 229.03)">- Lo<tspan class="cls-20" x="2.59" y="0">r</tspan><tspan class="cls-21" x="3.1" y="0">em ipsum dolor sit</tspan></text><text class="cls-18" transform="translate(59.92 232.01)">Statisitc 5 </text><text class="cls-19" transform="translate(67.45 232.01)">- Lo<tspan class="cls-20" x="2.59" y="0">r</tspan><tspan class="cls-21" x="3.1" y="0">em ipsum </tspan></text><text class="cls-18" transform="translate(59.92 235)">Statisitc 6 </text><text class="cls-19" transform="translate(67.5 235)">- Lo<tspan class="cls-20" x="2.59" y="0">r</tspan><tspan class="cls-21" x="3.1" y="0">em ipsum dolor sit amet</tspan></text><text class="cls-18" transform="translate(92.74 220.09)">Statisitc 7 </text><text class="cls-19" transform="translate(100.21 220.09)">- Lo<tspan class="cls-20" x="2.59" y="0">r</tspan><tspan class="cls-21" x="3.1" y="0">em ipsum dolor </tspan></text><text class="cls-18" transform="translate(92.74 223.07)">Statisitc 8 </text><text class="cls-19" transform="translate(100.34 223.07)">- Lo<tspan class="cls-20" x="2.59" y="0">r</tspan><tspan class="cls-21" x="3.1" y="0">em ipsum dolor sit amet</tspan></text><text class="cls-18" transform="translate(92.74 226.05)">Statisitc 9 </text><text class="cls-19" transform="translate(100.32 226.05)">- Lo<tspan class="cls-20" x="2.59" y="0">r</tspan><tspan class="cls-21" x="3.1" y="0">em ipsum dolor sit</tspan></text><text class="cls-18" transform="translate(92.74 229.03)">Statisitc 10 </text><text class="cls-19" transform="translate(101.15 229.03)">- Lo<tspan class="cls-20" x="2.59" y="0">r</tspan><tspan class="cls-21" x="3.1" y="0">em ipsum </tspan></text><text class="cls-18" transform="translate(92.74 232.01)">Statisitc 11 </text><text class="cls-19" transform="translate(100.93 232.01)">- Lo<tspan class="cls-20" x="2.59" y="0">r</tspan><tspan class="cls-21" x="3.1" y="0">em ipsum dolor</tspan></text><text class="cls-18" transform="translate(92.74 235)">Statisitc 12 </text><text class="cls-19" transform="translate(101.06 235)">- Lo<tspan class="cls-20" x="2.59" y="0">r</tspan><tspan class="cls-21" x="3.1" y="0">em ipsum dolor </tspan></text></g></g></svg>