<svg xmlns="http://www.w3.org/2000/svg" xmlns:xlink="http://www.w3.org/1999/xlink" viewBox="0 0 182.07 257.29"><defs><style>.cls-1,.cls-3{fill:none;}.cls-2{fill:#fff;}.cls-3{stroke:#cfcecf;stroke-width:0.51px;}.cls-4{opacity:0.9;}.cls-5{clip-path:url(#clip-path);}.cls-6{fill:#5e5d5e;}.cls-7{clip-path:url(#clip-path-2);}.cls-8{clip-path:url(#clip-path-3);}.cls-9{opacity:0.4;}.cls-10{clip-path:url(#clip-path-4);}.cls-11{opacity:0.3;}.cls-12{clip-path:url(#clip-path-5);}.cls-13{clip-path:url(#clip-path-6);}.cls-14{opacity:0.6;}.cls-15{clip-path:url(#clip-path-7);}.cls-16{clip-path:url(#clip-path-8);}.cls-17{clip-path:url(#clip-path-9);}.cls-18{clip-path:url(#clip-path-10);}.cls-19{clip-path:url(#clip-path-11);}.cls-20{clip-path:url(#clip-path-12);}</style><clipPath id="clip-path"><rect class="cls-1" x="26.28" y="40.94" width="41.25" height="40.63"/></clipPath><clipPath id="clip-path-2"><rect class="cls-1" x="71.55" y="40.94" width="41.25" height="40.63"/></clipPath><clipPath id="clip-path-3"><rect class="cls-1" x="116.82" y="40.94" width="41.25" height="40.63"/></clipPath><clipPath id="clip-path-4"><rect class="cls-1" x="26.28" y="85.66" width="131.8" height="40.63"/></clipPath><clipPath id="clip-path-5"><rect class="cls-1" x="26.28" y="129.73" width="41.25" height="40.63"/></clipPath><clipPath id="clip-path-6"><rect class="cls-1" x="71.1" y="129.73" width="86.98" height="40.63"/></clipPath><clipPath id="clip-path-7"><rect class="cls-1" x="93.5" y="174.37" width="18.85" height="44.45"/></clipPath><clipPath id="clip-path-8"><rect class="cls-1" x="138.32" y="174.37" width="18.85" height="44.45"/></clipPath><clipPath id="clip-path-9"><rect class="cls-1" x="71.1" y="174.37" width="18.85" height="44.45"/></clipPath><clipPath id="clip-path-10"><rect class="cls-1" x="115.91" y="174.37" width="18.85" height="44.45"/></clipPath><clipPath id="clip-path-11"><rect class="cls-1" x="48.69" y="174.37" width="18.85" height="44.45"/></clipPath><clipPath id="clip-path-12"><rect class="cls-1" x="26.28" y="174.37" width="18.85" height="44.45"/></clipPath></defs><title>Asset 157</title><g id="Layer_2" data-name="Layer 2"><g id="Layer_1-2" data-name="Layer 1"><rect class="cls-2" x="0.25" y="0.25" width="181.56" height="256.78"/><rect class="cls-3" x="0.25" y="0.25" width="181.56" height="256.78"/><g class="cls-4"><g class="cls-5"><rect class="cls-6" x="27.56" y="42.22" width="38.68" height="38.06"/></g></g><g class="cls-4"><g class="cls-7"><rect class="cls-6" x="72.84" y="42.22" width="38.68" height="38.06"/></g></g><g class="cls-4"><g class="cls-8"><rect class="cls-6" x="118.11" y="42.22" width="38.68" height="38.06"/></g></g><g class="cls-9"><g class="cls-10"><rect class="cls-6" x="27.56" y="86.95" width="129.23" height="38.06"/></g></g><g class="cls-11"><g class="cls-12"><rect class="cls-6" x="27.56" y="131.02" width="38.68" height="38.06"/></g></g><g class="cls-11"><g class="cls-13"><rect class="cls-6" x="72.38" y="131.02" width="84.41" height="38.06"/></g></g><g class="cls-14"><g class="cls-15"><rect class="cls-6" x="94.79" y="175.66" width="16.28" height="41.88"/></g></g><g class="cls-14"><g class="cls-16"><rect class="cls-6" x="139.6" y="175.66" width="16.28" height="41.88"/></g></g><g class="cls-14"><g class="cls-17"><rect class="cls-6" x="72.38" y="175.66" width="16.28" height="41.88"/></g></g><g class="cls-14"><g class="cls-18"><rect class="cls-6" x="117.2" y="175.66" width="16.28" height="41.88"/></g></g><g class="cls-14"><g class="cls-19"><rect class="cls-6" x="49.97" y="175.66" width="16.28" height="41.88"/></g></g><g class="cls-14"><g class="cls-20"><rect class="cls-6" x="27.56" y="175.66" width="16.28" height="41.88"/></g></g></g></g></svg>