<svg xmlns="http://www.w3.org/2000/svg" xmlns:xlink="http://www.w3.org/1999/xlink" viewBox="0 0 182.22 257.44"><defs><style>.cls-1,.cls-3{fill:none;}.cls-2{fill:#fff;}.cls-3{stroke:#cfcecf;stroke-width:0.51px;}.cls-4{opacity:0.9;}.cls-5{clip-path:url(#clip-path);}.cls-6{fill:#5e5d5e;}.cls-7{opacity:0.3;}.cls-8{clip-path:url(#clip-path-2);}.cls-9{clip-path:url(#clip-path-3);}.cls-10{clip-path:url(#clip-path-4);}.cls-11{opacity:0.4;}.cls-12{clip-path:url(#clip-path-5);}.cls-13{clip-path:url(#clip-path-6);}.cls-14{opacity:0.6;}.cls-15{clip-path:url(#clip-path-7);}.cls-16{clip-path:url(#clip-path-8);}.cls-17{clip-path:url(#clip-path-9);}.cls-18{clip-path:url(#clip-path-10);}.cls-19{clip-path:url(#clip-path-11);}.cls-20{clip-path:url(#clip-path-12);}</style><clipPath id="clip-path" transform="translate(-1.28 -1.28)"><rect class="cls-1" x="16.53" width="40.63" height="40.63"/></clipPath><clipPath id="clip-path-2" transform="translate(-1.28 -1.28)"><rect class="cls-1" y="142.38" width="40.63" height="40.63"/></clipPath><clipPath id="clip-path-3" transform="translate(-1.28 -1.28)"><rect class="cls-1" x="91.11" y="38.06" width="40.63" height="40.63"/></clipPath><clipPath id="clip-path-4" transform="translate(-1.28 -1.28)"><rect class="cls-1" x="144.16" y="38.06" width="40.63" height="40.63"/></clipPath><clipPath id="clip-path-5" transform="translate(-1.28 -1.28)"><rect class="cls-1" y="94.01" width="131.8" height="40.63"/></clipPath><clipPath id="clip-path-6" transform="translate(-1.28 -1.28)"><rect class="cls-1" x="60.57" y="142.38" width="86.15" height="40.63"/></clipPath><clipPath id="clip-path-7" transform="translate(-1.28 -1.28)"><rect class="cls-1" x="112.95" y="199.6" width="18.85" height="44.45"/></clipPath><clipPath id="clip-path-8" transform="translate(-1.28 -1.28)"><rect class="cls-1" x="165.94" y="100.5" width="18.85" height="44.45"/></clipPath><clipPath id="clip-path-9" transform="translate(-1.28 -1.28)"><rect class="cls-1" x="86.76" y="199.6" width="18.85" height="44.45"/></clipPath><clipPath id="clip-path-10" transform="translate(-1.28 -1.28)"><rect class="cls-1" x="144.16" y="215.56" width="18.85" height="44.45"/></clipPath><clipPath id="clip-path-11" transform="translate(-1.28 -1.28)"><rect class="cls-1" x="60.57" y="215.56" width="18.85" height="44.45"/></clipPath><clipPath id="clip-path-12" transform="translate(-1.28 -1.28)"><rect class="cls-1" x="0.25" y="199.6" width="18.85" height="44.45"/></clipPath></defs><title>Asset 159</title><g id="Layer_2" data-name="Layer 2"><g id="Layer_1-2" data-name="Layer 1"><rect class="cls-2" x="0.33" y="0.33" width="181.56" height="256.78"/><rect class="cls-3" x="0.33" y="0.33" width="181.56" height="256.78"/><g class="cls-4"><g class="cls-5"><rect class="cls-6" x="16.53" width="38.06" height="38.06"/></g></g><g class="cls-7"><g class="cls-8"><rect class="cls-6" y="142.38" width="38.06" height="38.06"/></g></g><g class="cls-4"><g class="cls-9"><rect class="cls-6" x="91.11" y="38.06" width="38.06" height="38.06"/></g></g><g class="cls-4"><g class="cls-10"><rect class="cls-6" x="144.16" y="38.06" width="38.06" height="38.06"/></g></g><g class="cls-11"><g class="cls-12"><rect class="cls-6" y="94.01" width="129.23" height="38.06"/></g></g><g class="cls-7"><g class="cls-13"><rect class="cls-6" x="60.57" y="142.38" width="83.59" height="38.06"/></g></g><g class="cls-14"><g class="cls-15"><rect class="cls-6" x="112.95" y="199.6" width="16.28" height="41.88"/></g></g><g class="cls-14"><g class="cls-16"><rect class="cls-6" x="165.94" y="100.5" width="16.28" height="41.88"/></g></g><g class="cls-14"><g class="cls-17"><rect class="cls-6" x="86.76" y="199.6" width="16.28" height="41.88"/></g></g><g class="cls-14"><g class="cls-18"><rect class="cls-6" x="144.16" y="215.56" width="16.28" height="41.88"/></g></g><g class="cls-14"><g class="cls-19"><rect class="cls-6" x="60.57" y="215.56" width="16.28" height="41.88"/></g></g><g class="cls-14"><g class="cls-20"><rect class="cls-6" x="0.25" y="199.6" width="16.28" height="41.88"/></g></g></g></g></svg>