<svg xmlns="http://www.w3.org/2000/svg" viewBox="0 0 182.96 258.55"><defs><style>.cls-1{fill:#fff;}.cls-2{fill:none;stroke:#cfcecf;stroke-width:0.51px;}.cls-3{fill:#3a3a39;}</style></defs><title>Asset 182</title><g id="Layer_2" data-name="Layer 2"><g id="Layer_1-2" data-name="Layer 1"><rect class="cls-1" x="0.25" y="0.25" width="182.46" height="258.05"/><rect class="cls-2" x="0.25" y="0.25" width="182.46" height="258.05"/><path class="cls-3" d="M105.24,80.9A16.4,16.4,0,0,0,99,58.55L91,72.82,82.64,58.69a16.4,16.4,0,1,0,22.6,22.21"/><path class="cls-3" d="M105.24,136.71A16.4,16.4,0,0,0,99,114.36L91,128.63,82.64,114.5a16.4,16.4,0,1,0,22.6,22.21"/><path class="cls-3" d="M105.24,192.52A16.4,16.4,0,0,0,99,170.17L91,184.45l-8.32-14.13a16.4,16.4,0,1,0,22.6,22.21"/></g></g></svg>