<svg xmlns="http://www.w3.org/2000/svg" viewBox="0 0 182.96 258.55"><defs><style>.cls-1{fill:#fff;}.cls-2{fill:none;stroke:#cfcecf;stroke-width:0.51px;}.cls-3{fill:#3a3a39;}</style></defs><title>Asset 184</title><g id="Layer_2" data-name="Layer 2"><g id="Layer_1-2" data-name="Layer 1"><rect class="cls-1" x="0.25" y="0.25" width="182.46" height="258.05"/><rect class="cls-2" x="0.25" y="0.25" width="182.46" height="258.05"/><path class="cls-3" d="M127.92,217.17l-15.33-8.5,15-9a16.4,16.4,0,1,0,.31,17.53"/><path class="cls-3" d="M158.55,87.56a16.4,16.4,0,0,0-6-22.4l-8.2,14.2-8.2-14.2a16.4,16.4,0,1,0,22.4,22.4"/><path class="cls-3" d="M61.29,127.27a16.4,16.4,0,1,0-22.79,22l8.45-14.06,8,14.34a16.4,16.4,0,0,0,6.39-22.3"/></g></g></svg>