<svg xmlns="http://www.w3.org/2000/svg" viewBox="0 0 270.55 412.08"><defs><style>.cls-1,.cls-10,.cls-11,.cls-12,.cls-14,.cls-15,.cls-2,.cls-3,.cls-4,.cls-5,.cls-6,.cls-7,.cls-8,.cls-9{fill:none;}.cls-1,.cls-11{stroke:#565351;}.cls-1,.cls-10,.cls-11,.cls-12,.cls-15,.cls-2,.cls-3,.cls-4,.cls-5,.cls-6,.cls-7,.cls-8,.cls-9{stroke-linecap:round;stroke-linejoin:round;}.cls-1,.cls-15,.cls-2,.cls-3,.cls-4,.cls-5,.cls-6{stroke-width:10.64px;}.cls-2,.cls-9{stroke:#918f8d;}.cls-3,.cls-7{stroke:#d6d4d3;}.cls-12,.cls-4{stroke:#383431;}.cls-10,.cls-5{stroke:#6f6b6a;}.cls-6,.cls-8{stroke:#b8b4b4;}.cls-10,.cls-11,.cls-12,.cls-14,.cls-7,.cls-8,.cls-9{stroke-width:8.36px;}.cls-13{fill:#fff;}.cls-14,.cls-15{stroke:#231f20;}.cls-14{stroke-miterlimit:10;}.cls-16{fill:#5e5d5e;}</style></defs><title>Asset 3</title><g id="Layer_2" data-name="Layer 2"><g id="Layer_1-2" data-name="Layer 1"><line class="cls-1" x1="110.71" y1="295.54" x2="45.24" y2="295.54"/><line class="cls-2" x1="96.1" y1="190.3" x2="45.2" y2="190.3"/><line class="cls-3" x1="96.1" y1="85.57" x2="45.2" y2="85.57"/><line class="cls-4" x1="174.35" y1="349.43" x2="224.98" y2="349.43"/><line class="cls-5" x1="164.39" y1="243.51" x2="223.44" y2="243.51"/><line class="cls-6" x1="165.59" y1="139.45" x2="226.21" y2="139.45"/><circle class="cls-7" cx="24.25" cy="85.57" r="19.14"/><circle class="cls-8" cx="80.92" cy="23.32" r="19.14"/><circle class="cls-9" cx="186.84" cy="76.28" r="19.14"/><circle class="cls-8" cx="247.23" cy="139.45" r="19.14"/><circle class="cls-10" cx="79.06" cy="136.67" r="19.14"/><circle class="cls-11" cx="186.84" cy="183.12" r="19.14"/><circle class="cls-10" cx="245.37" cy="243.51" r="19.14"/><circle class="cls-12" cx="80.92" cy="233.29" r="19.14"/><circle class="cls-11" cx="23.32" cy="295.54" r="19.14"/><circle class="cls-12" cx="246.3" cy="349.43" r="19.14"/><path class="cls-13" d="M206,287.18A19.14,19.14,0,1,1,186.84,268,19.14,19.14,0,0,1,206,287.18"/><circle class="cls-14" cx="186.84" cy="287.18" r="19.14"/><polyline class="cls-6" points="80.92 44.32 80.92 85.57 133.31 85.57 133.31 143.85"/><polyline class="cls-2" points="186.84 98.2 186.84 139.45 133.31 139.45 133.31 195.87"/><polyline class="cls-5" points="79.06 158.59 79.06 190.3 133.31 190.3 133.31 253.26"/><polyline class="cls-1" points="186.84 204.12 186.84 243.51 133.31 243.51 133.31 302.4"/><polyline class="cls-4" points="80.92 254.29 80.92 295.54 133.31 295.54 133.31 353.81"/><polyline class="cls-15" points="133.31 406.76 133.31 349.43 186.84 349.43 186.84 309.11"/><circle class="cls-9" cx="24.25" cy="189.63" r="19.14"/><path class="cls-16" d="M192.84,291.66a3.08,3.08,0,0,1-1.29-5.88l.85,3.08a.4.4,0,0,0,.39.3h.11a.41.41,0,0,0,.28-.5l-.86-3.11a3,3,0,0,1,.52,0,3.08,3.08,0,0,1,0,6.17m-6.16-4.06a1.26,1.26,0,0,0-.61-.17l-1.28-3.73,5.49,0Zm-.17,1.11a.46.46,0,0,1-.92,0,.42.42,0,0,1,0-.12.46.46,0,0,1,.09-.17.46.46,0,0,1,.35-.17h0a.46.46,0,0,1,.41.46h0m-1.7-.32h-.43a3.89,3.89,0,0,0-1.35-2.77l1-1.58,1.25,3.63a1.27,1.27,0,0,0-.48.72m-3.54-.06,1.3-2a3.07,3.07,0,0,1,1,2.06Zm-.79,3.32a3.08,3.08,0,1,1,0-6.17,3.05,3.05,0,0,1,1.43.35l-1.72,2.66a.41.41,0,0,0,.33.63l3,.05a3.09,3.09,0,0,1-3,2.47m12.36-7a3.83,3.83,0,0,0-.73.07l-.85-3.08c1.47-.14,2,0,2.12.11a.48.48,0,0,1,.16.33.82.82,0,0,1-.09.53,1.21,1.21,0,0,1-.83.19.41.41,0,0,0,0,.81,1.93,1.93,0,0,0,1.47-.46,1.52,1.52,0,0,0,.29-1.18,1.24,1.24,0,0,0-.52-.91c-.5-.32-1.46-.38-3.13-.18a.4.4,0,0,0-.34.51l.39,1.41-6.23,0-.23-.67h1.21a.41.41,0,1,0,0-.81h-2.93a.41.41,0,1,0,0,.81h.86l.29.85h0l-1.35,2.08a3.9,3.9,0,1,0,2,4h.54a1.27,1.27,0,0,0,2.35-1l3.84-4.22.27,1a3.9,3.9,0,1,0,1.51-.31"/><path class="cls-16" d="M31.37,299.15l-.16.07a18.71,18.71,0,0,1-4.41.47l-2.74.11c-1.43.06-3.05.13-4.28.16h-.14a11.65,11.65,0,0,1-5.3-1.48.68.68,0,0,1-.36-.54,1.23,1.23,0,0,1,0-.23,2.19,2.19,0,0,1,.06-.38,8.88,8.88,0,0,0,5.22,1.5,16.68,16.68,0,0,0,5.66-1.1c.53-.19,1.07-.42,1.59-.64s.91-.38,1.32-.53c1.61-.6,2.78-.78,3.72,0l.2.18c0,.06,0,.12,0,.18a4.85,4.85,0,0,0,.05.7c0,.12,0,.23.06.35s.09.48.14.7,0,.22-.62.49m-16.49-2.61a7.91,7.91,0,0,1,1.32-.23c.25,0,.47-.06.63-.09a4.87,4.87,0,0,1,.61-.08c.55-.05,1.18-.11,1.46-.61a2.18,2.18,0,0,1,.33-.32l.78,1a.5.5,0,0,0,.39.19.5.5,0,0,0,.39-.82l-.77-1h0l.45-.34.71.93a.5.5,0,1,0,.8-.61l-.71-.93.45-.34.74,1a.5.5,0,0,0,.4.2.5.5,0,0,0,.4-.8l-.76-1,.44-.37,0,0,.72,1a.5.5,0,1,0,.81-.6l-.75-1a7.45,7.45,0,0,1,.76-.53.31.31,0,0,1,.15,0c.29,0,.7.46.92.7l.21.23a.56.56,0,0,0,.23.71c.14.09.39.21.73.37a2.23,2.23,0,0,0,.94.23,2,2,0,0,0,1.42-.7l.14-.13a3.6,3.6,0,0,1,1.09-.7h0a1.24,1.24,0,0,1,.84.66,12,12,0,0,1,.35,1.66c0,.28.09.54.13.74a2.27,2.27,0,0,1,0,.26c0,.11,0,.23,0,.37v0c-1.66-1-3.7-.17-5.68.67l-.94.39-.6.23c-4,1.45-7.51,1.37-9.82-.19l-.07,0ZM33,298.45c0-.21-.09-.43-.13-.66s0-.21-.05-.31a3.66,3.66,0,0,1,0-.55c0-.13,0-.29,0-.47s0-.67,0-1c0-.16,0-.31,0-.45a3.17,3.17,0,0,0-.05-.37c0-.19-.08-.44-.13-.7a11.75,11.75,0,0,0-.41-1.86,2.18,2.18,0,0,0-1.77-1.3,1.1,1.1,0,0,0-.38.06,4.68,4.68,0,0,0-1.41.89l-.18.17c-.26.26-.44.41-.72.41a1.26,1.26,0,0,1-.51-.14l-.36-.17a1,1,0,0,0-.32-.7l-.17-.19a2.45,2.45,0,0,0-1.67-1,1.3,1.3,0,0,0-.66.18,10.62,10.62,0,0,0-1.21.87l0,0-.08.07-.39.32-.79.66-1.17.88-.1.06-.08.08-.76.57-.29.22-.33.26A3.07,3.07,0,0,0,18,295a2.34,2.34,0,0,1-.69.12,5.55,5.55,0,0,0-.74.1l-.52.07a4.29,4.29,0,0,0-2.59.89h0a1.46,1.46,0,0,0-.23.33,1.49,1.49,0,0,0-.09.2,3.62,3.62,0,0,0-.18.87,2.09,2.09,0,0,0,0,.42,1.67,1.67,0,0,0,.83,1.28A12.6,12.6,0,0,0,19.63,301h.16c1.24,0,2.87-.1,4.3-.16l2.73-.11a20.13,20.13,0,0,0,4.77-.55l.15-.06c.64-.27,1.44-.6,1.22-1.63"/><path class="cls-16" d="M252.8,246.23l-.16.07a18.71,18.71,0,0,1-4.41.47l-2.74.11c-1.43.06-3.05.13-4.28.16h-.14a11.65,11.65,0,0,1-5.3-1.48.68.68,0,0,1-.36-.54,1.23,1.23,0,0,1,0-.23,2.2,2.2,0,0,1,.06-.38,8.88,8.88,0,0,0,5.22,1.5,16.71,16.71,0,0,0,5.66-1.1c.53-.2,1.07-.42,1.59-.64s.91-.38,1.32-.53c1.61-.6,2.78-.78,3.72,0l.2.18c0,.06,0,.12,0,.18a4.84,4.84,0,0,0,.05.7c0,.12,0,.23.06.35s.09.48.14.7,0,.22-.62.49m-16.49-2.61a8,8,0,0,1,1.32-.23c.25,0,.47-.06.63-.09a4.87,4.87,0,0,1,.61-.08c.55-.05,1.18-.11,1.46-.61a2.18,2.18,0,0,1,.33-.32l.78,1a.5.5,0,0,0,.39.19.5.5,0,0,0,.39-.82l-.77-1h0l.45-.34.71.93a.5.5,0,1,0,.8-.61l-.71-.93.45-.34.74,1a.5.5,0,0,0,.81-.6l-.76-1,.44-.37,0,0,.72,1a.5.5,0,1,0,.81-.59l-.75-1a7.45,7.45,0,0,1,.76-.53.31.31,0,0,1,.15,0c.29,0,.7.46.92.7l.21.23a.56.56,0,0,0,.23.71c.14.08.39.21.73.37a2.23,2.23,0,0,0,.94.23,2,2,0,0,0,1.42-.7l.14-.13a3.6,3.6,0,0,1,1.09-.7h0a1.24,1.24,0,0,1,.84.66,11.88,11.88,0,0,1,.35,1.66c0,.28.09.54.13.74a2.28,2.28,0,0,1,0,.26c0,.11,0,.23,0,.37v0c-1.66-1-3.7-.17-5.68.67l-.94.39-.6.23c-4,1.45-7.51,1.37-9.82-.19l-.07,0Zm18.09,1.91c0-.21-.09-.43-.13-.66s0-.21-.05-.31a3.66,3.66,0,0,1,0-.55c0-.13,0-.29,0-.47s0-.67,0-1c0-.16,0-.31,0-.45a3.16,3.16,0,0,0-.05-.37c0-.19-.08-.44-.13-.7a11.75,11.75,0,0,0-.41-1.86,2.18,2.18,0,0,0-1.77-1.3,1.1,1.1,0,0,0-.38.06,4.68,4.68,0,0,0-1.41.89l-.18.17c-.26.26-.44.41-.72.41a1.27,1.27,0,0,1-.51-.14l-.36-.17a1,1,0,0,0-.32-.7l-.17-.19a2.45,2.45,0,0,0-1.67-1,1.3,1.3,0,0,0-.66.18,10.62,10.62,0,0,0-1.21.87l0,0-.08.07-.39.32-.79.66-1.17.88-.1.06-.08.08-.76.57-.29.22-.33.26a3.07,3.07,0,0,0-.78.76,2.34,2.34,0,0,1-.69.12,5.76,5.76,0,0,0-.74.1l-.52.07a4.3,4.3,0,0,0-2.59.89h0a1.52,1.52,0,0,0-.23.33,1.55,1.55,0,0,0-.09.2,3.69,3.69,0,0,0-.18.87,2.2,2.2,0,0,0,0,.42,1.67,1.67,0,0,0,.83,1.28,12.6,12.6,0,0,0,5.82,1.63h.16c1.24,0,2.87-.1,4.3-.16l2.73-.11a20.13,20.13,0,0,0,4.77-.55l.15-.06c.64-.27,1.44-.6,1.22-1.63"/><path class="cls-16" d="M88.91,233.35a6.17,6.17,0,0,1-.47,1.3l-2.14,0-2.59-4.43a.48.48,0,0,0-.86.06l-2.74,6.57-2.92-5.16a.48.48,0,0,0-.42-.24h0a.48.48,0,0,0-.42.26l-1.54,3H73.08a6.23,6.23,0,0,1-.48-1.33,6,6,0,0,1,1-4.9,3.26,3.26,0,0,1,2.59-1.3,6.62,6.62,0,0,1,4.25,2.15.48.48,0,0,0,.66,0,6.62,6.62,0,0,1,4.25-2.15,3.26,3.26,0,0,1,2.58,1.3,6,6,0,0,1,1,4.9m-1,2.31A16.15,16.15,0,0,1,81.15,241l-.39.16-.38-.16a16.17,16.17,0,0,1-6.72-5.31l0,0h1.48a.48.48,0,0,0,.43-.26L76.8,233l3,5.24a.48.48,0,0,0,.42.24h0a.48.48,0,0,0,.42-.3l2.74-6.58,2.24,3.84a.48.48,0,0,0,.42.24h0l1.85,0,0,0m.8-7.81a4.23,4.23,0,0,0-3.34-1.67,7.11,7.11,0,0,0-4.58,2.11,7.11,7.11,0,0,0-4.58-2.11,4.23,4.23,0,0,0-3.34,1.67,7,7,0,0,0-1.18,5.71,7.24,7.24,0,0,0,.6,1.64l.05.1a.49.49,0,0,0,.09.17c.14.25.29.5.46.75A17.21,17.21,0,0,0,80,241.88l.57.23a.47.47,0,0,0,.18,0,.48.48,0,0,0,.18,0l.58-.24a17.17,17.17,0,0,0,7.15-5.69c.14-.21.26-.41.38-.62a.48.48,0,0,0,.3-.45.49.49,0,0,0,0-.1,7,7,0,0,0-.66-7.17"/><path class="cls-16" d="M195.5,182.79h-1.08v-1.36h1.08Zm-2.09,1.8a.57.57,0,1,1-1.14,0v-4.86a.57.57,0,0,1,1.14,0Zm-2.27,1.73a.57.57,0,1,1-1.14,0V178a.57.57,0,1,1,1.14,0Zm-2.29-3.53H183.4v-1.36h5.44Zm-6.46-2.37v5.9a.57.57,0,1,1-1.14,0V178a.57.57,0,1,1,1.14,0Zm-2.27,4.17a.57.57,0,1,1-1.14,0v-4.86a.57.57,0,0,1,1.14,0Zm-2.15-1.8H177v-1.36H178Zm18-2.38h-1.59v-.68a1.58,1.58,0,0,0-2.27-1.42V178a1.58,1.58,0,1,0-3.17,0v2.41H183.4V178a1.58,1.58,0,1,0-3.17,0v.3a1.58,1.58,0,0,0-2.27,1.42v.68h-1.42a.51.51,0,0,0-.51.51v2.38a.51.51,0,0,0,.51.51H178v.79a1.58,1.58,0,0,0,2.27,1.43v.3a1.58,1.58,0,1,0,3.17,0v-2.52H189v2.52a1.58,1.58,0,1,0,3.17,0V186a1.58,1.58,0,0,0,2.27-1.43v-.79H196a.51.51,0,0,0,.51-.51v-2.38a.51.51,0,0,0-.51-.51"/><path class="cls-16" d="M252.61,351c-.36,2.65-2,5.39-4.23,5.39a3.41,3.41,0,0,1-1.94-.69.45.45,0,0,0-.25-.08.43.43,0,0,0-.24.08,3.18,3.18,0,0,1-1.77.61c-2.11,0-3.72-2.72-4.15-5.28a3.37,3.37,0,0,1,.62-2.82,3.41,3.41,0,0,1,2.64-1.11,5.38,5.38,0,0,1,2.81.85.44.44,0,0,0,.47,0,5.28,5.28,0,0,1,2.83-.9,3.26,3.26,0,0,1,2.51,1.05,3.56,3.56,0,0,1,.71,2.91m-.05-3.48a4.12,4.12,0,0,0-3.17-1.35,6.07,6.07,0,0,0-3.07.89,6.17,6.17,0,0,0-3-.84,4.27,4.27,0,0,0-3.31,1.42,4.21,4.21,0,0,0-.82,3.54c.51,3,2.39,6,5,6a3.9,3.9,0,0,0,2-.6,4.14,4.14,0,0,0,2.2.68c2.76,0,4.69-3.17,5.1-6.15a4.4,4.4,0,0,0-.92-3.6"/><path class="cls-16" d="M243,342.13a4.11,4.11,0,0,1,1.19.85l-.47-.12-.22-.06a3.67,3.67,0,0,0-.61-.13Zm-.62,1.38a2.88,2.88,0,0,1,.87.13l.27.07a4,4,0,0,1,1.63.69,5.76,5.76,0,0,1,.37,1.11.44.44,0,0,0,.43.34h.1a.44.44,0,0,0,.33-.52,6.3,6.3,0,0,0-1.12-2.45,5.08,5.08,0,0,0-2.43-1.75.44.44,0,0,0-.57.33l-.3,1.55a.44.44,0,0,0,.09.36.43.43,0,0,0,.34.16"/><path class="cls-16" d="M247.89,342.91l.06-.12a3.34,3.34,0,0,1,.73-.94,1.83,1.83,0,0,1,.65-.37,2.34,2.34,0,0,1,.65-.11,3.38,3.38,0,0,1,.65,0,4.69,4.69,0,0,1,.56.12,6.9,6.9,0,0,0-.71.77c-.33.42-.64.89-.93,1.34l-.16.25a3.38,3.38,0,0,1-.53.63.91.91,0,0,1-.43.27h-.21a1.77,1.77,0,0,1-.74-.17c0-.06,0-.13,0-.2a3.47,3.47,0,0,1,.41-1.53m-1,2.42a2.88,2.88,0,0,0,1.34.36h.29a1.74,1.74,0,0,0,.93-.49,4.24,4.24,0,0,0,.68-.8l.17-.26c.29-.46.57-.89.88-1.27a5.89,5.89,0,0,1,1.14-1.11l0,0a.44.44,0,0,0-.12-.77h0l-.69-.22a5.63,5.63,0,0,0-.75-.16,4.42,4.42,0,0,0-.81,0,3.34,3.34,0,0,0-.89.15,2.71,2.71,0,0,0-1,.54,4.17,4.17,0,0,0-1,1.24l-.05.11a4.31,4.31,0,0,0-.5,1.9,3.3,3.3,0,0,0,.05.59.44.44,0,0,0,.24.31"/><path class="cls-16" d="M242.76,349.86c-.33.66-.87.94-1.13.8a.53.53,0,0,1-.23-.44,1.76,1.76,0,0,1,.2-.95,1.35,1.35,0,0,1,1-.84.32.32,0,0,1,.14,0c.27.14.34.76,0,1.39m.37-2.17a1.18,1.18,0,0,0-.54-.13,2.16,2.16,0,0,0-1.77,1.32,2.62,2.62,0,0,0-.29,1.44,1.38,1.38,0,0,0,.71,1.12,1.18,1.18,0,0,0,.54.13,2.16,2.16,0,0,0,1.77-1.32,1.87,1.87,0,0,0-.42-2.56"/><path class="cls-16" d="M31.21,189.57s0,.05,0,.08L29.89,191,28.56,190l-.73-2.79.85-1.3,1.82.6a6.93,6.93,0,0,1,.73,3.1m-1.38-4.16-1-.33-1.05-1.52a7,7,0,0,1,2.06,1.85m-3.32-2.26,1.46,2.1a.39.39,0,0,0,0,.2l-.76,1.16-3-1-.31-1.79Zm-1.34-.49-1.57.4-.79-.31a7,7,0,0,1,1.43-.15,7.07,7.07,0,0,1,.93.06m-3.59.46,1.5.59.36,2-2.17,2.11H19l-.26-2.57a7,7,0,0,1,2.85-2.17m-3.36,5.11-.83,2.62A6.93,6.93,0,0,1,18,186.4Zm-.5,3.8,1.77,1.71.61,1.43A7,7,0,0,1,17.73,192m2.15,1-1.77-1.71.83-2.61h2.19l.68,2.94Zm.46.66,2-1.42,3.1.92.53,2.08L24,196.54a6.9,6.9,0,0,1-2.73-.65Zm5.32,2.74.94-.63,2-.72a7,7,0,0,1-2.89,1.35m0-4-3-.9-.71-3.07,2.1-2,3.08,1.05.7,2.68Zm3,1.77-2,.72-.49-1.93,2-2.2,1.21,1Zm.85,0,.77-2.35.8-.83a7,7,0,0,1-1.56,3.18m2.5-4.55a7.71,7.71,0,0,0-.87-3.57l0-.07a7.76,7.76,0,0,0-9.63-3.61h0A7.81,7.81,0,0,0,18,184.92L18,185a7.76,7.76,0,0,0,6.11,12.34h.16A7.78,7.78,0,0,0,32,189.89a.39.39,0,0,0,0-.12c0-.06,0-.13,0-.19"/><path class="cls-16" d="M191,82.2a4.38,4.38,0,0,0-3.55-6.93,3.42,3.42,0,0,1-.18-6.84.49.49,0,0,0,.19-.05A7.37,7.37,0,0,1,191,82.2m-3.55.87a.46.46,0,0,0-.19,0,7.37,7.37,0,0,1-3.36-13.83,4.38,4.38,0,0,0,3.55,6.94,3.42,3.42,0,0,1,0,6.85m0-15.65a8.33,8.33,0,1,0,8.33,8.33,8.34,8.34,0,0,0-8.33-8.33"/><path class="cls-16" d="M187.42,72.59a.74.74,0,1,1,.74-.74.74.74,0,0,1-.74.74m0-2.44a1.7,1.7,0,1,0,1.7,1.7,1.7,1.7,0,0,0-1.7-1.7"/><path class="cls-16" d="M187.42,80.39a.74.74,0,1,1,.74-.74.74.74,0,0,1-.74.74m0-2.44a1.7,1.7,0,1,0,1.7,1.7,1.7,1.7,0,0,0-1.7-1.7"/><path class="cls-16" d="M82.63,143.11c-.56,1-1.75,1.48-3.44,1.48h-.31c-1.86-.07-3.08-.58-3.55-1.49s0-2.45.61-3.41a3.54,3.54,0,0,0,.58-3.42,1.26,1.26,0,0,1,.06-1.24,3,3,0,0,1,2.45-1h.1a2.37,2.37,0,0,1,1.88.8,1.85,1.85,0,0,1,.24,1.63,2.56,2.56,0,0,0,.64,2.42c.17.23.34.48.51.77a3.52,3.52,0,0,1,.23,3.43m.48-3.85c-.19-.32-.38-.59-.55-.83-.46-.63-.71-1-.51-1.73a2.64,2.64,0,0,0-.38-2.34,3.18,3.18,0,0,0-2.52-1.13,3.81,3.81,0,0,0-3.25,1.33,2.05,2.05,0,0,0-.13,2,2.74,2.74,0,0,1-.51,2.65,4.29,4.29,0,0,0-.66,4.25c.62,1.21,2,1.86,4.25,1.93h.34c2.54,0,3.66-1,4.16-1.9a4.3,4.3,0,0,0-.24-4.26"/><path class="cls-16" d="M75.25,129.29a2.82,2.82,0,0,1,.51,0,1.93,1.93,0,0,1,.51.09,1.44,1.44,0,0,1,.51.29,2.57,2.57,0,0,1,.57.73l0,.09a2.72,2.72,0,0,1,.33,1.2v.12a1,1,0,0,1-.49.13H77s-.11,0-.32-.2a2.65,2.65,0,0,1-.41-.49l-.13-.21c-.24-.37-.48-.74-.75-1.08a5.29,5.29,0,0,0-.5-.55l.34-.07m-.5,1.13c.24.31.47.65.7,1l.14.22a3.51,3.51,0,0,0,.55.65,1.45,1.45,0,0,0,.78.41h0l.27,0a2,2,0,0,0,1.13-.38.41.41,0,0,0,.18-.34v-.36a3.5,3.5,0,0,0-.41-1.55l0-.08a3.43,3.43,0,0,0-.78-1,2.28,2.28,0,0,0-.79-.44,2.72,2.72,0,0,0-.73-.12,3.56,3.56,0,0,0-.66,0,4.65,4.65,0,0,0-.62.13l-.55.18h0a.41.41,0,0,0-.11.72l0,0a4.66,4.66,0,0,1,.9.88"/><path class="cls-16" d="M78.24,135.71a.74.74,0,0,1-.47.23h-.06s0-.28.24-.52a.74.74,0,0,1,.47-.23h.06s0,.28-.24.52m.18-1.35a1.54,1.54,0,0,0-1,.46,1.64,1.64,0,0,0-.47.8.94.94,0,0,0,.21.88.9.9,0,0,0,.65.26,1.54,1.54,0,0,0,1-.46,1.21,1.21,0,0,0,.26-1.68.9.9,0,0,0-.65-.26"/><path class="cls-16" d="M77.82,140.55a1.08,1.08,0,0,1-.76.57.19.19,0,0,1-.1,0c-.15-.09-.19-.55.1-1a1.08,1.08,0,0,1,.76-.57l.1,0c.15.09.19.55-.1,1m.53-1.72a1,1,0,0,0-.54-.15,1.86,1.86,0,0,0-1.46,1,1.54,1.54,0,0,0,.17,2.15,1,1,0,0,0,.54.15,1.86,1.86,0,0,0,1.46-1,1.54,1.54,0,0,0-.17-2.15"/><path class="cls-16" d="M81.38,129.41A3.85,3.85,0,0,1,82,129l.1.51a3.48,3.48,0,0,0-.57.13l-.21.05-.44.11a3.9,3.9,0,0,1,.49-.42m-2.22,3.11h.09a.41.41,0,0,0,.4-.32,5.63,5.63,0,0,1,.35-1,3.73,3.73,0,0,1,1.53-.65l.25-.07a2.75,2.75,0,0,1,.82-.12.43.43,0,0,0,.32-.15.41.41,0,0,0,.09-.34l-.28-1.46a.41.41,0,0,0-.54-.31,4.78,4.78,0,0,0-1.3.67,4.85,4.85,0,0,0-1,1,5.94,5.94,0,0,0-1.05,2.3.41.41,0,0,0,.31.49"/><path class="cls-16" d="M247,147.32a6,6,0,1,1,6-6,6,6,0,0,1-6,6m.64-14.59v1.75c-.21,0-.43,0-.64,0s-.42,0-.63,0v-1.75Zm-2.55.55a2.2,2.2,0,0,1-.32-1.15,2.23,2.23,0,1,1,4.46,0,2.2,2.2,0,0,1-.32,1.15h-.44v-1a.42.42,0,0,0-.42-.42H246a.42.42,0,0,0-.42.42v1Zm3.38,1.33v-.49h.66a.42.42,0,0,0,.34-.17,3.07,3.07,0,1,0-4.94,0,.42.42,0,0,0,.34.17h.66v.49a6.86,6.86,0,1,0,2.94,0"/><path class="cls-16" d="M247,142.07h-.12l.88-.85a.75.75,0,0,1,0,.09.77.77,0,0,1-.77.77m-.77-.77a.77.77,0,0,1,.77-.77.75.75,0,0,1,.22,0l-1,.92a.79.79,0,0,1,0-.19m3.08-2.75-1.45,1.4a1.6,1.6,0,0,0-2.24,2.16l-.46.44a.42.42,0,0,0,.58.6l.47-.45a1.6,1.6,0,0,0,2.21-2.13l1.47-1.41a.42.42,0,0,0-.58-.6"/><path class="cls-16" d="M250.74,141.32a.42.42,0,0,0,.42.42h.77a.42.42,0,0,0,0-.84h-.77a.42.42,0,0,0-.42.42"/><path class="cls-16" d="M243.5,141.32a.42.42,0,0,0-.42-.42h-.93a.42.42,0,1,0,0,.84h.93a.42.42,0,0,0,.42-.42"/><path class="cls-16" d="M251.48,143.4l-.6-.35a.42.42,0,0,0-.42.72l.6.35a.41.41,0,0,0,.21.06.42.42,0,0,0,.21-.78"/><path class="cls-16" d="M243.81,139l-.81-.46a.42.42,0,0,0-.42.72l.81.47a.41.41,0,0,0,.21.05.42.42,0,0,0,.21-.78"/><path class="cls-16" d="M249.51,144.76a.42.42,0,0,0-.72.42l.34.58a.42.42,0,0,0,.72-.42Z"/><path class="cls-16" d="M244.68,138.07a.42.42,0,0,0,.72-.42l-.45-.78a.42.42,0,0,0-.72.42Z"/><path class="cls-16" d="M247,145.11a.42.42,0,0,0-.42.42v.68a.42.42,0,1,0,.84,0v-.68a.42.42,0,0,0-.42-.42"/><path class="cls-16" d="M247,137.74a.42.42,0,0,0,.42-.42v-.9a.42.42,0,1,0-.84,0v.9a.42.42,0,0,0,.42.42"/><path class="cls-16" d="M245.17,144.56a.42.42,0,0,0-.57.15l-.37.64a.42.42,0,0,0,.72.42l.37-.64a.42.42,0,0,0-.15-.57"/><path class="cls-16" d="M248.87,138.14a.42.42,0,0,0,.57-.15l.4-.7a.42.42,0,0,0-.72-.42l-.4.7a.42.42,0,0,0,.15.57"/><path class="cls-16" d="M243.25,143l-.66.38a.42.42,0,0,0,.21.78.4.4,0,0,0,.21-.06l.66-.38a.42.42,0,0,0-.42-.72"/><path class="cls-16" d="M250.29,139a.42.42,0,1,0,.42.72l.77-.44a.42.42,0,1,0-.42-.72Z"/><path class="cls-16" d="M254.59,135.47l-1.78-1.72a.42.42,0,0,0-.61,0l-.79.95a.42.42,0,0,0,.64.54l.5-.6,1.18,1.14-.54.65a.42.42,0,0,0,.32.69.41.41,0,0,0,.32-.15l.79-.95a.42.42,0,0,0,0-.57"/><path class="cls-16" d="M240.63,137.15a.42.42,0,0,0,.32-.69l-.57-.66,1.2-1.12.55.64a.42.42,0,0,0,.63-.55l-.84-1a.42.42,0,0,0-.29-.14.41.41,0,0,0-.31.11l-1.81,1.7a.42.42,0,0,0,0,.58l.84,1a.41.41,0,0,0,.32.14"/><path class="cls-16" d="M32.9,89.17l-.18.55-2,0h-.2l.16-.54.57.16.11,0a.41.41,0,0,0,.11-.8l-.57-.16.18-.63.49.14.68.19h.11l.15,0a.41.41,0,0,0,0-.77l-.28-.08L31.32,87l.18-.63.42.12.13,0,.11,0a.41.41,0,0,0,.11-.8l-.55-.16.12-.41h2.34ZM30,88.79l-2.05-5.38.89-3,2,5.43Zm-2.53-6.63-.38,1.28-1.59,5.29-.29,1H23l.2-.68.8.22.11,0a.41.41,0,0,0,.11-.8l-.79-.22.19-.62.68.19.09,0h.11a.41.41,0,0,0,.11-.8l-.66-.19-.11,0,0-.14.14-.48.61.17.14,0h.11a.41.41,0,0,0,.11-.8l-.71-.2h0v0l.17-.58,1.33.37.11,0a.41.41,0,0,0,.11-.8L24.66,84l.19-.62.71.2.11,0a.41.41,0,0,0,.11-.8l-.69-.2.19-.62.68.19h.11a.41.41,0,0,0,.39-.3v0a.41.41,0,0,0-.29-.47l-.67-.19.19-.62.31.09.35.1.11,0a.41.41,0,0,0,.37-.23l0-.06a.41.41,0,0,0-.23-.48l0,0-.65-.18.09-.31h0l0-.15h2.21v0Zm-5,6.5-1.83-5.33.92-3.07,1.87,5.16ZM20.15,82l-.4,1.34-1.91,6.36H15.64l.2-.68.8.22.11,0a.41.41,0,0,0,.11-.8l-.79-.22.19-.62.78.22h.11a.41.41,0,0,0,.11-.8l-.76-.22.19-.62.75.21h.11a.41.41,0,0,0,.11-.8l-.74-.21.19-.62,1.33.37.11,0a.41.41,0,0,0,.11-.8L17.33,84l.19-.62.71.2.11,0a.41.41,0,0,0,.11-.8l-.69-.2.19-.62.68.19h.11a.41.41,0,0,0,.11-.8l-.67-.19.19-.62.5.14.16,0,.11,0a.41.41,0,0,0,.11-.8l-.65-.18.09-.31,0-.15h2.21Zm14.92,2.55a.41.41,0,0,0-.33-.17h-3.2a.41.41,0,0,0-.33.18l-2-5.44v0a.41.41,0,0,0-.39-.52H25.76a.41.41,0,0,0-.39.29l-.06.21h0l-.06.21v0l-1.43,4.77h0l0,.05-1.9-5.24a.42.42,0,0,0-.07-.16.41.41,0,0,0-.27-.16H18.43a.41.41,0,0,0-.39.29l-.06.21h0l-.06.21v0l-1.43,4.77h0l-.05.17L14.7,90a.41.41,0,0,0,.39.52h3.06a.41.41,0,0,0,.39-.29l1.67-5.56L22,90h0a.41.41,0,0,0,.39.52h3.12l.14,0a.41.41,0,0,0,.26-.48l1.6-5.33,2.06,5.4a.4.4,0,0,0,.4.49h.71l2.32,0a.41.41,0,0,0,.38-.28l1.72-5.32a.41.41,0,0,0-.06-.36"/><path class="cls-16" d="M84,30a1.35,1.35,0,0,1-1.35,1.35h-4A1.35,1.35,0,0,1,77.28,30v-7.4a1.35,1.35,0,0,1,1.18-1.34.41.41,0,0,0,.36-.41V19.75a.41.41,0,0,0-.41-.41h-.32v-.67h5.13v.67H82.9a.41.41,0,0,0-.41.41v1.13a.41.41,0,0,0,.36.41A1.35,1.35,0,0,1,84,22.62ZM78.11,17h1.6a.41.41,0,0,0,.4-.5l-.13-.6a.55.55,0,0,1,.1-.48.89.89,0,0,1,.65-.31.68.68,0,0,1,.48.27.61.61,0,0,1,.13.52l-.13.6a.41.41,0,0,0,.4.5H83.2v.85h-5.1Zm5.2,3.59v-.39h.32a.41.41,0,0,0,.41-.41V18.22a.41.41,0,0,0,0-.1V16.55a.41.41,0,0,0-.41-.41h-1.5l0-.1a1.42,1.42,0,0,0-.29-1.21,1.5,1.5,0,0,0-1.12-.58h0a1.71,1.71,0,0,0-1.26.63A1.38,1.38,0,0,0,79.17,16l0,.1H77.7a.41.41,0,0,0-.41.41v1.57a.41.41,0,0,0,0,.1v1.53a.41.41,0,0,0,.41.41H78v.39a2.18,2.18,0,0,0-1.54,2.08V30a2.18,2.18,0,0,0,2.17,2.17h4A2.18,2.18,0,0,0,84.86,30v-7.4a2.18,2.18,0,0,0-1.54-2.08"/><path class="cls-16" d="M82.68,28.75a.53.53,0,0,1-.52.53h-3a.53.53,0,0,1-.53-.53V23.69a.53.53,0,0,1,.53-.52h3a.52.52,0,0,1,.52.52Zm-.52-6.41h-3a1.35,1.35,0,0,0-1.35,1.35v5.06a1.35,1.35,0,0,0,1.35,1.35h3a1.35,1.35,0,0,0,1.35-1.35V23.69a1.35,1.35,0,0,0-1.35-1.35"/><path class="cls-16" d="M81.53,25.68l-.82,0,.81-1.14a.46.46,0,0,0-.75-.53L79.43,25.9a.46.46,0,0,0,.38.72l.74,0-1.09,1.33a.46.46,0,1,0,.71.58l1.71-2.1a.46.46,0,0,0,.06-.49.46.46,0,0,0-.42-.26"/></g></g></svg>