<svg xmlns="http://www.w3.org/2000/svg" viewBox="0 0 390.76 361.61"><defs><style>.cls-1{fill:#3a3a39;}</style></defs><title>Asset 36</title><g id="Layer_2" data-name="Layer 2"><g id="Layer_1-2" data-name="Layer 1"><path class="cls-1" d="M326.28,192.72l13.46-23.93,14.07,23.93Zm19.28-51.93H335.31L299.36,201.6l5.66,9h70.22l5.51-9.33Z"/><polygon class="cls-1" points="219.84 174.07 232.15 153.36 207.53 153.36 195.13 132.48 182.72 153.36 158.11 153.36 170.42 174.07 158.11 194.78 182.72 194.78 195.13 215.65 207.53 194.78 232.15 194.78 219.84 174.07"/><polygon class="cls-1" points="195.03 273.93 225.8 295.54 230.09 329.26 195.03 347.97 161.03 328.94 165.63 295.03 195.03 273.93"/><rect class="cls-1" x="3.67" y="0.8" width="74.04" height="74.04"/><polygon class="cls-1" points="40.69 142.01 59.2 174.07 77.71 206.13 40.69 206.13 3.67 206.13 22.18 174.07 40.69 142.01"/><polygon class="cls-1" points="20.35 346.19 0 310.95 20.35 275.71 61.04 275.71 81.39 310.95 61.04 346.19 20.35 346.19"/><polygon class="cls-1" points="317.32 71 303.27 27.76 340.05 1.04 376.83 27.76 362.79 71 317.32 71"/><path class="cls-1" d="M192.27,75.64a37.82,37.82,0,1,0-37.82-37.82,37.82,37.82,0,0,0,37.82,37.82"/><polygon class="cls-1" points="312.18 260.29 337.09 285.21 351.88 285.76 390.76 324.65 376.15 324.27 356.97 305.08 356.06 325.52 331.7 325.48 353.32 347.1 353.8 361.61 314.91 322.73 316.26 310.04 289.34 283.12 314.22 283.67 312.18 260.29"/></g></g></svg>