<svg xmlns="http://www.w3.org/2000/svg" viewBox="0 0 395.24 375.42"><defs><style>.cls-1{fill:#3a3a39;}</style></defs><title>Asset 37</title><g id="Layer_2" data-name="Layer 2"><g id="Layer_1-2" data-name="Layer 1"><path class="cls-1" d="M77.94,56.49a41.65,41.65,0,0,0-13.39-4.61c-2.05-.34-4.36-.61-6.12-1.83A7,7,0,0,1,56,45.87c-.44-1.71-.71-3.5.39-5a2.24,2.24,0,0,1,2.8-.87c3.49.85,6.53,2,9.6,2.13,9.33.48,14.69-5.8,11.49-13.45C77.57,22.24,73,17.54,66,15.57,57.84,13.26,52,17.48,51.43,25.9a35.31,35.31,0,0,1-.52,5.53,6.77,6.77,0,0,1-3,4.14,6.74,6.74,0,0,1-4.09,1.78,4,4,0,0,1-2.11-.63l-.08,0s0,0-.06-.07a3.15,3.15,0,0,1-.95-1,4.5,4.5,0,0,1-.14-3.8l0-.08a3.22,3.22,0,0,1,.21-.64C43.12,26,45,20.94,40.91,15.94c-4.59-5.6-11-5.52-17.26-4.4-6,1.07-7.71,6.78-3.5,11.29,2,2.11,4.94,3.39,6.57,5.67,1.14,1.6,1.81,5.28.87,6.24a8.59,8.59,0,0,1-6.88,2.07c-2.15-.46-3.81-3-5.76-4.58-4.27-3.41-9.47-2.83-12.51,1.71a12.68,12.68,0,0,0-.19,14.71c3,4.59,7.4,5.76,12.61,4,2.17-.74,4.38-1.87,6.58-1.87,3,0,6.29.26,8.86,1.57,4,2,3.7,5.49-.46,7.27-3.23,1.38-6.79,2-10.07,3.25-5.21,2-7.77,6.27-6,11.45A27.15,27.15,0,0,0,21,85.54c7.51,6.59,14.27,4.62,18.27-4.5,4.32-9.84,11.5-12.32,21.37-7.55C63.75,75,67,76.72,70.37,77.23a11.45,11.45,0,0,0,12.66-8c1.94-5.69-.41-10.14-5.09-12.76"/><path class="cls-1" d="M328.39,154.39c6.54,1.87,13.13-2.36,18.48-6.55S358.33,139,365.06,140c5.24.76,9.36,4.8,12.74,8.88,4.49,5.41,8.54,11.62,9.22,18.62s-3,14.83-9.72,16.87c-8.33,2.53-17.6-4.29-25.71-1.14-7.49,2.91-9.9,12.69-16.7,17a18.57,18.57,0,0,1-8.31,2.54,28.56,28.56,0,0,1-29.65-37.29,19.58,19.58,0,0,1,7.17-10.3c6.91-4.71,16.18-2.77,24.27-.66"/><path class="cls-1" d="M93.07,157.53a34.92,34.92,0,0,0-2.81-3.93q-1.77-2.19-3.72-4.22a73.08,73.08,0,0,0-8.63-7.62,79.41,79.41,0,0,0-9.76-6.3,75,75,0,0,0-10.36-4.7,61.52,61.52,0,0,0-10.43-2.82,44.52,44.52,0,0,0-10-.67c-.91,0-1.82.13-2.73.25-10.22,1.35-18.14,6.64-22.93,15.95C2,162.45,6.1,190,20.89,205.42c10.31,10.77,26.9,13.14,42.1,6,12.52-5.88,18.38-16.3,17-30.19-1.73-17.18-20.67-29.53-36-23.49-7.11,2.8-11,9.28-10.56,17.13.33,6.44,4.42,9.52,9.91,10.26,2.88.39,7.71-.66,8.79-2.63,2-3.74-1.38-6.76-4.84-7.74a13.32,13.32,0,0,1-3.06-.9,3.57,3.57,0,0,1-1.75-2.62,4.3,4.3,0,0,1,1.64-3.73A7.08,7.08,0,0,1,48,166.07a18.61,18.61,0,0,1,11.67,2.73,16.71,16.71,0,0,1,6.52,8.31,14.48,14.48,0,0,1,.12,9.25C63,196.57,55.27,203.28,44.82,205s-20-1.58-25.9-11c-7.16-11.45-8-23.61-.58-35.2,7.11-11.16,18.62-13.84,30.78-12.37a112.66,112.66,0,0,1,13.41,2.44A107,107,0,0,1,75.74,153a114,114,0,0,1,13.12,6.11c.92.5,1.82,1,2.72,1.53a1.25,1.25,0,0,0,.54.21.91.91,0,0,0,.56-.19,3,3,0,0,0,.94-1.43.94.94,0,0,0,.09-.46,1,1,0,0,0-.12-.31q-.25-.47-.52-.92"/><path class="cls-1" d="M207.5,37.46c-.54.19-.67.17,0,0m-2.63.51.84-.06h0c-.46.09-.81.13-.86.06m5.94,13.3-1.06,1.95L210.82,51l0,.24M185.37,40a6.34,6.34,0,0,1,.82-1.66L185.37,40m4,6.73h0M159.56,42l-.05,0Zm74.38-14.25c-6.35-3.84-15.17-2.72-19.36,3.87-.45.7-.91,1.37-1.4,2,.43-.64-.77.74-1.32,1.29a22,22,0,0,0-5.44-9,25.57,25.57,0,0,0-29.34-4.31,31.87,31.87,0,0,0-11.22,9.89,41.22,41.22,0,0,0-3.69,6.78c-.33.71-.66,1.42-1,2.15.51-1.17.53-1.28,0-.05l-.49.74-.34.26c-3.86-5-11.59-7.16-17.25-4.08A14.24,14.24,0,0,0,136.7,56c3.49,7.76,11,12.46,19.22,13.66,7.57,1.1,14.9-1.36,21-5.76a29.09,29.09,0,0,0,7.17-7.49A26.23,26.23,0,0,0,185.48,54a21.56,21.56,0,0,0,17.75,11.65c13.7,1.17,27.4-7.23,34.58-18.53,3.91-6.16,2.68-15.39-3.87-19.36"/><path class="cls-1" d="M164.64,163.76c-.73.55-.26,1.9.64,2.1a2.08,2.08,0,0,0,2.18-1.31,6.09,6.09,0,0,0,.33-2.71q-.28-9.05-.57-18.11c-.15-4.91-.22-10.16,2.39-14.32a12.88,12.88,0,0,1,15.92-4.6,9.07,9.07,0,0,1,3.48,2.77c2.58,3.57,1.36,8.47,1.37,12.88a3,3,0,0,0,.58,2.1,2.24,2.24,0,0,0,3-.12,6.5,6.5,0,0,0,1.58-2.9c1.75-5.17,3.49-10.39,6.26-15.1s6.65-8.93,11.65-11.12,11.21-2,15.58,1.23c3.08,2.3,5.07,6.55,3.58,10.1-1.34,3.19-5,5-6.28,8.16a21.29,21.29,0,0,0-.8,3.16,16.78,16.78,0,0,1-11.31,12c-1.9.57-3.88.79-5.79,1.33-3.55,1-6.69,3.11-9.75,5.17-.42.28-.87.63-.91,1.13-.08,1.14,1.7,1.14,2.74.68,4.94-2.14,10.81-3.89,15.5-1.24,3.72,2.1,5.63,6.65,5.35,10.91a9.6,9.6,0,0,1-3.38,7.11c-3,2.26-7.16,1.8-10.86,1.23l-15-2.3a22.75,22.75,0,0,0-8-.27c-5.09,1-8.9,5.54-10.62,10.45s-1.69,10.22-1.66,15.41a1.76,1.76,0,0,0,.23,1.06,1.23,1.23,0,0,0,1.81-.11,3.88,3.88,0,0,0,.73-1.91,29.07,29.07,0,0,1,8.51-15.36c2.53-2.38,5.76-4.38,9.24-4.22a12.62,12.62,0,0,1,6.27,2.36c3.47,2.31,6.42,5.65,7.46,9.69s-.14,8.77-3.48,11.27c-1.78,1.34-4,2-6.06,2.76-4.77,1.83-9.58,5.5-9.86,10.6a1.81,1.81,0,0,0,.36,1.39c.66.67,1.78.13,2.52-.44,4.63-3.62,8.27-8.38,12.89-12s10.88-6.06,16.38-4c6.09,2.3,9.15,9.52,8.66,16a17.43,17.43,0,0,1-2.79,8.51,17.74,17.74,0,0,1-10.28,6.8,34.19,34.19,0,0,1-12.51.51,65,65,0,0,1-36-16.38c-2.4-2.19-4.72-4.69-5.6-7.83s-.27-6.27-1.08-9.28c-.93-3.46-3.55-6.17-5.93-8.85-4.41-5-8.41-10.53-10.15-16.94s-.91-13.81,3.46-18.81a11,11,0,0,1,5.38-3.56c3.69-1,7.77.87,10,3.93a14.56,14.56,0,0,1,2.29,10.9"/><path class="cls-1" d="M194.53,267.7c1.08,1.67,2,3.34,3.18,4.86a16.23,16.23,0,0,0,2.91,3c2.73,2.13,5.8,2.31,9,1.26l.71-.25c1-.33,1.57,0,1.63,1.07.14,2.67.28,5.34.34,8,0,1.53-.13,3.06-.14,4.59a9.76,9.76,0,0,0,.22,2.32c.49,2.07,2.09,3.2,4.4,3.43,3.37.33,6.41-.7,9.45-1.93,1.57-.63,3.2-1.1,4.79-1.68a.75.75,0,0,1,1,.41,2.38,2.38,0,0,1-.07,2.6c-1,1.75-1.92,3.51-2.89,5.26a7.07,7.07,0,0,0-.95,4.62,12.05,12.05,0,0,1-2.28,8.84c-1.4,2-3,3.83-4.42,5.76a9.59,9.59,0,0,0-1,1.55c-.45.91-.17,1.44.82,1.62.82.15,1.66.17,2.48.35a45.62,45.62,0,0,1,10,3.91,26.3,26.3,0,0,0-3.43.74c-3.68,1.33-7.34,2.71-11,4.16a44.56,44.56,0,0,1-11.89,3.44,1.71,1.71,0,0,0-.35.14c1.74,1.53,3.45,3,5.11,4.5a108.49,108.49,0,0,1,18.48,21.47,11.79,11.79,0,0,0,2,2c-1.81,2.52-4.56,3.42-7.6,4,.32-.71.59-1.39.92-2a2.25,2.25,0,0,0,.06-1.84c-2.88-9.08-8.93-15.85-16-21.88-2.2-1.88-4.49-3.67-6.74-5.49-.19-.15-.4-.28-.76-.54a4.51,4.51,0,0,0,.22.43,7.4,7.4,0,0,1,.85,7.3c-.64,1.69-1.43,3.31-2.12,5a9.93,9.93,0,0,0-.92,5.83,28.62,28.62,0,0,0-2.84-2.08,10.82,10.82,0,0,0-3.2-1.31,4,4,0,0,0-4,1.88c-1.59,2.2-3,4.51-4.45,6.84s-2.81,5-4.24,7.47a1.23,1.23,0,0,1-.79.61c-.62,0-.74-.52-.83-1-.44-2.46-.84-4.93-1.38-7.37a31.74,31.74,0,0,0-1.35-4.19,5.78,5.78,0,0,0-1-1.62,2.46,2.46,0,0,0-3.25-.63c-1.52.72-3,1.65-4.41,2.51-2.32,1.37-4.62,2.78-7,4.11-1.59.9-1.89.4-2.51-.62a9.81,9.81,0,0,0-7.72-4.64c-2.49-.3-5-.45-7.48-.69-.83-.08-1.65-.23-2.7-.37,1-1.12,1.8-2.14,2.68-3.12,2-2.28,4.16-4.5,6.13-6.84a15.53,15.53,0,0,0,3.38-6.72,1.8,1.8,0,0,1,1.31-1.35c1.89-.73,3.82-1.37,5.64-2.23a17,17,0,0,0,3.69-2.38c1.42-1.21,1.43-2.7.21-4.12a8.7,8.7,0,0,0-1.84-1.69c-2.81-1.79-5.61-3.6-8.52-5.22-1.76-1-3.71-1.62-5.57-2.44a7.5,7.5,0,0,1-1.31-.71c-1-.67-1-1.41-.09-2.17a26.61,26.61,0,0,0,2-1.73,7.93,7.93,0,0,0,2.13-5.56,60.74,60.74,0,0,0-.7-12.31,13.43,13.43,0,0,0-2.94-6.28,11.43,11.43,0,0,1-2.23-4.26c1.18.26,2.35.55,3.54.77a33.42,33.42,0,0,0,8.83.1l5.74-.43a1.38,1.38,0,0,0,1.28-.88,20.15,20.15,0,0,1,1.58-2.74c1-1.45,2-1.55,3.33-.35.78.71,1.45,1.54,2.19,2.3a21.46,21.46,0,0,0,5.54,4.26c2.13,1.1,3.77.74,5-1.31a43.83,43.83,0,0,0,2.5-5.25,2,2,0,0,1,1.5-1.44,7.71,7.71,0,0,0,5.2-4.59c.9-2,1.59-4,2.38-6,.1-.26.19-.51.3-.83"/><path class="cls-1" d="M66.9,342.8a10.92,10.92,0,0,0,6.46-10.6,60.59,60.59,0,0,0-14.67-39.31,17.75,17.75,0,0,0,4.87-12.27c0-9.67-7.59-17.51-16.95-17.51a17,17,0,0,0-15.87,11.4A66.85,66.85,0,0,0,17,271.62c-6.57-.68-12.2,6.09-12.2,12.2C4.8,291,10.42,295.34,17,296c18.52,1.91,31.74,18,31.94,36.18a11.3,11.3,0,0,0,4.19,9,17.46,17.46,0,0,0-11.73,16.65c0,9.67,7.59,17.51,16.95,17.51s16.95-7.84,16.95-17.51A17.6,17.6,0,0,0,66.9,342.8"/><path class="cls-1" d="M383.32,49.17A23.26,23.26,0,0,0,352.91,27a28.81,28.81,0,0,0-16.16-11.21,16.07,16.07,0,1,0-29.34,9.3,28.75,28.75,0,0,0-6,25.16,16.06,16.06,0,1,0,22.29,21.6,28.93,28.93,0,0,0,5.73.57c.6,0,1.19,0,1.77-.06a16.06,16.06,0,0,0,32-.18,23.26,23.26,0,0,0,20.13-23"/><path class="cls-1" d="M395.24,296.56c-6.23,5.27-12.33,10.7-18.73,15.75a35.3,35.3,0,0,1-16.89,7.24c2,2.7,3.89,5.27,5.71,7.91,4.9,7.1,9.56,14.32,12.19,22.64,1,3.25,1.56,6.57.55,9.89-1.2,3.94-5.19,4.72-7.9,1.56a14.35,14.35,0,0,1-2-3.41,28.47,28.47,0,0,0-11.49-13.05c-5.81-3.47-11.57-7-17.32-10.51-1.95,2.67-3.7,5.28-5.66,7.73-5.72,7.17-13.45,11.65-21.52,15.57a44,44,0,0,1-7.83,2.68,4.73,4.73,0,0,1-3.12-.41c-3-1.54-3.66-3.2-1.37-5.57.84-.87,1.62-1.79,2.45-2.66a35.35,35.35,0,0,0,8-12.54c2.65-7.33,5.87-14.4,11-20.76-1.07-.45-2-.78-2.88-1.22-4.58-2.29-9.24-4.43-13.68-7-5.16-3-10.5-4.57-16.49-4a13.78,13.78,0,0,1-4.67-.46,2.2,2.2,0,0,1-1.48-3.54,11,11,0,0,1,2.64-3.17,34.93,34.93,0,0,1,28.58-7.11c4.49.78,8.85,2.39,13.15,3.58.53-3.55.92-7.45,1.74-11.25a39.58,39.58,0,0,1,8-17.22,16.57,16.57,0,0,1,3-2.84c1.84-1.34,3.3-.73,3.75,1.46a10,10,0,0,1,.37,3.19c-.84,6.21.95,12,2.44,17.9,1,3.91,2.09,7.78,3.18,11.77,3-.4,6.09-.84,9.14-1.18,4.59-.51,9.22-.74,13.78-1.46s8.87-1.88,13.29-2.85c1.47-.32,2.93-.77,4.42-1a6.68,6.68,0,0,1,5.63,1.58Z"/></g></g></svg>