<svg xmlns="http://www.w3.org/2000/svg" xmlns:xlink="http://www.w3.org/1999/xlink" viewBox="0 0 956 452.2"><defs><style>.cls-1{fill:none;}.cls-2{opacity:0.9;}.cls-3{clip-path:url(#clip-path);}.cls-4{fill:#3a3a39;}.cls-5{clip-path:url(#clip-path-2);}.cls-6{clip-path:url(#clip-path-3);}.cls-7{clip-path:url(#clip-path-4);}.cls-8{clip-path:url(#clip-path-5);}.cls-9{clip-path:url(#clip-path-6);}.cls-10{clip-path:url(#clip-path-7);}.cls-11{clip-path:url(#clip-path-8);}.cls-12{clip-path:url(#clip-path-9);}.cls-13{clip-path:url(#clip-path-10);}.cls-14{clip-path:url(#clip-path-11);}.cls-15{clip-path:url(#clip-path-12);}.cls-16{clip-path:url(#clip-path-13);}.cls-17{clip-path:url(#clip-path-14);}.cls-18{clip-path:url(#clip-path-15);}.cls-19{clip-path:url(#clip-path-16);}.cls-20{clip-path:url(#clip-path-17);}.cls-21{clip-path:url(#clip-path-18);}.cls-22{clip-path:url(#clip-path-19);}.cls-23{clip-path:url(#clip-path-20);}.cls-24{clip-path:url(#clip-path-21);}.cls-25{clip-path:url(#clip-path-22);}.cls-26{clip-path:url(#clip-path-23);}.cls-27{clip-path:url(#clip-path-24);}.cls-28{clip-path:url(#clip-path-25);}.cls-29{clip-path:url(#clip-path-26);}.cls-30{clip-path:url(#clip-path-27);}.cls-31{clip-path:url(#clip-path-28);}.cls-32{clip-path:url(#clip-path-29);}.cls-33{clip-path:url(#clip-path-30);}.cls-34{clip-path:url(#clip-path-31);}.cls-35{clip-path:url(#clip-path-32);}.cls-36{clip-path:url(#clip-path-33);}.cls-37{clip-path:url(#clip-path-34);}.cls-38{clip-path:url(#clip-path-35);}.cls-39{clip-path:url(#clip-path-36);}.cls-40{clip-path:url(#clip-path-37);}.cls-41{clip-path:url(#clip-path-38);}.cls-42{clip-path:url(#clip-path-39);}.cls-43{clip-path:url(#clip-path-40);}.cls-44{clip-path:url(#clip-path-41);}.cls-45{clip-path:url(#clip-path-42);}.cls-46{clip-path:url(#clip-path-43);}.cls-47{clip-path:url(#clip-path-44);}.cls-48{clip-path:url(#clip-path-45);}.cls-49{clip-path:url(#clip-path-46);}.cls-50{clip-path:url(#clip-path-47);}.cls-51{clip-path:url(#clip-path-48);}.cls-52{clip-path:url(#clip-path-49);}.cls-53{clip-path:url(#clip-path-50);}.cls-54{clip-path:url(#clip-path-51);}.cls-55{clip-path:url(#clip-path-52);}.cls-56{clip-path:url(#clip-path-53);}.cls-57{clip-path:url(#clip-path-54);}.cls-58{clip-path:url(#clip-path-55);}.cls-59{clip-path:url(#clip-path-56);}.cls-60{clip-path:url(#clip-path-57);}.cls-61{clip-path:url(#clip-path-58);}.cls-62{clip-path:url(#clip-path-59);}.cls-63{clip-path:url(#clip-path-60);}</style><clipPath id="clip-path"><rect class="cls-1" x="175.09" y="125.44" width="48.88" height="48.91"/></clipPath><clipPath id="clip-path-2"><rect class="cls-1" x="151.03" y="149.52" width="48.91" height="48.93"/></clipPath><clipPath id="clip-path-3"><rect class="cls-1" x="156.42" y="2.87" width="64.39" height="72.47"/></clipPath><clipPath id="clip-path-4"><rect class="cls-1" x="205.04" y="7.04" width="15.49" height="15.25"/></clipPath><clipPath id="clip-path-5"><rect class="cls-1" x="198.86" y="28.23" width="12.06" height="14.6"/></clipPath><clipPath id="clip-path-6"><rect class="cls-1" x="181.59" y="26.13" width="12.48" height="14.01"/></clipPath><clipPath id="clip-path-7"><rect class="cls-1" x="189.22" y="41.16" width="11.16" height="7.29"/></clipPath><clipPath id="clip-path-8"><rect class="cls-1" x="601.7" y="270.79" width="50.16" height="46.9"/></clipPath><clipPath id="clip-path-9"><rect class="cls-1" x="625.31" y="256.73" width="14.48" height="16.12"/></clipPath><clipPath id="clip-path-10"><rect class="cls-1" x="887.06" y="169.67" width="33.23" height="20.03"/></clipPath><clipPath id="clip-path-11"><rect class="cls-1" x="917.75" y="169.67" width="33.22" height="20.03"/></clipPath><clipPath id="clip-path-12"><rect class="cls-1" x="907.31" y="134.18" width="23.43" height="38.06"/></clipPath><clipPath id="clip-path-13"><rect class="cls-1" x="301.5" y="253.19" width="68.07" height="68.04"/></clipPath><clipPath id="clip-path-14"><rect class="cls-1" x="315.27" y="266" width="40.11" height="33.38"/></clipPath><clipPath id="clip-path-15"><rect class="cls-1" x="343.51" y="279.38" width="16.36" height="30.29"/></clipPath><clipPath id="clip-path-16"><rect class="cls-1" x="311.04" y="279.32" width="16.33" height="30.3"/></clipPath><clipPath id="clip-path-17"><rect class="cls-1" x="327.18" y="262.73" width="16.54" height="18.95"/></clipPath><clipPath id="clip-path-18"><rect class="cls-1" x="327.38" y="292.88" width="16.14" height="18.84"/></clipPath><clipPath id="clip-path-19"><rect class="cls-1" x="744.51" y="123.59" width="55.28" height="76.71"/></clipPath><clipPath id="clip-path-20"><rect class="cls-1" x="754.34" y="131.39" width="36.73" height="61.11"/></clipPath><clipPath id="clip-path-21"><rect class="cls-1" x="770.6" y="134.14" width="4.68" height="4.87"/></clipPath><clipPath id="clip-path-22"><rect class="cls-1" x="613.97" y="386.65" width="22.82" height="34.94"/></clipPath><clipPath id="clip-path-23"><rect class="cls-1" x="635.46" y="401.79" width="29.62" height="19.79"/></clipPath><clipPath id="clip-path-24"><rect class="cls-1" x="585.57" y="401.8" width="29.57" height="19.78"/></clipPath><clipPath id="clip-path-25"><rect class="cls-1" x="591.33" y="421.75" width="68.02" height="5.7"/></clipPath><clipPath id="clip-path-26"><rect class="cls-1" x="595.89" y="427.87" width="58.87" height="5.43"/></clipPath><clipPath id="clip-path-27"><rect class="cls-1" x="602.96" y="433.5" width="18.5" height="9.08"/></clipPath><clipPath id="clip-path-28"><rect class="cls-1" x="629.4" y="433.5" width="18.45" height="9.11"/></clipPath><clipPath id="clip-path-29"><rect class="cls-1" x="619.21" y="433.52" width="12.35" height="9.48"/></clipPath><clipPath id="clip-path-30"><rect class="cls-1" x="301.93" y="9.13" width="26.59" height="59.91"/></clipPath><clipPath id="clip-path-31"><rect class="cls-1" x="342.76" y="9.14" width="26.55" height="59.8"/></clipPath><clipPath id="clip-path-32"><rect class="cls-1" x="323.85" y="30.24" width="28.37" height="38.84"/></clipPath><clipPath id="clip-path-33"><rect class="cls-1" x="456.09" y="260.94" width="25.81" height="26.55"/></clipPath><clipPath id="clip-path-34"><rect class="cls-1" x="481.96" y="260.94" width="25.81" height="26.55"/></clipPath><clipPath id="clip-path-35"><rect class="cls-1" x="456.09" y="286.94" width="25.81" height="26.54"/></clipPath><clipPath id="clip-path-36"><rect class="cls-1" x="481.96" y="286.8" width="25.81" height="26.54"/></clipPath><clipPath id="clip-path-37"><rect class="cls-1" x="643.37" y="18.19" width="29.53" height="29.68"/></clipPath><clipPath id="clip-path-38"><rect class="cls-1" x="583.77" y="18.18" width="29.69" height="29.69"/></clipPath><clipPath id="clip-path-39"><rect class="cls-1" x="613.67" y="18.18" width="29.51" height="28.81"/></clipPath><clipPath id="clip-path-40"><rect class="cls-1" x="628.36" y="31.23" width="29.49" height="28.8"/></clipPath><clipPath id="clip-path-41"><rect class="cls-1" x="598.65" y="31.25" width="29.5" height="28.77"/></clipPath><clipPath id="clip-path-42"><rect class="cls-1" x="613.66" y="33.82" width="16.72" height="14.05"/></clipPath><clipPath id="clip-path-43"><rect class="cls-1" x="641.17" y="30.36" width="16.69" height="14.02"/></clipPath><clipPath id="clip-path-44"><rect class="cls-1" x="611.47" y="30.37" width="16.64" height="13.99"/></clipPath><clipPath id="clip-path-45"><rect class="cls-1" x="602.83" y="143.84" width="47.93" height="42.07"/></clipPath><clipPath id="clip-path-46"><rect class="cls-1" x="613.77" y="137.98" width="26.01" height="10.81"/></clipPath><clipPath id="clip-path-47"><rect class="cls-1" x="28.12" y="265.32" width="18.04" height="38.5"/></clipPath><clipPath id="clip-path-48"><rect class="cls-1" x="48.51" y="274.78" width="27.79" height="31.78"/></clipPath><clipPath id="clip-path-49"><rect class="cls-1" x="46.42" y="290.64" width="36.19" height="18.48"/></clipPath><clipPath id="clip-path-50"><rect class="cls-1" x="14.15" y="274.78" width="27.57" height="31.79"/></clipPath><clipPath id="clip-path-51"><rect class="cls-1" x="7.74" y="290.64" width="36.14" height="18.47"/></clipPath><clipPath id="clip-path-52"><rect class="cls-1" x="44.42" y="265.3" width="18.04" height="38.44"/></clipPath><clipPath id="clip-path-53"><rect class="cls-1" x="456.81" y="388.04" width="43.33" height="43.15"/></clipPath><clipPath id="clip-path-54"><rect class="cls-1" x="462.78" y="399.87" width="47.6" height="41.73"/></clipPath><clipPath id="clip-path-55"><rect class="cls-1" x="294.93" y="393.84" width="70.04" height="41.95"/></clipPath><clipPath id="clip-path-56"><rect class="cls-1" x="357.31" y="413.5" width="24.08" height="22.3"/></clipPath><clipPath id="clip-path-57"><rect class="cls-1" x="746.51" y="24.22" width="31.92" height="40.3"/></clipPath><clipPath id="clip-path-58"><rect class="cls-1" x="751.84" y="13.37" width="43.58" height="26.17"/></clipPath><clipPath id="clip-path-59"><rect class="cls-1" x="769.28" y="28.69" width="28.72" height="36.14"/></clipPath><clipPath id="clip-path-60"><rect class="cls-1" x="761.84" y="28.7" width="20.8" height="20.79"/></clipPath></defs><title>Asset 38</title><g id="Layer_2" data-name="Layer 2"><g id="Layer_1-2" data-name="Layer 1"><g class="cls-2"><g class="cls-3"><path class="cls-4" d="M200,155.25a5.84,5.84,0,1,0-5.87-5.85,5.83,5.83,0,0,0,5.87,5.85m22.6-5.78a2.33,2.33,0,0,1-.69,1.73l-7.55,7.56-8.1,8.1-6,6c-.26.26-.27.26-.53,0l-4.54-4.54-7.53-7.53-7.39-7.41-3.75-3.75c-.23-.23-.23-.27,0-.49l9.27-9.27,8.32-8.33c1.36-1.36,2.7-2.73,4.07-4.07a2.37,2.37,0,0,1,2.24-.62,2.59,2.59,0,0,1,1.32.74l12,12,8.12,8.12a2.32,2.32,0,0,1,.7,1.75"/></g></g><g class="cls-2"><g class="cls-5"><path class="cls-4" d="M166.52,168.5a5.82,5.82,0,1,0,5.74,5.76,5.8,5.8,0,0,0-5.74-5.76m22.89,6.1a5.82,5.82,0,1,0-5.86,5.79,5.83,5.83,0,0,0,5.86-5.79m-37.06-.26a2.34,2.34,0,0,1,.75-1.76l6.78-6.78,8.37-8.38,5.31-5.3c.38-.38.76-.74,1.12-1.14.18-.2.29-.17.45,0l2.5,2.51L190,165.81l8.44,8.44c.26.26.26.26,0,.52l-7.78,7.78-9.73,9.74c-1.36,1.36-2.72,2.73-4.09,4.08a2.42,2.42,0,0,1-2.71.55,3.28,3.28,0,0,1-1.06-.78c-1.57-1.55-3.13-3.12-4.69-4.69l-6.15-6.16-6.59-6.58-2.6-2.6a2.35,2.35,0,0,1-.67-1.79"/></g></g><g class="cls-2"><g class="cls-6"><path class="cls-4" d="M191.34,48.55a1.79,1.79,0,0,0,0,.24,2.31,2.31,0,0,0,0,.23,2.43,2.43,0,0,0,1.06,1.48,4.88,4.88,0,0,0,4.31.66,2.57,2.57,0,0,0,1.63-1.35,2,2,0,0,0,.1-.32,33.65,33.65,0,0,1-7.13-.94M171.28,14c0,.32-.22.4-.37.53-.8.65-1.64,1.26-2.4,1.94a19.35,19.35,0,0,0-5.24,7.69,19.13,19.13,0,0,0-1.13,5.21,21.2,21.2,0,0,0,1.36,9.25,20.33,20.33,0,0,0,6.12,8.76c.37.3.76.57,1.15.85l.17.11c.17.09.36.23.55.08s.07-.34,0-.51c-.27-1-.56-2-.8-3.06a11.93,11.93,0,0,1-.13-4.45,33.38,33.38,0,0,0,.32-5.06c0-1.24,0-2.49.06-3.72A19.94,19.94,0,0,1,176,19.4a26.63,26.63,0,0,1,4.67-4.09l.39-.28-.28-.38a7.23,7.23,0,0,1-1.21-2.34,5,5,0,0,1,.46-4,7.86,7.86,0,0,1,5.12-4,4.83,4.83,0,0,1,4.62,1.08,5.08,5.08,0,0,1,.74.82,10.07,10.07,0,0,1,1.78,4.32A2.15,2.15,0,0,1,191.17,13a7.83,7.83,0,0,1-1,.47,13.07,13.07,0,0,0-3.59,2.22c-.38.32-.77.65-1.17.94a2,2,0,0,1-2.13.16l-1-.5c-.07.08-.15.15-.21.23a23.28,23.28,0,0,0-4.4,9.09,17.27,17.27,0,0,0,.43,9.87A12.27,12.27,0,0,0,183.46,42a11.47,11.47,0,0,0,2.79,1.2l.5.14a3.07,3.07,0,0,1,2.13,1.85,7.41,7.41,0,0,0,1,1.73,2.35,2.35,0,0,0,2.42.9l1.24-.25a4,4,0,0,1,3,.49,4.87,4.87,0,0,0,2.22.66,2.22,2.22,0,0,0,1.79-.69c.24-.25.45-.52.67-.78l.33-.39a2.19,2.19,0,0,1,1.67-.77,19.13,19.13,0,0,0,2.17-.17,13.27,13.27,0,0,0,10-6.84,16.75,16.75,0,0,0,2.13-6.79c.08-.8.08-1.61.12-2.41a1.45,1.45,0,0,1,0-.31,1.23,1.23,0,0,1,.14-.26,1,1,0,0,1,.27.19,1.38,1.38,0,0,1,.17.4,24.13,24.13,0,0,1,.77,3.52,39.67,39.67,0,0,1,.3,7.47,57.49,57.49,0,0,1-.71,6.77A66.87,66.87,0,0,1,216.2,58a37,37,0,0,1-3,6.94A23.89,23.89,0,0,1,211.84,67a6.37,6.37,0,0,1-1.91,1.7,15,15,0,0,1-4.36,1.85,7.52,7.52,0,0,1-2.12.21A3.4,3.4,0,0,1,200,67.63a11,11,0,0,1,.28-3.89,24.63,24.63,0,0,0,.67-6.44,8.35,8.35,0,0,0-.47-2.52,3.5,3.5,0,0,0-.67-1.16,1.51,1.51,0,0,0-2.1-.25,3.59,3.59,0,0,0-1.07,1.21,8.44,8.44,0,0,0-1,2.79,17.57,17.57,0,0,0-.12,5.05,27.84,27.84,0,0,0,1.08,5.22,17.19,17.19,0,0,0,.67,1.6c.23.55.5,1.08.68,1.64a1.71,1.71,0,0,1-.84,2.16,6.07,6.07,0,0,1-1.23.53,10.39,10.39,0,0,1-3.13.44,15.6,15.6,0,0,1-5-.7,12.83,12.83,0,0,1-5.18-3.25,21.81,21.81,0,0,1-3.37-4.58,78.08,78.08,0,0,1-3.57-7.38l-1.11-2.5a1.41,1.41,0,0,0-.22-.37.21.21,0,0,0-.39.1,1.38,1.38,0,0,0,0,.32,11.93,11.93,0,0,0,.54,3.59c.3,1.08.63,2.15.91,3.24a4,4,0,0,1,.08,1.17,1.57,1.57,0,0,1-.9,1.32,4.4,4.4,0,0,1-1.47.45,12.19,12.19,0,0,1-4.56-.2,7.43,7.43,0,0,1-4-2.35,14,14,0,0,1-1.61-2.21,26,26,0,0,1-1.83-3.78,38.18,38.18,0,0,1-1.85-5.51,14.52,14.52,0,0,1-.38-3.81c0-.75,0-1.5.05-2.26a15.59,15.59,0,0,0-.5-3.44,29.5,29.5,0,0,1-.59-8.74,24.09,24.09,0,0,1,2.38-8.81,21.69,21.69,0,0,1,6.79-8,27.33,27.33,0,0,1,3.34-2.06,2.79,2.79,0,0,1,.47-.21,2.62,2.62,0,0,1,.45-.06"/></g></g><g class="cls-2"><g class="cls-7"><path class="cls-4" d="M219.2,15a4.92,4.92,0,0,1-.65,2.31A9.16,9.16,0,0,1,216.4,20a4.63,4.63,0,0,1-1.5.86,2.37,2.37,0,0,1-2.61-.65c-.13-.13-.24-.28-.36-.42a12.23,12.23,0,0,0-4.27-3.46,2,2,0,0,1-1.22-2.47,7.29,7.29,0,0,1,3-4.52,5.23,5.23,0,0,1,4.92-.57A7.26,7.26,0,0,1,219,13.79,8.63,8.63,0,0,1,219.2,15"/></g></g><g class="cls-2"><g class="cls-8"><path class="cls-4" d="M209.6,36.34a7.14,7.14,0,0,1-.51,2.69,4,4,0,0,1-3.62,2.47,2.38,2.38,0,0,1-2-.88,7.12,7.12,0,0,1-1.22-2c-.36-.82-.7-1.65-1.08-2.46a10.55,10.55,0,0,0-.81-1.36.78.78,0,0,1-.12-.78,11.91,11.91,0,0,1,1.3-2.66,6.53,6.53,0,0,1,.81-1,2.82,2.82,0,0,1,3.11-.64,5.92,5.92,0,0,1,3.37,3.18,8,8,0,0,1,.76,3.39"/></g></g><g class="cls-2"><g class="cls-9"><path class="cls-4" d="M182.91,34.23a6.81,6.81,0,0,1,2-4.64,7.46,7.46,0,0,1,2.57-1.81,3.9,3.9,0,0,1,1.58-.31,3,3,0,0,1,2.36,1.19,6,6,0,0,1,1.19,2.81c.09.52.11,1,.17,1.57a.65.65,0,0,1-.22.57,22.41,22.41,0,0,0-2.4,2.94,8.26,8.26,0,0,1-1.44,1.52,3.31,3.31,0,0,1-4.77-.61,5.32,5.32,0,0,1-1-3.22"/></g></g><g class="cls-2"><g class="cls-10"><path class="cls-4" d="M193.21,42.5a17.6,17.6,0,0,1,4.26.57,3.69,3.69,0,0,1,.7.27,1.68,1.68,0,0,1,.72.71,1,1,0,0,1-.49,1.48,3.76,3.76,0,0,1-.88.22,4.36,4.36,0,0,0-1.58.48,10.37,10.37,0,0,0-1,.71c-.35.27-.47.26-.69-.11A3.82,3.82,0,0,0,192,45.07l-.67-.23a1.07,1.07,0,0,1-.19-2,2.36,2.36,0,0,1,1.12-.35c.31,0,.63,0,.95,0"/></g></g><g class="cls-2"><g class="cls-11"><path class="cls-4" d="M603,290.06v-.87c0-.07,0-.13,0-.2,0-.56.06-1.12.1-1.68a19.67,19.67,0,0,1,.59-3.42,16.23,16.23,0,0,1,3.51-6.76,14.25,14.25,0,0,1,6.23-4.16,13.54,13.54,0,0,1,3.37-.67,10,10,0,0,1,2.39.1,18.42,18.42,0,0,1,3.37,1c1,.38,2,.77,3,1.13a4.17,4.17,0,0,0,2.89,0c.67-.24,1.35-.48,2-.74a33.41,33.41,0,0,1,3.87-1.33,11.35,11.35,0,0,1,2.53-.39c.47,0,.94,0,1.41,0a13.87,13.87,0,0,1,9.73,4.58c.33.38.63.79.94,1.19l-.16.11a13.88,13.88,0,0,0-4.53,4.73,12,12,0,0,0-1.59,5.07,13.66,13.66,0,0,0,0,2.7,12.38,12.38,0,0,0,.67,2.91,12.88,12.88,0,0,0,6.17,7c.29.16.59.29.88.44l0,.08a32.17,32.17,0,0,1-2.43,5.64,40.85,40.85,0,0,1-2.87,4.42,19,19,0,0,1-3,3.43,8.38,8.38,0,0,1-2.25,1.4,7.25,7.25,0,0,1-4.64.22,15.7,15.7,0,0,1-2.51-.95,11.33,11.33,0,0,0-7.69-.75,19.6,19.6,0,0,0-2.83,1,11.38,11.38,0,0,1-3.44,1,5.89,5.89,0,0,1-3.22-.61,10.38,10.38,0,0,1-2.68-2,30.05,30.05,0,0,1-2.94-3.59,35,35,0,0,1-3.85-6.69,36.43,36.43,0,0,1-2.85-10.23c-.11-.88-.15-1.78-.22-2.67,0-.16,0-.33,0-.49"/></g></g><g class="cls-2"><g class="cls-12"><path class="cls-4" d="M638.41,258.05a12.07,12.07,0,0,1-1.38,6.79,12.79,12.79,0,0,1-3.64,4.42,11.08,11.08,0,0,1-4.21,2,8.16,8.16,0,0,1-2.37.2c-.09,0-.1,0-.11-.12a9.76,9.76,0,0,1,.54-4.43,13.08,13.08,0,0,1,4-5.9,13.25,13.25,0,0,1,5.57-2.79c.46-.11.95-.14,1.42-.2h.17"/></g></g><g class="cls-2"><g class="cls-13"><path class="cls-4" d="M888.39,188.38c0-.09.08-.19.14-.28l9.9-16.83a.42.42,0,0,1,.41-.27H919l-.21.38-9.82,16.69c-.06.1-.1.21-.15.31Z"/></g></g><g class="cls-2"><g class="cls-14"><path class="cls-4" d="M929.25,188.38c-.47-.82-.93-1.64-1.41-2.46l-8.57-14.57-.19-.35h20a.52.52,0,0,1,.52.29q4.92,8.39,9.86,16.78c.06.1.1.21.15.31Z"/></g></g><g class="cls-2"><g class="cls-15"><path class="cls-4" d="M919,170.92l-.9-1.52-9.38-15.77a.49.49,0,0,1,0-.58q5.08-8.65,10.15-17.32l.14-.23.19.3,10.1,17.12a.44.44,0,0,1,0,.52l-10.19,17.26-.14.21"/></g></g><path class="cls-4" d="M165.09,273.78l-.13.28c-.51,1-1,2.07-1.41,3.15a19.57,19.57,0,0,0-1,3.37,9.75,9.75,0,0,0-.15,2.86,5.85,5.85,0,0,0,2.89,4.63,7.94,7.94,0,0,0,2.52,1,11,11,0,0,0,2.79.25c.54,0,1.07-.08,1.6-.15a34.81,34.81,0,0,0,4.56-1l13.93-3.79,10-2.74,10.76-2.94,11.26-3.07,5.88-1.6.18,0a.66.66,0,0,1-.32.2l-4.48,2L192.9,289.84l-15.9,7c-1,.44-2,.89-3,1.31a38,38,0,0,1-5.47,1.81,26.24,26.24,0,0,1-3.33.6,17.36,17.36,0,0,1-3.06.07,10.22,10.22,0,0,1-3.79-.94,7.08,7.08,0,0,1-4-5.06,9.54,9.54,0,0,1-.16-3.08,14.09,14.09,0,0,1,1-3.7,29.13,29.13,0,0,1,2.4-4.78,52.3,52.3,0,0,1,3.84-5.38,39.3,39.3,0,0,1,3.23-3.56l.42-.4.06,0"/><path class="cls-4" d="M911.76,310.61h-1.92l-.19,0a31.81,31.81,0,0,1-5.28-.59,33.4,33.4,0,0,1-11.4-4.5l-.21-.15a24.44,24.44,0,0,0,9.15-.76,23.53,23.53,0,0,0,8.21-4.15,11.8,11.8,0,0,1-11-8.21,11.39,11.39,0,0,0,5.18-.2A11.78,11.78,0,0,1,895,280.29a11.8,11.8,0,0,0,5.26,1.45,11.85,11.85,0,0,1-3.6-15.72A33.75,33.75,0,0,0,921,278.34c0-.15,0-.24-.06-.33a11.69,11.69,0,0,1,0-4.73,11.82,11.82,0,0,1,20-5.88.33.33,0,0,0,.35.11,23.62,23.62,0,0,0,6-2.1l1.27-.68.06,0c-.22.52-.42,1.05-.67,1.56a11.87,11.87,0,0,1-4.44,4.85h.12a23.37,23.37,0,0,0,4.48-1c.7-.24,1.39-.52,2.09-.79v.05a1,1,0,0,0-.12.12,23.92,23.92,0,0,1-5.56,5.77.45.45,0,0,0-.19.42c0,1,0,2,0,3a27.4,27.4,0,0,1-.52,4.32,35.14,35.14,0,0,1-4,10.81,33.15,33.15,0,0,1-8.92,10.23,31.28,31.28,0,0,1-9.42,4.86,34,34,0,0,1-9.18,1.57c-.17,0-.35,0-.52,0"/><g class="cls-2"><g class="cls-16"><path class="cls-4" d="M335.57,259.23a28,28,0,1,0,28,28.45,28,28,0,0,0-28-28.45m-2.31,60.67a51.77,51.77,0,0,1-5.33-.9c-13.44-3.68-21.86-12.32-24.52-26a32.67,32.67,0,1,1,39.43,26.11c-1.66.37-3.36.54-5,.8Z"/></g></g><g class="cls-2"><g class="cls-17"><path class="cls-4" d="M347.25,267.32a27.39,27.39,0,0,1,5.71,4.74,3,3,0,0,1,.6,4c-3.41,7.12-6.62,14.34-9.9,21.52-.05.11-.12.22-.23.4l-2.62-5.54c-.6-1.27-1.22-2.53-1.78-3.82a.83.83,0,0,0-.89-.6q-2.68,0-5.35,0a.84.84,0,0,0-.91.57c-1.33,2.89-2.7,5.77-4.06,8.65-.11.23-.22.45-.38.76l-2.53-5.54c-2.71-5.93-5.41-11.86-8.15-17.78a1.13,1.13,0,0,1,.14-1.34,22.62,22.62,0,0,1,6.76-6c.48,1.07,1,2.13,1.43,3.19,2.23,5.07,4.46,10.14,6.67,15.23a1,1,0,0,0,1.12.71q2.6-.06,5.2,0a1,1,0,0,0,1.05-.69q3.91-9,7.86-17.91l.26-.57"/></g></g><g class="cls-2"><g class="cls-18"><path class="cls-4" d="M344.83,308.34l12.73-27.64a23,23,0,0,1-12.73,27.64"/></g></g><g class="cls-2"><g class="cls-19"><path class="cls-4" d="M313.31,280.65,326,308.29c-9.26-3.77-16.29-15.24-12.74-27.65"/></g></g><g class="cls-2"><g class="cls-20"><path class="cls-4" d="M342.39,265.12l-6.94,15.24-6.94-15.22a23,23,0,0,1,13.89,0"/></g></g><g class="cls-2"><g class="cls-21"><path class="cls-4" d="M335.45,294.2l6.74,15.11c-3.08,1.42-10,1.44-13.48,0l6.75-15.13"/></g></g><path class="cls-4" d="M483.75,178.41a25,25,0,0,0,10.43-2.15,32.12,32.12,0,0,0,15.14-14.17,1,1,0,0,0-.07-.8,31.1,31.1,0,0,0-8.81-10.15c-7.83-5.73-16.42-7.36-25.66-4.16-7.34,2.54-12.67,7.58-16.64,14.16a1.06,1.06,0,0,0,0,1.25,34.77,34.77,0,0,0,6.64,8.3,27.77,27.77,0,0,0,19,7.73m-28.18-14.08v-4.78a2,2,0,0,0,.12-.39,27,27,0,0,1,8-17c7.14-7,15.79-9.79,25.58-7.69,11.49,2.46,18.68,9.73,21.74,21,.36,1.32.49,2.7.73,4v4.78a1.91,1.91,0,0,0-.12.39,27,27,0,0,1-8,17c-7.14,7-15.79,9.79-25.58,7.69-11.49-2.46-18.68-9.72-21.74-21-.36-1.32-.49-2.69-.73-4"/><path class="cls-4" d="M498.58,162A14.91,14.91,0,1,1,483.72,147,14.88,14.88,0,0,1,498.58,162"/><g class="cls-2"><g class="cls-22"><path class="cls-4" d="M749,160.83h.1c0,1.17,0,2.34,0,3.51,0,1.41.08,2.83.24,4.24.22,2.07.49,4.14.84,6.2A41.54,41.54,0,0,0,752.8,184a26.05,26.05,0,0,0,5.06,8,18.55,18.55,0,0,0,12.39,5.8,23.48,23.48,0,0,0,5.53-.2,18.72,18.72,0,0,0,6.64-2.32,20.44,20.44,0,0,0,7.27-7.48,37.53,37.53,0,0,0,4.21-11.41,54.1,54.1,0,0,0,1.06-7.29c.14-1.83.25-3.67.3-5.51s0-3.56,0-5.34c-.08-2-.2-4-.39-6a48.61,48.61,0,0,0-1.1-6.55,36.61,36.61,0,0,0-3.2-8.84,22,22,0,0,0-5.27-6.7,19.46,19.46,0,0,0-12.12-4.44,24.17,24.17,0,0,0-6.43.55,18.66,18.66,0,0,0-11.22,7.49,29,29,0,0,0-4.08,8.35,51.92,51.92,0,0,0-2.22,12.47c-.13,2-.16,4.1-.23,6.15m49.5-.77v4.25a1,1,0,0,0,0,.18,58.65,58.65,0,0,1-.56,6.39,52.12,52.12,0,0,1-1.42,6.84,37.23,37.23,0,0,1-5,11.08,23.65,23.65,0,0,1-7.37,7.08,21.65,21.65,0,0,1-8.75,2.93L774,199h-3.61l-.2,0c-1-.13-1.93-.21-2.89-.39a21,21,0,0,1-8-3.29,24.75,24.75,0,0,1-7.19-7.71,39.66,39.66,0,0,1-4.62-11.48,46.76,46.76,0,0,1-1.06-5.78c-.17-1.48-.29-3-.43-4.46,0-.5-.07-1-.11-1.5V160a1,1,0,0,0,0-.18c.09-2.2.29-4.39.6-6.58a56.12,56.12,0,0,1,1.61-7.69,37.21,37.21,0,0,1,4.51-10.21,23.33,23.33,0,0,1,6.64-6.82,22.28,22.28,0,0,1,11.55-3.59,27.42,27.42,0,0,1,5.64.29,21.54,21.54,0,0,1,14.51,9,34.23,34.23,0,0,1,4.66,9.33,50.89,50.89,0,0,1,2.23,9.72c.23,1.76.36,3.53.53,5.3,0,.48.07,1,.11,1.45"/></g></g><g class="cls-2"><g class="cls-23"><path class="cls-4" d="M772.9,134.65h-.21a2.7,2.7,0,0,0-2.23,3.16,1.85,1.85,0,0,0,2.08,1.48,2.69,2.69,0,0,0,2.21-3.08,1.86,1.86,0,0,0-1.84-1.56m3.92,5.64h-.05c0-.27,0-.55-.05-.82a2.49,2.49,0,0,0-.46-1.36.51.51,0,0,0-.37-.2c-.09,0-.18.21-.22.34a17.72,17.72,0,0,1-.64,1.68,6.29,6.29,0,0,1-2.86,2.63c-.63.33-1.28.65-1.9,1a2,2,0,0,0-.89,1c-.09.2-.18.44,0,.59a.78.78,0,0,0,.56.11c1.39-.25,2.77-.54,4.16-.78a2.68,2.68,0,0,0,2.4-2.21c.14-.64.21-1.29.32-1.93m5.39,36c-.06-.81-.12-1.91-.24-3a22.22,22.22,0,0,0-.92-4.16,45.26,45.26,0,0,1-1.81-9.8c-.13-1.58-.15-3.16-.23-4.74a13.82,13.82,0,0,0-.53-3.37,5.62,5.62,0,0,0-6.64-4.13,5.85,5.85,0,0,0-4.17,3,16,16,0,0,0-1.69,4.16,73,73,0,0,0-2.35,11.91c-.16,1.67-.29,3.35-.31,5s.08,3.45.16,5.17a13,13,0,0,0,.52,3.16,4.54,4.54,0,0,0,4.76,3.51,7.67,7.67,0,0,0,2.23-.4,16.23,16.23,0,0,1,3.31-.7,9,9,0,0,1,3,.32,4.1,4.1,0,0,0,2.12.11,3.16,3.16,0,0,0,2.18-2.13,11.72,11.72,0,0,0,.54-3.93m7.54-6.34a9.4,9.4,0,0,1-.32,2.57,2.59,2.59,0,0,1-.34.68.61.61,0,0,1-1.07,0,3,3,0,0,1-.54-1.07,35,35,0,0,0-1.18-4,60.27,60.27,0,0,0-2.9-6.42,1.29,1.29,0,0,0-.28-.35.43.43,0,0,0-.53-.1.45.45,0,0,0-.2.53c.09.34.19.68.3,1a50.21,50.21,0,0,1,1.92,7.56,29.28,29.28,0,0,1,.43,5.28,14.89,14.89,0,0,1-.88,5.36c-.31.78-.75,1.5-1.12,2.25a7.51,7.51,0,0,0-.81,2.12,1.72,1.72,0,0,0,.68,1.83c.44.31.91.58,1.35.89a4.73,4.73,0,0,1,.77.69.54.54,0,0,1,.12.47.6.6,0,0,1-.46.22,13.68,13.68,0,0,1-1.45-.11,1.48,1.48,0,0,0-1.54.7c-.13.2-.25.4-.39.6a.83.83,0,0,1-1.42.08,5.2,5.2,0,0,1-.45-.66,1.43,1.43,0,0,0-1.28-.71c-.58,0-1.15,0-1.72,0-.14,0-.37,0-.39-.11a.54.54,0,0,1,.08-.46,8.67,8.67,0,0,1,1-.9c.43-.34.89-.65,1.34-.95a.45.45,0,0,0,.18-.62,2.42,2.42,0,0,0-1.32-1.31,6.06,6.06,0,0,0-2.87-.35,20.73,20.73,0,0,0-4.79,1,3.94,3.94,0,0,0-.86.4c-.29.17-.27.32-.13.63a18,18,0,0,1,.81,1.86c.16.48-.12.82-.63.83a10.12,10.12,0,0,1-1.3-.07,2.88,2.88,0,0,0-2.4.75,7.06,7.06,0,0,1-.89.72,1.71,1.71,0,0,1-.69.24c-.31,0-.48-.11-.54-.42a1.75,1.75,0,0,1,0-.29c0-.76-.28-1-1-1-.27,0-.55,0-.82.05s-.54.09-.64-.17.19-.43.4-.54c.86-.45,1.73-.89,2.6-1.33.41-.21.83-.4,1.24-.6.57-.28.64-.66.18-1.09s-.77-.63-1.14-1a8.67,8.67,0,0,1-2.28-3.47,15.47,15.47,0,0,1-1.06-4.47c-.12-1.49-.2-3-.19-4.48a39.19,39.19,0,0,1,.76-7.32c.07-.38.13-.77.19-1.15s0-.59-.22-.65-.47.11-.6.4c-.27.64-.51,1.3-.75,2a23.73,23.73,0,0,0-1.25,4.73c-.12.82-.12,1.66-.19,2.48a3.79,3.79,0,0,1-.14.86.66.66,0,0,1-1.18.3,3.37,3.37,0,0,1-.9-1.74,11.11,11.11,0,0,1-.26-3.35,20.79,20.79,0,0,1,1.14-5.91,29.33,29.33,0,0,1,3.41-6.72c1.33-2,2.73-3.92,4.08-5.89a24,24,0,0,0,2.54-4.4,8.51,8.51,0,0,0,.7-3.19,6.6,6.6,0,0,0-1.47-4.22,15,15,0,0,0-3.35-3c-.5-.35-1-.71-1.47-1.09a1.5,1.5,0,0,1-.4-.52.54.54,0,0,1,.51-.81,16.85,16.85,0,0,1,2,.33,12.16,12.16,0,0,0,2.77.4,11.05,11.05,0,0,0,3.34-.67,9,9,0,0,1,3-.52,5.9,5.9,0,0,1,4.1,1.73,6.29,6.29,0,0,1,1.85,3.65,31.18,31.18,0,0,1,.36,3.61,14.51,14.51,0,0,0,1.5,5.75,53.57,53.57,0,0,0,3.43,5.79,50.74,50.74,0,0,1,3.95,7.05,24.19,24.19,0,0,1,1.91,6.78c.12.94.16,1.89.23,2.83"/></g></g><g class="cls-2"><g class="cls-24"><path class="cls-4" d="M774,136.37a1.35,1.35,0,0,1-.81,1.23.83.83,0,0,1-1.22-.85,1.32,1.32,0,0,1,.78-1.17.82.82,0,0,1,1.25.79"/></g></g><path class="cls-4" d="M313.07,139a3.07,3.07,0,0,1,.52-.09h45.18l-22.85,22.85,23,23-.08.14H313.89a7.45,7.45,0,0,1-.82-.09h0a4.37,4.37,0,0,0,.46-.36l22.08-22.08c.15-.15.29-.31.45-.49l-.45-.48-22.08-22.08A4.37,4.37,0,0,0,313,139Z"/><path class="cls-4" d="M313.07,184.85a3.79,3.79,0,0,1-.48-.35l-22.26-22.25-.27-.3.45-.48,22-22a6.87,6.87,0,0,1,.6-.48h0c0,.22,0,.44,0,.66q0,22.23,0,44.46c0,.24,0,.48,0,.72Z"/><path class="cls-4" d="M359.13,184.6V139.29l22.64,22.65L359.13,184.6"/><polygon class="cls-4" points="513.91 32.2 500 32.2 509.84 22.36 500.07 12.6 490.24 22.43 490.24 8.52 476.43 8.52 476.43 22.43 466.59 12.6 456.82 22.36 466.66 32.2 452.75 32.2 452.75 46.01 466.66 46.01 456.82 55.84 466.59 65.61 476.43 55.77 476.43 69.68 490.24 69.68 490.24 55.77 500.07 65.61 509.84 55.84 500 46.01 513.91 46.01 513.91 32.2"/><path class="cls-4" d="M933.2,46.93a2.39,2.39,0,0,0,.32.78c.25.26.62.6.91.58a9.51,9.51,0,0,0,5.19-2,3.41,3.41,0,0,0,.87-1.66c.11-.37-.14-.63-.64-.45a8.58,8.58,0,0,1-1.19.27l-.2-.14c.71-.81,1.45-1.62.05-2.31.73-.81.79-1,0-1.64a18.94,18.94,0,0,0-2.91-1.93c-.84-.46-1.28-.17-1.57.77-.06.2-.15.4-.21.58-.55-.45-1-1.07-1.55-1.22a5.31,5.31,0,0,0-2,.28c-.16-.61.16-1.61-1.17-1.83.11.65.16,1.23.3,1.78a5.4,5.4,0,0,1-.43,4.7,1.77,1.77,0,0,0,.18,2,1.7,1.7,0,0,1-.15,2.14,2.51,2.51,0,0,0-.45.62,4.83,4.83,0,0,0-.11,1c.35,0,.77.19,1,0a1.32,1.32,0,0,0,.61-.89c.06-.6.25-.81.8-.55.94.45,1.65.35,2-.73,0-.06.14-.08.27-.16M906.26,63.88a5.89,5.89,0,0,0,.65,1.1c.27.27.65.61,1,.6a1,1,0,0,0,.95-1.1c0-3.69,0-7.39,0-11.08,0-.19-.21-.54-.34-.55a4.16,4.16,0,0,0-2.57.47l.56,1.25c-1,0-1.94-1.11-2.67.25-.38-.49-.34-1.32-1.21-1a13,13,0,0,0-4.84,2.85,3.24,3.24,0,0,0-.41,3.73l1.06-.56v1.42c.76.08,1.51.14,1.14,1.24-.05.15.28.54.52.67.88.48,1.77.93,2.69,1.33s2.13.86,3.31,1.32l.19-1.92M925.91,4.14A29.39,29.39,0,0,1,923.48,7c-2.39,2.17-5,4.08-7.1,6.58s-3,4.92-2.21,8a7.43,7.43,0,0,0,3.42,4.53,1.08,1.08,0,0,0,.94.12c.2-.12.21-.59.24-.91s0-.74,0-1.1a18.52,18.52,0,0,1,2.93-7.43c1.06-1.79,2.29-3.49,3.36-5.28a8.66,8.66,0,0,0,1.35-6.07,6.68,6.68,0,0,0-.51-1.31m-7.2,44.38c.13.4.23.54.21.67-.1.94.46,1.12,1.22,1.08l4.12-.23c.45,0,.64-.2.64-.69,0-5.3,0-10.61,0-15.91,0-1.26-.4-1.61-1.68-1.62h-9.12a1.45,1.45,0,0,0-1.61,1.65q0,8.47,0,16.94c0,.33,0,.65.08,1.19a13.28,13.28,0,0,0,2.64-.75c.32-.17.34-.93.55-1.55,1.11.75,2.18.82,2.95-.78M915,54.47c-.08-.61-.12-.92-.17-1.23-.18-.95-1-1.37-1.75-.79a1.76,1.76,0,0,0-.54,1.24c0,5.67,0,11.35,0,17a1.47,1.47,0,0,0,1.4,1.71l9.33,1.87c1.47.29,1.78,0,1.78-1.5q0-9.85,0-19.69a4.68,4.68,0,0,0,0-.77c-.12-.75-.5-1.18-1.35-1.08s-1.88.18-2.82.24-1.68.23-1.69,1.55c-1.89-1.23-2.88.23-4.14,1.42m16,9c.77,1.41.92,1.53,2.37,1.07a41,41,0,0,0,4.23-1.65c.26-.12.43-.67.45-1a3.49,3.49,0,0,0-.36-1.13l2.14.78,1-1.83c.44,1.77,1.78,1.59,3.21,1.75-.67.48-1.24.73-1.53,1.16a5,5,0,0,0-.34,1.68c-.79,0-1.87-.42-2.54.94-.66-1.55-1.66-1-2.59-.72-1.3.44-2.57,1-3.88,1.38-.64.21-.89.52-.72,1.19a3.45,3.45,0,0,1,0,.82c-.09,0-.16.07-.19.06-1.31-.52-1.3-.52-2,.66a8,8,0,0,1-.58.74c-.37-1,.14-2.25-1.17-2.83,0,.41-.06.71-.06,1q0,4.38,0,8.77c0,1.77-.43,2.16-2.18,1.83-3.63-.68-7.25-1.39-10.86-2.11-1.76-.35-3.52-.76-5.28-1.15-1-.22-1.3-.58-1.3-1.59,0-1.23,0-2.46,0-3.7a1.45,1.45,0,0,0-2.15-1.33c-.3.13-.62.24-1.1.42.39-1.52-.63-1.8-1.57-2.21-1.41-.61-2.82-1.26-4.2-1.95-.88-.44-1.71-1.12-2.42,0l-2.64-2.27c1.12-1,.54-2.35.57-3.66,0-2.22,1.56-3.47,3.3-4.47A22,22,0,0,1,901,52.94c.65-.27,1-.58.54-1.34a3.6,3.6,0,0,1-.28-1l.19-.13c.35.27.71.53,1,.83.91.83,1.37.79,2.13-.21a1.08,1.08,0,0,1,.24-.24.66.66,0,0,1,.23-.06c.06,0,.13.07.14.11.3,1.35.32,1.37,1.71,1.14.31-.05.61-.15.91-.22.73-.16,1-.57,1-1.34,0-3.81,0-7.62,0-11.43,0-.3,0-.6-.05-1l-.85.67c-.11-.06-.27-.1-.3-.18-.41-1.19-1.2-.91-2-.57-1.56.63-3.13,1.26-4.71,1.84-.71.26-1.06.61-.69,1.39.05.11,0,.26,0,.58-1.54-.94-2.35-.26-2.68,1.25-.54-.52-.85-1-1.28-1.18s-1,.17-1.5.21a1.86,1.86,0,0,1-.66-.22c.1-.22.19-.45.31-.66s.14-.1.21-.15c1.41-.92,1.41-.92.67-2.61.27.07.47.11.66.18,1.1.39,1.42.29,2-.73.3-.49.6-.52.74,0,.23.87.78.89,1.44.66,2-.68,4-1.36,6-2.09.23-.08.42-.43.51-.7a7.58,7.58,0,0,0,.23-1.2l1.83.64c0-.39.07-.69.07-1,0-1.43,0-2.87,0-4.3,0-1.17.54-1.66,1.7-1.67,1.92,0,3.84,0,5.76,0a3,3,0,0,0,1-.38c-.25-.24-.45-.59-.75-.7a13.86,13.86,0,0,1-4.95-2.83,9.38,9.38,0,0,1-.06-13.4,36.18,36.18,0,0,1,7-5C919.95,5,921.47,4,923,3.11A2.94,2.94,0,0,0,924.73,0c6.34,4.52,7.55,11.34,2.4,16.79-1.73,1.83-3.59,3.53-5.38,5.3A5.77,5.77,0,0,0,920,26.85c.08,1.06.38,1.39,1.43,1.39,2.12,0,4.24,0,6.36,0a3.56,3.56,0,0,1,3.28,5c-.21.5-.49,1-.71,1.47a6.42,6.42,0,0,0-.24.85l.27.15,1.37-2c.25.58.12,1.51,1,1.41a9.63,9.63,0,0,0,1.88-.63c-.12.45-.22.89-.37,1.31s-.19.62.25.83c1.11.53,2.22,1.06,3.27,1.69s2,1.35,3,2.07l1.1-.93a6.44,6.44,0,0,0,.44,1.94c.28.45.9.69,1.46,1.08a2.11,2.11,0,0,0-.68.23c-.34.29-.88.62-.91,1-.28,3.07-2.59,4.17-5,5.2a21.3,21.3,0,0,1-2.21.67c-.29.09-.57.21-.88.33l.73,1.62-.24.19a9,9,0,0,1-.84-.59c-1-.88-1.71-.73-2.27.46a10.88,10.88,0,0,1-.79,1.2,4.71,4.71,0,0,0-.47-1.36,1.68,1.68,0,0,0-1.06-.62c-.2,0-.61.58-.61.9q-.06,6.19,0,12.38c0,.3.38.86.57.86a2.41,2.41,0,0,0,1.26-.51c.24-.18.32-.57.52-1"/><path class="cls-4" d="M0,29.69c1.1-3,3.31-5.23,5.5-7.41A115.82,115.82,0,0,1,14,14.4,41.89,41.89,0,0,1,33.69,5.16a41.25,41.25,0,0,1,15.61.53,40.51,40.51,0,0,1,15.68,7,54.77,54.77,0,0,1,10,9.65c1.6,2,3,4.08,4.54,6.09a1.46,1.46,0,0,1,0,2,52.53,52.53,0,0,1-12,13.54C61,48.85,53.74,51.6,45.52,51.05c-5.65-.38-10.4-2.74-13.36-7.78a11.33,11.33,0,0,1,2.08-14.33,10.15,10.15,0,0,1,12.57-.51c2.57,2,3.36,5.95,1.7,8.44a3.29,3.29,0,0,1-3.42,1.31c-1.34-.37-1.82-1-1.92-2.67s-.7-2.38-1.94-2.65a2.75,2.75,0,0,0-3.32,1.57,6,6,0,0,0,1.81,7.35,9.09,9.09,0,0,0,10,1.19c3.41-1.65,4.94-4.6,5.16-8.31.4-6.77-4.29-12.06-10.95-13.45A17.48,17.48,0,0,0,24.16,32.58c-2.9,8.1-2.11,15.86,2.92,22.93A27.85,27.85,0,0,0,42.85,66.15c1.41.39,2.85.69,4.27,1a3.05,3.05,0,0,1,2.56,3.5,3.29,3.29,0,0,1-3.31,2.88,24.59,24.59,0,0,1-9.27-2.24,35.25,35.25,0,0,1-15-11.17,29.24,29.24,0,0,1-6-14.39,29.9,29.9,0,0,1,2.78-17.62,23.84,23.84,0,0,1,16.4-13.07,21.88,21.88,0,0,1,19.85,4.35,17.56,17.56,0,0,1,5.36,20,25.14,25.14,0,0,1-1.64,3,43.65,43.65,0,0,0,13.35-13c-1.72-2-3.42-4-5.19-5.91a39.94,39.94,0,0,0-9.63-7.74,32.82,32.82,0,0,0-19.88-4.39A34.71,34.71,0,0,0,18.92,19,82.31,82.31,0,0,0,6.29,31.67a6.36,6.36,0,0,1-1.57,1.51A3.17,3.17,0,0,1,.45,31.76L0,30.89Z"/><g class="cls-2"><g class="cls-25"><path class="cls-4" d="M625.38,388c-.58.65-1.15,1.19-1.62,1.81a39.44,39.44,0,0,0-2.32,3.25,35.35,35.35,0,0,0-2.1,3.91c-.7,1.55-1.3,3.16-1.87,4.76-.39,1.09-.68,2.22-1,3.34-.18.67-.3,1.36-.43,2-.17.92-.35,1.85-.48,2.77-.09.67-.13,1.35-.16,2-.05,1.29-.12,2.58-.12,3.87,0,1.09.08,2.18.14,3.27a8.77,8.77,0,0,0,.13,1c0,.08.13.15.21.19a.7.7,0,0,0,.25,0H634.8c.25,0,.37-.07.39-.33.06-1,.15-2,.21-3,0-.59.07-1.19.05-1.78,0-1.27,0-2.55-.18-3.81-.17-1.54-.41-3.07-.71-4.59-.25-1.29-.56-2.58-.93-3.84a41.53,41.53,0,0,0-2.11-5.65,32.37,32.37,0,0,0-4-6.7c-.69-.87-1.45-1.7-2.2-2.58"/></g></g><g class="cls-2"><g class="cls-26"><path class="cls-4" d="M636.79,420.21a1.78,1.78,0,0,0,.25,0h22.22a.39.39,0,0,0,.41-.27c.61-1.41,1.26-2.8,1.81-4.23a37.8,37.8,0,0,0,1.24-3.78,33.47,33.47,0,0,0,.72-3.56c.14-.9.16-1.83.24-2.74,0-.32.09-.65.08-1s-.06-.9-.09-1.36c0-.18-.1-.25-.3-.23a26.28,26.28,0,0,0-4.2.75,34,34,0,0,0-7.38,2.88c-1.51.8-3,1.7-4.39,2.65a34.13,34.13,0,0,0-3.46,2.62,43.67,43.67,0,0,0-3.29,3.23c-.91,1-1.73,2-2.56,3.07-.46.58-.85,1.22-1.3,1.88"/></g></g><g class="cls-2"><g class="cls-27"><path class="cls-4" d="M613.81,420.21c-.29-.45-.54-.9-.84-1.3-.77-1-1.56-2-2.37-3a21.45,21.45,0,0,0-1.84-2c-1.13-1-2.31-2.05-3.5-3a33.13,33.13,0,0,0-4.45-3,37.37,37.37,0,0,0-6.22-3c-1.24-.45-2.51-.83-3.79-1.16-.86-.22-1.76-.32-2.64-.46-.25,0-.5-.06-.75-.09s-.5,0-.5.39c0,1,0,1.95.07,2.92a10.8,10.8,0,0,0,.14,1.29c.17,1,.33,2.08.56,3.11a39.82,39.82,0,0,0,2.28,6.78c.34.81.73,1.59,1.12,2.38a.48.48,0,0,0,.36.22h22.22l.17,0"/></g></g><g class="cls-2"><g class="cls-28"><path class="cls-4" d="M658,423.08H592.66c.22.4.4.76.63,1.09.41.59.84,1.17,1.29,1.73a.61.61,0,0,0,.43.2l60.45,0a1,1,0,0,0,1-.54c.46-.72,1-1.42,1.43-2.13a3.4,3.4,0,0,0,.18-.37"/></g></g><g class="cls-2"><g class="cls-29"><path class="cls-4" d="M653.44,429.19H597.22a8.07,8.07,0,0,0,.78.92c.67.58,1.37,1.13,2.08,1.66a1.14,1.14,0,0,0,.65.19h49.68a.54.54,0,0,0,.3-.08,13.79,13.79,0,0,0,2.72-2.61s0,0,0-.09"/></g></g><g class="cls-2"><g class="cls-30"><path class="cls-4" d="M604.29,434.91c.32.24.64.49,1,.72a31.06,31.06,0,0,0,4.59,2.68c1.39.64,2.81,1.2,4.25,1.71a27.37,27.37,0,0,0,3.17.87c.72.16,1.46.2,2.19.3h.16c.51.11.52.11.51-.43,0-1.13,0-2.26-.12-3.39-.05-.75-.21-1.5-.31-2.25,0-.25-.15-.3-.38-.3h-15l-.06.08"/></g></g><g class="cls-2"><g class="cls-31"><path class="cls-4" d="M646.52,434.83H631.44c-.46,0-.51,0-.54.48-.07.94-.14,1.88-.16,2.82s0,1.89,0,2.83c0,.32.08.37.38.29a4.23,4.23,0,0,1,.43-.06c.9-.16,1.81-.28,2.7-.49a23.54,23.54,0,0,0,2.7-.79c1.22-.44,2.42-.94,3.6-1.46a34,34,0,0,0,4.87-2.77c.33-.21.64-.44,1-.67,0,0,.07-.1.13-.18"/></g></g><g class="cls-2"><g class="cls-32"><path class="cls-4" d="M630.23,434.84h-9.7c.2.38.35.74.55,1.06.8,1.23,1.59,2.48,2.44,3.67.49.69,1.1,1.31,1.65,2,.16.19.25.14.4,0a18.34,18.34,0,0,0,2.33-2.85c.76-1.17,1.47-2.37,2.2-3.56a2.7,2.7,0,0,0,.13-.29"/></g></g><g class="cls-2"><g class="cls-33"><path class="cls-4" d="M303.25,10.45h23.94L327,11,306.11,60.93l-2.73,6.53c0,.08-.08.16-.13.25Z"/></g></g><g class="cls-2"><g class="cls-34"><path class="cls-4" d="M344.08,10.46H368V67.59l0,0L344.08,10.46"/></g></g><g class="cls-2"><g class="cls-35"><path class="cls-4" d="M335.64,31.56l15.25,36.19h-9.73a.32.32,0,0,1-.35-.23l-4.36-11a.33.33,0,0,0-.37-.25h-10.9l10.47-24.66"/></g></g><g class="cls-2"><g class="cls-36"><rect class="cls-4" x="457.42" y="262.27" width="23.16" height="23.89"/></g></g><g class="cls-2"><g class="cls-37"><rect class="cls-4" x="483.29" y="262.27" width="23.16" height="23.89"/></g></g><g class="cls-2"><g class="cls-38"><rect class="cls-4" x="457.42" y="288.26" width="23.16" height="23.89"/></g></g><g class="cls-2"><g class="cls-39"><rect class="cls-4" x="483.29" y="288.12" width="23.16" height="23.89"/></g></g><path class="cls-4" d="M763.27,408.45h2.42c.36,0,.42-.06.48-.42a5.87,5.87,0,0,1,6.24-4.87,5.78,5.78,0,0,1,4.47,2.58,5.47,5.47,0,0,1,.92,2.3c0,.22.11.41.39.41h5c.26,0,.37-.14.34-.39s-.08-.69-.14-1a11.08,11.08,0,0,0-3.25-6.21,11.61,11.61,0,0,0-17.65,1.56,11.41,11.41,0,0,0-2.07,5.64c0,.3.07.42.39.42h2.45m14.34,10.72.19-.11a11.64,11.64,0,0,0,5.74-9c0-.28-.08-.39-.36-.39h-5a.36.36,0,0,0-.41.35c0,.07,0,.14,0,.21a5.9,5.9,0,0,1-6.47,4.71,5.91,5.91,0,0,1-5.15-5c0-.2-.12-.31-.33-.31h-5.06c-.23,0-.35.11-.33.35s.06.53.1.79a11.39,11.39,0,0,0,4.35,7.4c.48.38,1,.69,1.52,1l-.22.13a11.59,11.59,0,0,0-5.79,9.6c0,.31.08.4.38.41h4.9c.32,0,.38-.07.41-.38s0-.44.09-.66a5.9,5.9,0,0,1,9.75-3.32,5.6,5.6,0,0,1,1.93,3.9c0,.37.09.46.38.46h5c.24,0,.37-.11.34-.36-.05-.53-.08-1.06-.17-1.59a11.16,11.16,0,0,0-3.55-6.53c-.69-.63-1.48-1.15-2.23-1.73M772,386.49a28.33,28.33,0,1,1-28.34,27.79A28.31,28.31,0,0,1,772,386.49"/><path class="cls-4" d="M57.07,171.37a14.13,14.13,0,0,1-9.16,5,14.47,14.47,0,0,1-15.79-10.19h27.8a14.1,14.1,0,0,1-2.85,5.21M34.9,152.55a14.12,14.12,0,0,1,9.53-5.07A14.46,14.46,0,0,1,59.89,157.7H32.09a14,14,0,0,1,2.81-5.15m37.2,5.17H68c-.17,0-.24,0-.28-.23A22.25,22.25,0,0,0,55.3,141.76a21.7,21.7,0,0,0-5.49-1.71,22.13,22.13,0,0,0-4.16-.33,21.64,21.64,0,0,0-10.14,2.64,22,22,0,0,0-10.87,13.49c-.16.54-.28,1.09-.4,1.64,0,.19-.11.23-.28.23H18.5v8.42H24c.14,0,.2,0,.23.19a22.23,22.23,0,0,0,13.14,16.07,20,20,0,0,0,5.07,1.44c.91.13,1.84.18,2.75.27l.25,0h1.09a1.87,1.87,0,0,1,.25,0,21.53,21.53,0,0,0,7.61-1.63,22.25,22.25,0,0,0,13.12-15.1c.08-.33.17-.67.23-1,0-.19.1-.23.28-.23h5.47v-8.42H72.1"/><path class="cls-4" d="M881.93,399.09c.87-.34,1.76-.67,2.62-1l6.22-2.56.5-.17L887,399.81l3.23,3.5a7.53,7.53,0,0,0,0-1.16,3.19,3.19,0,0,1,1.31-3.15c1.57-1.38,3-2.9,4.49-4.37a.43.43,0,0,1,.62-.09c3,1.61,6,3.2,8.93,4.81a1,1,0,0,1,.42.53q3.53,13.41,7,26.83c.07.29.05.47-.24.63-.92.51-1.83,1.05-2.8,1.62l-13.67-21,3.37-4.4c.7.52,1.44.84,1.84,1.73,2.77,6.15,5.59,12.27,8.4,18.39a1.23,1.23,0,0,0,.3.45c0-.11,0-.22-.07-.32q-3.29-10.32-6.6-20.63a.88.88,0,0,0-.31-.46c-1.51-.92-3-1.83-4.66-2.8-.67.7-1.33,1.42-2,2.11q-2.18,2.18-4.39,4.33a.77.77,0,0,0-.24.78c.2,1.05.37,2.11.58,3.3l-2-2c-.23-.23-.45-.47-.69-.7a13,13,0,0,1-3.19-4l-.12,0a23.43,23.43,0,0,1-.53,2.32,1.62,1.62,0,0,0,.54,1.82c1.27,1.31,2.47,2.69,3.7,4l.2.25h-1.53c-.72,0-1.43.06-2.15,0a1,1,0,0,1-.66-.29c-1.3-1.35-2.58-2.72-3.87-4.09a3.68,3.68,0,0,0-.33-.28Z"/><path class="cls-4" d="M956,407.62l-2.71,2.81c-.53.55-1,1.13-1.57,1.68a.53.53,0,0,1-.33.17h-3.84l0-.14,1.79-2,2.52-2.74a.66.66,0,0,0,.19-.69c-.24-1-.43-2-.65-3-.15.23-.27.38-.36.54a10.79,10.79,0,0,1-2.11,2.67c-1.16,1.1-2.27,2.25-3.48,3.45.16-.95.3-1.8.45-2.64A6.14,6.14,0,0,0,946,407a.71.71,0,0,0-.14-.48c-2.19-2.17-4.39-4.34-6.61-6.53-1,.62-2.06,1.32-3.15,1.84a4.16,4.16,0,0,0-2.26,2.8c-2,6.4-4,12.78-6.08,19.16a.56.56,0,0,0,0,.39c.46-1,.93-2,1.39-3q3.69-8.07,7.36-16.14c.35-.78,1.13-1,1.7-1.51l2.66,3.46c.25.32.64.65.65,1s-.37.65-.59,1L928.2,428.52l-.29.43c-1-.58-2-1.13-2.92-1.72-.1-.06-.14-.34-.1-.49q.9-3.54,1.84-7.07,2.58-9.84,5.16-19.68a1,1,0,0,1,.52-.69c3.06-1.62,6.11-3.27,9.19-4.92l1.89,1.83c1.32,1.29,2.64,2.58,3.94,3.88a.94.94,0,0,1,.24.59c0,.83,0,1.65,0,2.63l3.23-3.49-4.17-4.39,0-.06,3,1.22,5.81,2.39a3.17,3.17,0,0,0,.42.11Z"/><path class="cls-4" d="M918.18,452.2c-.08-1.33-.16-2.66-.25-4-.11-1.62-.22-3.25-.34-4.87,0-.44-.06-.87-.1-1.35h2.94l-.79,10.21Z"/><path class="cls-4" d="M917.87,377.44c-.28.85-.55,1.63-.8,2.42a1,1,0,0,0,0,.6c.61,1.63,1.24,3.24,1.9,4.94.09-.18.16-.3.21-.42.56-1.45,1.13-2.9,1.66-4.36a1.44,1.44,0,0,0,0-.83c-.22-.78-.49-1.54-.76-2.35,1,0,1.87,0,2.78,0a1,1,0,0,1,.45.16q4.17,2.38,8.33,4.79a.77.77,0,0,1,.32.56q0,4.46,0,8.91a.68.68,0,0,1-.21.49c-.84.62-1.7,1.2-2.68,1.88,0-.84,0-1.59,0-2.32a1.27,1.27,0,0,0-.48-1.09c-1.18-1.11-2.33-2.24-3.59-3.45l1,3.29c.23.78.44,1.56.69,2.33a.42.42,0,0,1-.21.56L919,398.5l-5.58-3.68c-.61-.4-1.21-.82-1.84-1.21a.48.48,0,0,1-.25-.67c.53-1.74,1-3.49,1.53-5.23,0-.07,0-.15.08-.31-1.34,1.29-2.62,2.52-3.89,3.77a.75.75,0,0,0-.14.48c0,.82,0,1.65,0,2.59-1-.69-1.87-1.3-2.74-1.92a.58.58,0,0,1-.15-.42c0-3,0-6,0-9a.58.58,0,0,1,.35-.57l8.35-4.77a1,1,0,0,1,.45-.15c.9,0,1.8,0,2.77,0"/><path class="cls-4" d="M911.11,395.85l4.64,3.22c.51.35,1,.7,1.52,1.07a.75.75,0,0,1,.3.45c.15,1.93.27,3.87.41,5.8s.31,4.06.45,6.09c.11,1.56.22,3.12.33,4.68a11.9,11.9,0,0,0,.25,1.92c0-.47.1-.94.13-1.41.14-2,.27-4.06.42-6.1s.32-4.09.47-6.14c.11-1.54.2-3.09.32-4.63a1,1,0,0,1,.3-.65c2-1.39,4-2.76,5.93-4.13l.23-.14-5.14,26.79h-5.42l-5.15-26.82"/><path class="cls-4" d="M931.24,442c-1.42,0-2.77,0-4.12,0a1,1,0,0,1-.48-.2,9.47,9.47,0,0,0-2.11-1.37,8.58,8.58,0,0,0-2.48-.06c-2.74,0-5.48,0-8.22,0a1.36,1.36,0,0,0-.84.27,5.11,5.11,0,0,1-4.33,1.38c-.62-.08-1.26,0-1.92-.11l1.71-1.16c1.52-1,3-2,4.55-3a1,1,0,0,1,.54-.16h10.92a1,1,0,0,1,.5.14l6.21,4.17s0,.05.1.15"/><path class="cls-4" d="M936.67,429.52l2.61,3-7.17,8.9-1.26-.88,5.82-11.06"/><path class="cls-4" d="M898.64,432.56l2.61-3,5.82,11.05-1.26.89-7.18-8.9"/><path class="cls-4" d="M908.79,436.65a8.45,8.45,0,0,1-1-.19,1.31,1.31,0,0,1-.75-2.18,5,5,0,0,1,1.48-1.23,3.92,3.92,0,0,1,2.74-.45,1.44,1.44,0,0,1,.86,2.58,4.82,4.82,0,0,1-3.32,1.47"/><path class="cls-4" d="M929.12,436.61a4.55,4.55,0,0,1-3.31-1.43,1.52,1.52,0,0,1-.49-1.55,1.54,1.54,0,0,1,1.37-1,4.43,4.43,0,0,1,3.82,1.18,1.62,1.62,0,0,1,.62,1.83c-.27.73-.95.87-1.62,1a2.56,2.56,0,0,1-.39,0"/><path class="cls-4" d="M914.72,432.92c1-.51,2.07-.92,3-1.49a2.2,2.2,0,0,1,2.53,0c.91.54,1.91,1,2.95,1.45-1.42.71-2.76,1.38-4.11,2a.46.46,0,0,1-.35,0l-4-2"/><path class="cls-4" d="M921.74,424.41c-.6,1.29-1.17,2.54-1.77,3.78-.14.29-1.83.24-2-.05-.6-1.22-1.18-2.45-1.8-3.73Z"/><path class="cls-4" d="M922.94,449.69h-1.3v-7.63l.92.62a2.59,2.59,0,0,0,.41.27c.82.35,1,.92.81,1.78-.3,1.48-.48,3-.71,4.47,0,.16-.08.31-.12.48"/><path class="cls-4" d="M916.28,449.69H915c-.13-.82-.27-1.64-.4-2.47-.16-1-.3-2-.47-3a.74.74,0,0,1,.37-.89c.61-.36,1.18-.8,1.82-1.24Z"/><g class="cls-2"><g class="cls-40"><path class="cls-4" d="M644.71,35.13c.56.14,1.07.25,1.56.4a11.73,11.73,0,0,1,1.25.49.48.48,0,0,1,.24.27,10.59,10.59,0,0,0,2.76,4.46,10.74,10.74,0,0,0,8.35,3.05,10.43,10.43,0,0,0,5.54-2,10.76,10.76,0,0,0,4.16-6.2,10.1,10.1,0,0,0,.29-3.19,10.82,10.82,0,0,0-8.37-9.87,10.47,10.47,0,0,0-3.09-.26,10.58,10.58,0,0,0-5.86,2.18,10.7,10.7,0,0,0-4,6c-.09.38-.15.76-.23,1.12L644.69,31A13.52,13.52,0,0,1,656,19.67a13.48,13.48,0,0,1,15.46,11.59,13.2,13.2,0,0,1-3.18,10.6,13.53,13.53,0,0,1-19.68.82,13.28,13.28,0,0,1-3.9-7.55"/></g></g><g class="cls-2"><g class="cls-41"><path class="cls-4" d="M603.36,45.66a9.84,9.84,0,0,1,.29-2.94.39.39,0,0,1,.18-.21,10.77,10.77,0,0,0,5.28-6.9,10.26,10.26,0,0,0,.18-4.2,10.82,10.82,0,0,0-8.41-9,10.19,10.19,0,0,0-2.85-.22,10.64,10.64,0,0,0-5.94,2.19,10.8,10.8,0,0,0-2.21,14.94A10.53,10.53,0,0,0,596,43.5a10.78,10.78,0,0,0,2.94.32h.4v2.67A13.5,13.5,0,0,1,595.19,20a13.51,13.51,0,0,1,8.17,25.71"/></g></g><g class="cls-2"><g class="cls-42"><path class="cls-4" d="M617.63,31.58,615,31a13.5,13.5,0,1,1,18.08,14.62,11,11,0,0,1,0-1.16c.06-.58.17-1.16.27-1.73a.44.44,0,0,1,.19-.27,10.81,10.81,0,0,0,5.34-7.13,10,10,0,0,0,.19-3.53,10.69,10.69,0,0,0-2.49-5.79,10.8,10.8,0,0,0-15-1.43,10.62,10.62,0,0,0-3.77,6.07c0,.15-.06.3-.09.45l-.07.44"/></g></g><g class="cls-2"><g class="cls-43"><path class="cls-4" d="M638.45,32.56c0,.15,0,.29,0,.43a10.44,10.44,0,0,1-.32,2.51.39.39,0,0,1-.18.21,10.76,10.76,0,0,0-4.7,5.21,10.4,10.4,0,0,0-.86,4.88A10.66,10.66,0,0,0,634.83,52a10.8,10.8,0,0,0,14,2.4,10.65,10.65,0,0,0,5-7.23c0-.18.06-.37.09-.54l2.61.53a13.49,13.49,0,1,1-18.08-14.61"/></g></g><g class="cls-2"><g class="cls-44"><path class="cls-4" d="M608.72,32.58a9.7,9.7,0,0,1-.29,2.93.4.4,0,0,1-.19.21A10.62,10.62,0,0,0,603,42.62a10.46,10.46,0,0,0,2,9.19,10.26,10.26,0,0,0,6.3,4A10.84,10.84,0,0,0,624.16,47l.05-.3,2.62.53a12.94,12.94,0,0,1-2,5.36,13.2,13.2,0,0,1-8.35,5.8,13.49,13.49,0,0,1-7.72-25.78"/></g></g><g class="cls-2"><g class="cls-45"><path class="cls-4" d="M615,35.15c.41.09.76.13,1.1.24.58.19,1.14.4,1.7.63a.5.5,0,0,1,.26.28,10.56,10.56,0,0,0,1.88,3.49,10.78,10.78,0,0,0,5.4,3.62,10.53,10.53,0,0,0,3.43.42h.31v2.72a13.27,13.27,0,0,1-8.82-2.69,13.47,13.47,0,0,1-5.25-8.7"/></g></g><g class="cls-2"><g class="cls-46"><path class="cls-4" d="M642.5,34.44V31.72a13.46,13.46,0,0,1,14,11.34,10.1,10.1,0,0,1-1-.22c-.59-.19-1.18-.41-1.76-.64a.47.47,0,0,1-.24-.27,10.8,10.8,0,0,0-5.13-6.22,9.86,9.86,0,0,0-4.07-1.26c-.61,0-1.22,0-1.81,0"/></g></g><g class="cls-2"><g class="cls-47"><path class="cls-4" d="M626.78,43a9.7,9.7,0,0,1-2.78-.86.43.43,0,0,1-.19-.23,10.71,10.71,0,0,0-7.65-7.23A13.24,13.24,0,0,0,614,34.4a11.47,11.47,0,0,0-1.19,0V31.73a13.4,13.4,0,0,1,14,11.3"/></g></g><g class="cls-2"><g class="cls-48"><path class="cls-4" d="M610.05,176.59c.62-1.31,1.17-2.68,1.89-3.95a43,43,0,0,1,2.51-3.83,73.5,73.5,0,0,1,7.81-8.89c1.32-1.32,2.64-2.65,3.93-4,.4-.41.69-.5,1.13,0,2.34,2.44,4.74,4.83,7,7.3,1.55,1.66,3,3.43,4.46,5.17a23.6,23.6,0,0,1,4.66,8.4,3.74,3.74,0,0,0,.3-.81,17,17,0,0,0-.4-6,32.81,32.81,0,0,0-4.77-9.53,58.08,58.08,0,0,0-7.31-8.71c-.31-.31-.33-.56,0-.87a27.33,27.33,0,0,1,8.47-5.53,3.08,3.08,0,0,1,3.21.75,22.73,22.73,0,0,1,6.22,18.8,22.41,22.41,0,0,1-2.14,7.11,21.44,21.44,0,0,1-3.36,4.92,24.07,24.07,0,0,1-4.17,3.69,22.45,22.45,0,0,1-6.38,3,21.73,21.73,0,0,1-7.29.92,22.69,22.69,0,0,1-8.2-1.9,22.65,22.65,0,0,1-13.5-22.25,22.08,22.08,0,0,1,1.9-7.66,22.74,22.74,0,0,1,4-6.08c1.42-1.54,2.67-1.7,4.54-1.07,3,1,5.36,3.07,7.61,5.22.23.21.37.4.05.76-1.9,2.2-3.86,4.37-5.6,6.69a50.58,50.58,0,0,0-3.95,6.19,25.92,25.92,0,0,0-1.95,5,38.46,38.46,0,0,0-.93,4.71,5.25,5.25,0,0,0,.2,2.47"/></g></g><g class="cls-2"><g class="cls-49"><path class="cls-4" d="M615.1,142.62c6.13-4.3,16.68-4.51,23.36-.05a2.25,2.25,0,0,1-.43,0A9.34,9.34,0,0,0,632.4,144c-1.78,1-3.48,2.15-5.2,3.26a.68.68,0,0,1-.88,0c-1.34-.92-2.69-1.85-4.08-2.71a13.85,13.85,0,0,0-5.36-2.11,4.48,4.48,0,0,0-1,.05l-.8.1"/></g></g><path class="cls-4" d="M771.62,277.17a14.29,14.29,0,0,0,.07,20.12,14.36,14.36,0,0,0-.07-20.12M742.17,297.9l6.13-3.13a15,15,0,0,0,17.38,6.39c-6.86-9.29-6.83-18.55-.12-27.86-3.68-1.71-12.62-1.32-17.44,6.55L742,276.7c.58-.86,1.08-1.69,1.68-2.45a21.44,21.44,0,0,1,15.1-8.46,20.72,20.72,0,0,1,12.42,2.45,1,1,0,0,0,1.06-.09,21.78,21.78,0,0,1,28.8,8.16c.06.11.12.23.21.41l-6.11,3.14A14.94,14.94,0,0,0,785,272.76a14.27,14.27,0,0,0-7.45.49,21.44,21.44,0,0,1-.08,27.87A15,15,0,0,0,795,294.77l6.24,3.18c-.85,1.13-1.59,2.25-2.46,3.26a21.7,21.7,0,0,1-26.6,5,1,1,0,0,0-1.07,0,21.78,21.78,0,0,1-28.57-7.75c-.11-.18-.21-.37-.35-.62"/><g class="cls-2"><g class="cls-50"><path class="cls-4" d="M40.34,302.5l-.48-1.14L33.4,285.79q-1.71-4.11-3.41-8.23a7.28,7.28,0,0,1-.49-2,8.05,8.05,0,0,1,1-5,7.66,7.66,0,0,1,4.89-3.65,7.12,7.12,0,0,1,2.46-.19,7.24,7.24,0,0,1,4.24,1.81,7.66,7.66,0,0,1,2.74,6.61c-.06,1.08-.3,2.13-.47,3.19s-.38,2.41-.58,3.61-.4,2.47-.61,3.7-.4,2.39-.6,3.59c-.16,1-.31,1.94-.47,2.9s-.33,1.93-.49,2.9-.31,1.94-.47,2.9-.33,1.93-.49,2.9c-.09.56-.18,1.13-.27,1.69h0"/></g></g><g class="cls-2"><g class="cls-51"><path class="cls-4" d="M49.84,305.23l.82-2q4.83-11.41,9.66-22.81a6.65,6.65,0,0,1,1.51-2.08,7.52,7.52,0,0,1,4-2.13A7.41,7.41,0,0,1,72,277.8a7.51,7.51,0,0,1,2.77,4.45,9.43,9.43,0,0,1,.14,2.79,7.57,7.57,0,0,1-3.14,5.45c-1.09.84-2.26,1.57-3.41,2.34L50,305.12l-.17.11"/></g></g><g class="cls-2"><g class="cls-52"><path class="cls-4" d="M47.75,307.75l.31-.21,21-14.13a8.11,8.11,0,0,1,2.86-1.27,7.5,7.5,0,0,1,6.34,1.48,7.29,7.29,0,0,1,2.85,4.64,7.91,7.91,0,0,1-2.37,7.52,7.13,7.13,0,0,1-3.82,1.89,7.71,7.71,0,0,1-1.32.1H47.76l0,0"/></g></g><g class="cls-2"><g class="cls-53"><path class="cls-4" d="M40.36,305.24l-2.55-1.74q-9.67-6.62-19.33-13.24a6.82,6.82,0,0,1-2.09-2.5,7.92,7.92,0,0,1-.85-2.84,8.08,8.08,0,0,1,4.78-8.26,7.22,7.22,0,0,1,3.22-.54,7.52,7.52,0,0,1,5.93,3.22,11.78,11.78,0,0,1,1.32,2.59L39.9,304l.5,1.2,0,0"/></g></g><g class="cls-2"><g class="cls-54"><path class="cls-4" d="M42.54,307.78h-22c-1.44,0-2.88,0-4.32,0a6.52,6.52,0,0,1-3.22-1,7.64,7.64,0,0,1-3.81-5.7,7.79,7.79,0,0,1,1.31-5.79,7.69,7.69,0,0,1,10.85-1.85l17.43,11.72,3.67,2.47.14.1v0"/></g></g><g class="cls-2"><g class="cls-55"><path class="cls-4" d="M45.76,275a7.69,7.69,0,0,1,.87-4.29,7.46,7.46,0,0,1,5.17-3.92,7.85,7.85,0,0,1,9.3,8.13,9.89,9.89,0,0,1-.84,3.28q-3.72,8.75-7.41,17.51l-2.78,6.58-.06.12a.31.31,0,0,1,0-.08q-.29-1.76-.58-3.52t-.52-3.3c-.15-.94-.28-1.88-.43-2.82s-.3-1.88-.45-2.82-.26-1.72-.39-2.58-.3-1.88-.45-2.82-.26-1.72-.39-2.58-.25-1.55-.37-2.33a3.11,3.11,0,0,1,1.47-3.21l1.25-.75c.18-.11.2-.26,0-.36a1.31,1.31,0,0,0-.57-.21c-.86,0-1.72,0-2.59,0h-.22"/></g></g><g class="cls-2"><g class="cls-56"><path class="cls-4" d="M498.81,394.46a52.71,52.71,0,0,1-35.69,35.4,25.41,25.41,0,0,1,35.69-35.4"/></g></g><g class="cls-2"><g class="cls-57"><path class="cls-4" d="M464.1,431.12l2.18-.66c3.11-.91,6.25-1.71,9.42-2.42s6.37-1.41,9.54-2.14a55.85,55.85,0,0,0,6.66-1.92,25.26,25.26,0,0,0,6.41-3.3A17.78,17.78,0,0,0,505.36,410a17.08,17.08,0,0,0,.32-5.42,18,18,0,0,0-.6-3.17s0-.08,0-.16a25.41,25.41,0,0,1-40.94,29.93"/></g></g><g class="cls-2"><g class="cls-58"><path class="cls-4" d="M337.58,434.36a10.12,10.12,0,0,1-4.45-1,8,8,0,0,1-4.23-6c-.25-1.28-.32-2.6-.59-3.88a6.39,6.39,0,0,0-2.22-3.76,4.7,4.7,0,0,0-6.66.9,8.54,8.54,0,0,0-2,5.39,12.47,12.47,0,0,1-1,4.84,5.68,5.68,0,0,1-5.49,3.63,4.91,4.91,0,0,1-4.12-2.24,9.26,9.26,0,0,1-1.65-5.24,8.17,8.17,0,0,0-.76-3.48,4,4,0,0,0-2.75-2.33,4.48,4.48,0,0,0-1-.06,3.48,3.48,0,0,1-3.2-1.75,8,8,0,0,1-1.17-4.13,10.07,10.07,0,0,1,1.91-6.41,5.06,5.06,0,0,1,3.58-2.17,3.46,3.46,0,0,1,3.49,1.63,8.84,8.84,0,0,1,1.28,4.3,8.68,8.68,0,0,0,1.38,4.17,3.39,3.39,0,0,0,5.1.88,6.45,6.45,0,0,0,2.4-3.81,36.82,36.82,0,0,0,.69-4.28,8.45,8.45,0,0,1,6.48-7.5,5.59,5.59,0,0,1,6.77,4,22.18,22.18,0,0,1,.59,3.25,8.24,8.24,0,0,0,1.92,4.5,5.15,5.15,0,0,0,4.42,1.59c4.05-.32,6.14-3.23,6.74-6.54a33.59,33.59,0,0,0,.29-3.53,10.14,10.14,0,0,1,6.62-9.12,11.69,11.69,0,0,1,7-.79,7.6,7.6,0,0,1,6.21,5.86,11.88,11.88,0,0,1-.3,7.67c-1.42,3.56-4.22,5.46-7.85,6.3a22.83,22.83,0,0,0-3.42.87,8.21,8.21,0,0,0-5.4,6.65,29.94,29.94,0,0,0-.14,3.07,11.09,11.09,0,0,1-1,4.34,7,7,0,0,1-5.54,4c-.62.1-1.26.12-1.88.18"/></g></g><g class="cls-2"><g class="cls-59"><path class="cls-4" d="M380.06,425.35a8.45,8.45,0,0,1-5.4,8,11.91,11.91,0,0,1-12-1,9.16,9.16,0,0,1-4-8.46c.19-4.14,2.45-6.82,6.26-8.22a12.26,12.26,0,0,1,8.75,0,9.9,9.9,0,0,1,6.4,9.69"/></g></g><g class="cls-2"><g class="cls-60"><path class="cls-4" d="M747.84,37.31c.13-.9.24-1.8.41-2.7a24,24,0,0,1,3.6-8.92,1.7,1.7,0,0,1,.13-.14c.09.13.17.24.24.35l9.63,16.48a8.91,8.91,0,0,1,.41.85,10.62,10.62,0,0,0,8.78,6.6,10.09,10.09,0,0,0,5.53-.84l.53-.23c-.11.21-.17.35-.25.48Q772.93,56,769,62.79a.68.68,0,0,1-.83.39A24.45,24.45,0,0,1,748.34,44c-.18-.92-.27-1.87-.41-2.8,0-.15-.06-.29-.09-.43Z"/></g></g><g class="cls-2"><g class="cls-61"><path class="cls-4" d="M774,14.7c.85.13,1.7.24,2.54.39a23.8,23.8,0,0,1,10.79,4.86,24.24,24.24,0,0,1,6.54,7.92c.06.11.1.23.19.44h-.68c-6.93,0-13.87,0-20.8,0a10.91,10.91,0,0,0-6.75,2.09A10.71,10.71,0,0,0,761.48,38s0,.09,0,.22c-.12-.18-.21-.31-.29-.44q-3.93-6.71-7.86-13.42a.53.53,0,0,1,.06-.73,24.24,24.24,0,0,1,15-8.63c.68-.11,1.37-.2,2.05-.3Z"/></g></g><g class="cls-2"><g class="cls-62"><path class="cls-4" d="M770.6,63.45l1.55-2.69,9.36-16.12a10.79,10.79,0,0,0-3.09-14.4l-.22-.18c.21,0,.34,0,.48,0h15.78a.53.53,0,0,1,.6.41c3.12,9,1.73,17.28-4.4,24.62a23.55,23.55,0,0,1-14.32,8.12,23.88,23.88,0,0,1-5.74.29"/></g></g><g class="cls-2"><g class="cls-63"><path class="cls-4" d="M772.25,30a9.07,9.07,0,1,1-9.08,9,9,9,0,0,1,9.08-9"/></g></g><path class="cls-4" d="M205.91,434.33H193.77l-.1-.06-2.91-1.41L174.51,425a.63.63,0,0,0-.26-.06H158v-6.31h16.41a.46.46,0,0,0,.19,0l14-6.83,1-.48v0L158,411.1V411q0-2.22,0-4.44c0-.06,0-.13,0-.19v-1.57h.16l14.91,0,16.39,0h.12c-6.69-3.1-13.4-6.16-20.07-9.29a2.6,2.6,0,0,1,.42,0c1.27,0,2.55,0,3.82,0h10.13a.46.46,0,0,1,.2,0l8,3.88,11.29,5.46a.53.53,0,0,0,.23.05h16.27v1.91c0,.06,0,.11,0,.17q0,2.07,0,4.15v.15H219l-15.61.1a.61.61,0,0,0-.25.06l-14.41,7-.49.24v0l31.52.1v.14q0,2,0,4.07c0,.06,0,.12,0,.18v1.86h-.14l-31.53.05h-.08c6.71,3.1,13.44,6.16,20.14,9.29a.7.7,0,0,1-.2,0l-2,0-.16,0"/><path class="cls-4" d="M44.88,434.68c-1.41.09-2.84.06-4.22.29a21,21,0,0,0-4.47,1.13c-1.79.72-1.87,2.2-.33,3.37a5.33,5.33,0,0,0,.83.51,17.55,17.55,0,0,0,7.51,1.58,17.91,17.91,0,0,0,7.29-1A7.79,7.79,0,0,0,54,438.91a1.55,1.55,0,0,0-.27-2.48,5.92,5.92,0,0,0-1.65-.85,24.18,24.18,0,0,0-7.17-.91m-10.23-7.24-3.76-31.29-.88-.2a3.18,3.18,0,0,1-2.55-3.24A3.25,3.25,0,0,1,30,389.45a3.32,3.32,0,0,1,3.7,1.73,3.26,3.26,0,0,1-.82,4.06.94.94,0,0,0-.35,1.22q4.2,14.32,8.37,28.65a1.37,1.37,0,0,0,.32.62l3-33.28a3.36,3.36,0,0,1-2.45-1.94,4.8,4.8,0,0,1-.21-2.22,3.14,3.14,0,0,1,3.12-2.5A3.25,3.25,0,0,1,48,388.22c.47,1.71-.22,3-2.3,4.19l3.72,34,.15,0c.19-.74.4-1.47.58-2.21q3.41-14,6.81-27.9c.12-.48.11-.76-.39-1a3.25,3.25,0,0,1-1.45-3.94,3.34,3.34,0,1,1,4.27,4.26c-.25.09-.51.16-.83.26l-2.3,31.6.14.05,10.92-23.58c-1.6-2.12-1.8-3.49-.72-4.91a3.34,3.34,0,0,1,3.94-1.08,3.38,3.38,0,0,1,2,3.65c-.23,1.63-1.41,2.56-3.68,2.88l-3.48,12q-3,10.47-6,20.94a6.8,6.8,0,0,1-3.75,4.18,23.41,23.41,0,0,1-12.19,2.23,20.66,20.66,0,0,1-8.56-2.05A7.36,7.36,0,0,1,31,437.24c-3.38-10.39-6.85-20.75-10.29-31.12-.08-.23-.17-.45-.18-.47a11.41,11.41,0,0,1-2.51-.74,3.26,3.26,0,0,1-1-4.69,3.34,3.34,0,0,1,4.69-.82,3.3,3.3,0,0,1,.65,4.76,1,1,0,0,0-.09,1.4q6,10.66,11.9,21.35c.11.2.25.39.37.58l.12,0"/></g></g></svg>