<svg xmlns="http://www.w3.org/2000/svg" xmlns:xlink="http://www.w3.org/1999/xlink" viewBox="0 0 304.6 379.05"><defs><style>.cls-1{fill:none;}.cls-2{opacity:0.9;}.cls-3{clip-path:url(#clip-path);}.cls-10,.cls-13,.cls-16,.cls-29,.cls-4,.cls-6{font-size:4.65px;}.cls-10,.cls-13,.cls-16,.cls-29,.cls-33,.cls-4,.cls-41,.cls-42,.cls-6{fill:#231f20;}.cls-10,.cls-13,.cls-16,.cls-29,.cls-33,.cls-4,.cls-42,.cls-6{font-family:ProximaNova-Regular, Proxima Nova;}.cls-5{letter-spacing:-0.04em;}.cls-15,.cls-6{letter-spacing:-0.03em;}.cls-10,.cls-7{letter-spacing:-0.02em;}.cls-13,.cls-8{letter-spacing:-0.02em;}.cls-9{letter-spacing:0em;}.cls-11{letter-spacing:-0.04em;}.cls-12{letter-spacing:0em;}.cls-14,.cls-16{letter-spacing:-0.02em;}.cls-17{letter-spacing:-0.03em;}.cls-18{letter-spacing:-0.04em;}.cls-19{letter-spacing:-0.02em;}.cls-20,.cls-29{letter-spacing:-0.02em;}.cls-21{letter-spacing:-0.03em;}.cls-22{letter-spacing:-0.04em;}.cls-23{letter-spacing:-0.02em;}.cls-24{letter-spacing:-0.03em;}.cls-25{letter-spacing:-0.06em;}.cls-26{letter-spacing:-0.04em;}.cls-27{letter-spacing:-0.02em;}.cls-28{letter-spacing:-0.04em;}.cls-30{letter-spacing:-0.04em;}.cls-31{letter-spacing:-0.02em;}.cls-32{letter-spacing:-0.03em;}.cls-33{font-size:4.79px;}.cls-34{letter-spacing:-0.02em;}.cls-35{letter-spacing:-0.04em;}.cls-36{letter-spacing:-0.04em;}.cls-37{letter-spacing:-0.02em;}.cls-38{letter-spacing:-0.02em;}.cls-39{letter-spacing:-0.04em;}.cls-40{clip-path:url(#clip-path-2);}.cls-42{font-size:17.12px;}.cls-43{clip-path:url(#clip-path-3);}</style><clipPath id="clip-path" transform="translate(-1.74 -2.02)"><rect class="cls-1" width="157.37" height="305.49"/></clipPath><clipPath id="clip-path-2" transform="translate(-1.74 -2.02)"><rect class="cls-1" x="154.62" y="2.06" width="152.92" height="303.43"/></clipPath><clipPath id="clip-path-3" transform="translate(-1.74 -2.02)"><rect class="cls-1" x="86.84" y="361.73" width="18.22" height="17.45"/></clipPath></defs><title>Asset 39</title><g id="Layer_2" data-name="Layer 2"><g id="Layer_1-2" data-name="Layer 1"><g class="cls-2"><g class="cls-3"><text class="cls-4" transform="translate(145.86 3.88)"><tspan class="cls-5">3</tspan><tspan x="2.41" y="0">. </tspan></text><text class="cls-6" transform="translate(112.26 9.69)">1<tspan class="cls-7" x="1.42" y="0">4</tspan><tspan class="cls-8" x="3.9" y="0">159265358979</tspan><tspan class="cls-9" x="34.07" y="0">3</tspan></text><text class="cls-4" transform="translate(97.7 15.5)"><tspan class="cls-8">2384626433832795028</tspan><tspan x="49.16" y="0">8</tspan></text><text class="cls-10" transform="translate(83.12 21.32)">4<tspan class="cls-8" x="2.48" y="0">197169399375105 8209</tspan><tspan class="cls-11" x="49.73" y="0">7</tspan><tspan class="cls-8" x="51.92" y="0">4944</tspan><tspan class="cls-12" x="62.1" y="0">5</tspan></text><text class="cls-13" transform="translate(71.29 27.13)">92307816406286208998628034825<tspan class="cls-9" x="75.06" y="0">3</tspan></text><text class="cls-4" transform="translate(64.96 32.94)"><tspan class="cls-14">4211706798 2</tspan><tspan class="cls-15" x="27.14" y="0">1</tspan><tspan class="cls-14" x="28.57" y="0">48086513282306647093</tspan><tspan x="79.5" y="0">8</tspan></text><text class="cls-4" transform="translate(55.58 38.75)"><tspan class="cls-8">446095505822317253594081284 8111</tspan><tspan class="cls-11" x="76.48" y="0">7</tspan><tspan class="cls-8" x="78.67" y="0">4502</tspan><tspan x="89.24" y="0">8</tspan></text><text class="cls-4" transform="translate(50.89 44.57)"><tspan class="cls-7">4</tspan><tspan class="cls-8" x="2.48" y="0">1027019385211055596446229489549303819</tspan><tspan x="93.78" y="0">6</tspan></text><text class="cls-16" transform="translate(42.35 50.38)">4 4288109756659334461284756482337867831652<tspan class="cls-9" x="103.11" y="0">7</tspan></text><text class="cls-4" transform="translate(38.88 56.19)"><tspan class="cls-8">1201909</tspan><tspan class="cls-17" x="16.46" y="0">1</tspan><tspan class="cls-8" x="17.88" y="0">4 564856692346034861045432664821339</tspan><tspan x="105.24" y="0">3</tspan></text><text class="cls-16" transform="translate(32.52 62.01)">607260<tspan class="cls-18" x="15.76" y="0">2</tspan><tspan x="18.3" y="0">49</tspan><tspan class="cls-15" x="23.46" y="0">1</tspan><tspan class="cls-19" x="24.88" y="0">4</tspan><tspan class="cls-20" x="27.36" y="0">12737</tspan><tspan class="cls-21" x="38.61" y="0"> </tspan><tspan class="cls-18" x="39.7" y="0">2</tspan><tspan x="42.24" y="0">45870066063155881</tspan><tspan class="cls-22" x="84.53" y="0">7</tspan><tspan x="86.72" y="0">4881520920</tspan><tspan class="cls-9" x="112.03" y="0">9</tspan></text><text class="cls-4" transform="translate(28.27 67.82)"><tspan class="cls-14">62829254091715364367 89259036001133053054882046</tspan><tspan x="116.72" y="0">6</tspan></text><text class="cls-4" transform="translate(25.53 73.63)"><tspan class="cls-20">52138</tspan><tspan class="cls-19" x="11.91" y="0">4</tspan><tspan class="cls-15" x="14.39" y="0">1</tspan><tspan class="cls-14" x="15.81" y="0">469519</tspan><tspan class="cls-7" x="30.41" y="0">4</tspan><tspan class="cls-23" x="32.89" y="0">151160943 30572703657595919530921861</tspan><tspan x="118.36" y="0">1</tspan></text><text class="cls-4" transform="translate(20.48 79.45)"><tspan class="cls-8">73819326117931051185480</tspan><tspan class="cls-24" x="52.86" y="0"> </tspan><tspan class="cls-22" x="53.94" y="0">7</tspan><tspan class="cls-20" x="56.14" y="0">4462379962</tspan><tspan class="cls-22" x="81.89" y="0">7</tspan><tspan class="cls-8" x="84.09" y="0">495673518857527</tspan><tspan class="cls-18" x="121.33" y="0">2</tspan><tspan x="123.87" y="0">4</tspan></text><text class="cls-13" transform="translate(16.86 85.26)">891227938183011949129<tspan class="cls-25" x="49.11" y="0"> </tspan><tspan x="50.04" y="0">83367336</tspan><tspan class="cls-18" x="70.29" y="0">2</tspan><tspan x="72.83" y="0">440656643086021394946</tspan><tspan class="cls-9" x="126.67" y="0">3</tspan></text><text class="cls-4" transform="translate(14.64 91.07)"><tspan class="cls-14">952</tspan><tspan class="cls-18" x="7.95" y="0">2</tspan><tspan class="cls-14" x="10.49" y="0">473719070217986 09437027705392171762931767523846</tspan><tspan class="cls-22" x="125.73" y="0">7</tspan><tspan class="cls-14" x="127.93" y="0">4</tspan><tspan x="130.43" y="0">8</tspan></text><text class="cls-4" transform="translate(13.65 96.88)"><tspan class="cls-8">184676694051320 00568127</tspan><tspan class="cls-15" x="57.88" y="0">1</tspan><tspan class="cls-8" x="59.3" y="0">45263560827785771342757789609</tspan><tspan x="132.18" y="0">1</tspan></text><text class="cls-4" transform="translate(10.34 102.7)"><tspan class="cls-8">73637178721 4684409012</tspan><tspan class="cls-26" x="51.35" y="0">2</tspan><tspan class="cls-8" x="53.9" y="0">4953430</tspan><tspan class="cls-15" x="71.99" y="0">1</tspan><tspan class="cls-8" x="73.41" y="0">465495853710507922796892</tspan><tspan x="134.61" y="0">5</tspan></text><text class="cls-4" transform="translate(8.56 108.51)"><tspan class="cls-8">892354 2019956112129021960864034</tspan><tspan class="cls-27" x="77.17" y="0">4</tspan><tspan class="cls-8" x="79.65" y="0">181598136297</tspan><tspan class="cls-11" x="107.44" y="0">7</tspan><tspan class="cls-8" x="109.64" y="0">4771309960</tspan><tspan x="134.24" y="0">5 </tspan></text><text class="cls-4" transform="translate(5.38 114.32)"><tspan class="cls-8">18707211349999998372978049951059731732816096318595 0</tspan><tspan class="cls-18" x="125.57" y="0">2</tspan><tspan class="cls-20" x="128.12" y="0">4459</tspan><tspan x="138.45" y="0">4</tspan></text><text class="cls-4" transform="translate(4.91 120.14)"><tspan class="cls-20">5534690830264252230825334468503526193118817 1010003137838</tspan><tspan x="139.35" y="0">7</tspan></text><text class="cls-4" transform="translate(3.48 125.95)"><tspan class="cls-20">5288658753320838</tspan><tspan class="cls-15" x="41.58" y="0">1</tspan><tspan class="cls-8" x="43" y="0">420617177669</tspan><tspan class="cls-15" x="71.45" y="0">1</tspan><tspan class="cls-8" x="72.87" y="0">473035 982534904287554687311</tspan><tspan x="141.18" y="0">5</tspan></text><text class="cls-4" transform="translate(1.56 131.76)"><tspan class="cls-14">9562863882353787593751957781 857780532171226806613001927876</tspan><tspan x="143.51" y="0">6</tspan></text><text class="cls-4" transform="translate(0 137.58)"><tspan class="cls-8">1119590921642019893</tspan><tspan class="cls-28" x="44.49" y="0"> </tspan><tspan class="cls-8" x="45.52" y="0">809525720106548586327886593615338182796</tspan><tspan x="143.82" y="0">8</tspan></text><text class="cls-4" transform="translate(2.43 143.39)"><tspan class="cls-8">2303019520 35301852968995773622599</tspan><tspan class="cls-7" x="85.27" y="0">4</tspan><tspan class="cls-8" x="87.75" y="0">13891</tspan><tspan class="cls-18" x="98.5" y="0">2</tspan><tspan class="cls-8" x="101.05" y="0">497217752834791315</tspan><tspan x="143.3" y="0">1</tspan></text><text class="cls-29" transform="translate(1.84 149.2)">5 5<tspan class="cls-22" x="6.43" y="0">7</tspan><tspan x="8.62" y="0">4857</tspan><tspan class="cls-26" x="18.71" y="0">2</tspan><tspan class="cls-8" x="21.25" y="0">4</tspan><tspan class="cls-18" x="23.76" y="0">2</tspan><tspan class="cls-8" x="26.3" y="0">45</tspan><tspan class="cls-7" x="31.46" y="0">4</tspan><tspan class="cls-8" x="33.94" y="0">15069595082953311686172785588907509838 175463</tspan><tspan class="cls-9" x="144.07" y="0">7</tspan></text><text class="cls-4" transform="translate(0.92 155.02)"><tspan class="cls-14">4649393192550604009277016711390098488</tspan><tspan class="cls-30" x="91.93" y="0">2</tspan><tspan class="cls-14" x="94.47" y="0">40128 58361603563707</tspan><tspan x="142.54" y="0">6</tspan></text><text class="cls-16" transform="translate(0.51 160.83)">6010471018194295559619894676783<tspan class="cls-22" x="74.92" y="0">7</tspan><tspan x="77.11" y="0">449 4482553797</tspan><tspan class="cls-11" x="111.2" y="0">7</tspan><tspan x="113.39" y="0">472684710404</tspan><tspan class="cls-9" x="142.91" y="0">7</tspan></text><text class="cls-4" transform="translate(0.13 166.64)"><tspan class="cls-20">53464620804668425906949129 3313677028989152104752162056966</tspan><tspan x="144.56" y="0">0</tspan></text><text class="cls-4" transform="translate(2.6 172.45)"><tspan class="cls-18">2</tspan><tspan class="cls-14" x="2.54" y="0">40580381501935112 5338</tspan><tspan class="cls-18" x="54.08" y="0">2</tspan><tspan class="cls-14" x="56.62" y="0">430035587640</tspan><tspan class="cls-18" x="87.75" y="0">2</tspan><tspan class="cls-14" x="90.3" y="0">4</tspan><tspan class="cls-11" x="92.8" y="0">7</tspan><tspan class="cls-14" x="94.99" y="0">4964732639</tspan><tspan class="cls-17" x="120.56" y="0">1</tspan><tspan class="cls-27" x="121.97" y="0">4</tspan><tspan class="cls-8" x="124.46" y="0">1992726</tspan><tspan x="141.53" y="0">0</tspan></text><text class="cls-4" transform="translate(3.1 178.27)"><tspan class="cls-14">4269922796 7823547816360093</tspan><tspan class="cls-7" x="67.19" y="0">4</tspan><tspan class="cls-14" x="69.67" y="0">17216</tspan><tspan class="cls-31" x="80.23" y="0">4</tspan><tspan class="cls-23" x="82.72" y="0">12199</tspan><tspan class="cls-26" x="93.64" y="0">2</tspan><tspan class="cls-14" x="96.18" y="0">45863150302861829</tspan><tspan class="cls-22" x="138.54" y="0">7</tspan><tspan x="140.73" y="0">4</tspan></text><text class="cls-4" transform="translate(4.38 184.08)"><tspan class="cls-20">55 5706</tspan><tspan class="cls-22" x="16.81" y="0">7</tspan><tspan class="cls-20" x="19" y="0">498385054945885869269956909272107975093029553 211</tspan><tspan x="142.46" y="0">6</tspan></text><text class="cls-29" transform="translate(5.72 189.89)">5344987202755960236480665499119881834797753566 36980<tspan class="cls-22" x="130.01" y="0">7</tspan><tspan x="132.2" y="0">426</tspan><tspan class="cls-12" x="140.01" y="0">5</tspan></text><text class="cls-4" transform="translate(6.51 195.71)"><tspan class="cls-14">42527862551818</tspan><tspan class="cls-7" x="34.14" y="0">4</tspan><tspan class="cls-14" x="36.62" y="0">175</tspan><tspan class="cls-22" x="43.06" y="0">7</tspan><tspan class="cls-14" x="45.25" y="0">467289097777279380008 1647060016</tspan><tspan class="cls-32" x="123.93" y="0">1</tspan><tspan class="cls-14" x="125.35" y="0">45</tspan><tspan class="cls-18" x="130.5" y="0">2</tspan><tspan class="cls-14" x="133.05" y="0">49</tspan><tspan x="138.21" y="0">1</tspan></text><text class="cls-4" transform="translate(9.16 201.52)"><tspan class="cls-14">921732172</tspan><tspan class="cls-15" x="20.65" y="0">1</tspan><tspan class="cls-14" x="22.07" y="0">4772350</tspan><tspan class="cls-15" x="39.72" y="0">1</tspan><tspan class="cls-19" x="41.14" y="0">4</tspan><tspan class="cls-15" x="43.62" y="0">1</tspan><tspan class="cls-14" x="45.04" y="0">4</tspan><tspan class="cls-7" x="47.55" y="0">4</tspan><tspan class="cls-14" x="50.02" y="0">19735685481 61361157352552133475</tspan><tspan class="cls-11" x="124.12" y="0">7</tspan><tspan class="cls-27" x="126.31" y="0">4</tspan><tspan class="cls-8" x="128.8" y="0">18</tspan><tspan x="132.9" y="0">4</tspan></text><text class="cls-4" transform="translate(10.93 207.33)"><tspan class="cls-14">946843852332390739</tspan><tspan class="cls-7" x="46.33" y="0">4</tspan><tspan class="cls-15" x="48.81" y="0">1</tspan><tspan class="cls-14" x="50.23" y="0">43334 54776</tspan><tspan class="cls-26" x="76.25" y="0">2</tspan><tspan class="cls-27" x="78.79" y="0">4</tspan><tspan class="cls-8" x="81.27" y="0">168625189835694855620</tspan><tspan x="134.36" y="0">9</tspan></text><text class="cls-4" transform="translate(13.85 213.15)"><tspan class="cls-14">921922218427255025425 6887671790494601653466804988627</tspan><tspan x="131.65" y="0">2</tspan></text><text class="cls-13" transform="translate(15.68 218.96)">327917860857843838 2796797668<tspan class="cls-15" x="71.49" y="0">1</tspan><tspan x="72.91" y="0">45</tspan><tspan class="cls-7" x="78.08" y="0">4</tspan><tspan x="80.55" y="0">1009538837863609506</tspan><tspan class="cls-9" x="129.35" y="0">8</tspan></text><text class="cls-13" transform="translate(18.11 224.77)">0064225125205117 39298489608<tspan class="cls-7" x="68.78" y="0">4</tspan><tspan x="71.26" y="0">128488626945604</tspan><tspan class="cls-18" x="109.47" y="0">2</tspan><tspan class="cls-27" x="112.01" y="0">4</tspan><tspan x="114.5" y="0">19652</tspan><tspan class="cls-9" x="126.61" y="0">8</tspan></text><text class="cls-4" transform="translate(22.65 230.58)"><tspan class="cls-20">502221066118630 6</tspan><tspan class="cls-22" x="40.21" y="0">7</tspan><tspan class="cls-20" x="42.4" y="0">44278622039194945047123713786960</tspan><tspan x="121.5" y="0">9</tspan></text><text class="cls-4" transform="translate(25.67 236.4)"><tspan class="cls-20">5636437191728</tspan><tspan class="cls-22" x="31" y="0">7</tspan><tspan class="cls-8" x="33.19" y="0">4 6776465757396</tspan><tspan class="cls-26" x="69.66" y="0">2</tspan><tspan class="cls-19" x="72.21" y="0">4</tspan><tspan class="cls-20" x="74.69" y="0">138908658326459958</tspan><tspan x="120.83" y="0">1</tspan></text><text class="cls-4" transform="translate(32.34 242.21)"><tspan class="cls-8">3390478027590099 4657640789512694683983525957</tspan><tspan x="114.22" y="0">0</tspan></text><text class="cls-4" transform="translate(35.68 248.03)"><tspan class="cls-14">982582262052</tspan><tspan class="cls-26" x="31.8" y="0">2</tspan><tspan class="cls-14" x="34.34" y="0">48940772 671947826848260</tspan><tspan class="cls-15" x="93.31" y="0">1</tspan><tspan class="cls-14" x="94.74" y="0">476990</tspan><tspan x="110.26" y="0">9</tspan></text><text class="cls-4" transform="translate(40.8 253.84)"><tspan class="cls-8">0264013639443</tspan><tspan class="cls-11" x="32.66" y="0">7</tspan><tspan class="cls-8" x="34.85" y="0">4553050682034 9625</tspan><tspan class="cls-18" x="80.77" y="0">2</tspan><tspan class="cls-8" x="83.31" y="0">451</tspan><tspan class="cls-22" x="89.96" y="0">7</tspan><tspan class="cls-20" x="92.16" y="0">49399</tspan><tspan x="105.15" y="0">6</tspan></text><text class="cls-4" transform="translate(48.25 259.65)"><tspan class="cls-20">5</tspan><tspan class="cls-15" x="2.66" y="0">1</tspan><tspan class="cls-8" x="4.08" y="0">43</tspan><tspan class="cls-15" x="9.09" y="0">1</tspan><tspan class="cls-8" x="10.51" y="0">429809190659250937221696461515 7098</tspan><tspan x="96.44" y="0">5</tspan></text><text class="cls-4" transform="translate(54.03 265.46)"><tspan class="cls-8">838</tspan><tspan class="cls-22" x="7.74" y="0">7</tspan><tspan class="cls-7" x="9.93" y="0">4</tspan><tspan class="cls-8" x="12.41" y="0">10597885959772975498930161753928</tspan><tspan x="91.76" y="0">4</tspan></text><text class="cls-13" transform="translate(59.91 271.28)">6813826 86838689427<tspan class="cls-22" x="46.72" y="0">7</tspan><tspan class="cls-27" x="48.92" y="0">4</tspan><tspan x="51.4" y="0">155991855925</tspan><tspan class="cls-18" x="80.9" y="0">2</tspan><tspan x="83.44" y="0">4</tspan><tspan class="cls-12" x="85.95" y="0">5</tspan></text><text class="cls-4" transform="translate(66.33 277.09)"><tspan class="cls-8">9539594310499725</tspan><tspan class="cls-18" x="40.48" y="0">2</tspan><tspan class="cls-8" x="43.03" y="0">46808 459872736</tspan><tspan x="80.16" y="0">4</tspan></text><text class="cls-4" transform="translate(77.15 283.08)"><tspan class="cls-14">46958486538367362226260</tspan><tspan x="59.85" y="0">9</tspan></text><text class="cls-33" transform="translate(139.32 283.08)"><tspan class="cls-34">91</tspan><tspan class="cls-35" x="4.27" y="0">2</tspan><tspan x="6.89" y="0">4</tspan></text><text class="cls-33" transform="translate(88.11 289.08)"><tspan class="cls-34">608051</tspan><tspan class="cls-35" x="15.37" y="0">2</tspan><tspan class="cls-34" x="17.99" y="0">43884 390451</tspan><tspan class="cls-36" x="47.25" y="0">2</tspan><tspan class="cls-34" x="49.87" y="0">4</tspan><tspan class="cls-37" x="52.45" y="0">4</tspan><tspan class="cls-34" x="55.01" y="0">1</tspan><tspan x="56.54" y="0">3</tspan></text><text class="cls-33" transform="translate(105.78 295.07)"><tspan class="cls-34">6549762780797715</tspan><tspan x="40.65" y="0">6</tspan></text><text class="cls-33" transform="translate(131.3 301.06)"><tspan class="cls-38">9</tspan><tspan class="cls-39" x="2.73" y="0">1</tspan><tspan class="cls-38" x="4.19" y="0">4359</tspan><tspan x="14.79" y="0">9</tspan></text></g></g><g class="cls-2"><g class="cls-40"><path class="cls-41" d="M155.82,304.28a150.51,150.51,0,1,0,0-301" transform="translate(-1.74 -2.02)"/></g></g><text class="cls-42" transform="translate(108.23 375.45)">to 2,500 digits</text><g class="cls-2"><g class="cls-43"><path class="cls-41" d="M103.31,373.4h.54c0,.26,0,.51-.1.75a14.47,14.47,0,0,1-.41,1.57,3.18,3.18,0,0,1-2.09,2.14,2.3,2.3,0,0,1-2.39-.57,3.44,3.44,0,0,1-1-1.95,9.83,9.83,0,0,1-.2-1.94c0-.34,0-.68,0-1,0-.73.07-1.46.12-2.18,0-.46.07-.92.12-1.37s.11-1,.16-1.43.08-.9.13-1.35c0-.25.06-.5.09-.77H94.18c0,.21,0,.43-.06.64,0,.54,0,1.08-.08,1.62,0,.7-.1,1.4-.16,2.09s-.1,1.17-.16,1.75-.17,1.42-.28,2.13-.22,1.33-.37,2a4.59,4.59,0,0,1-.91,2,1.33,1.33,0,0,1-2.38-1,3.29,3.29,0,0,1,.83-1.62,8.14,8.14,0,0,0,1.45-3.1c.17-.77.31-1.55.44-2.33.07-.41.09-.82.13-1.23.06-.73.11-1.46.16-2.2,0-.22,0-.44.06-.69-.42,0-.81,0-1.19,0a3.6,3.6,0,0,0-1,.24,3.09,3.09,0,0,0-.79.51,5,5,0,0,0-1.08,1.33.3.3,0,0,1-.33.18,4,4,0,0,0-.42,0c.16-.43.31-.86.48-1.27a9.37,9.37,0,0,1,1-1.81A3.15,3.15,0,0,1,91.78,363a10,10,0,0,1,1.2-.08h10.86v2.3H100c-.07.55-.14,1.08-.21,1.61s-.14,1.13-.2,1.7c0,.21,0,.43,0,.64,0,.72-.05,1.43-.08,2.15,0,.36-.05.73,0,1.09a4.38,4.38,0,0,0,.36,1.78,1.81,1.81,0,0,0,1.84,1,1.72,1.72,0,0,0,1.43-1.09,7.53,7.53,0,0,0,.24-.76" transform="translate(-1.74 -2.02)"/></g></g></g></g></svg>