<svg xmlns="http://www.w3.org/2000/svg" viewBox="0 0 121.1 184.28"><defs><style>.cls-1{fill:#231f20;}</style></defs><title>Asset 40</title><g id="Layer_2" data-name="Layer 2"><g id="Layer_1-2" data-name="Layer 1"><polygon class="cls-1" points="83.62 36.36 36.73 85.27 30.54 79.34 71.63 36.36 83.62 36.36"/><rect class="cls-1" x="103.42" width="13.05" height="20.23"/><path class="cls-1" d="M76.31,100.09c-.65-.44-1.33-.85-2-1.24l5.37-9.61c.95.53,1.88,1.1,2.78,1.71Z"/><path class="cls-1" d="M83.08,106.43A29.14,29.14,0,0,0,80,103l7.53-8A40.26,40.26,0,0,1,91.8,99.7Zm4.41,8.15a28.8,28.8,0,0,0-1.87-4.25l9.68-5.24A39.81,39.81,0,0,1,97.9,111Zm1.58,9.13a29,29,0,0,0-.42-4.63L99.5,117.2a40.21,40.21,0,0,1,.58,6.4Zm9.1,12.55-10.48-3.38a28.69,28.69,0,0,0,1.06-4.52L99.64,130a39.74,39.74,0,0,1-1.47,6.26m-74.48,3.51a39.63,39.63,0,0,1-2.06-6.09L32.31,131a28.73,28.73,0,0,0,1.48,4.4Zm68.63,7.89-8.86-6.54a29,29,0,0,0,2.45-3.95l9.8,5a40,40,0,0,1-3.39,5.46m-61.73,2.9a40.08,40.08,0,0,1-3.88-5.11L36,139.51a29,29,0,0,0,2.81,3.7Zm52.58,6-6.34-9a29.09,29.09,0,0,0,3.58-3l7.7,7.88a40.21,40.21,0,0,1-4.94,4.11m-42.62,2a40,40,0,0,1-5.3-3.63l6.93-8.56A28.89,28.89,0,0,0,46,149Zm31.1,3.58-3.14-10.56A28.72,28.72,0,0,0,72.82,150l4.81,9.91a40,40,0,0,1-6,2.33m-19.08.9a39.71,39.71,0,0,1-6.19-1.75L50.2,151a28.6,28.6,0,0,0,4.47,1.26Zm7.72.75-1.34,0,.37-11,1,0a29.23,29.23,0,0,0,3.68-.23l1.39,10.93a40.44,40.44,0,0,1-5.07.32"/><path class="cls-1" d="M20.58,127.28c-.09-1.08-.13-2.17-.13-3.26h11c0,.79,0,1.59.1,2.37Z"/><path class="cls-1" d="M60.55,184.28A60.55,60.55,0,0,1,0,123.73a8.37,8.37,0,1,1,16.75,0,43.8,43.8,0,1,0,68.18-36.4,8.37,8.37,0,0,1,9.33-13.91A60.55,60.55,0,0,1,60.55,184.28"/><path class="cls-1" d="M52.22,80.38a8.53,8.53,0,1,0,8.53,8.53,8.53,8.53,0,0,0-8.53-8.53m0,5.92a2.61,2.61,0,1,1-2.61,2.61,2.62,2.62,0,0,1,2.61-2.61"/><path class="cls-1" d="M68.05,64.18a8.53,8.53,0,1,0,8.53,8.53,8.53,8.53,0,0,0-8.53-8.53m0,5.92a2.61,2.61,0,1,1-2.61,2.61,2.62,2.62,0,0,1,2.61-2.61"/><path class="cls-1" d="M83.62,47.55a8.53,8.53,0,1,0,8.53,8.53,8.53,8.53,0,0,0-8.53-8.53m0,5.92A2.61,2.61,0,1,1,81,56.08a2.62,2.62,0,0,1,2.61-2.61"/><path class="cls-1" d="M112.53,32.16H23.78a4.13,4.13,0,1,1,0-8.25h88.75a4.13,4.13,0,1,1,0,8.25"/><polygon class="cls-1" points="103.16 43.33 108.03 43.33 112.65 43.33 116.88 36.02 102.91 36.02 88.94 36.02 95.93 48.11 102.91 60.21 107.91 51.55 105.59 47.55 103.16 43.33"/><path class="cls-1" d="M14.83,28a4.29,4.29,0,1,1-4.29-4.29A4.29,4.29,0,0,1,14.83,28"/><polygon class="cls-1" points="100.15 20.23 100.15 8.17 100.15 4.81 100.15 0 94.98 0 94.98 4.81 89.85 4.81 89.85 0 84.68 0 84.68 4.81 79.55 4.81 79.55 0 74.38 0 74.38 4.81 69.25 4.81 69.25 0 64.08 0 64.08 4.81 58.95 4.81 58.95 0 53.78 0 53.78 4.81 48.64 4.81 48.64 0 43.48 0 43.48 4.81 38.34 4.81 38.34 0 33.17 0 33.17 4.81 28.04 4.81 28.04 0 22.87 0 22.87 4.81 17.74 4.81 17.74 0 12.57 0 12.57 4.81 7.44 4.81 7.44 0 2.27 0 2.27 4.81 2.27 8.17 2.27 20.23 100.15 20.23"/></g></g></svg>