<svg xmlns="http://www.w3.org/2000/svg" viewBox="0 0 139.14 196.78"><defs><style>.cls-1{fill:#fff;}.cls-2{fill:#3a3a39;}.cls-3{fill:#808285;}</style></defs><title>Asset 72</title><g id="Layer_2" data-name="Layer 2"><g id="Layer_1-2" data-name="Layer 1"><rect class="cls-1" width="139.14" height="196.78"/><path class="cls-2" d="M20.19,14.21h0a4.67,4.67,0,0,0-4.65,4.65V46a4.65,4.65,0,1,0,9.31,0V18.86a4.67,4.67,0,0,0-4.65-4.65"/><path class="cls-2" d="M15.54,120.27h0a4.67,4.67,0,0,0-4.65,4.65V152.1a4.65,4.65,0,1,0,9.31,0V124.92a4.67,4.67,0,0,0-4.65-4.65"/><path class="cls-2" d="M128.26,150.23h0a4.67,4.67,0,0,0-4.65-4.65H96.43a4.65,4.65,0,1,0,0,9.31h27.18a4.67,4.67,0,0,0,4.65-4.65"/><path class="cls-3" d="M111.15,81.37h0a4.67,4.67,0,0,0-4.65-4.65H79.32a4.65,4.65,0,1,0,0,9.31H106.5a4.67,4.67,0,0,0,4.65-4.65"/><path class="cls-3" d="M39.44,45.45h0a4.67,4.67,0,0,0-6.58,0L13.64,64.67a4.65,4.65,0,0,0,6.58,6.58L39.44,52a4.67,4.67,0,0,0,0-6.58"/><path class="cls-3" d="M68,168h0a4.67,4.67,0,0,0-6.58,0L42.16,187.21a4.65,4.65,0,1,0,6.58,6.58L68,174.57A4.67,4.67,0,0,0,68,168"/><path class="cls-2" d="M90.41,145.27h0a4.67,4.67,0,0,0,0-6.58L71.2,119.47A4.65,4.65,0,0,0,64.61,126l19.22,19.22a4.67,4.67,0,0,0,6.58,0"/><path class="cls-3" d="M48.83,29.64h0a4.67,4.67,0,0,0,0-6.58L29.61,3.84A4.65,4.65,0,0,0,23,10.42L42.24,29.64a4.67,4.67,0,0,0,6.58,0"/></g></g></svg>