<svg xmlns="http://www.w3.org/2000/svg" xmlns:xlink="http://www.w3.org/1999/xlink" viewBox="0 0 139.14 196.78"><defs><style>.cls-1{fill:none;}.cls-2{fill:#fff;}.cls-3{opacity:0.4;}.cls-4{clip-path:url(#clip-path);}.cls-5{fill:#3a3a39;}.cls-6{clip-path:url(#clip-path-2);}.cls-7{opacity:0.15;}.cls-8{clip-path:url(#clip-path-3);}.cls-9{clip-path:url(#clip-path-4);}</style><clipPath id="clip-path"><rect class="cls-1" x="40.42" y="148.88" width="78.99" height="21.97"/></clipPath><clipPath id="clip-path-2"><rect class="cls-1" x="22.38" y="26.84" width="21.97" height="78.99"/></clipPath><clipPath id="clip-path-3"><rect class="cls-1" x="17.82" y="80.67" width="71.39" height="71.39"/></clipPath><clipPath id="clip-path-4"><rect class="cls-1" x="52.59" y="20.85" width="71.39" height="71.39"/></clipPath></defs><title>Asset 76</title><g id="Layer_2" data-name="Layer 2"><g id="Layer_1-2" data-name="Layer 1"><rect class="cls-2" width="139.14" height="196.78"/><g class="cls-3"><g class="cls-4"><path class="cls-5" d="M41.65,159.87h0a9.79,9.79,0,0,0,9.76,9.76h57a9.76,9.76,0,1,0,0-19.53h-57a9.79,9.79,0,0,0-9.76,9.76"/></g></g><g class="cls-3"><g class="cls-6"><path class="cls-5" d="M33.37,104.61h0a9.79,9.79,0,0,0,9.76-9.76v-57a9.76,9.76,0,1,0-19.53,0v57a9.79,9.79,0,0,0,9.76,9.76"/></g></g><g class="cls-7"><g class="cls-8"><path class="cls-5" d="M26.45,143.43h0a9.79,9.79,0,0,0,13.81,0l40.32-40.32A9.76,9.76,0,1,0,66.77,89.3L26.45,129.62a9.79,9.79,0,0,0,0,13.81"/></g></g><g class="cls-7"><g class="cls-9"><path class="cls-5" d="M115.35,83.61h0a9.79,9.79,0,0,0,0-13.81L75,29.48A9.76,9.76,0,1,0,61.22,43.29l40.32,40.32a9.79,9.79,0,0,0,13.81,0"/></g></g></g></g></svg>