<svg xmlns="http://www.w3.org/2000/svg" xmlns:xlink="http://www.w3.org/1999/xlink" viewBox="0 0 139.14 196.78"><defs><style>.cls-1{fill:none;}.cls-2{fill:#fff;}.cls-3{opacity:0.4;}.cls-4{clip-path:url(#clip-path);}.cls-5{fill:#3a3a39;}.cls-6{clip-path:url(#clip-path-2);}.cls-7{opacity:0.15;}.cls-8{clip-path:url(#clip-path-3);}</style><clipPath id="clip-path"><rect class="cls-1" x="18.89" y="86.31" width="101.35" height="27.67"/></clipPath><clipPath id="clip-path-2"><rect class="cls-1" x="55.73" y="49.47" width="27.68" height="101.35"/></clipPath><clipPath id="clip-path-3"><rect class="cls-1" x="23.95" y="54.53" width="91.24" height="91.24"/></clipPath></defs><title>Asset 77</title><g id="Layer_2" data-name="Layer 2"><g id="Layer_1-2" data-name="Layer 1"><rect class="cls-2" width="139.14" height="196.78"/><g class="cls-3"><g class="cls-4"><path class="cls-5" d="M20.11,100.15h0a12.65,12.65,0,0,0,12.62,12.62h73.68a12.62,12.62,0,1,0,0-25.23H32.73a12.65,12.65,0,0,0-12.62,12.62"/></g></g><g class="cls-3"><g class="cls-6"><path class="cls-5" d="M69.57,149.61h0A12.65,12.65,0,0,0,82.19,137V63.31a12.62,12.62,0,1,0-25.23,0V137a12.65,12.65,0,0,0,12.62,12.62"/></g></g><g class="cls-7"><g class="cls-8"><path class="cls-5" d="M34.6,135.12h0a12.65,12.65,0,0,0,17.84,0L104.54,83A12.62,12.62,0,1,0,86.7,65.18l-52.1,52.1a12.65,12.65,0,0,0,0,17.84"/></g></g><g class="cls-7"><g class="cls-8"><path class="cls-5" d="M104.54,135.12h0a12.65,12.65,0,0,0,0-17.84l-52.1-52.1A12.62,12.62,0,1,0,34.6,83l52.1,52.1a12.65,12.65,0,0,0,17.84,0"/></g></g></g></g></svg>