<svg xmlns="http://www.w3.org/2000/svg" viewBox="0 0 139.14 196.78"><defs><style>.cls-1{fill:#fff;}.cls-2{fill:#3a3a39;}.cls-3{fill:#616161;}.cls-4{fill:#898988;}.cls-5{fill:#b0b0b0;}.cls-6{fill:#d7d7d7;}</style></defs><title>Asset 80</title><g id="Layer_2" data-name="Layer 2"><g id="Layer_1-2" data-name="Layer 1"><rect class="cls-1" width="139.14" height="196.78"/><path class="cls-2" d="M23,80.86h0a4.63,4.63,0,0,0-4.61,4.61v26.94a4.61,4.61,0,1,0,9.23,0V85.48A4.63,4.63,0,0,0,23,80.86"/><path class="cls-3" d="M46.77,80.86h0a4.63,4.63,0,0,0-4.61,4.61v26.94a4.61,4.61,0,1,0,9.23,0V85.48a4.63,4.63,0,0,0-4.61-4.61"/><path class="cls-4" d="M70.52,80.86h0a4.63,4.63,0,0,0-4.61,4.61v26.94a4.61,4.61,0,1,0,9.23,0V85.48a4.63,4.63,0,0,0-4.61-4.61"/><path class="cls-5" d="M94.26,80.86h0a4.63,4.63,0,0,0-4.61,4.61v26.94a4.61,4.61,0,1,0,9.23,0V85.48a4.63,4.63,0,0,0-4.61-4.61"/><path class="cls-6" d="M118,80.86h0a4.63,4.63,0,0,0-4.61,4.61v26.94a4.61,4.61,0,1,0,9.23,0V85.48A4.63,4.63,0,0,0,118,80.86"/></g></g></svg>