<svg xmlns="http://www.w3.org/2000/svg" xmlns:xlink="http://www.w3.org/1999/xlink" viewBox="0 0 340.29 275.74"><defs><style>.cls-1,.cls-10,.cls-58,.cls-60,.cls-66,.cls-7{fill:none;}.cls-2{fill:#fff;}.cls-3{clip-path:url(#clip-path);}.cls-4{opacity:0.4;}.cls-5{clip-path:url(#clip-path-2);}.cls-6{clip-path:url(#clip-path-3);}.cls-10,.cls-58,.cls-60,.cls-66,.cls-7{stroke:#231f20;}.cls-7{stroke-width:0.72px;}.cls-8{opacity:0.2;}.cls-9{clip-path:url(#clip-path-4);}.cls-10{stroke-width:0.45px;}.cls-11{clip-path:url(#clip-path-5);}.cls-12{clip-path:url(#clip-path-6);}.cls-13{clip-path:url(#clip-path-7);}.cls-14{clip-path:url(#clip-path-8);}.cls-15{clip-path:url(#clip-path-9);}.cls-16{clip-path:url(#clip-path-10);}.cls-17{clip-path:url(#clip-path-11);}.cls-18{clip-path:url(#clip-path-12);}.cls-19{clip-path:url(#clip-path-13);}.cls-20{clip-path:url(#clip-path-14);}.cls-21{clip-path:url(#clip-path-15);}.cls-22{clip-path:url(#clip-path-16);}.cls-23{clip-path:url(#clip-path-17);}.cls-24{clip-path:url(#clip-path-18);}.cls-25{clip-path:url(#clip-path-19);}.cls-26{clip-path:url(#clip-path-20);}.cls-27{clip-path:url(#clip-path-21);}.cls-28{clip-path:url(#clip-path-22);}.cls-29{clip-path:url(#clip-path-23);}.cls-30{clip-path:url(#clip-path-24);}.cls-31{clip-path:url(#clip-path-25);}.cls-32{clip-path:url(#clip-path-26);}.cls-33{clip-path:url(#clip-path-27);}.cls-34{clip-path:url(#clip-path-28);}.cls-35{clip-path:url(#clip-path-29);}.cls-36{clip-path:url(#clip-path-30);}.cls-37{clip-path:url(#clip-path-31);}.cls-38{clip-path:url(#clip-path-32);}.cls-39{clip-path:url(#clip-path-33);}.cls-40{clip-path:url(#clip-path-34);}.cls-41{clip-path:url(#clip-path-35);}.cls-42{clip-path:url(#clip-path-36);}.cls-43{clip-path:url(#clip-path-37);}.cls-44{clip-path:url(#clip-path-38);}.cls-45{clip-path:url(#clip-path-39);}.cls-46{clip-path:url(#clip-path-40);}.cls-47{clip-path:url(#clip-path-41);}.cls-48{clip-path:url(#clip-path-42);}.cls-49{clip-path:url(#clip-path-43);}.cls-50{clip-path:url(#clip-path-44);}.cls-51{clip-path:url(#clip-path-45);}.cls-52{clip-path:url(#clip-path-46);}.cls-53{clip-path:url(#clip-path-47);}.cls-54,.cls-71{font-size:2.34px;}.cls-54,.cls-56,.cls-57{fill:#6d6e71;}.cls-54,.cls-57{font-family:HelveticaNeue-Light, Helvetica Neue;}.cls-55{font-size:4.98px;fill:#5c5d60;font-family:HelveticaNeue, Helvetica Neue;}.cls-56,.cls-57{font-size:1.97px;}.cls-56{font-family:HelveticaNeue-Bold, Helvetica Neue;}.cls-56,.cls-71{font-weight:700;}.cls-58,.cls-66{stroke-width:0.24px;}.cls-59{clip-path:url(#clip-path-49);}.cls-60{stroke-width:0.4px;}.cls-61{clip-path:url(#clip-path-50);}.cls-62{font-size:4.1px;fill:#5a5b5d;font-family:HelveticaNeue-Italic, Helvetica Neue;font-style:italic;}.cls-63{opacity:0.74;}.cls-64{clip-path:url(#clip-path-52);}.cls-65{clip-path:url(#clip-path-53);}.cls-66{stroke-miterlimit:10;}.cls-67{clip-path:url(#clip-path-54);}.cls-68{clip-path:url(#clip-path-55);}.cls-69{opacity:0.7;}.cls-70{clip-path:url(#clip-path-56);}.cls-71,.cls-74{fill:#231f20;}.cls-71{font-family:Helvetica-Bold, Helvetica;}.cls-72{clip-path:url(#clip-path-58);}.cls-73{clip-path:url(#clip-path-59);}.cls-74{font-size:1.76px;font-family:Helvetica-Light, Helvetica;}</style><clipPath id="clip-path" transform="translate(-0.36 -0.34)"><rect class="cls-1" x="72.58" y="6.33" width="174.46" height="246.73"/></clipPath><clipPath id="clip-path-2" transform="translate(-0.36 -0.34)"><rect class="cls-1" x="72.48" width="82.74" height="126.51"/></clipPath><clipPath id="clip-path-3" transform="translate(-0.36 -0.34)"><rect class="cls-1" x="72.48" width="82.74" height="126.51"/></clipPath><clipPath id="clip-path-4" transform="translate(-0.36 -0.34)"><rect class="cls-1" x="127.57" y="93.71" width="140.13" height="194.79"/></clipPath><clipPath id="clip-path-5" transform="translate(-0.36 -0.34)"><rect class="cls-1" x="137.01" y="93.71" width="140.13" height="194.79"/></clipPath><clipPath id="clip-path-6" transform="translate(-0.36 -0.34)"><rect class="cls-1" x="146.44" y="93.71" width="140.13" height="194.79"/></clipPath><clipPath id="clip-path-7" transform="translate(-0.36 -0.34)"><rect class="cls-1" x="155.88" y="93.71" width="140.13" height="194.79"/></clipPath><clipPath id="clip-path-8" transform="translate(-0.36 -0.34)"><rect class="cls-1" x="165.32" y="93.71" width="140.13" height="194.79"/></clipPath><clipPath id="clip-path-9" transform="translate(-0.36 -0.34)"><rect class="cls-1" x="174.76" y="93.71" width="140.13" height="194.79"/></clipPath><clipPath id="clip-path-10" transform="translate(-0.36 -0.34)"><rect class="cls-1" x="184.2" y="87.85" width="140.13" height="200.66"/></clipPath><clipPath id="clip-path-11" transform="translate(-0.36 -0.34)"><rect class="cls-1" x="193.64" y="87.85" width="140.13" height="200.66"/></clipPath><clipPath id="clip-path-12" transform="translate(-0.36 -0.34)"><rect class="cls-1" x="203.07" y="87.85" width="140.13" height="200.66"/></clipPath><clipPath id="clip-path-13" transform="translate(-0.36 -0.34)"><rect class="cls-1" x="212.51" y="87.85" width="140.13" height="200.66"/></clipPath><clipPath id="clip-path-14" transform="translate(-0.36 -0.34)"><rect class="cls-1" x="68.22" width="82.74" height="126.51"/></clipPath><clipPath id="clip-path-15" transform="translate(-0.36 -0.34)"><rect class="cls-1" x="68.22" width="82.74" height="126.51"/></clipPath><clipPath id="clip-path-16" transform="translate(-0.36 -0.34)"><rect class="cls-1" x="63.95" width="82.74" height="126.51"/></clipPath><clipPath id="clip-path-17" transform="translate(-0.36 -0.34)"><rect class="cls-1" x="63.95" width="82.74" height="126.51"/></clipPath><clipPath id="clip-path-18" transform="translate(-0.36 -0.34)"><rect class="cls-1" x="59.69" width="82.74" height="126.51"/></clipPath><clipPath id="clip-path-19" transform="translate(-0.36 -0.34)"><rect class="cls-1" x="59.69" width="82.74" height="126.51"/></clipPath><clipPath id="clip-path-20" transform="translate(-0.36 -0.34)"><rect class="cls-1" x="55.43" width="82.74" height="126.51"/></clipPath><clipPath id="clip-path-21" transform="translate(-0.36 -0.34)"><rect class="cls-1" x="55.43" width="82.74" height="126.51"/></clipPath><clipPath id="clip-path-22" transform="translate(-0.36 -0.34)"><rect class="cls-1" x="51.16" width="82.74" height="126.51"/></clipPath><clipPath id="clip-path-23" transform="translate(-0.36 -0.34)"><rect class="cls-1" x="51.16" width="82.74" height="126.51"/></clipPath><clipPath id="clip-path-24" transform="translate(-0.36 -0.34)"><rect class="cls-1" x="46.9" width="82.74" height="126.51"/></clipPath><clipPath id="clip-path-25" transform="translate(-0.36 -0.34)"><rect class="cls-1" x="46.9" width="82.74" height="126.51"/></clipPath><clipPath id="clip-path-26" transform="translate(-0.36 -0.34)"><rect class="cls-1" x="42.64" width="82.74" height="126.51"/></clipPath><clipPath id="clip-path-27" transform="translate(-0.36 -0.34)"><rect class="cls-1" x="42.64" width="82.74" height="126.51"/></clipPath><clipPath id="clip-path-28" transform="translate(-0.36 -0.34)"><rect class="cls-1" x="38.37" width="82.74" height="126.51"/></clipPath><clipPath id="clip-path-29" transform="translate(-0.36 -0.34)"><rect class="cls-1" x="38.37" width="82.74" height="126.51"/></clipPath><clipPath id="clip-path-30" transform="translate(-0.36 -0.34)"><rect class="cls-1" x="34.11" width="82.74" height="126.51"/></clipPath><clipPath id="clip-path-31" transform="translate(-0.36 -0.34)"><rect class="cls-1" x="34.11" width="82.74" height="126.51"/></clipPath><clipPath id="clip-path-32" transform="translate(-0.36 -0.34)"><rect class="cls-1" x="29.85" width="82.74" height="126.51"/></clipPath><clipPath id="clip-path-33" transform="translate(-0.36 -0.34)"><rect class="cls-1" x="29.85" width="82.74" height="126.51"/></clipPath><clipPath id="clip-path-34" transform="translate(-0.36 -0.34)"><rect class="cls-1" x="25.58" width="82.74" height="126.51"/></clipPath><clipPath id="clip-path-35" transform="translate(-0.36 -0.34)"><rect class="cls-1" x="25.58" width="82.74" height="126.51"/></clipPath><clipPath id="clip-path-36" transform="translate(-0.36 -0.34)"><rect class="cls-1" x="21.32" width="82.74" height="126.51"/></clipPath><clipPath id="clip-path-37" transform="translate(-0.36 -0.34)"><rect class="cls-1" x="21.32" width="82.74" height="126.51"/></clipPath><clipPath id="clip-path-38" transform="translate(-0.36 -0.34)"><rect class="cls-1" x="17.05" width="82.74" height="126.51"/></clipPath><clipPath id="clip-path-39" transform="translate(-0.36 -0.34)"><rect class="cls-1" x="17.05" width="82.74" height="126.51"/></clipPath><clipPath id="clip-path-40" transform="translate(-0.36 -0.34)"><rect class="cls-1" x="12.79" width="82.74" height="126.51"/></clipPath><clipPath id="clip-path-41" transform="translate(-0.36 -0.34)"><rect class="cls-1" x="12.79" width="82.74" height="126.51"/></clipPath><clipPath id="clip-path-42" transform="translate(-0.36 -0.34)"><rect class="cls-1" x="8.53" width="82.74" height="126.51"/></clipPath><clipPath id="clip-path-43" transform="translate(-0.36 -0.34)"><rect class="cls-1" x="8.53" width="82.74" height="126.51"/></clipPath><clipPath id="clip-path-44" transform="translate(-0.36 -0.34)"><rect class="cls-1" x="4.26" width="82.74" height="126.51"/></clipPath><clipPath id="clip-path-45" transform="translate(-0.36 -0.34)"><rect class="cls-1" x="4.26" width="82.74" height="126.51"/></clipPath><clipPath id="clip-path-46" transform="translate(-0.36 -0.34)"><rect class="cls-1" width="82.74" height="126.51"/></clipPath><clipPath id="clip-path-47" transform="translate(-0.36 -0.34)"><rect class="cls-1" width="82.74" height="126.51"/></clipPath><clipPath id="clip-path-49" transform="translate(-0.36 -0.34)"><rect class="cls-1" x="128.67" y="180.83" width="60.51" height="23.8"/></clipPath><clipPath id="clip-path-50" transform="translate(-0.36 -0.34)"><rect class="cls-1" x="128.67" y="151.55" width="60.51" height="23.8"/></clipPath><clipPath id="clip-path-52" transform="translate(-0.36 -0.34)"><rect class="cls-1" x="81.37" y="242.37" width="67.99" height="0.29"/></clipPath><clipPath id="clip-path-53" transform="translate(-0.36 -0.34)"><rect class="cls-1" x="81.37" y="242.37" width="67.99" height="0.29"/></clipPath><clipPath id="clip-path-54" transform="translate(-0.36 -0.34)"><rect class="cls-1" x="159.8" y="16.7" width="77.77" height="0.29"/></clipPath><clipPath id="clip-path-55" transform="translate(-0.36 -0.34)"><rect class="cls-1" x="159.8" y="16.7" width="77.77" height="0.29"/></clipPath><clipPath id="clip-path-56" transform="translate(-0.36 -0.34)"><rect class="cls-1" x="81.51" y="245.92" width="2.61" height="3.14"/></clipPath><clipPath id="clip-path-58" transform="translate(-0.36 -0.34)"><rect class="cls-1" x="223.99" y="10.8" width="13.88" height="2.13"/></clipPath><clipPath id="clip-path-59" transform="translate(-0.36 -0.34)"><rect class="cls-1" x="223.99" y="10.8" width="13.88" height="2.13"/></clipPath></defs><title>Asset 9</title><g id="Layer_2" data-name="Layer 2"><g id="Layer_1-2" data-name="Layer 1"><rect class="cls-2" x="72.2" y="5.98" width="174.48" height="246.77"/><g class="cls-3"><g class="cls-4"><g class="cls-5"><g class="cls-6"><line class="cls-7" x1="154.2" y1="0.2" x2="72.78" y2="125.64"/></g></g></g><g class="cls-8"><g class="cls-9"><path class="cls-10" d="M142.13,275.89l-2.45-1.6m3.26.37-2.45-1.6m3.26.37-2.45-1.6m3.26.37-2.45-1.6m3.26.37-2.45-1.6m3.26.37-2.45-1.6m3.26.37-2.45-1.6m3.26.37-2.45-1.6m3.26.37-2.45-1.6m3.26.37-2.45-1.6m3.26.37-2.45-1.6m3.26.37-2.45-1.6m3.26.37-2.45-1.6m3.26.37-2.45-1.6m3.26.37-2.45-1.6m3.26.37-2.45-1.6m3.26.37-2.45-1.6m3.26.37-2.45-1.6m3.26.37-2.45-1.6m3.26.37-2.45-1.6m3.26.37-2.45-1.6M159,250l-2.45-1.6m3.26.37-2.45-1.6m3.26.37-2.45-1.6m3.26.37L159,244.7m3.26.37-2.45-1.6m3.26.37-2.45-1.6m3.26.37L161.4,241m3.26.37-2.45-1.6m3.26.37-2.45-1.6m3.26.37-2.45-1.6m3.26.37-2.45-1.6m3.26.37-2.45-1.6m3.26.37-2.45-1.6m3.26.37-2.45-1.6m3.26.37-2.45-1.6m3.26.37-2.45-1.6m3.26.37-2.45-1.6m3.26.37-2.45-1.6m3.26.37-2.45-1.6m3.26.37-2.45-1.6m3.26.37-2.45-1.6m3.26.37-2.45-1.6m3.26.37-2.45-1.6m3.26.37-2.45-1.6m3.26.37-2.45-1.6m3.26.37-2.45-1.6m3.26.37-2.45-1.6m3.26.37-2.45-1.6m3.26.37-2.45-1.6m3.26.37-2.45-1.6m3.26.37-2.45-1.6m3.26.37-2.45-1.6m3.26.37-2.45-1.6m3.26.37-2.45-1.6m3.26.37-2.45-1.6m3.26.37-2.45-1.6m3.26.37-2.45-1.6m3.26.37-2.45-1.6m3.26.37-2.45-1.6m3.26.37-2.45-1.6m3.26.37-2.45-1.6m3.26.37-2.45-1.6m3.26.37-2.45-1.6m3.26.37-2.45-1.6m3.26.37-2.45-1.6m3.26.37-2.45-1.6m3.26.37-2.45-1.6m3.26.37-2.45-1.6m3.26.37-2.45-1.6m3.26.37L196,188m3.26.37-2.45-1.6m3.26.37-2.45-1.6m3.26.37-2.45-1.6m3.26.37-2.45-1.6m3.26.37-2.45-1.6m3.26.37-2.45-1.6m3.26.37-2.45-1.6m3.26.37-2.45-1.6m3.26.37-2.45-1.6m3.26.37-2.45-1.6m3.26.37-2.45-1.6m3.26.37-2.45-1.6m3.26.37-2.45-1.6m3.26.37-2.45-1.6m3.26.37-2.45-1.6m3.26.37-2.45-1.6m3.26.37-2.45-1.6m3.26.37-2.45-1.6m3.26.37-2.45-1.6m3.26.37-2.45-1.6m3.26.37-2.45-1.6m3.26.37-2.45-1.6m3.26.37-2.45-1.6m3.26.37-2.45-1.6m3.26.37-2.45-1.6m3.26.37-2.45-1.6m3.26.37-2.45-1.6m3.26.37-2.45-1.6m3.26.37-2.45-1.6m3.26.37-2.45-1.6m3.26.37-2.45-1.6m3.26.37-2.45-1.6m3.26.37-2.45-1.6m3.26.37-2.45-1.6m3.26.37-2.45-1.6m3.26.37-2.45-1.6m3.26.37-2.45-1.6m3.26.37-2.45-1.6m3.26.37-2.45-1.6m3.26.37-2.45-1.6m3.26.37-2.45-1.6m3.26.37-2.45-1.6m3.26.37L230.6,135m3.26.37-2.45-1.6m3.26.37-2.45-1.6m3.26.37-2.45-1.6m3.26.37-2.45-1.6m3.26.37-2.45-1.6m3.26.37-2.45-1.6m3.26.37-2.45-1.6m3.26.37-2.45-1.6m3.26.37-2.45-1.6m3.26.37-2.45-1.6m3.26.37-2.45-1.6m3.26.37-2.45-1.6m3.26.37-2.45-1.6m3.26.37-2.45-1.6m3.26.37-2.45-1.6m3.26.37-2.45-1.6m3.26.37-2.45-1.6m3.26.37-2.45-1.6m3.26.37-2.45-1.6m3.26.37-2.45-1.6m3.26.37-2.45-1.6m3.26.37-2.45-1.6m3.26.37-2.45-1.6m3.26.37-2.45-1.6m3.26.37-2.45-1.6m3.26.37-2.45-1.6m3.26.37-2.45-1.6m3.26.37-2.45-1.6" transform="translate(-0.36 -0.34)"/></g></g><g class="cls-8"><g class="cls-11"><path class="cls-10" d="M151.57,275.89l-2.45-1.6m3.26.37-2.45-1.6m3.26.37-2.45-1.6m3.26.37-2.45-1.6m3.26.37-2.45-1.6m3.26.37-2.45-1.6m3.26.37-2.45-1.6m3.26.37-2.45-1.6M158,266l-2.45-1.6m3.26.37-2.45-1.6m3.26.37-2.45-1.6m3.26.37-2.45-1.6m3.26.37-2.45-1.6m3.26.37-2.45-1.6m3.26.37-2.45-1.6m3.26.37-2.45-1.6m3.26.37-2.45-1.6m3.26.37-2.45-1.6m3.26.37-2.45-1.6m3.26.37-2.45-1.6m3.26.37-2.45-1.6m3.26.37L166,248.4m3.26.37-2.45-1.6m3.26.37-2.45-1.6m3.26.37-2.45-1.6m3.26.37-2.45-1.6m3.26.37-2.45-1.6m3.26.37-2.45-1.6m3.26.37-2.45-1.6m3.26.37-2.45-1.6m3.26.37-2.45-1.6m3.26.37-2.45-1.6m3.26.37-2.45-1.6m3.26.37-2.45-1.6m3.26.37-2.45-1.6m3.26.37-2.45-1.6m3.26.37-2.45-1.6m3.26.37-2.45-1.6m3.26.37-2.45-1.6m3.26.37-2.45-1.6m3.26.37L181.3,225m3.26.37-2.45-1.6m3.26.37-2.45-1.6m3.26.37-2.45-1.6m3.26.37-2.45-1.6m3.26.37-2.45-1.6m3.26.37-2.45-1.6m3.26.37-2.45-1.6m3.26.37-2.45-1.6m3.26.37-2.45-1.6m3.26.37-2.45-1.6m3.26.37-2.45-1.6m3.26.37-2.45-1.6m3.26.37-2.45-1.6m3.26.37-2.45-1.6m3.26.37-2.45-1.6m3.26.37-2.45-1.6m3.26.37L195,204m3.26.37-2.45-1.6m3.26.37-2.45-1.6m3.26.37-2.45-1.6m3.26.37-2.45-1.6m3.26.37-2.45-1.6m3.26.37-2.45-1.6m3.26.37-2.45-1.6m3.26.37-2.45-1.6m3.26.37-2.45-1.6m3.26.37-2.45-1.6m3.26.37-2.45-1.6m3.26.37-2.45-1.6m3.26.37-2.45-1.6m3.26.37-2.45-1.6m3.26.37-2.45-1.6m3.26.37-2.45-1.6m3.26.37-2.45-1.6m3.26.37-2.45-1.6m3.26.37-2.45-1.6m3.26.37-2.45-1.6m3.26.37-2.45-1.6m3.26.37-2.45-1.6m3.26.37-2.45-1.6m3.26.37-2.45-1.6m3.26.37-2.45-1.6m3.26.37L215.9,172m3.26.37-2.45-1.6m3.26.37-2.45-1.6m3.26.37-2.45-1.6m3.26.37-2.45-1.6m3.26.37-2.45-1.6m3.26.37-2.45-1.6m3.26.37-2.45-1.6m3.26.37-2.45-1.6m3.26.37-2.45-1.6m3.26.37-2.45-1.6m3.26.37-2.45-1.6m3.26.37-2.45-1.6m3.26.37-2.45-1.6m3.26.37-2.45-1.6m3.26.37-2.45-1.6m3.26.37-2.45-1.6m3.26.37-2.45-1.6m3.26.37-2.45-1.6m3.26.37-2.45-1.6m3.26.37-2.45-1.6m3.26.37-2.45-1.6m3.26.37-2.45-1.6m3.26.37-2.45-1.6m3.26.37-2.45-1.6m3.26.37-2.45-1.6m3.26.37-2.45-1.6m3.26.37-2.45-1.6m3.26.37-2.45-1.6m3.26.37-2.45-1.6m3.26.37L240,135m3.26.37-2.45-1.6m3.26.37-2.45-1.6m3.26.37-2.45-1.6m3.26.37-2.45-1.6m3.26.37-2.45-1.6m3.26.37-2.45-1.6m3.26.37-2.45-1.6m3.26.37-2.45-1.6m3.26.37-2.45-1.6m3.26.37-2.45-1.6m3.26.37-2.45-1.6m3.26.37-2.45-1.6m3.26.37L250.5,119m3.26.37-2.45-1.6m3.26.37-2.45-1.6m3.26.37-2.45-1.6m3.26.37-2.45-1.6m3.26.37-2.45-1.6m3.26.37-2.45-1.6m3.26.37-2.45-1.6m3.26.37-2.45-1.6m3.26.37-2.45-1.6m3.26.37-2.45-1.6m3.26.37-2.45-1.6m3.26.37-2.45-1.6m3.26.37-2.45-1.6m3.26.37-2.45-1.6m3.26.37-2.45-1.6" transform="translate(-0.36 -0.34)"/></g></g><g class="cls-8"><g class="cls-12"><path class="cls-10" d="M161,275.89l-2.45-1.6m3.26.37-2.45-1.6m3.26.37-2.45-1.6m3.26.37-2.45-1.6m3.26.37-2.45-1.6m3.26.37-2.45-1.6m3.26.37-2.45-1.6m3.26.37-2.45-1.6m3.26.37-2.45-1.6m3.26.37-2.45-1.6m3.26.37L166.6,262m3.26.37-2.45-1.6m3.26.37-2.45-1.6m3.26.37-2.45-1.6m3.26.37-2.45-1.6m3.26.37-2.45-1.6m3.26.37-2.45-1.6m3.26.37-2.45-1.6m3.26.37L173,252.1m3.26.37-2.45-1.6m3.26.37-2.45-1.6m3.26.37-2.45-1.6m3.26.37-2.45-1.6m3.26.37-2.45-1.6m3.26.37-2.45-1.6m3.26.37-2.45-1.6m3.26.37-2.45-1.6m3.26.37-2.45-1.6m3.26.37-2.45-1.6m3.26.37-2.45-1.6m3.26.37-2.45-1.6m3.26.37-2.45-1.6m3.26.37-2.45-1.6m3.26.37-2.45-1.6m3.26.37-2.45-1.6m3.26.37-2.45-1.6m3.26.37-2.45-1.6m3.26.37-2.45-1.6m3.26.37-2.45-1.6m3.26.37-2.45-1.6m3.26.37-2.45-1.6m3.26.37-2.45-1.6m3.26.37-2.45-1.6m3.26.37-2.45-1.6m3.26.37L194,220m3.26.37-2.45-1.6m3.26.37-2.45-1.6m3.26.37-2.45-1.6m3.26.37-2.45-1.6m3.26.37-2.45-1.6m3.26.37-2.45-1.6M202,213l-2.45-1.6m3.26.37-2.45-1.6m3.26.37-2.45-1.6m3.26.37-2.45-1.6m3.26.37-2.45-1.6m3.26.37-2.45-1.6m3.26.37-2.45-1.6m3.26.37-2.45-1.6m3.26.37-2.45-1.6m3.26.37-2.45-1.6m3.26.37-2.45-1.6m3.26.37-2.45-1.6m3.26.37-2.45-1.6m3.26.37-2.45-1.6m3.26.37-2.45-1.6m3.26.37-2.45-1.6m3.26.37-2.45-1.6m3.26.37-2.45-1.6m3.26.37-2.45-1.6m3.26.37-2.45-1.6m3.26.37-2.45-1.6m3.26.37-2.45-1.6m3.26.37-2.45-1.6m3.26.37-2.45-1.6m3.26.37-2.45-1.6m3.26.37-2.45-1.6M223,181l-2.45-1.6m3.26.37-2.45-1.6m3.26.37-2.45-1.6m3.26.37-2.45-1.6m3.26.37-2.45-1.6m3.26.37-2.45-1.6m3.26.37-2.45-1.6m3.26.37-2.45-1.6m3.26.37-2.45-1.6m3.26.37-2.45-1.6m3.26.37-2.45-1.6m3.26.37-2.45-1.6m3.26.37-2.45-1.6m3.26.37-2.45-1.6m3.26.37-2.45-1.6m3.26.37-2.45-1.6m3.26.37-2.45-1.6m3.26.37-2.45-1.6m3.26.37-2.45-1.6m3.26.37-2.45-1.6m3.26.37-2.45-1.6m3.26.37-2.45-1.6m3.26.37-2.45-1.6m3.26.37L239,151m3.26.37-2.45-1.6m3.26.37-2.45-1.6m3.26.37-2.45-1.6m3.26.37-2.45-1.6m3.26.37-2.45-1.6m3.26.37-2.45-1.6m3.26.37-2.45-1.6m3.26.37-2.45-1.6m3.26.37-2.45-1.6m3.26.37-2.45-1.6m3.26.37-2.45-1.6m3.26.37-2.45-1.6m3.26.37-2.45-1.6m3.26.37-2.45-1.6m3.26.37-2.45-1.6m3.26.37-2.45-1.6m3.26.37-2.45-1.6m3.26.37-2.45-1.6m3.26.37-2.45-1.6m3.26.37-2.45-1.6m3.26.37-2.45-1.6m3.26.37-2.45-1.6m3.26.37-2.45-1.6m3.26.37-2.45-1.6m3.26.37-2.45-1.6m3.26.37-2.45-1.6m3.26.37-2.45-1.6m3.26.37-2.45-1.6m3.26.37-2.45-1.6m3.26.37-2.45-1.6m3.26.37-2.45-1.6m3.26.37-2.45-1.6m3.26.37-2.45-1.6m3.26.37-2.45-1.6m3.26.37-2.45-1.6m3.26.37-2.45-1.6m3.26.37-2.45-1.6m3.26.37-2.45-1.6m3.26.37-2.45-1.6m3.26.37-2.45-1.6m3.26.37-2.45-1.6" transform="translate(-0.36 -0.34)"/></g></g><g class="cls-8"><g class="cls-13"><path class="cls-10" d="M170.45,275.89l-2.45-1.6m3.26.37-2.45-1.6m3.26.37-2.45-1.6m3.26.37-2.45-1.6m3.26.37-2.45-1.6m3.26.37-2.45-1.6m3.26.37-2.45-1.6m3.26.37-2.45-1.6m3.26.37-2.45-1.6m3.26.37-2.45-1.6m3.26.37L176,262m3.26.37-2.45-1.6m3.26.37-2.45-1.6m3.26.37-2.45-1.6m3.26.37-2.45-1.6m3.26.37-2.45-1.6m3.26.37-2.45-1.6m3.26.37-2.45-1.6m3.26.37-2.45-1.6m3.26.37-2.45-1.6m3.26.37-2.45-1.6m3.26.37-2.45-1.6m3.26.37-2.45-1.6m3.26.37-2.45-1.6m3.26.37-2.45-1.6m3.26.37-2.45-1.6m3.26.37-2.45-1.6m3.26.37-2.45-1.6m3.26.37-2.45-1.6m3.26.37-2.45-1.6m3.26.37-2.45-1.6m3.26.37-2.45-1.6m3.26.37-2.45-1.6m3.26.37-2.45-1.6m3.26.37-2.45-1.6m3.26.37-2.45-1.6m3.26.37-2.45-1.6m3.26.37-2.45-1.6M201,229l-2.45-1.6m3.26.37-2.45-1.6m3.26.37-2.45-1.6m3.26.37-2.45-1.6m3.26.37-2.45-1.6m3.26.37-2.45-1.6m3.26.37L203.4,220m3.26.37-2.45-1.6m3.26.37-2.45-1.6m3.26.37-2.45-1.6m3.26.37-2.45-1.6m3.26.37-2.45-1.6m3.26.37-2.45-1.6m3.26.37-2.45-1.6m3.26.37-2.45-1.6m3.26.37-2.45-1.6m3.26.37-2.45-1.6m3.26.37-2.45-1.6m3.26.37-2.45-1.6m3.26.37-2.45-1.6m3.26.37-2.45-1.6m3.26.37-2.45-1.6m3.26.37-2.45-1.6m3.26.37-2.45-1.6m3.26.37-2.45-1.6m3.26.37-2.45-1.6m3.26.37-2.45-1.6m3.26.37-2.45-1.6m3.26.37-2.45-1.6m3.26.37-2.45-1.6m3.26.37-2.45-1.6m3.26.37-2.45-1.6m3.26.37-2.45-1.6m3.26.37-2.45-1.6m3.26.37-2.45-1.6m3.26.37-2.45-1.6m3.26.37-2.45-1.6m3.26.37-2.45-1.6m3.26.37-2.45-1.6m3.26.37-2.45-1.6m3.26.37-2.45-1.6m3.26.37-2.45-1.6m3.26.37-2.45-1.6m3.26.37-2.45-1.6m3.26.37L234,173.2m3.26.37-2.45-1.6m3.26.37-2.45-1.6m3.26.37-2.45-1.6m3.26.37-2.45-1.6m3.26.37L238,167m3.26.37-2.45-1.6m3.26.37-2.45-1.6m3.26.37-2.45-1.6m3.26.37-2.45-1.6m3.26.37-2.45-1.6m3.26.37-2.45-1.6m3.26.37-2.45-1.6m3.26.37-2.45-1.6m3.26.37-2.45-1.6m3.26.37-2.45-1.6m3.26.37-2.45-1.6m3.26.37-2.45-1.6m3.26.37-2.45-1.6m3.26.37-2.45-1.6m3.26.37-2.45-1.6m3.26.37-2.45-1.6m3.26.37-2.45-1.6m3.26.37-2.45-1.6m3.26.37-2.45-1.6m3.26.37-2.45-1.6m3.26.37-2.45-1.6m3.26.37-2.45-1.6m3.26.37-2.45-1.6m3.26.37-2.45-1.6m3.26.37-2.45-1.6m3.26.37-2.45-1.6m3.26.37-2.45-1.6m3.26.37-2.45-1.6m3.26.37-2.45-1.6m3.26.37-2.45-1.6m3.26.37-2.45-1.6m3.26.37-2.45-1.6M267,128l-2.45-1.6m3.26.37-2.45-1.6m3.26.37-2.45-1.6m3.26.37-2.45-1.6m3.26.37-2.45-1.6m3.26.37-2.45-1.6m3.26.37-2.45-1.6m3.26.37-2.45-1.6m3.26.37-2.45-1.6m3.26.37-2.45-1.6m3.26.37L272.6,114m3.26.37-2.45-1.6m3.26.37-2.45-1.6m3.26.37-2.45-1.6m3.26.37-2.45-1.6m3.26.37-2.45-1.6m3.26.37-2.45-1.6m3.26.37-2.45-1.6m3.26.37-2.45-1.6m3.26.37-2.45-1.6m3.26.37-2.45-1.6m3.26.37-2.45-1.6" transform="translate(-0.36 -0.34)"/></g></g><g class="cls-8"><g class="cls-14"><path class="cls-10" d="M179.89,275.89l-2.45-1.6m3.26.37-2.45-1.6m3.26.37-2.45-1.6m3.26.37-2.45-1.6m3.26.37-2.45-1.6m3.26.37-2.45-1.6m3.26.37-2.45-1.6m3.26.37-2.45-1.6m3.26.37-2.45-1.6m3.26.37-2.45-1.6m3.26.37-2.45-1.6m3.26.37-2.45-1.6m3.26.37-2.45-1.6m3.26.37-2.45-1.6m3.26.37L188.7,257m3.26.37-2.45-1.6m3.26.37-2.45-1.6m3.26.37-2.45-1.6m3.26.37-2.45-1.6m3.26.37-2.45-1.6m3.26.37-2.45-1.6m3.26.37-2.45-1.6m3.26.37-2.45-1.6m3.26.37-2.45-1.6m3.26.37-2.45-1.6m3.26.37-2.45-1.6m3.26.37-2.45-1.6m3.26.37-2.45-1.6m3.26.37-2.45-1.6m3.26.37-2.45-1.6m3.26.37-2.45-1.6m3.26.37-2.45-1.6m3.26.37-2.45-1.6m3.26.37-2.45-1.6m3.26.37-2.45-1.6m3.26.37-2.45-1.6m3.26.37-2.45-1.6m3.26.37-2.45-1.6m3.26.37-2.45-1.6m3.26.37-2.45-1.6m3.26.37-2.45-1.6m3.26.37-2.45-1.6m3.26.37-2.45-1.6m3.26.37-2.45-1.6m3.26.37-2.45-1.6m3.26.37-2.45-1.6m3.26.37-2.45-1.6m3.26.37-2.45-1.6m3.26.37-2.45-1.6m3.26.37-2.45-1.6m3.26.37-2.45-1.6m3.26.37-2.45-1.6m3.26.37-2.45-1.6m3.26.37-2.45-1.6m3.26.37-2.45-1.6m3.26.37-2.45-1.6m3.26.37-2.45-1.6m3.26.37-2.45-1.6m3.26.37-2.45-1.6m3.26.37-2.45-1.6m3.26.37-2.45-1.6m3.26.37-2.45-1.6m3.26.37-2.45-1.6m3.26.37-2.45-1.6m3.26.37-2.45-1.6m3.26.37-2.45-1.6m3.26.37-2.45-1.6m3.26.37-2.45-1.6m3.26.37-2.45-1.6m3.26.37-2.45-1.6m3.26.37-2.45-1.6m3.26.37-2.45-1.6m3.26.37-2.45-1.6m3.26.37-2.45-1.6m3.26.37-2.45-1.6m3.26.37-2.45-1.6m3.26.37-2.45-1.6m3.26.37-2.45-1.6m3.26.37-2.45-1.6m3.26.37L241,176.9m3.26.37-2.45-1.6m3.26.37-2.45-1.6m3.26.37-2.45-1.6m3.26.37-2.45-1.6m3.26.37-2.45-1.6m3.26.37-2.45-1.6m3.26.37-2.45-1.6m3.26.37-2.45-1.6m3.26.37-2.45-1.6m3.26.37-2.45-1.6m3.26.37-2.45-1.6m3.26.37-2.45-1.6m3.26.37-2.45-1.6m3.26.37-2.45-1.6m3.26.37-2.45-1.6m3.26.37-2.45-1.6m3.26.37-2.45-1.6m3.26.37-2.45-1.6m3.26.37-2.45-1.6m3.26.37-2.45-1.6m3.26.37-2.45-1.6m3.26.37-2.45-1.6m3.26.37-2.45-1.6m3.26.37-2.45-1.6m3.26.37-2.45-1.6m3.26.37-2.45-1.6m3.26.37-2.45-1.6M266,144l-2.45-1.6m3.26.37-2.45-1.6m3.26.37-2.45-1.6m3.26.37-2.45-1.6m3.26.37-2.45-1.6m3.26.37-2.45-1.6m3.26.37-2.45-1.6m3.26.37-2.45-1.6m3.26.37-2.45-1.6m3.26.37-2.45-1.6m3.26.37-2.45-1.6m3.26.37-2.45-1.6m3.26.37-2.45-1.6m3.26.37-2.45-1.6m3.26.37-2.45-1.6m3.26.37-2.45-1.6m3.26.37-2.45-1.6m3.26.37-2.45-1.6m3.26.37-2.45-1.6m3.26.37-2.45-1.6m3.26.37-2.45-1.6m3.26.37-2.45-1.6m3.26.37-2.45-1.6m3.26.37L282,114m3.26.37-2.45-1.6m3.26.37-2.45-1.6m3.26.37-2.45-1.6m3.26.37-2.45-1.6m3.26.37-2.45-1.6m3.26.37-2.45-1.6m3.26.37-2.45-1.6m3.26.37-2.45-1.6m3.26.37-2.45-1.6m3.26.37-2.45-1.6m3.26.37-2.45-1.6" transform="translate(-0.36 -0.34)"/></g></g><g class="cls-8"><g class="cls-15"><path class="cls-10" d="M189.32,275.89l-2.45-1.6m3.26.37-2.45-1.6m3.26.37-2.45-1.6m3.26.37-2.45-1.6m3.26.37-2.45-1.6m3.26.37-2.45-1.6m3.26.37-2.45-1.6m3.26.37-2.45-1.6m3.26.37-2.45-1.6m3.26.37-2.45-1.6m3.26.37-2.45-1.6m3.26.37-2.45-1.6m3.26.37-2.45-1.6m3.26.37-2.45-1.6m3.26.37-2.45-1.6m3.26.37-2.45-1.6m3.26.37-2.45-1.6m3.26.37-2.45-1.6m3.26.37-2.45-1.6m3.26.37-2.45-1.6m3.26.37-2.45-1.6m3.26.37-2.45-1.6m3.26.37-2.45-1.6m3.26.37-2.45-1.6m3.26.37-2.45-1.6m3.26.37-2.45-1.6m3.26.37-2.45-1.6m3.26.37-2.45-1.6m3.26.37-2.45-1.6m3.26.37-2.45-1.6m3.26.37L211,237.3m3.26.37-2.45-1.6m3.26.37-2.45-1.6m3.26.37-2.45-1.6m3.26.37-2.45-1.6m3.26.37-2.45-1.6m3.26.37-2.45-1.6m3.26.37-2.45-1.6m3.26.37-2.45-1.6m3.26.37-2.45-1.6m3.26.37-2.45-1.6m3.26.37-2.45-1.6m3.26.37-2.45-1.6m3.26.37-2.45-1.6m3.26.37-2.45-1.6m3.26.37-2.45-1.6m3.26.37-2.45-1.6m3.26.37-2.45-1.6m3.26.37-2.45-1.6m3.26.37-2.45-1.6m3.26.37-2.45-1.6m3.26.37-2.45-1.6m3.26.37-2.45-1.6m3.26.37-2.45-1.6m3.26.37-2.45-1.6m3.26.37-2.45-1.6m3.26.37-2.45-1.6m3.26.37-2.45-1.6m3.26.37-2.45-1.6m3.26.37-2.45-1.6m3.26.37-2.45-1.6m3.26.37-2.45-1.6m3.26.37-2.45-1.6m3.26.37-2.45-1.6m3.26.37-2.45-1.6m3.26.37-2.45-1.6m3.26.37-2.45-1.6m3.26.37-2.45-1.6m3.26.37-2.45-1.6m3.26.37-2.45-1.6m3.26.37-2.45-1.6m3.26.37-2.45-1.6m3.26.37-2.45-1.6m3.26.37-2.45-1.6m3.26.37-2.45-1.6m3.26.37-2.45-1.6m3.26.37L248,180.6m3.26.37-2.45-1.6m3.26.37-2.45-1.6m3.26.37-2.45-1.6m3.26.37-2.45-1.6m3.26.37-2.45-1.6m3.26.37-2.45-1.6m3.26.37-2.45-1.6m3.26.37-2.45-1.6m3.26.37-2.45-1.6m3.26.37-2.45-1.6m3.26.37-2.45-1.6m3.26.37-2.45-1.6m3.26.37-2.45-1.6m3.26.37-2.45-1.6m3.26.37-2.45-1.6m3.26.37-2.45-1.6m3.26.37-2.45-1.6M265,160l-2.45-1.6m3.26.37-2.45-1.6m3.26.37-2.45-1.6m3.26.37-2.45-1.6m3.26.37-2.45-1.6m3.26.37-2.45-1.6m3.26.37-2.45-1.6m3.26.37-2.45-1.6m3.26.37-2.45-1.6m3.26.37-2.45-1.6m3.26.37-2.45-1.6m3.26.37-2.45-1.6m3.26.37-2.45-1.6m3.26.37-2.45-1.6m3.26.37-2.45-1.6m3.26.37-2.45-1.6m3.26.37-2.45-1.6m3.26.37-2.45-1.6m3.26.37-2.45-1.6m3.26.37-2.45-1.6m3.26.37-2.45-1.6m3.26.37-2.45-1.6m3.26.37-2.45-1.6m3.26.37-2.45-1.6m3.26.37-2.45-1.6m3.26.37-2.45-1.6m3.26.37-2.45-1.6m3.26.37-2.45-1.6m3.26.37-2.45-1.6m3.26.37-2.45-1.6m3.26.37-2.45-1.6m3.26.37-2.45-1.6m3.26.37-2.45-1.6m3.26.37-2.45-1.6m3.26.37-2.45-1.6m3.26.37-2.45-1.6m3.26.37-2.45-1.6m3.26.37-2.45-1.6m3.26.37-2.45-1.6m3.26.37-2.45-1.6m3.26.37-2.45-1.6m3.26.37-2.45-1.6m3.26.37-2.45-1.6m3.26.37-2.45-1.6m3.26.37-2.45-1.6m3.26.37-2.45-1.6m3.26.37-2.45-1.6m3.26.37-2.45-1.6" transform="translate(-0.36 -0.34)"/></g></g><g class="cls-8"><g class="cls-16"><path class="cls-10" d="M198.76,275.89l-2.45-1.6m3.26.37-2.45-1.6m3.26.37-2.45-1.6m3.26.37-2.45-1.6M202,271l-2.45-1.6m3.26.37-2.45-1.6m3.26.37-2.45-1.6m3.26.37-2.45-1.6m3.26.37-2.45-1.6m3.26.37-2.45-1.6m3.26.37-2.45-1.6m3.26.37-2.45-1.6m3.26.37-2.45-1.6m3.26.37-2.45-1.6m3.26.37-2.45-1.6m3.26.37-2.45-1.6m3.26.37-2.45-1.6m3.26.37-2.45-1.6m3.26.37-2.45-1.6m3.26.37-2.45-1.6m3.26.37-2.45-1.6m3.26.37-2.45-1.6m3.26.37-2.45-1.6m3.26.37-2.45-1.6m3.26.37-2.45-1.6m3.26.37-2.45-1.6m3.26.37-2.45-1.6m3.26.37L218,241m3.26.37-2.45-1.6m3.26.37-2.45-1.6m3.26.37-2.45-1.6m3.26.37-2.45-1.6m3.26.37-2.45-1.6m3.26.37-2.45-1.6m3.26.37-2.45-1.6m3.26.37-2.45-1.6m3.26.37-2.45-1.6m3.26.37-2.45-1.6m3.26.37-2.45-1.6m3.26.37-2.45-1.6m3.26.37-2.45-1.6m3.26.37-2.45-1.6m3.26.37-2.45-1.6m3.26.37-2.45-1.6m3.26.37-2.45-1.6m3.26.37-2.45-1.6m3.26.37-2.45-1.6m3.26.37-2.45-1.6m3.26.37-2.45-1.6m3.26.37-2.45-1.6m3.26.37-2.45-1.6m3.26.37-2.45-1.6m3.26.37-2.45-1.6m3.26.37-2.45-1.6m3.26.37-2.45-1.6m3.26.37-2.45-1.6m3.26.37-2.45-1.6m3.26.37-2.45-1.6m3.26.37-2.45-1.6m3.26.37-2.45-1.6m3.26.37-2.45-1.6m3.26.37-2.45-1.6m3.26.37-2.45-1.6m3.26.37-2.45-1.6m3.26.37-2.45-1.6m3.26.37-2.45-1.6m3.26.37-2.45-1.6m3.26.37-2.45-1.6m3.26.37-2.45-1.6m3.26.37-2.45-1.6m3.26.37-2.45-1.6m3.26.37-2.45-1.6m3.26.37-2.45-1.6m3.26.37-2.45-1.6m3.26.37-2.45-1.6m3.26.37-2.45-1.6m3.26.37-2.45-1.6m3.26.37-2.45-1.6m3.26.37-2.45-1.6m3.26.37-2.45-1.6m3.26.37-2.45-1.6m3.26.37-2.45-1.6m3.26.37-2.45-1.6m3.26.37-2.45-1.6m3.26.37-2.45-1.6m3.26.37-2.45-1.6m3.26.37-2.45-1.6m3.26.37-2.45-1.6m3.26.37-2.45-1.6m3.26.37-2.45-1.6m3.26.37-2.45-1.6m3.26.37-2.45-1.6m3.26.37-2.45-1.6m3.26.37-2.45-1.6m3.26.37-2.45-1.6m3.26.37-2.45-1.6m3.26.37-2.45-1.6m3.26.37-2.45-1.6m3.26.37-2.45-1.6m3.26.37-2.45-1.6m3.26.37-2.45-1.6m3.26.37-2.45-1.6m3.26.37-2.45-1.6m3.26.37-2.45-1.6m3.26.37-2.45-1.6m3.26.37-2.45-1.6m3.26.37-2.45-1.6m3.26.37-2.45-1.6m3.26.37-2.45-1.6m3.26.37-2.45-1.6m3.26.37-2.45-1.6m3.26.37-2.45-1.6m3.26.37-2.45-1.6m3.26.37-2.45-1.6m3.26.37-2.45-1.6m3.26.37-2.45-1.6m3.26.37-2.45-1.6m3.26.37-2.45-1.6m3.26.37-2.45-1.6m3.26.37-2.45-1.6m3.26.37-2.45-1.6m3.26.37-2.45-1.6m3.26.37-2.45-1.6m3.26.37-2.45-1.6m3.26.37-2.45-1.6m3.26.37-2.45-1.6m3.26.37-2.45-1.6m3.26.37-2.45-1.6m3.26.37-2.45-1.6m3.26.37-2.45-1.6m3.26.37-2.45-1.6m3.26.37-2.45-1.6m3.26.37-2.45-1.6m3.26.37-2.45-1.6m3.26.37-2.45-1.6m3.26.37-2.45-1.6m3.26.37-2.45-1.6M309,107l-2.45-1.6m3.26.37-2.45-1.6m3.26.37-2.45-1.6m3.26.37L309,101.7m3.26.37-2.45-1.6" transform="translate(-0.36 -0.34)"/></g></g><g class="cls-8"><g class="cls-17"><path class="cls-10" d="M208.2,275.89l-2.45-1.6m3.26.37-2.45-1.6m3.26.37-2.45-1.6m3.26.37-2.45-1.6m3.26.37-2.45-1.6m3.26.37-2.45-1.6m3.26.37-2.45-1.6m3.26.37-2.45-1.6m3.26.37-2.45-1.6m3.26.37-2.45-1.6m3.26.37-2.45-1.6m3.26.37-2.45-1.6m3.26.37-2.45-1.6m3.26.37-2.45-1.6m3.26.37L217,257m3.26.37-2.45-1.6m3.26.37-2.45-1.6m3.26.37-2.45-1.6m3.26.37-2.45-1.6m3.26.37-2.45-1.6m3.26.37-2.45-1.6m3.26.37-2.45-1.6m3.26.37-2.45-1.6m3.26.37-2.45-1.6m3.26.37-2.45-1.6m3.26.37-2.45-1.6m3.26.37-2.45-1.6m3.26.37-2.45-1.6m3.26.37-2.45-1.6m3.26.37-2.45-1.6m3.26.37-2.45-1.6m3.26.37-2.45-1.6m3.26.37-2.45-1.6m3.26.37-2.45-1.6m3.26.37-2.45-1.6m3.26.37-2.45-1.6m3.26.37-2.45-1.6m3.26.37-2.45-1.6m3.26.37-2.45-1.6m3.26.37-2.45-1.6m3.26.37-2.45-1.6m3.26.37-2.45-1.6m3.26.37-2.45-1.6m3.26.37-2.45-1.6m3.26.37-2.45-1.6m3.26.37-2.45-1.6m3.26.37-2.45-1.6m3.26.37-2.45-1.6m3.26.37-2.45-1.6m3.26.37-2.45-1.6m3.26.37-2.45-1.6m3.26.37-2.45-1.6m3.26.37-2.45-1.6m3.26.37-2.45-1.6m3.26.37-2.45-1.6m3.26.37-2.45-1.6m3.26.37-2.45-1.6m3.26.37-2.45-1.6m3.26.37-2.45-1.6m3.26.37-2.45-1.6m3.26.37-2.45-1.6m3.26.37-2.45-1.6m3.26.37-2.45-1.6m3.26.37-2.45-1.6m3.26.37-2.45-1.6m3.26.37-2.45-1.6m3.26.37-2.45-1.6m3.26.37-2.45-1.6m3.26.37-2.45-1.6m3.26.37-2.45-1.6m3.26.37-2.45-1.6m3.26.37-2.45-1.6m3.26.37-2.45-1.6m3.26.37-2.45-1.6m3.26.37-2.45-1.6m3.26.37-2.45-1.6m3.26.37-2.45-1.6m3.26.37-2.45-1.6m3.26.37-2.45-1.6m3.26.37-2.45-1.6m3.26.37-2.45-1.6m3.26.37-2.45-1.6m3.26.37-2.45-1.6m3.26.37-2.45-1.6m3.26.37-2.45-1.6m3.26.37-2.45-1.6m3.26.37-2.45-1.6m3.26.37-2.45-1.6m3.26.37-2.45-1.6m3.26.37-2.45-1.6m3.26.37-2.45-1.6m3.26.37L279,162.1m3.26.37-2.45-1.6m3.26.37-2.45-1.6m3.26.37-2.45-1.6m3.26.37-2.45-1.6m3.26.37-2.45-1.6m3.26.37-2.45-1.6m3.26.37-2.45-1.6m3.26.37-2.45-1.6m3.26.37-2.45-1.6m3.26.37-2.45-1.6m3.26.37-2.45-1.6m3.26.37-2.45-1.6m3.26.37-2.45-1.6m3.26.37-2.45-1.6m3.26.37-2.45-1.6m3.26.37-2.45-1.6m3.26.37-2.45-1.6m3.26.37-2.45-1.6m3.26.37-2.45-1.6m3.26.37-2.45-1.6m3.26.37-2.45-1.6m3.26.37-2.45-1.6m3.26.37-2.45-1.6m3.26.37-2.45-1.6m3.26.37-2.45-1.6m3.26.37-2.45-1.6m3.26.37-2.45-1.6m3.26.37-2.45-1.6m3.26.37-2.45-1.6m3.26.37-2.45-1.6m3.26.37-2.45-1.6m3.26.37-2.45-1.6M308,123l-2.45-1.6m3.26.37-2.45-1.6m3.26.37-2.45-1.6m3.26.37-2.45-1.6m3.26.37-2.45-1.6m3.26.37-2.45-1.6m3.26.37-2.45-1.6m3.26.37-2.45-1.6m3.26.37-2.45-1.6m3.26.37-2.45-1.6m3.26.37-2.45-1.6m3.26.37-2.45-1.6m3.26.37-2.45-1.6m3.26.37L316,105.4m3.26.37-2.45-1.6m3.26.37-2.45-1.6m3.26.37-2.45-1.6m3.26.37-2.45-1.6" transform="translate(-0.36 -0.34)"/></g></g><g class="cls-8"><g class="cls-18"><path class="cls-10" d="M217.64,275.89l-2.45-1.6m3.26.37-2.45-1.6m3.26.37-2.45-1.6m3.26.37-2.45-1.6m3.26.37-2.45-1.6m3.26.37-2.45-1.6m3.26.37-2.45-1.6m3.26.37-2.45-1.6m3.26.37-2.45-1.6m3.26.37-2.45-1.6m3.26.37-2.45-1.6m3.26.37-2.45-1.6m3.26.37-2.45-1.6m3.26.37-2.45-1.6m3.26.37-2.45-1.6m3.26.37-2.45-1.6m3.26.37-2.45-1.6m3.26.37-2.45-1.6m3.26.37-2.45-1.6m3.26.37-2.45-1.6m3.26.37-2.45-1.6m3.26.37-2.45-1.6m3.26.37-2.45-1.6m3.26.37-2.45-1.6m3.26.37-2.45-1.6m3.26.37-2.45-1.6m3.26.37-2.45-1.6m3.26.37-2.45-1.6m3.26.37-2.45-1.6m3.26.37-2.45-1.6m3.26.37-2.45-1.6m3.26.37-2.45-1.6m3.26.37-2.45-1.6m3.26.37-2.45-1.6M245,234l-2.45-1.6m3.26.37-2.45-1.6m3.26.37-2.45-1.6m3.26.37-2.45-1.6m3.26.37-2.45-1.6m3.26.37-2.45-1.6m3.26.37-2.45-1.6m3.26.37-2.45-1.6m3.26.37-2.45-1.6m3.26.37-2.45-1.6m3.26.37-2.45-1.6m3.26.37-2.45-1.6m3.26.37-2.45-1.6m3.26.37-2.45-1.6m3.26.37-2.45-1.6m3.26.37-2.45-1.6m3.26.37-2.45-1.6m3.26.37-2.45-1.6m3.26.37-2.45-1.6m3.26.37-2.45-1.6m3.26.37-2.45-1.6m3.26.37-2.45-1.6m3.26.37-2.45-1.6m3.26.37L261,204m3.26.37-2.45-1.6m3.26.37-2.45-1.6m3.26.37-2.45-1.6m3.26.37-2.45-1.6m3.26.37-2.45-1.6m3.26.37-2.45-1.6m3.26.37-2.45-1.6m3.26.37-2.45-1.6m3.26.37-2.45-1.6m3.26.37-2.45-1.6m3.26.37-2.45-1.6m3.26.37-2.45-1.6m3.26.37-2.45-1.6m3.26.37-2.45-1.6m3.26.37-2.45-1.6m3.26.37-2.45-1.6m3.26.37-2.45-1.6m3.26.37-2.45-1.6m3.26.37-2.45-1.6m3.26.37-2.45-1.6m3.26.37-2.45-1.6m3.26.37-2.45-1.6m3.26.37-2.45-1.6m3.26.37-2.45-1.6m3.26.37-2.45-1.6m3.26.37L282,172m3.26.37-2.45-1.6m3.26.37-2.45-1.6m3.26.37-2.45-1.6m3.26.37-2.45-1.6m3.26.37L286,165.8m3.26.37-2.45-1.6m3.26.37-2.45-1.6m3.26.37-2.45-1.6m3.26.37-2.45-1.6m3.26.37-2.45-1.6m3.26.37-2.45-1.6m3.26.37-2.45-1.6m3.26.37-2.45-1.6m3.26.37-2.45-1.6m3.26.37-2.45-1.6m3.26.37-2.45-1.6m3.26.37-2.45-1.6m3.26.37-2.45-1.6m3.26.37-2.45-1.6m3.26.37-2.45-1.6m3.26.37-2.45-1.6m3.26.37-2.45-1.6m3.26.37-2.45-1.6m3.26.37-2.45-1.6m3.26.37-2.45-1.6m3.26.37-2.45-1.6m3.26.37-2.45-1.6m3.26.37-2.45-1.6m3.26.37-2.45-1.6m3.26.37-2.45-1.6m3.26.37-2.45-1.6m3.26.37-2.45-1.6m3.26.37-2.45-1.6m3.26.37-2.45-1.6m3.26.37-2.45-1.6m3.26.37-2.45-1.6m3.26.37-2.45-1.6m3.26.37-2.45-1.6m3.26.37-2.45-1.6m3.26.37-2.45-1.6m3.26.37-2.45-1.6m3.26.37-2.45-1.6m3.26.37-2.45-1.6m3.26.37-2.45-1.6m3.26.37-2.45-1.6m3.26.37-2.45-1.6m3.26.37-2.45-1.6m3.26.37-2.45-1.6m3.26.37-2.45-1.6m3.26.37-2.45-1.6m3.26.37L323,109.1m3.26.37-2.45-1.6m3.26.37-2.45-1.6m3.26.37-2.45-1.6m3.26.37-2.45-1.6m3.26.37-2.45-1.6m3.26.37-2.45-1.6m3.26.37-2.45-1.6" transform="translate(-0.36 -0.34)"/></g></g><g class="cls-8"><g class="cls-19"><path class="cls-10" d="M227.08,275.89l-2.45-1.6m3.26.37-2.45-1.6m3.26.37-2.45-1.6m3.26.37-2.45-1.6m3.26.37-2.45-1.6m3.26.37-2.45-1.6m3.26.37-2.45-1.6m3.26.37-2.45-1.6m3.26.37-2.45-1.6m3.26.37-2.45-1.6m3.26.37-2.45-1.6m3.26.37-2.45-1.6m3.26.37-2.45-1.6m3.26.37-2.45-1.6m3.26.37-2.45-1.6m3.26.37-2.45-1.6m3.26.37-2.45-1.6m3.26.37-2.45-1.6m3.26.37-2.45-1.6m3.26.37-2.45-1.6m3.26.37-2.45-1.6M244,250l-2.45-1.6m3.26.37-2.45-1.6m3.26.37-2.45-1.6m3.26.37-2.45-1.6m3.26.37-2.45-1.6m3.26.37-2.45-1.6m3.26.37-2.45-1.6m3.26.37-2.45-1.6m3.26.37-2.45-1.6m3.26.37-2.45-1.6m3.26.37-2.45-1.6m3.26.37-2.45-1.6m3.26.37-2.45-1.6m3.26.37-2.45-1.6m3.26.37-2.45-1.6m3.26.37-2.45-1.6m3.26.37-2.45-1.6m3.26.37-2.45-1.6m3.26.37-2.45-1.6m3.26.37-2.45-1.6m3.26.37-2.45-1.6m3.26.37-2.45-1.6m3.26.37-2.45-1.6m3.26.37L260,220m3.26.37-2.45-1.6m3.26.37-2.45-1.6m3.26.37-2.45-1.6m3.26.37-2.45-1.6m3.26.37-2.45-1.6m3.26.37-2.45-1.6m3.26.37-2.45-1.6m3.26.37-2.45-1.6m3.26.37-2.45-1.6m3.26.37-2.45-1.6m3.26.37-2.45-1.6m3.26.37-2.45-1.6m3.26.37-2.45-1.6m3.26.37-2.45-1.6m3.26.37-2.45-1.6m3.26.37-2.45-1.6m3.26.37-2.45-1.6m3.26.37-2.45-1.6m3.26.37-2.45-1.6m3.26.37-2.45-1.6m3.26.37-2.45-1.6m3.26.37-2.45-1.6m3.26.37-2.45-1.6m3.26.37-2.45-1.6m3.26.37-2.45-1.6m3.26.37-2.45-1.6m3.26.37-2.45-1.6m3.26.37-2.45-1.6m3.26.37-2.45-1.6m3.26.37-2.45-1.6m3.26.37-2.45-1.6m3.26.37-2.45-1.6M289,181l-2.45-1.6m3.26.37-2.45-1.6m3.26.37-2.45-1.6m3.26.37-2.45-1.6m3.26.37-2.45-1.6m3.26.37-2.45-1.6m3.26.37-2.45-1.6m3.26.37-2.45-1.6m3.26.37L293,169.5m3.26.37-2.45-1.6m3.26.37-2.45-1.6m3.26.37-2.45-1.6m3.26.37-2.45-1.6m3.26.37-2.45-1.6m3.26.37-2.45-1.6m3.26.37-2.45-1.6m3.26.37-2.45-1.6m3.26.37-2.45-1.6m3.26.37-2.45-1.6m3.26.37-2.45-1.6m3.26.37-2.45-1.6m3.26.37-2.45-1.6m3.26.37-2.45-1.6m3.26.37-2.45-1.6m3.26.37-2.45-1.6m3.26.37-2.45-1.6m3.26.37-2.45-1.6m3.26.37-2.45-1.6m3.26.37-2.45-1.6m3.26.37-2.45-1.6m3.26.37-2.45-1.6m3.26.37-2.45-1.6m3.26.37-2.45-1.6m3.26.37-2.45-1.6m3.26.37-2.45-1.6m3.26.37-2.45-1.6m3.26.37-2.45-1.6m3.26.37-2.45-1.6m3.26.37-2.45-1.6m3.26.37-2.45-1.6m3.26.37-2.45-1.6m3.26.37-2.45-1.6m3.26.37-2.45-1.6m3.26.37-2.45-1.6m3.26.37-2.45-1.6m3.26.37-2.45-1.6m3.26.37-2.45-1.6m3.26.37-2.45-1.6m3.26.37-2.45-1.6m3.26.37L326,119m3.26.37-2.45-1.6m3.26.37-2.45-1.6m3.26.37-2.45-1.6m3.26.37-2.45-1.6m3.26.37-2.45-1.6m3.26.37-2.45-1.6m3.26.37-2.45-1.6m3.26.37-2.45-1.6m3.26.37-2.45-1.6m3.26.37-2.45-1.6m3.26.37-2.45-1.6m3.26.37-2.45-1.6m3.26.37-2.45-1.6m3.26.37-2.45-1.6m3.26.37-2.45-1.6" transform="translate(-0.36 -0.34)"/></g></g><g class="cls-4"><g class="cls-20"><g class="cls-21"><line class="cls-7" x1="149.93" y1="0.2" x2="68.52" y2="125.64"/></g></g></g><g class="cls-4"><g class="cls-22"><g class="cls-23"><line class="cls-7" x1="145.67" y1="0.2" x2="64.26" y2="125.64"/></g></g></g><g class="cls-4"><g class="cls-24"><g class="cls-25"><line class="cls-7" x1="141.41" y1="0.2" x2="59.99" y2="125.64"/></g></g></g><g class="cls-4"><g class="cls-26"><g class="cls-27"><line class="cls-7" x1="137.14" y1="0.2" x2="55.73" y2="125.64"/></g></g></g><g class="cls-4"><g class="cls-28"><g class="cls-29"><line class="cls-7" x1="132.88" y1="0.2" x2="51.47" y2="125.64"/></g></g></g><g class="cls-4"><g class="cls-30"><g class="cls-31"><line class="cls-7" x1="128.62" y1="0.2" x2="47.2" y2="125.64"/></g></g></g><g class="cls-4"><g class="cls-32"><g class="cls-33"><line class="cls-7" x1="124.35" y1="0.2" x2="42.94" y2="125.64"/></g></g></g><g class="cls-4"><g class="cls-34"><g class="cls-35"><line class="cls-7" x1="120.09" y1="0.2" x2="38.67" y2="125.64"/></g></g></g><g class="cls-4"><g class="cls-36"><g class="cls-37"><line class="cls-7" x1="115.82" y1="0.2" x2="34.41" y2="125.64"/></g></g></g><g class="cls-4"><g class="cls-38"><g class="cls-39"><line class="cls-7" x1="111.56" y1="0.2" x2="30.15" y2="125.64"/></g></g></g><g class="cls-4"><g class="cls-40"><g class="cls-41"><line class="cls-7" x1="107.3" y1="0.2" x2="25.88" y2="125.64"/></g></g></g><g class="cls-4"><g class="cls-42"><g class="cls-43"><line class="cls-7" x1="103.03" y1="0.2" x2="21.62" y2="125.64"/></g></g></g><g class="cls-4"><g class="cls-44"><g class="cls-45"><line class="cls-7" x1="98.77" y1="0.2" x2="17.36" y2="125.64"/></g></g></g><g class="cls-4"><g class="cls-46"><g class="cls-47"><line class="cls-7" x1="94.51" y1="0.2" x2="13.09" y2="125.64"/></g></g></g><g class="cls-4"><g class="cls-48"><g class="cls-49"><line class="cls-7" x1="90.24" y1="0.2" x2="8.83" y2="125.64"/></g></g></g><g class="cls-4"><g class="cls-50"><g class="cls-51"><line class="cls-7" x1="85.98" y1="0.2" x2="4.57" y2="125.64"/></g></g></g><g class="cls-4"><g class="cls-52"><g class="cls-53"><line class="cls-7" x1="81.71" y1="0.2" x2="0.3" y2="125.64"/></g></g></g></g><text class="cls-54" transform="translate(97.14 133.71)">Sed ut perspiciatis unde omnis iste </text><text class="cls-54" transform="translate(97.14 137.1)">natus er</text><text class="cls-54" transform="translate(105.3 137.1)">r</text><text class="cls-54" transform="translate(106 137.1)">or sit voluptatem accusan</text><text class="cls-54" transform="translate(131.97 137.1)">-</text><text class="cls-54" transform="translate(97.14 140.51)">tium dolo</text><text class="cls-54" transform="translate(106.52 140.51)">r</text><text class="cls-54" transform="translate(107.21 140.51)">emque laudantium, totam </text><text class="cls-54" transform="translate(97.14 143.9)">r</text><text class="cls-54" transform="translate(97.84 143.9)">em aperiam, eaque ipsa quae ab illo </text><text class="cls-54" transform="translate(97.14 147.3)">invento</text><text class="cls-54" transform="translate(104.39 147.3)">r</text><text class="cls-54" transform="translate(105.09 147.3)">e veritatis et quasi a</text><text class="cls-54" transform="translate(125.06 147.3)">r</text><text class="cls-54" transform="translate(125.76 147.3)">chitecto </text><text class="cls-54" transform="translate(97.14 150.7)">beatae vitae dicta sunt </text><text class="cls-54" transform="translate(120.55 150.7)"> </text><text class="cls-54" transform="translate(97.14 154.1)">explicabo. </text><text class="cls-54" transform="translate(97.14 160.9)">Nemo enim ipsam voluptatem quia </text><text class="cls-54" transform="translate(97.14 164.3)">voluptas sit aspe</text><text class="cls-54" transform="translate(114.07 164.3)">r</text><text class="cls-54" transform="translate(114.85 164.3)">natur aut odit aut </text><text class="cls-54" transform="translate(97.14 167.7)">fugit, sed quia consequuntur magni </text><text class="cls-54" transform="translate(97.14 171.1)">dolo</text><text class="cls-54" transform="translate(101.53 171.1)">r</text><text class="cls-54" transform="translate(102.23 171.1)">es eos qui ratione voluptatem </text><text class="cls-54" transform="translate(97.14 174.5)">sequi nesciunt. Neque por</text><text class="cls-54" transform="translate(123.67 174.5)">r</text><text class="cls-54" transform="translate(124.37 174.5)">o quisquam </text><text class="cls-54" transform="translate(97.14 177.9)">est, qui dolo</text><text class="cls-54" transform="translate(109.56 177.9)">r</text><text class="cls-54" transform="translate(110.25 177.9)">em ipsum quia dolor sit </text><text class="cls-54" transform="translate(97.14 181.3)">amet, consectetu</text><text class="cls-54" transform="translate(114.73 181.3)">r</text><text class="cls-54" transform="translate(115.25 181.3)">, adipisci velit, sed </text><text class="cls-54" transform="translate(97.14 184.7)">quia non numquam eius modi tempora </text><text class="cls-54" transform="translate(97.14 188.1)">incidunt ut labo</text><text class="cls-54" transform="translate(112.6 188.1)">r</text><text class="cls-54" transform="translate(113.29 188.1)">e et </text><text class="cls-54" transform="translate(117.73 188.1)"> </text><text class="cls-54" transform="translate(97.14 191.5)">dolo</text><text class="cls-54" transform="translate(101.53 191.5)">r</text><text class="cls-54" transform="translate(102.23 191.5)">e magnam aliquam quaerat </text><text class="cls-54" transform="translate(97.14 194.9)">voluptatem. </text><text class="cls-54" transform="translate(97.14 201.7)">Ut enim ad minima veniam, quis </text><text class="cls-54" transform="translate(97.14 205.1)">nostrum exe</text><text class="cls-54" transform="translate(109.69 205.1)">r</text><text class="cls-54" transform="translate(110.38 205.1)">citationem ullam corporis </text><text class="cls-54" transform="translate(97.14 208.5)">suscipit laboriosam, nisi ut aliquid </text><text class="cls-54" transform="translate(97.14 211.9)">ex ea commodi consequatur? Quis </text><text class="cls-54" transform="translate(97.14 215.3)">autem vel eum iu</text><text class="cls-54" transform="translate(114.29 215.3)">r</text><text class="cls-54" transform="translate(114.99 215.3)">e </text><text class="cls-54" transform="translate(116.86 215.3)">r</text><text class="cls-54" transform="translate(117.56 215.3)">ep</text><text class="cls-54" transform="translate(120.12 215.3)">r</text><text class="cls-54" transform="translate(120.82 215.3)">ehenderit qui in </text><text class="cls-54" transform="translate(97.14 218.7)">ea voluptate velit </text><text class="cls-55" transform="translate(96.83 122.85)">Sed ut perspiciatis unde</text><text class="cls-54" transform="translate(139.85 133.71)">Sed ut perspiciatis unde omnis iste </text><text class="cls-54" transform="translate(139.85 137.1)">natus er</text><text class="cls-54" transform="translate(148.01 137.1)">r</text><text class="cls-54" transform="translate(148.71 137.1)">or sit voluptatem accusan</text><text class="cls-54" transform="translate(174.68 137.1)">-</text><text class="cls-54" transform="translate(139.85 140.51)">tium dolo</text><text class="cls-54" transform="translate(149.23 140.51)">r</text><text class="cls-54" transform="translate(149.92 140.51)">emque laudantium, totam </text><text class="cls-54" transform="translate(139.85 143.9)">r</text><text class="cls-54" transform="translate(140.55 143.9)">em aperiam, eaque ipsa quae ab illo </text><text class="cls-54" transform="translate(139.85 147.3)">invento</text><text class="cls-54" transform="translate(147.1 147.3)">r</text><text class="cls-54" transform="translate(147.8 147.3)">e veritatis et quasi a</text><text class="cls-54" transform="translate(167.77 147.3)">r</text><text class="cls-54" transform="translate(168.47 147.3)">chitecto </text><text class="cls-54" transform="translate(139.85 150.7)">beatae vitae dicta sunt </text><text class="cls-54" transform="translate(163.26 150.7)"> </text><text class="cls-54" transform="translate(139.85 154.1)">explicabo. </text><text class="cls-54" transform="translate(181.95 33.23)">Nemo enim ipsam voluptatem quia </text><text class="cls-54" transform="translate(181.95 36.63)">voluptas sit aspe</text><text class="cls-54" transform="translate(198.88 36.63)">r</text><text class="cls-54" transform="translate(199.66 36.63)">natur aut odit aut </text><text class="cls-54" transform="translate(181.95 40.03)">fugit, sed quia consequuntur magni do</text><text class="cls-54" transform="translate(220.86 40.03)">-</text><text class="cls-54" transform="translate(181.95 43.43)">lo</text><text class="cls-54" transform="translate(183.69 43.43)">r</text><text class="cls-54" transform="translate(184.38 43.43)">es eos qui ratione voluptatem sequi </text><text class="cls-54" transform="translate(181.95 46.83)">nesciunt. Neque por</text><text class="cls-54" transform="translate(202.45 46.83)">r</text><text class="cls-54" transform="translate(203.14 46.83)">o quisquam est, </text><text class="cls-54" transform="translate(181.95 50.23)">qui dolo</text><text class="cls-54" transform="translate(190.02 50.23)">r</text><text class="cls-54" transform="translate(190.72 50.23)">em ipsum quia dolor sit amet, </text><text class="cls-54" transform="translate(181.95 53.63)">consectetu</text><text class="cls-54" transform="translate(193.15 53.63)">r</text><text class="cls-54" transform="translate(193.68 53.63)">, adipisci velit, sed quia non </text><text class="cls-54" transform="translate(181.95 57.03)">numquam eius modi tempora incidunt </text><text class="cls-54" transform="translate(181.95 60.43)">ut labo</text><text class="cls-54" transform="translate(188.85 60.43)">r</text><text class="cls-54" transform="translate(189.55 60.43)">e et dolo</text><text class="cls-54" transform="translate(198.37 60.43)">r</text><text class="cls-54" transform="translate(199.07 60.43)">e magnam aliquam </text><text class="cls-54" transform="translate(181.95 63.83)">quaerat voluptatem. </text><text class="cls-54" transform="translate(181.95 70.63)">Ut enim ad minima veniam, quis </text><text class="cls-54" transform="translate(181.95 74.03)">nostrum exe</text><text class="cls-54" transform="translate(194.5 74.03)">r</text><text class="cls-54" transform="translate(195.19 74.03)">citationem ullam corporis </text><text class="cls-54" transform="translate(181.95 77.43)">suscipit laboriosam, nisi ut aliquid ex </text><text class="cls-54" transform="translate(181.95 80.83)">ea commodi consequatur? Quis autem </text><text class="cls-54" transform="translate(181.95 84.23)">vel eum iu</text><text class="cls-54" transform="translate(192.11 84.23)">r</text><text class="cls-54" transform="translate(192.81 84.23)">e </text><text class="cls-54" transform="translate(194.68 84.23)">r</text><text class="cls-54" transform="translate(195.37 84.23)">ep</text><text class="cls-54" transform="translate(197.94 84.23)">r</text><text class="cls-54" transform="translate(198.63 84.23)">ehenderit qui in ea </text><text class="cls-54" transform="translate(181.95 87.63)">voluptate velit</text><text class="cls-56" transform="translate(182.88 97.56)">Article by Jake Jonson</text><text class="cls-56" transform="translate(204.22 97.56)"> </text><text class="cls-57" transform="translate(182.88 99.92)">Arts jou</text><text class="cls-57" transform="translate(189.34 99.92)">r</text><text class="cls-57" transform="translate(189.99 99.92)">nalist</text><line class="cls-58" x1="182.56" y1="93.69" x2="221.75" y2="93.69"/><line class="cls-58" x1="182.56" y1="102.2" x2="221.75" y2="102.2"/><g class="cls-3"><g class="cls-4"><g class="cls-59"><path class="cls-60" d="M177.11,191.59l-2.29,2.29m.93-2.29-2.29,2.29m.93-2.29-2.29,2.29m.93-2.29-2.29,2.29m.93-2.29-2.29,2.29m.93-2.29L168,193.88m.93-2.29-2.29,2.29m.93-2.29-2.29,2.29m.93-2.29-2.29,2.29m.93-2.29-2.29,2.29m.93-2.29-2.29,2.29m.93-2.29-2.29,2.29m.93-2.29-2.29,2.29m.93-2.29-2.29,2.29m.93-2.29-2.29,2.29m.93-2.29-2.29,2.29m.93-2.29L153,193.88m.93-2.29-2.29,2.29m.93-2.29-2.29,2.29m.93-2.29-2.29,2.29m.93-2.29-2.29,2.29m.93-2.29-2.29,2.29m.93-2.29-2.29,2.29m.93-2.29-2.29,2.29m.93-2.29-2.29,2.29m.93-2.29-2.29,2.29" transform="translate(-0.36 -0.34)"/></g></g><g class="cls-4"><g class="cls-61"><path class="cls-60" d="M177.11,162.3l-2.29,2.29m.93-2.29-2.29,2.29m.93-2.29-2.29,2.29m.93-2.29-2.29,2.29m.93-2.29-2.29,2.29m.93-2.29L168,164.59m.93-2.29-2.29,2.29m.93-2.29-2.29,2.29m.93-2.29-2.29,2.29m.93-2.29-2.29,2.29m.93-2.29-2.29,2.29m.93-2.29-2.29,2.29m.93-2.29-2.29,2.29m.93-2.29-2.29,2.29m.93-2.29-2.29,2.29m.93-2.29-2.29,2.29m.93-2.29L153,164.59m.93-2.29-2.29,2.29m.93-2.29-2.29,2.29m.93-2.29-2.29,2.29m.93-2.29-2.29,2.29m.93-2.29-2.29,2.29m.93-2.29-2.29,2.29m.93-2.29-2.29,2.29m.93-2.29-2.29,2.29m.93-2.29-2.29,2.29" transform="translate(-0.36 -0.34)"/></g></g></g><text class="cls-62" transform="translate(141.1 173.38)">“Sed ut </text><text class="cls-62" transform="translate(155.99 173.38)"> </text><text class="cls-62" transform="translate(141.1 179.13)">perspiciatis unde </text><text class="cls-62" transform="translate(141.1 184.87)">omnis iste natus.”</text><g class="cls-3"><g class="cls-63"><g class="cls-64"><g class="cls-65"><line class="cls-66" x1="81.01" y1="242.18" x2="149" y2="242.18"/></g></g></g><g class="cls-63"><g class="cls-67"><g class="cls-68"><line class="cls-66" x1="159.44" y1="16.51" x2="237.21" y2="16.51"/></g></g></g><g class="cls-69"><g class="cls-70"><g class="cls-70"><text class="cls-71" transform="translate(81.16 247.6)">34</text></g></g></g><g class="cls-4"><g class="cls-72"><g class="cls-73"><text class="cls-74" transform="translate(223.63 11.97)">Title of the article </text></g></g></g></g></g></g></svg>