<svg xmlns="http://www.w3.org/2000/svg" viewBox="0 0 139.14 196.78"><defs><style>.cls-1{fill:#fff;}.cls-2{fill:#3a3a39;}.cls-3{fill:#616161;}.cls-4{fill:#898988;}.cls-5{fill:#b0b0b0;}.cls-6{fill:#d7d7d7;}</style></defs><title>Asset 83</title><g id="Layer_2" data-name="Layer 2"><g id="Layer_1-2" data-name="Layer 1"><rect class="cls-1" width="139.14" height="196.78"/><path class="cls-2" d="M31.25,65.06h0a9.37,9.37,0,0,0-9.34,9.34v54.55a9.34,9.34,0,1,0,18.68,0V74.4a9.37,9.37,0,0,0-9.34-9.34"/><path class="cls-3" d="M53.49,50.85h0a7.27,7.27,0,0,0-7.25,7.25v42.35a7.25,7.25,0,1,0,14.5,0V58.11a7.27,7.27,0,0,0-7.25-7.25"/><path class="cls-4" d="M75.27,34.69h0a5.9,5.9,0,0,0-5.88,5.88V74.9a5.88,5.88,0,1,0,11.76,0V40.57a5.9,5.9,0,0,0-5.88-5.88"/><path class="cls-5" d="M96.5,24h0a4.92,4.92,0,0,0-4.91,4.91V57.54a4.91,4.91,0,1,0,9.82,0V28.87A4.92,4.92,0,0,0,96.5,24"/><path class="cls-6" d="M117.48,15.47h0a3.73,3.73,0,0,0-3.72,3.72V40.91a3.72,3.72,0,1,0,7.44,0V19.19a3.73,3.73,0,0,0-3.72-3.72"/></g></g></svg>