<svg xmlns="http://www.w3.org/2000/svg" viewBox="0 0 232.59 168.31"><defs><style>.cls-1{font-size:13.86px;fill:#231f20;font-family:ProximaNova-Regular, Proxima Nova;}.cls-2{fill:none;stroke:#231f20;stroke-miterlimit:10;stroke-width:0.63px;}.cls-3{fill:#3a3a39;}.cls-4{fill:#898988;}.cls-5{fill:#b0b0b0;}</style></defs><title>Asset 85</title><g id="Layer_2" data-name="Layer 2"><g id="Layer_1-2" data-name="Layer 1"><text class="cls-1" transform="translate(29.22 165.4)">Width</text><text class="cls-1" transform="translate(195.43 165.4)">Depth</text><text class="cls-1" transform="translate(0 81.42)">Height</text><line class="cls-2" x1="61.04" y1="34.55" x2="61.04" y2="119.2"/><line class="cls-2" x1="59.09" y1="34.55" x2="62.99" y2="34.55"/><line class="cls-2" x1="59.09" y1="119.2" x2="62.99" y2="119.2"/><line class="cls-2" x1="64.3" y1="130.76" x2="127.92" y2="164.78"/><line class="cls-2" x1="63.38" y1="132.48" x2="65.22" y2="129.04"/><line class="cls-2" x1="127" y1="166.5" x2="128.84" y2="163.06"/><line class="cls-2" x1="218.94" y1="131.06" x2="155.32" y2="165.07"/><line class="cls-2" x1="219.86" y1="132.78" x2="218.02" y2="129.34"/><line class="cls-2" x1="156.24" y1="166.79" x2="154.4" y2="163.36"/><polygon class="cls-3" points="75.05 33.97 142.49 67.92 142.49 153.75 75.05 120.16 75.05 33.97"/><polygon class="cls-4" points="209.94 33.97 142.5 67.92 142.5 153.75 209.94 120.16 209.94 33.97"/><polygon class="cls-5" points="142.3 0 209.94 33.97 142.5 67.92 75.05 33.97 142.3 0"/></g></g></svg>